<?xml version="1.0" standalone="no"?>
<!DOCTYPE svg PUBLIC "-//W3C//DTD SVG 1.1//EN" "http://www.w3.org/Graphics/SVG/1.1/DTD/svg11.dtd" >
<svg xmlns="http://www.w3.org/2000/svg" xmlns:xlink="http://www.w3.org/1999/xlink" version="1.1">
<metadata></metadata>
<defs>
<font id="sharp_sansmedium_italic" horiz-adv-x="1024" >
<font-face units-per-em="2048" ascent="1536" descent="-512" />
<missing-glyph horiz-adv-x="503" />
<glyph horiz-adv-x="0" />
<glyph unicode="&#xd;" horiz-adv-x="503" />
<glyph horiz-adv-x="0" />
<glyph horiz-adv-x="0" />
<glyph unicode=" "  horiz-adv-x="503" />
<glyph unicode="&#x09;" horiz-adv-x="503" />
<glyph unicode="&#xa0;" horiz-adv-x="503" />
<glyph unicode="!" horiz-adv-x="546" d="M63 121q10 51 49.5 84t90.5 33q68 0 100.5 -46.5t22.5 -103.5q-10 -51 -49.5 -84t-92.5 -33q-66 0 -99.5 45t-21.5 105zM199 406q6 74 17 177t26.5 219t34 233.5t36.5 219.5l41 240h170l-41 -240q-18 -102 -42.5 -219.5t-50 -233.5t-51.5 -219.5t-46 -176.5h-94z" />
<glyph unicode="&#x22;" horiz-adv-x="681" d="M274 1082q0 40 2.5 85t4.5 88t6 68l30 172h136l-31 -172q-4 -25 -16.5 -68t-26.5 -88t-28.5 -85t-22.5 -58h-52q-2 18 -2 58zM519 1082q-1 40 1 85t4 88t6 68l31 172h135l-30 -172q-4 -25 -16.5 -68t-27 -88t-27.5 -85t-22 -58h-51q-2 18 -3 58z" />
<glyph unicode="#" horiz-adv-x="1761" d="M104 385l31 164h375l74 418h-375l29 163h374l64 365h172l-64 -365h416l64 365h172l-64 -365h373l-31 -163h-371l-73 -418h372l-30 -164h-371l-67 -385h-173l68 385h-416l-67 -385h-172l67 385h-377zM682 549h416l73 418h-415z" />
<glyph unicode="$" horiz-adv-x="1230" d="M59 252l154 104q41 -74 107.5 -129t158.5 -75l105 575q-63 29 -128 65.5t-113 89t-72.5 124t-8.5 172.5q27 150 150 241.5t309 96.5l29 163h147l-33 -178q106 -25 189.5 -81t136.5 -134l-146 -100q-70 121 -206 162l-90 -512q68 -33 132 -74t111 -98.5t69.5 -132.5 t4.5 -175q-27 -158 -150.5 -261t-316.5 -113l-29 -170h-149l31 178q-139 23 -235.5 94.5t-156.5 167.5zM438 1157q-10 -49 1.5 -87t36 -68.5t60 -56t76.5 -46.5l82 463q-113 -6 -178.5 -62.5t-77.5 -142.5zM627 143q109 14 177.5 75t84.5 153q10 53 1 95t-34 78t-61.5 64.5 t-79.5 53.5z" />
<glyph unicode="%" horiz-adv-x="1808" d="M68 0l1548 1495h215l-1546 -1495h-217zM270 1204q12 66 46 122t83.5 98t111.5 67t130 25q78 0 141.5 -31t106.5 -84t61.5 -123t5.5 -145q-12 -66 -44.5 -123.5t-82 -100.5t-112.5 -67.5t-133 -24.5q-80 0 -143.5 32t-105.5 85t-59.5 122.5t-5.5 147.5zM412 1190 q-8 -43 2 -85t34.5 -74t62.5 -51t87 -19q39 0 75 14t65.5 38.5t50 58.5t26.5 73q6 43 -4 85t-34.5 73.5t-61.5 51t-86 19.5q-82 0 -142.5 -53t-74.5 -131zM940 365q12 66 46 123t84 99t112.5 66.5t130.5 24.5q76 0 139.5 -32t106.5 -84t61 -122.5t6 -146.5q-12 -68 -45 -125 t-83 -99t-112.5 -67t-132.5 -25q-80 0 -143 32t-106 85t-60.5 123t-3.5 148zM1081 350q-6 -43 3.5 -84t34 -73.5t61.5 -52t86 -19.5q80 0 142 53t77 133q8 43 -2 84t-35 74t-62.5 52.5t-87.5 19.5q-82 0 -142 -54.5t-75 -132.5z" />
<glyph unicode="&#x26;" horiz-adv-x="1646" d="M102 430q14 84 58.5 148.5t106 113.5t136 87t152.5 71q-76 100 -106.5 186t-12.5 189q10 61 43 114.5t82 92t113.5 61.5t140.5 23q88 0 154.5 -30t109.5 -80t60.5 -116.5t5.5 -138.5q-12 -66 -45 -117t-80 -93t-106.5 -74.5t-122.5 -63.5q0 -2 2 -2l262 -312l381 410h206 l-483 -518l328 -381h-203l-231 268q-68 -68 -130.5 -122t-129 -91t-137 -57.5t-152.5 -20.5q-111 0 -193 38t-133 101.5t-70.5 145.5t-5.5 168zM272 420q-10 -59 3.5 -111.5t47 -91.5t85.5 -61.5t118 -22.5q59 0 113.5 17.5t105 50t101.5 77t104 99.5l-295 350l-10 10 q-68 -31 -130 -61.5t-113.5 -67.5t-85 -83t-44.5 -105zM591 1138.5q3 -30.5 15 -64.5t35 -72.5t59 -88.5q55 25 103.5 50.5t87.5 56.5t63.5 66.5t32.5 80.5q8 41 -1 78t-32.5 65.5t-60.5 45t-84 16.5q-86 0 -143.5 -47t-71.5 -125q-6 -31 -3 -61.5z" />
<glyph unicode="'" horiz-adv-x="436" d="M274 1082q0 40 2.5 85t4.5 88t6 68l30 172h136l-31 -172q-4 -25 -16.5 -68t-26.5 -88t-28.5 -85t-22.5 -58h-52q-2 18 -2 58z" />
<glyph unicode="(" horiz-adv-x="909" d="M140.5 244q-17.5 162 13.5 346q31 178 103.5 327.5t171.5 267.5t219 207t245 148l92 -139q-125 -57 -232.5 -137t-191.5 -183.5t-144.5 -231.5t-88.5 -282q-51 -305 39 -537.5t295 -391.5l-119 -132q-104 82 -189.5 193t-140.5 247t-72.5 298z" />
<glyph unicode=")" horiz-adv-x="909" d="M-74 -369q250 117 421 326t228 520q51 305 -37.5 534.5t-293.5 389.5l118 131q102 -82 187.5 -191.5t140.5 -244.5t72.5 -296t-12.5 -345q-31 -180 -101.5 -332t-169 -272.5t-216.5 -212t-243 -148.5z" />
<glyph unicode="*" horiz-adv-x="946" d="M203 1020l295 115l-254 118l98 129l207 -182l12 297h152l-88 -295l268 178l53 -131l-297 -114l254 -115l-98 -131l-203 178l-16 -295h-152l90 297l-270 -180z" />
<glyph unicode="+" d="M152 676l26 145h307l54 303h143l-53 -303h307l-27 -145h-307l-53 -309h-143l53 309h-307z" />
<glyph unicode="," horiz-adv-x="507" d="M2 -209q92 47 148.5 110.5t66.5 131.5q4 16 0 28q-10 -41 -34.5 -58t-59.5 -17q-47 0 -75 37.5t-17 87.5q8 51 49 86.5t102 35.5q74 0 115 -53t27 -143q-16 -102 -87 -181t-190 -143z" />
<glyph unicode="-" d="M123 451l27 145h757l-26 -145h-758z" />
<glyph unicode="." horiz-adv-x="483" d="M31 121q8 51 48 84t89 33q68 0 100.5 -46.5t22.5 -103.5q-10 -51 -48 -84t-91 -33q-66 0 -100 45t-21 105z" />
<glyph unicode="/" horiz-adv-x="1052" d="M-18 0l968 1495h187l-967 -1495h-188z" />
<glyph unicode="0" horiz-adv-x="1368" d="M145.5 395.5q-18.5 139.5 14.5 325.5l30 174q31 166 89.5 283.5t138.5 192.5t179 110t212 35q117 0 219 -38t170 -123t93.5 -221.5t-9.5 -334.5l-35 -197q-29 -160 -84 -277.5t-133 -194.5t-177 -113.5t-214 -36.5q-139 0 -244.5 46t-168 138t-81 231.5zM316.5 451.5 q11.5 -109.5 54.5 -178t114.5 -100.5t163.5 -32q74 0 140.5 27t124 85t99.5 150.5t66 225.5l33 190q29 156 13.5 259.5t-61.5 165t-116.5 87t-152.5 25.5q-80 0 -148.5 -26.5t-125 -86t-98.5 -154t-67 -231.5l-24 -143q-27 -154 -15.5 -263.5z" />
<glyph unicode="1" horiz-adv-x="796" d="M180 989l31 168h10q182 0 284.5 93t129.5 245h164l-262 -1495h-170l204 1163q-59 -84 -153 -129t-215 -45h-23z" />
<glyph unicode="2" horiz-adv-x="1204" d="M23 0l28 168q16 88 66.5 163t121 139.5t156.5 119.5t172 108q78 47 153 93.5t135 95.5t101 101t54 114q10 57 -6.5 106t-54.5 84t-94 55.5t-124 20.5q-115 0 -206 -52t-140 -134l-145 71q72 119 201.5 191t295.5 72q106 0 194.5 -32t149 -90.5t87 -138t8.5 -176.5 q-14 -84 -63.5 -153.5t-119 -130t-153.5 -113.5t-170 -104q-78 -47 -152 -94.5t-134 -97.5t-100 -104.5t-53 -117.5h783l-29 -164h-962z" />
<glyph unicode="3" horiz-adv-x="1183" d="M4 227l150 88q53 -94 148 -138t212 -44q63 0 123.5 17.5t109 51.5t82 83t43.5 112q12 66 -4 120t-55 94t-98.5 62.5t-134.5 22.5h-160l26 158h152q70 0 133.5 17.5t112.5 50t81.5 79t43.5 105.5q10 59 -5.5 108.5t-53.5 85t-95 55t-129 19.5q-123 0 -210 -44t-146 -120 l-127 90q72 92 196.5 154t296.5 62q111 0 200 -32t147.5 -88.5t82 -136t7.5 -176.5q-20 -109 -93 -189.5t-194 -125.5q111 -59 166 -161.5t30 -241.5q-16 -90 -62 -162t-116.5 -121t-161 -75.5t-192.5 -26.5q-90 0 -169 18t-144.5 52t-114.5 79t-78 98z" />
<glyph unicode="4" horiz-adv-x="1253" d="M66 358l26 158l887 979h174l-172 -981h211l-29 -156h-211l-61 -358h-166l63 358h-722zM285 514h530l131 731z" />
<glyph unicode="5" horiz-adv-x="1204" d="M41 268l164 74q37 -92 117.5 -149.5t193.5 -57.5q147 0 250.5 87t132.5 227q16 82 7 152.5t-45 120.5t-97.5 78.5t-149.5 28.5q-92 0 -165.5 -31.5t-129.5 -86.5l-145 67l217 717h780l-26 -160h-637l-131 -432q53 35 122.5 57.5t166.5 22.5q111 0 194.5 -40t137 -110.5 t73 -170t-1.5 -220.5q-18 -98 -65.5 -183t-119 -146.5t-166.5 -97t-208 -35.5q-174 0 -296 80.5t-173 207.5z" />
<glyph unicode="6" horiz-adv-x="1329" d="M155.5 441.5q-20.5 160.5 12.5 357.5q33 188 102.5 324.5t163.5 223.5t210 128t241 41q152 0 245 -35t164 -95l-120 -137q-47 47 -119 77t-181 30q-96 0 -184 -32t-159.5 -100.5t-125 -177t-79.5 -260.5q61 98 165.5 158t241.5 60q123 0 219.5 -46.5t157.5 -125t85 -181 t5 -215.5q-16 -94 -60 -177t-111.5 -145.5t-159.5 -98t-207 -35.5q-129 0 -234.5 50t-171.5 140q-80 111 -100.5 271.5zM326 549q-14 -78 1 -151.5t59 -133t114 -95.5t166 -36q72 0 134 24.5t111.5 66.5t81 100.5t43.5 126.5q12 76 -4 148.5t-58 128.5t-109.5 90t-155.5 34 q-76 0 -141.5 -22.5t-115 -62.5t-82 -96.5t-44.5 -121.5z" />
<glyph unicode="7" horiz-adv-x="1200" d="M176 0l858 1335h-794l28 160h979l-24 -147l-850 -1348h-197z" />
<glyph unicode="8" horiz-adv-x="1331" d="M98 459q18 121 105.5 211t226.5 137q-92 55 -136 144t-22 210q12 76 52.5 140.5t107 112.5t157.5 75t208 27q123 0 216 -35t151.5 -94.5t82 -138.5t6.5 -169q-20 -113 -90.5 -187.5t-177.5 -115.5q117 -59 172 -160.5t35 -224.5q-16 -90 -60.5 -165.5t-118 -130t-175 -85 t-230.5 -30.5q-133 0 -235.5 34.5t-170 98t-95 151.5t-9.5 195zM262 438q-10 -59 7.5 -113.5t63.5 -97.5t119 -68.5t171 -25.5q184 0 284.5 78t118.5 195q12 66 -5 122t-62.5 98t-119 65.5t-175.5 23.5q-186 0 -283.5 -77t-118.5 -200zM428 1139q-20 -119 60.5 -199 t246.5 -80q160 0 250 66.5t109 173.5q18 117 -56.5 191.5t-255.5 74.5q-168 0 -253 -62.5t-101 -164.5z" />
<glyph unicode="9" horiz-adv-x="1329" d="M90 160l135 123q51 -63 134 -104.5t200 -41.5q92 0 174 32t148.5 100.5t116 177t75.5 264.5v2q-63 -104 -168.5 -162.5t-240.5 -58.5q-123 0 -219.5 47t-158 125.5t-86 182t-5.5 216.5q16 96 62 179t116.5 143.5t164 94t203.5 33.5q131 0 236.5 -52t171.5 -142 q76 -104 94.5 -264t-16.5 -369q-33 -195 -97.5 -330t-153.5 -219t-198.5 -122t-232.5 -38q-166 0 -274.5 51.5t-180.5 131.5zM360 1047q-12 -78 3.5 -150t58.5 -129t109.5 -91t156.5 -34q76 0 141.5 21.5t115.5 61.5t83 95.5t45 122.5q14 74 1 148.5t-55 134t-112.5 96.5 t-171.5 37q-76 0 -139.5 -23.5t-111.5 -64.5t-79.5 -99.5t-44.5 -125.5z" />
<glyph unicode=":" horiz-adv-x="483" d="M31 121q8 51 48 84t89 33q68 0 100.5 -46.5t22.5 -103.5q-10 -51 -48 -84t-91 -33q-66 0 -100 45t-21 105zM172 922q8 51 48 82.5t89 31.5q68 0 100.5 -46t22.5 -101q-10 -53 -48 -85t-91 -32q-66 0 -99.5 45t-21.5 105z" />
<glyph unicode=";" horiz-adv-x="507" d="M2 -209q92 47 148.5 110.5t66.5 131.5q4 16 0 28q-10 -41 -34.5 -58t-59.5 -17q-47 0 -75 37.5t-17 87.5q8 51 49 86.5t102 35.5q74 0 115 -53t27 -143q-16 -102 -87 -181t-190 -143zM178 922q10 51 49 82.5t90 31.5q68 0 101 -46t22 -101q-10 -53 -49 -85t-92 -32 q-66 0 -99.5 45t-21.5 105z" />
<glyph unicode="&#x3c;" d="M154 678l24 143l809 285l-29 -154l-616 -207l545 -210l-29 -148z" />
<glyph unicode="=" d="M123 506l24 143h758l-24 -143h-758zM182 840l27 145h758l-27 -145h-758z" />
<glyph unicode="&#x3e;" d="M102 387l29 156l614 205l-540 213l24 145l707 -291l-27 -143z" />
<glyph unicode="?" horiz-adv-x="1142" d="M258 1337q66 80 176.5 129.5t241.5 49.5q102 0 186 -32t141.5 -88.5t81 -132t7.5 -163.5q-14 -86 -54.5 -141.5t-92.5 -96.5t-111.5 -76.5t-112.5 -84t-96 -118t-62 -175.5l-4 -19h-153l4 19q23 129 65.5 214t96 141t109.5 94t105.5 73t85 76t48.5 106q10 57 -5.5 104.5 t-50.5 81t-86 52t-114 18.5q-86 0 -159 -36t-120 -91zM307 121q8 51 48 83t91 32q68 0 101 -46.5t22 -101.5q-10 -53 -49 -86t-92 -33q-66 0 -99.5 46t-21.5 106z" />
<glyph unicode="@" horiz-adv-x="1779" d="M147 584q25 147 100 272t185.5 217t249.5 144.5t295 52.5q162 0 298 -59.5t228 -161t132 -237.5t14 -290q-12 -76 -41 -145.5t-75 -121.5t-107.5 -84t-141.5 -32q-88 0 -139 36t-72 89q-43 -53 -108.5 -89t-157.5 -36q-78 0 -138.5 31t-97 82t-51 119.5t-0.5 144.5 q12 70 47 136.5t87.5 116.5t121 81t146.5 31q82 0 136 -36t83 -89q4 25 8 44t8 36q4 16 6 30h146l-90 -370q-31 -117 -5.5 -163t93.5 -46q39 0 71.5 22.5t59 58t44 82t25.5 93.5q20 119 -8.5 225t-99 186t-179 127t-247.5 47q-123 0 -236.5 -43t-205 -117.5t-154 -178 t-82.5 -222.5q-25 -133 1 -259t96.5 -223t183 -155.5t264.5 -58.5q115 0 208 37t179 108l110 -100q-100 -90 -226 -137t-284 -47q-178 0 -318 68.5t-230.5 185t-126 271.5t-5.5 327zM668 502q-6 -45 2 -85t29.5 -71t56.5 -48t80 -17q49 0 90 18t72.5 50t52 73t30.5 86 q12 49 8 91t-24.5 75t-53 51t-77.5 18q-51 0 -96 -20.5t-80 -54t-58.5 -77.5t-31.5 -89z" />
<glyph unicode="A" horiz-adv-x="1495" d="M-29 0l863 1495h174l325 -1495h-172l-80 375h-712l-213 -375h-185zM461 537h586l-158 753z" />
<glyph unicode="B" horiz-adv-x="1425" d="M76 0l262 1495h623q104 0 185 -36t133 -96q53 -60 73 -139q12 -47 12 -96q0 -33 -6 -67q-18 -104 -82 -186t-170 -125q94 -56 142 -150q33 -65 33 -144q0 -37 -7 -77q-31 -172 -166 -275.5t-350 -103.5h-682zM272 160h498q139 0 225 68.5t107 179.5q4 23 4 45 q0 34 -10 66q-16 52 -51 90t-89.5 59.5t-124.5 21.5h-466zM393 846h498q63 0 114.5 17.5t89.5 48t62.5 71.5t32.5 88q5 25 5 49q0 28 -7 54q-12 48 -45 85t-85 58.5t-120 21.5h-459z" />
<glyph unicode="C" horiz-adv-x="1669" d="M178 829q25 147 98.5 273.5t183 218.5t249 143.5t297.5 51.5q236 0 395.5 -100.5t249.5 -293.5l-164 -78q-35 80 -80 138.5t-105.5 95.5t-137.5 55.5t-177 18.5q-119 0 -226.5 -41t-191.5 -113t-142 -171t-79 -218q-10 -60 -10 -118q0 -70 15 -136q28 -121 99.5 -212 t185.5 -145.5t261 -54.5q154 0 286 70t224 199l147 -101q-123 -164 -292.5 -247.5t-380.5 -83.5q-188 0 -332.5 68.5t-238 184t-129.5 269.5q-19 83 -19 172q0 75 14 155z" />
<glyph unicode="D" horiz-adv-x="1529" d="M76 0l262 1495h434q164 -2 298 -65.5t223 -171.5q89 -110 127 -254q22 -83 21 -171q0 -65 -11 -133q-27 -154 -100 -281.5t-180.5 -221t-245.5 -145.5t-294 -52h-534zM274 160h349q117 0 222 41t190 114.5t142.5 175t79.5 222.5q10 58 10 113q-1 66 -15 128 q-28 114 -96.5 198.5t-172.5 134.5t-235 50h-267z" />
<glyph unicode="E" horiz-adv-x="1292" d="M76 0l262 1495h979l-29 -160h-811l-86 -501h809l-29 -162h-809l-90 -510h811l-28 -162h-979z" />
<glyph unicode="F" horiz-adv-x="1245" d="M76 0l262 1495h958l-28 -162h-787l-92 -522h787l-29 -162h-787l-112 -649h-172z" />
<glyph unicode="G" horiz-adv-x="1767" d="M176 829q25 143 96.5 269.5t180 218.5t247 145.5t297.5 53.5q111 0 209.5 -28t179 -78t144 -118.5t106.5 -150.5l-163 -86q-72 141 -195 219t-297 78q-121 0 -228.5 -42t-190.5 -116t-139 -172t-77 -211q-10 -58 -10 -115q0 -68 15 -134q28 -120 100.5 -212t184.5 -147.5 t257 -55.5q117 0 214 37t172 101.5t126 153.5t76 192h-598l30 162h777l-11 -62q-20 -164 -85.5 -302t-170 -237.5t-241.5 -155.5t-303 -56q-176 0 -319.5 68.5t-239 185t-135.5 270.5q-23 86 -23 178q0 72 14 147z" />
<glyph unicode="H" horiz-adv-x="1482" d="M76 0l262 1495h172l-117 -664h795l117 664h172l-263 -1495h-172l117 668h-794l-117 -668h-172z" />
<glyph unicode="I" horiz-adv-x="550" d="M94 0l262 1495h172l-262 -1495h-172z" />
<glyph unicode="J" horiz-adv-x="1056" d="M18 258l162 57q27 -80 87.5 -128t158.5 -48q117 0 182.5 74t85.5 186l195 1096h172l-193 -1085q-35 -205 -147 -317.5t-309 -112.5q-150 0 -253.5 76.5t-140.5 201.5z" />
<glyph unicode="K" horiz-adv-x="1400" d="M76 0l262 1495h174l-145 -829l880 829h223l-630 -592l405 -903h-186l-352 795l-381 -359l-76 -436h-174z" />
<glyph unicode="L" horiz-adv-x="1220" d="M76 0l262 1495h172l-236 -1331h770l-28 -164h-940z" />
<glyph unicode="M" horiz-adv-x="1763" d="M76 0l262 1495h154l415 -725l697 725h153l-262 -1495h-170l211 1204l-668 -694l-409 713l-213 -1223h-170z" />
<glyph unicode="N" horiz-adv-x="1562" d="M76 0l262 1495h178l653 -1237l220 1237h167l-262 -1495h-168l-663 1251l-219 -1251h-168z" />
<glyph unicode="O" horiz-adv-x="1792" d="M178 829q27 150 100.5 276t181 217t244 142.5t285.5 51.5q180 0 321.5 -73t233.5 -191.5t129 -272.5q21 -86 21 -175q0 -69 -13 -140q-27 -150 -99.5 -275t-180 -216t-242.5 -142t-287 -51q-176 0 -317 67.5t-235.5 184t-133.5 270.5q-22 86 -22 178q0 73 14 149z M348 811q-10 -60 -10 -117q0 -72 16 -139q29 -121 101.5 -213t182.5 -145.5t249 -53.5q117 0 221 41t187 113t140.5 171t77.5 214q11 58 11 115q0 66 -14 131q-26 121 -97.5 216t-182 152.5t-255.5 57.5q-117 0 -222.5 -41t-188.5 -114t-139 -172t-77 -216z" />
<glyph unicode="P" horiz-adv-x="1400" d="M76 0l262 1495h516q115 0 214 -41t169 -114q69 -74 101 -178q19 -62 19 -131q0 -48 -9 -101q-16 -104 -67.5 -192.5t-130.5 -153t-183.5 -100t-229.5 -35.5h-411l-78 -449h-172zM354 606h394q88 0 162.5 26.5t130 73t91 111t48.5 137.5q6 33 6 65q0 46 -12 87 q-20 70 -66.5 122t-117 81.5t-159.5 29.5h-348z" />
<glyph unicode="Q" horiz-adv-x="1798" d="M178 829q27 150 100.5 276t182 217t244 142.5t282.5 51.5q180 0 322.5 -73t234.5 -191.5t130 -272.5q22 -87 22 -177q0 -68 -13 -138q-25 -129 -85 -243t-150 -204l147 -217h-194l-78 117q-98 -66 -211 -101.5t-235 -35.5q-176 0 -317.5 68.5t-237 185t-135.5 270.5 q-23 86 -23 178q0 72 14 147zM348 811q-10 -58 -10 -113q0 -73 17 -141q30 -121 102.5 -213t183.5 -146.5t250 -54.5q94 0 181 27t161 76l-268 399h194l193 -295q59 68 102 151t59 181q11 58 11 115q0 66 -14 131q-27 121 -98 216t-182.5 152.5t-254.5 57.5 q-117 0 -221.5 -41t-187.5 -114t-140 -172t-78 -216z" />
<glyph unicode="R" horiz-adv-x="1429" d="M76 0l262 1495h569q123 0 219.5 -41t159 -113.5t88.5 -170.5q14 -54 14 -113q0 -49 -10 -101q-14 -80 -52 -149.5t-93 -123.5t-125 -92t-145 -52l286 -539h-190l-271 524h-448l-92 -524h-172zM367 676h440q166 0 271.5 80t129.5 223q7 39 7 74q0 110 -65 185 q-85 99 -267 103h-400z" />
<glyph unicode="S" horiz-adv-x="1316" d="M8 295l156 117q80 -133 200.5 -204t286.5 -71q158 0 245 68.5t105 175.5q5 27 5 51q0 46 -18 81q-27 52 -80.5 89t-127 62.5t-153.5 50.5q-86 27 -166 60.5t-138.5 85.5t-86.5 127q-17 44 -17 101q0 40 8 85q12 76 53.5 139t107 109t152.5 72t191 26q197 0 339 -73 t241 -187l-150 -111q-82 104 -188.5 160.5t-259.5 56.5q-141 0 -221 -59.5t-97 -151.5q-4 -24 -4 -46q-1 -42 15 -74q24 -48 73 -82.5t119 -59.5t150 -51q88 -29 173 -65t149 -90q62 -54 94 -133q19 -48 20 -111q0 -40 -8 -85q-14 -80 -57.5 -149.5t-111 -121.5t-158.5 -82 t-204 -30q-117 0 -213 24t-175 67t-140.5 101t-108.5 128z" />
<glyph unicode="T" horiz-adv-x="1323" d="M246 1335l28 160h1106l-26 -160h-469l-234 -1335h-172l234 1335h-467z" />
<glyph unicode="U" horiz-adv-x="1480" d="M168 569l164 926h172l-166 -944q-8 -45 -8 -86t8 -79q16 -75 61 -130t118 -86t173 -31q98 0 175 30t133.5 82t91 122.5t49.5 150.5l170 971h172l-170 -969q-23 -127 -74 -227t-131 -172t-187.5 -109.5t-240.5 -37.5q-129 0 -233.5 39.5t-174.5 115.5q-69 75 -98 185 q-16 59 -16 127q0 58 12 122z" />
<glyph unicode="V" horiz-adv-x="1476" d="M233 1495h173l264 -1278l723 1278h184l-854 -1495h-172z" />
<glyph unicode="W" horiz-adv-x="2215" d="M252 1495h176l129 -1227l614 1227h164l205 -1235l576 1235h180l-709 -1495h-168l-207 1247l-620 -1247h-170z" />
<glyph unicode="X" horiz-adv-x="1374" d="M-33 0l662 786l-355 709h187l289 -590l483 590h207l-613 -731l383 -764h-188l-311 643l-529 -643h-215z" />
<glyph unicode="Y" horiz-adv-x="1382" d="M213 1495h178l328 -729l579 729h201l-723 -897l-104 -598h-172l108 621z" />
<glyph unicode="Z" horiz-adv-x="1347" d="M33 0l26 158l1080 1179h-840l27 158h1048l-26 -156l-1072 -1175h873l-29 -164h-1087z" />
<glyph unicode="[" horiz-adv-x="872" d="M-4 -471l346 1966h559l-29 -160h-387l-290 -1646h387l-27 -160h-559z" />
<glyph unicode="\" horiz-adv-x="1052" d="M246 1495h178l450 -1495h-178z" />
<glyph unicode="]" horiz-adv-x="872" d="M-14 -471l28 160h385l291 1646h-385l29 160h559l-346 -1966h-561z" />
<glyph unicode="^" horiz-adv-x="1083" d="M324 1083l311 344h121l192 -344h-149l-119 220l-195 -220h-161z" />
<glyph unicode="_" d="M-4 -242l29 144h757l-24 -144h-762z" />
<glyph unicode="`" horiz-adv-x="1083" d="M487 1575h193l180 -330h-135z" />
<glyph unicode="a" horiz-adv-x="1390" d="M115 618q20 111 74.5 204t133 162t178 106.5t208.5 37.5q160 0 266 -70.5t153 -185.5l43 234h170l-194 -1106h-168l31 178q-68 -92 -166.5 -146.5t-225.5 -54.5q-129 0 -232 51.5t-171 139.5q-67 88 -95 204q-15 63 -15 131q0 56 10 115zM281 598q-6 -39 -5 -76 q0 -51 10 -99q19 -83 68 -147.5t124 -102.5t173 -38q78 0 149.5 29t128 81t96.5 122.5t54 154.5q8 43 8 84q0 44 -9 85q-17 81 -65 144.5t-123 101.5t-175 38q-80 0 -151.5 -28.5t-130 -79t-98.5 -119t-54 -150.5z" />
<glyph unicode="b" horiz-adv-x="1390" d="M53 0l283 1614h172q-23 -119 -43 -236q-18 -100 -36.5 -213.5t-35.5 -206.5q72 78 168 124t215 46q129 0 231.5 -52t170.5 -141t94 -206q14 -64 14 -131q0 -56 -10 -115q-18 -111 -71.5 -204t-132.5 -160.5t-177.5 -104.5t-204.5 -37q-160 0 -267.5 71t-158.5 188 l-41 -236h-170zM313 592q-7 -40 -7 -78q0 -47 10 -93q20 -83 69 -146.5t125 -101.5t174 -38q78 0 149.5 27.5t129 77t97.5 118t54 148.5q6 38 6 76q0 49 -10 97q-18 85 -66.5 150.5t-123 105.5t-170.5 40q-78 0 -151 -28.5t-131 -80t-99 -122t-56 -152.5z" />
<glyph unicode="c" horiz-adv-x="1261" d="M117 623q18 111 73.5 204t135.5 159.5t180 104t213 37.5q195 0 318.5 -86t183.5 -223l-160 -74q-41 100 -124 164t-226 66q-74 0 -145.5 -26.5t-130 -76t-99.5 -118t-55 -152.5q-7 -41 -7 -80q0 -49 11 -96q20 -84 69 -148.5t126 -103.5t175 -39q113 0 206 52.5 t153 150.5l151 -82q-82 -131 -217 -205t-303 -74q-139 0 -247.5 53.5t-178 142.5t-97.5 206q-15 64 -15 131q0 56 10 113z" />
<glyph unicode="d" horiz-adv-x="1392" d="M117 623q18 111 72.5 204t133 159.5t178 104t208.5 37.5q160 0 267 -70.5t154 -185.5l130 742h170l-285 -1614h-164l31 174q-72 -88 -172.5 -142.5t-223.5 -54.5q-129 0 -231 52.5t-170 140.5q-69 88 -95 206q-14 63 -14 129q0 58 11 118zM281 600q-6 -38 -6 -75 q0 -50 11 -99q19 -84 68 -148.5t125 -103.5t174 -39q76 0 147.5 29t128 79t96.5 119.5t54 151.5q8 44 8 86q0 45 -9 87q-17 83 -64 146.5t-123 102.5t-174 39q-80 0 -152.5 -27.5t-131 -77t-98.5 -119t-54 -151.5z" />
<glyph unicode="e" horiz-adv-x="1331" d="M116 370q-11 58 -11 120q0 63 12 131q20 106 73.5 199t133 162t185 107.5t230.5 38.5q129 0 229.5 -46t165.5 -126q66 -78 92 -186q16 -64 16 -134q0 -47 -7 -97l-8 -45h-959q2 -164 104.5 -264.5t295.5 -100.5q111 0 194.5 43t151.5 123l133 -100q-94 -106 -213 -162 t-277 -56q-156 0 -268.5 51.5t-181.5 138.5t-91 203zM287 641h792q-2 158 -92 250t-260 92q-174 -2 -287.5 -95t-152.5 -247z" />
<glyph unicode="f" horiz-adv-x="784" d="M117 956l26 150h203l16 88q23 129 53.5 211t80 128t124 63.5t185.5 17.5h90l-29 -158h-75q-66 0 -110 -8t-72.5 -36t-47 -80t-33.5 -140l-16 -86h295l-27 -150h-295l-168 -956h-163l165 956h-202z" />
<glyph unicode="g" horiz-adv-x="1390" d="M57 -164l174 58q37 -98 120 -152.5t218 -54.5q88 0 160 28.5t125 80.5t87 125t48 161q0 -2 4 17.5t8 50.5q-63 -78 -156 -125.5t-216 -47.5q-135 0 -239.5 52.5t-173.5 141.5t-96 206q-14 63 -14 129q0 57 11 117q18 111 72.5 203t133 159.5t177 105t209.5 37.5 q160 0 266 -71.5t153 -184.5l43 234h170l-180 -1020q-25 -127 -72 -229.5t-120.5 -174t-176 -110.5t-237.5 -39q-186 0 -314 81t-184 222zM281 600q-7 -40 -7 -79q0 -48 11 -95q20 -84 69 -148.5t125 -103.5t174 -39q78 0 148.5 29t128 79t95.5 119.5t52 151.5q8 43 8 84 q0 44 -9 87q-17 83 -64 147.5t-123 103.5t-174 39q-80 0 -151.5 -27.5t-130 -78t-98.5 -119t-54 -150.5z" />
<glyph unicode="h" horiz-adv-x="1298" d="M53 0l283 1614h170l-121 -674q68 90 165 139t220 49q111 0 194 -36.5t134 -105.5q50 -68 68 -164q8 -44 9 -93q0 -58 -12 -123l-106 -606h-172l106 606q10 54 10 100q-1 102 -47 172q-68 102 -235 101q-168 0 -262.5 -101.5t-126.5 -287.5l-105 -590h-172z" />
<glyph unicode="i" horiz-adv-x="471" d="M53 0l195 1106h170l-195 -1106h-170zM264 1462q8 51 48 83t87 32q69 0 101 -47q25 -36 24 -77q0 -13 -2 -26q-10 -51 -48 -82.5t-91 -31.5q-63 0 -97 45q-25 33 -25 74q0 15 3 30z" />
<glyph unicode="j" horiz-adv-x="473" d="M-279 -473l29 158q78 0 127 9t82 37.5t51.5 81t34.5 136.5q0 2 9 54t23.5 133t33 184.5t36.5 211.5q43 252 101 574h172l-205 -1159q-20 -123 -49 -204t-78 -129t-124 -67.5t-187 -19.5h-56zM266 1462q8 51 48 83t89 32q66 0 97 -47q24 -36 24 -77q0 -13 -2 -26 q-8 -51 -46 -82.5t-89 -31.5q-66 0 -99 45q-24 34 -24 77q0 13 2 27z" />
<glyph unicode="k" horiz-adv-x="1169" d="M53 0l283 1614h170l-193 -1098l680 590h224l-535 -467l354 -639h-186l-299 545l-275 -236l-53 -309h-170z" />
<glyph unicode="l" horiz-adv-x="468" d="M53 0l283 1614h170l-283 -1614h-170z" />
<glyph unicode="m" horiz-adv-x="2027" d="M51 0l195 1106h166l-31 -172q61 94 152.5 144t209.5 50q129 0 220.5 -59t126.5 -164q70 109 175 166t236 57q109 0 192 -38.5t133 -108.5t68 -165q9 -44 9 -93q0 -55 -11 -115l-108 -608h-170l104 596q10 57 10 109q0 21 -2 43q-6 70 -36.5 122t-87 80.5t-140.5 28.5 q-154 -2 -237.5 -104.5t-114.5 -268.5l-106 -606h-170l108 616q9 54 9 101q-1 99 -41 165q-60 98 -212 97q-78 0 -140 -28.5t-108.5 -79t-78 -121t-45.5 -154.5q0 -4 -5.5 -31.5t-12.5 -70.5t-16 -95.5t-20 -107.5q-23 -129 -51 -291h-170z" />
<glyph unicode="n" horiz-adv-x="1300" d="M51 0l195 1106h168l-31 -166q66 92 162 140t219 48q113 0 198 -36.5t137 -105.5q53 -68 71 -164q9 -45 9 -96q0 -57 -12 -120l-108 -606h-172l106 606q10 53 10 99q1 103 -47 173q-68 102 -239 101q-170 0 -264.5 -107.5t-126.5 -289.5l-105 -582h-170z" />
<glyph unicode="o" horiz-adv-x="1368" d="M117 629q18 106 72.5 197.5t134 159t183 105t222.5 37.5q133 0 240.5 -51t178.5 -139q70 -88 100 -208q16 -65 17 -135q0 -59 -12 -122q-18 -109 -71.5 -200t-132 -156.5t-182 -102.5t-222.5 -37q-135 0 -243.5 50.5t-180 138.5t-100.5 207q-16 64 -16 133q0 60 12 123z M283 606q-9 -49 -9 -94q0 -48 10 -92q19 -86 68 -149.5t125 -100.5t170 -37q86 0 160 25.5t132 73t96 114t55 150.5q8 46 8 91q0 46 -8 90q-16 87 -64.5 153.5t-125.5 106.5t-181 40q-88 0 -162 -26.5t-130 -76t-93 -118t-51 -150.5z" />
<glyph unicode="p" horiz-adv-x="1392" d="M-31 -477l281 1583h166l-33 -184q70 92 171 148t230 56q127 0 228.5 -52t168 -140t93.5 -205q14 -64 14 -131q0 -56 -10 -115q-18 -111 -71.5 -204t-132.5 -160.5t-177 -105.5t-209 -38q-160 0 -267.5 72t-154.5 189l-125 -713h-172zM317 592q-8 -43 -8 -84q0 -46 9 -89 q18 -83 66 -146.5t124 -102.5t174 -39q80 0 152.5 27.5t130 78t96.5 119t53 148.5q6 39 6 78q0 49 -10 96q-18 84 -67.5 148.5t-125 103.5t-174.5 39q-78 0 -148.5 -29t-126.5 -79t-96 -119.5t-55 -149.5z" />
<glyph unicode="q" horiz-adv-x="1392" d="M117 623q18 111 72.5 204t133 159.5t178 104t208.5 37.5q160 0 267 -71.5t154 -188.5l44 238h169l-280 -1579h-168q18 104 39 215q16 94 35.5 203.5t36.5 208.5q-68 -82 -165.5 -129.5t-222.5 -47.5q-129 0 -232 52.5t-171 140.5t-95 206q-14 63 -14 129q0 58 11 118z M281 600q-6 -38 -6 -75q0 -51 11 -99q19 -84 68 -148.5t125 -103.5t174 -39q76 0 147.5 29t128 79t96.5 119.5t54 151.5q8 44 8 86q0 44 -9 87q-17 83 -65 146.5t-123 102.5t-175 39q-80 0 -151.5 -27.5t-130 -77t-98.5 -119t-54 -151.5z" />
<glyph unicode="r" horiz-adv-x="843" d="M51 0l195 1106h164l-39 -217q55 104 144 160.5t216 56.5h121l-33 -172h-104q-90 0 -158 -26.5t-116 -76t-78.5 -118t-45.5 -150.5l-98 -563h-168z" />
<glyph unicode="s" horiz-adv-x="1077" d="M-4 223l149 99q51 -86 147.5 -141.5t221.5 -55.5q115 0 178.5 47t77.5 121q2 13 2 24q0 31 -14 53q-20 32 -59.5 56.5t-93.5 42.5l-111 37q-70 20 -137.5 47t-117 68t-73.5 99q-14 34 -13 77q0 31 7 67q25 125 134 195.5t277 70.5q164 0 278 -57t193 -155l-143 -95 q-57 80 -138 123t-204 43q-102 0 -160.5 -38t-70.5 -105q-2 -13 -2 -25q0 -29 13 -51q19 -31 57 -54.5t91.5 -42t112.5 -36.5q68 -20 135.5 -48t116.5 -69q48 -42 74 -102q16 -39 17 -88q0 -27 -5 -58q-10 -61 -44 -115.5t-89 -94t-131 -62.5t-170 -23q-90 0 -168 19.5 t-141.5 53.5t-113.5 79t-83 94z" />
<glyph unicode="t" horiz-adv-x="784" d="M117 956l26 150h203l47 264l185 94l-64 -358h281l-27 -150h-281l-94 -530q-14 -75 -15 -125q0 -6 1 -12q2 -53 26.5 -83t77 -41t138.5 -11h6l-27 -154h-25q-119 0 -196.5 20.5t-118.5 69.5t-48 131q-2 20 -2 42q0 70 17 163l92 530h-202z" />
<glyph unicode="u" horiz-adv-x="1249" d="M122 282q-6 39 -7 82q0 63 14 134l107 608h172l-107 -604q-9 -51 -9 -97q0 -101 44 -173q64 -104 219 -103q141 0 238.5 96.5t130.5 274.5l108 606h168l-194 -1106h-168l28 168q-66 -92 -156.5 -141.5t-207.5 -49.5q-109 0 -187.5 37t-127.5 104.5t-65 163.5z" />
<glyph unicode="v" horiz-adv-x="1159" d="M145 1106h174l185 -899l518 899h186l-653 -1106h-170z" />
<glyph unicode="w" horiz-adv-x="1875" d="M166 1106h170l88 -881l510 881h162l145 -885l475 885h191l-613 -1106h-174l-147 874l-518 -874h-170z" />
<glyph unicode="x" horiz-adv-x="1206" d="M-39 0l545 575l-313 531h186l248 -424l393 424h215l-524 -551l340 -555h-193l-268 444l-416 -444h-213z" />
<glyph unicode="y" horiz-adv-x="1216" d="M-193 -264l142 110q27 -45 64.5 -71.5t101.5 -26.5q33 0 65.5 9.5t66.5 33t68.5 65.5t75.5 109l64 105l-305 1036h176l243 -846l496 846h190l-718 -1194q-55 -92 -105.5 -154.5t-100.5 -99.5t-105.5 -53.5t-121.5 -16.5q-104 0 -179 41t-118 107z" />
<glyph unicode="z" horiz-adv-x="1187" d="M16 0l27 152l872 804h-712l28 150h938l-28 -150l-871 -804h740l-27 -152h-967z" />
<glyph unicode="{" horiz-adv-x="903" d="M111 432l26 160q63 0 103.5 10t65 35t38.5 65.5t25 102.5l43 246q23 125 59.5 210t97 137t151.5 74.5t220 22.5h23l-27 -154q-96 0 -157.5 -13t-99.5 -46t-60.5 -89t-36.5 -144l-43 -246q-23 -121 -66 -191.5t-129 -103.5q74 -35 92.5 -104.5t-2.5 -184.5l-43 -244 q-16 -88 -14 -144t29.5 -89t85 -46t153.5 -13l-29 -154h-22q-129 0 -211 22.5t-126 74.5t-51 137t15 210l43 244q10 59 12.5 100t-13 67t-52.5 37t-100 11z" />
<glyph unicode="|" horiz-adv-x="493" d="M-8 -471l348 1966h172l-346 -1966h-174z" />
<glyph unicode="}" horiz-adv-x="923" d="M-25 -471l27 154q96 0 157.5 13t100.5 46t60.5 89t35.5 144l43 242q20 119 63.5 189.5t129.5 103.5q-74 35 -93.5 104.5t3.5 186.5l45 248q14 88 13 144t-28.5 89t-85 46t-151.5 13l27 154h22q129 0 211 -22.5t126 -74.5t51 -137t-15 -210l-45 -248q-10 -59 -11.5 -100 t14 -67t51.5 -37t101 -11l-28 -160q-61 0 -101.5 -10t-66 -35t-39.5 -66t-25 -102l-41 -242q-23 -125 -59.5 -210t-98 -137t-151.5 -74.5t-219 -22.5h-23z" />
<glyph unicode="~" d="M291 1200q23 104 85 169t150 65q47 0 83 -16.5t67 -39.5q29 -20 55.5 -35.5t56.5 -15.5q72 0 97 96h121q-23 -106 -84.5 -169.5t-155.5 -63.5q-55 0 -93 20.5t-69 40.5q-29 18 -51.5 31.5t-50.5 13.5q-70 0 -92 -96h-119z" />
<glyph unicode="&#xa1;" horiz-adv-x="546" d="M8 -471l41 240q18 102 42 221t49.5 234.5t51 219t46.5 177.5h94q-6 -74 -17.5 -177.5t-27 -219t-32.5 -234.5t-36 -221l-41 -240h-170zM207 938q10 51 49 84t90 33q68 0 100.5 -46t22.5 -104q-10 -51 -49 -84t-92 -33q-66 0 -99.5 45.5t-21.5 104.5z" />
<glyph unicode="&#xa2;" horiz-adv-x="1282" d="M138.5 385q-15.5 92 2.5 190q18 96 64.5 178.5t115 145t154.5 100t184 43.5l46 248h169l-47 -260q125 -31 213 -113.5t127 -197.5l-155 -60q-35 100 -116 167t-206 67q-66 0 -130 -24.5t-116.5 -69.5t-90.5 -107.5t-50 -136.5q-14 -82 3.5 -156.5t62.5 -133t113.5 -93.5 t156.5 -35q111 0 202 60.5t142 158.5l145 -71q-68 -137 -196.5 -219t-290.5 -86l-41 -246h-170l45 266q-92 27 -162.5 83t-114.5 133t-59.5 169z" />
<glyph unicode="&#xa3;" horiz-adv-x="1552" d="M76 233q16 78 80.5 128.5t169.5 52.5q78 0 144.5 -29t125.5 -70q4 12 8 33q16 86 -4 165t-51 159h-295l22 135h222q-27 76 -40.5 158t3.5 178q14 84 56 152.5t106.5 117.5t146.5 76t178 27q150 0 253.5 -56.5t160.5 -161.5l-158 -61q-86 131 -264 131q-123 0 -206 -66.5 t-101 -171.5q-16 -86 0 -165.5t43 -157.5h416l-23 -135h-346q23 -74 34 -150t-3 -162q-6 -33 -15.5 -65.5t-25.5 -65.5q59 -45 122.5 -76.5t135.5 -31.5q111 0 166 56t80 194l14 73h176l-18 -94q-33 -180 -124 -275t-272 -95q-111 0 -194.5 43t-155.5 96 q-53 -61 -128 -101.5t-177 -40.5q-66 0 -119 17.5t-89 50.5t-50 81t-4 107zM209 207q-10 -53 26.5 -88t102.5 -35q63 0 115.5 30.5t89.5 84.5q-53 41 -104.5 68.5t-104.5 27.5t-85 -24.5t-40 -63.5z" />
<glyph unicode="&#xa4;" horiz-adv-x="1669" d="M147 211l265 238q-43 66 -66.5 141.5t-21.5 161.5q2 98 34.5 184t92.5 154l-175 208l119 105l178 -211q129 82 291 82q94 -2 178 -34t152 -87l246 223l100 -110l-244 -226q45 -66 69 -143.5t21 -163.5q-2 -102 -37.5 -190t-97.5 -158l162 -188l-119 -105l-164 193 q-63 -37 -134.5 -57.5t-149.5 -18.5q-98 2 -183 34.5t-153 90.5l-260 -236zM492 750q-2 -78 24.5 -146.5t74.5 -121t113.5 -84t141.5 -33.5t143.5 26.5t117.5 78.5t80 117.5t32 145.5t-25 147.5t-75 122t-113.5 83t-141.5 32.5q-78 2 -144.5 -26.5t-116.5 -77.5t-79.5 -118 t-31.5 -146z" />
<glyph unicode="&#xa5;" horiz-adv-x="1390" d="M229 272l25 140h336l39 219h-338l26 139h332l-358 725h182l285 -592l491 592h197l-615 -725h332l-24 -139h-340l-39 -219h340l-25 -140h-338l-47 -272h-170l47 272h-338z" />
<glyph unicode="&#xa6;" horiz-adv-x="493" d="M-4 -471l151 860h172l-151 -860h-172zM190 635l152 860h172l-152 -860h-172z" />
<glyph unicode="&#xa7;" horiz-adv-x="1296" d="M113 252l174 49q14 -39 46 -71.5t75 -57.5t94 -38t106 -13q109 0 183.5 41t89.5 119q8 47 -14.5 78.5t-66.5 53t-105.5 38t-129.5 32.5q-96 25 -173 53.5t-128 68.5t-73.5 94.5t-8.5 129.5q12 74 74.5 128.5t157.5 76.5q-41 39 -60.5 89.5t-9.5 115.5q25 135 146.5 208 t302.5 69q80 0 148.5 -17.5t122.5 -48.5t92 -71t56 -83l-170 -51q-23 57 -93 97t-169 40q-109 0 -184.5 -33.5t-87.5 -115.5q-8 -43 13.5 -75t64.5 -55.5t102.5 -41t126.5 -33.5q88 -23 166 -48.5t132 -63t81 -91t14 -127.5q-16 -78 -76.5 -135t-144.5 -84q39 -35 56.5 -82 t7.5 -110q-10 -76 -49 -133.5t-99.5 -97.5t-139.5 -59t-167 -17q-92 0 -173 22.5t-143.5 60t-105.5 87t-61 102.5zM354 829q-8 -43 13.5 -75.5t64.5 -58t105.5 -45.5t136.5 -38q115 -29 203 -65q68 18 108.5 55t50.5 84q8 43 -14.5 74t-66.5 55.5t-108.5 44t-139.5 39.5 q-49 12 -99.5 28.5t-95.5 39.5q-70 -18 -111 -54t-47 -84z" />
<glyph unicode="&#xa8;" horiz-adv-x="1087" d="M397 1393q8 45 43 72.5t78 27.5q59 0 87 -40t18 -89q-6 -45 -39 -71.5t-80 -26.5q-57 0 -87 36.5t-20 90.5zM768 1393q6 45 42 72.5t79 27.5q57 0 86 -40t18 -89q-8 -45 -41 -71.5t-80 -26.5q-55 0 -84.5 36.5t-19.5 90.5z" />
<glyph unicode="&#xa9;" horiz-adv-x="1802" d="M190 829q27 150 102 276t182.5 217t242.5 142.5t282 51.5q174 0 316.5 -70t237 -186.5t134 -271t9.5 -324.5q-27 -147 -100.5 -273.5t-181 -217.5t-243 -142t-282.5 -51q-174 0 -316.5 68.5t-236.5 185t-134 270t-12 325.5zM340 813q-23 -133 7 -257t103.5 -220 t189 -153.5t265.5 -57.5q119 0 225.5 42t192.5 116.5t144.5 177t80.5 223.5q23 131 -4.5 255t-100.5 221t-187.5 156.5t-262.5 59.5q-123 0 -231.5 -43t-195.5 -117.5t-146.5 -178t-79.5 -224.5zM555 788q14 78 54 145.5t98.5 117t133 78t156.5 28.5q119 0 205 -58.5 t125 -152.5l-141 -65q-25 61 -72 97t-131 36q-49 0 -96 -17.5t-85 -49.5t-64.5 -76t-35.5 -97q-10 -55 1.5 -106.5t41 -92t76.5 -65.5t111 -25q72 0 132 37t97 99l131 -64q-53 -98 -148 -156.5t-226 -58.5q-94 0 -169 36t-123 97.5t-67.5 142t-3.5 170.5z" />
<glyph unicode="&#xaa;" horiz-adv-x="917" d="M207 1196q12 78 46 137.5t82 98t104.5 58t113.5 19.5q92 0 150.5 -42t80.5 -105l23 133h131l-117 -641h-129l21 121q-37 -59 -96.5 -95t-139.5 -36q-63 0 -117.5 24.5t-92.5 69.5t-55 110.5t-5 147.5zM330 1194q-14 -98 39 -164.5t151 -66.5q43 0 82 16t69.5 45t52 67.5 t28.5 82.5q8 43 -2.5 82.5t-36 70.5t-63.5 48.5t-85 17.5q-90 0 -155.5 -55.5t-79.5 -143.5z" />
<glyph unicode="&#xab;" horiz-adv-x="1013" d="M158 461l18 108l363 244l-23 -137l-250 -166l193 -164l-25 -129zM514 461l21 108l362 244l-23 -137l-251 -166l192 -164l-22 -129z" />
<glyph unicode="&#xac;" horiz-adv-x="1341" d="M178 924l29 161h1096l-121 -667h-170l92 506h-926z" />
<glyph unicode="&#xad;" d="M123 451l27 145h757l-26 -145h-758z" />
<glyph unicode="&#xae;" horiz-adv-x="1804" d="M147 584q27 150 101 275.5t182.5 216.5t243.5 142.5t282 51.5q174 0 315.5 -70t236 -186.5t134 -271t9.5 -324.5q-25 -147 -98.5 -273.5t-181 -217.5t-243 -142t-282.5 -51q-176 0 -317.5 68.5t-235.5 184t-134 270.5t-12 327zM297 567q-23 -133 7 -258t103.5 -221 t189.5 -153.5t263 -57.5q119 0 226.5 42t193.5 118t144.5 178t80.5 223q23 129 -4.5 254t-100.5 221.5t-187.5 155.5t-262.5 59q-123 0 -231.5 -42t-195.5 -116.5t-146.5 -178t-79.5 -224.5zM543 125l135 766h334q68 0 121 -23.5t87.5 -61.5t50 -88t7.5 -106 q-16 -92 -75.5 -149t-153.5 -74l133 -264h-166l-172 369h117q59 0 106 33.5t57 95.5q10 66 -32.5 101.5t-110.5 37.5h-170l-111 -637h-157z" />
<glyph unicode="&#xaf;" horiz-adv-x="1083" d="M422 1292l24 131h541l-24 -131h-541z" />
<glyph unicode="&#xb0;" horiz-adv-x="944" d="M322 1245q0 55 21.5 104.5t58 86.5t87 58.5t105.5 21.5q57 0 106.5 -21.5t86 -58.5t58 -86.5t21.5 -104.5t-21.5 -105t-58 -87t-86 -58.5t-106.5 -21.5q-55 0 -105.5 21.5t-87 58.5t-58 87t-21.5 105zM465 1243q0 -53 38 -91t91 -38t91 38t38 91t-38 91t-91 38t-91 -38 t-38 -91z" />
<glyph unicode="&#xb1;" d="M80 260l26 146h758l-26 -146h-758zM188 883l27 145h307l53 305h146l-53 -305h305l-27 -145h-305l-53 -308h-146l54 308h-308z" />
<glyph unicode="&#xb2;" horiz-adv-x="755" d="M115 631l22 125q10 57 39 104t69 86t89 70t102 59q39 20 76 42t65.5 43.5t48 46t25.5 53.5q10 53 -26.5 86.5t-102.5 33.5q-61 0 -107 -33.5t-73 -86.5l-129 55q47 86 126 139t196 53q66 0 118 -20.5t86.5 -56t49 -85t4.5 -104.5q-8 -49 -35 -89t-65 -71.5t-83 -59.5 t-92 -52q-90 -49 -151.5 -92t-71.5 -107h416l-25 -139h-571z" />
<glyph unicode="&#xb3;" horiz-adv-x="741" d="M84 780l141 80q23 -47 72 -75.5t117 -28.5q70 0 111.5 31.5t52.5 91.5q10 59 -34 94t-124 35h-80l22 135h82q82 0 126 30.5t55 81.5q10 57 -25 90t-111 33q-59 0 -101 -23.5t-69 -62.5l-120 82q47 55 123.5 94t179.5 39q70 0 123 -20.5t89 -55t50 -81.5t6 -101 q-10 -59 -49 -103t-100 -73q61 -35 90.5 -91t15.5 -134q-18 -109 -102 -169.5t-219 -60.5q-111 0 -196 45.5t-126 116.5z" />
<glyph unicode="&#xb4;" horiz-adv-x="1083" d="M430 1245l299 330h193l-351 -330h-141z" />
<glyph unicode="&#xb5;" horiz-adv-x="1257" d="M-31 -492l285 1598h172q-33 -170 -55 -303q-10 -57 -20.5 -111.5t-17.5 -98.5t-12.5 -71.5t-5.5 -29.5q-29 -160 33 -261.5t217 -101.5q141 0 238.5 96.5t128.5 274.5l108 606h170l-194 -1106h-170l31 178q-57 -98 -141.5 -149.5t-205.5 -51.5q-102 0 -172.5 35 t-111.5 99l-105 -603h-172z" />
<glyph unicode="&#xb6;" horiz-adv-x="1306" d="M193 1092q16 88 62 161.5t113.5 127t151.5 84t176 30.5h623l-262 -1495h-148l236 1339h-125l-236 -1339h-147l108 618h-172q-98 2 -177 40t-129 101.5t-70.5 149.5t-3.5 183z" />
<glyph unicode="&#xb7;" horiz-adv-x="473" d="M115 535q8 49 46 79.5t85 30.5q66 0 96.5 -44t19.5 -97q-10 -49 -45 -80t-86 -31q-63 0 -95 42t-21 100z" />
<glyph unicode="&#xb8;" horiz-adv-x="1083" d="M74 -358l127 71q35 -35 76.5 -55t103.5 -20q63 0 102 20t47 59q16 84 -139 84h-82l37 199h127l-20 -106q121 -6 172 -60.5t39 -130.5q-14 -86 -95 -132t-196 -46q-102 0 -177 31.5t-122 85.5z" />
<glyph unicode="&#xb9;" horiz-adv-x="499" d="M150 1165l26 150h6q88 0 142.5 48t68.5 132h146l-152 -864h-147l114 643q-27 -53 -77 -81t-115 -28h-12z" />
<glyph unicode="&#xba;" horiz-adv-x="862" d="M207 1194q8 68 38.5 125t78 99t106.5 65.5t125 23.5q74 0 134.5 -28.5t101 -76.5t61 -112.5t12.5 -138.5q-10 -68 -41.5 -124t-79 -97t-106.5 -64.5t-127 -23.5q-72 0 -132.5 27.5t-101 75.5t-60 112.5t-9.5 136.5zM330 1190q-8 -45 2 -86t34.5 -73t63.5 -50t88 -18 q82 0 144.5 54t74.5 138q6 43 -4 85t-34.5 75t-62.5 52t-87 19q-84 0 -146.5 -56t-72.5 -140z" />
<glyph unicode="&#xbb;" horiz-adv-x="1013" d="M121 215l24 137l248 164l-190 166l24 129l277 -244l-21 -108zM479 215l25 137l248 166l-191 164l25 129l276 -244l-20 -108z" />
<glyph unicode="&#xbc;" horiz-adv-x="1609" d="M4 0l1335 1495h205l-1335 -1495h-205zM172 1165l27 150h6q88 0 142 48t69 132h145l-151 -864h-148l115 643q-27 -53 -77 -81t-116 -28h-12zM778 193l23 133l483 538h146l-97 -540h144l-25 -131h-141l-33 -193h-141l32 193h-391zM967 324h225l55 319z" />
<glyph unicode="&#xbd;" horiz-adv-x="1724" d="M4 0l1335 1495h205l-1335 -1495h-205zM172 1165l27 150h6q88 0 142 48t69 132h145l-151 -864h-148l115 643q-27 -53 -77 -81t-116 -28h-12zM934 0l22 125q10 57 39 104t69 86t89 70t102 59q39 20 76 42t65.5 43.5t48 46t25.5 53.5q10 53 -26.5 87t-102.5 34 q-61 0 -107 -34t-73 -87l-129 55q47 86 126 139.5t196 53.5q66 0 118 -20.5t86.5 -56.5t49 -85t4.5 -105q-8 -49 -35 -89t-64.5 -71.5t-83 -59.5t-92.5 -52q-90 -49 -151.5 -92t-71.5 -107h416l-25 -139h-571z" />
<glyph unicode="&#xbe;" horiz-adv-x="1851" d="M109 784l141 80q23 -47 72 -75.5t116 -28.5q70 0 112 31.5t52 91.5q10 59 -34 94t-124 35h-79l22 135h82q82 0 126 30.5t54 82.5q10 57 -24.5 89.5t-110.5 32.5q-59 0 -101 -23.5t-69 -62.5l-121 82q47 55 124 94t179 39q70 0 123 -20.5t89 -55t50.5 -81.5t6.5 -101 q-10 -59 -49 -103t-101 -73q61 -35 91 -91t16 -134q-18 -109 -102.5 -169t-219.5 -60q-111 0 -195.5 45t-125.5 116zM248 0l1335 1495h205l-1335 -1495h-205zM1020 193l22 133l484 538h145l-96 -540h143l-24 -131h-142l-32 -193h-142l33 193h-391zM1208 324h226l55 319z" />
<glyph unicode="&#xbf;" horiz-adv-x="1142" d="M41 -76q14 86 54 141.5t92.5 96.5t110.5 76.5t112.5 84t96.5 117t62 176.5l4 19h154l-4 -19q-23 -129 -67 -213t-96 -141t-109.5 -95t-106.5 -73t-86 -77t-47 -105q-10 -59 5 -106.5t51 -80t87.5 -51t114.5 -18.5q86 0 158.5 36t120.5 91l126 -96q-66 -80 -177 -130.5 t-242 -50.5q-102 0 -186.5 32t-140.5 88.5t-79.5 133t-7.5 164.5zM563 938q10 51 50 83t89 32q68 0 101 -46t22 -102q-10 -53 -48 -85t-91 -32q-66 0 -100.5 45.5t-22.5 104.5z" />
<glyph unicode="&#xc0;" horiz-adv-x="1495" d="M-29 0l863 1495h174l325 -1495h-172l-80 375h-712l-213 -375h-185zM461 537h586l-158 753zM623 1964h192l180 -330h-135z" />
<glyph unicode="&#xc1;" horiz-adv-x="1495" d="M-29 0l863 1495h174l325 -1495h-172l-80 375h-712l-213 -375h-185zM461 537h586l-158 753zM872 1634l299 330h193l-350 -330h-142z" />
<glyph unicode="&#xc2;" horiz-adv-x="1495" d="M-29 0l863 1495h174l325 -1495h-172l-80 375h-712l-213 -375h-185zM461 537h586l-158 753zM627 1634l301 330h129l186 -330h-156l-114 209l-189 -209h-157z" />
<glyph unicode="&#xc3;" horiz-adv-x="1495" d="M-29 0l863 1495h174l325 -1495h-172l-80 375h-712l-213 -375h-185zM461 537h586l-158 753zM588 1649q18 109 81.5 175t155.5 66q53 0 90 -16t72 -39q33 -23 62.5 -41t66.5 -18q78 0 98 106h121q-23 -111 -84 -176.5t-157 -65.5q-61 0 -103.5 23t-77.5 45q-27 18 -53 32.5 t-59 14.5q-76 0 -94 -106h-119z" />
<glyph unicode="&#xc4;" horiz-adv-x="1495" d="M-29 0l863 1495h174l325 -1495h-172l-80 375h-712l-213 -375h-185zM461 537h586l-158 753zM653 1782q8 45 43 72.5t78 27.5q59 0 87 -40t18 -89q-6 -45 -39 -71.5t-80 -26.5q-57 0 -87 37t-20 90zM1024 1782q6 45 42 72.5t79 27.5q57 0 86 -40t18 -89q-8 -45 -41 -71.5 t-80 -26.5q-55 0 -84.5 37t-19.5 90z" />
<glyph unicode="&#xc5;" horiz-adv-x="1495" d="M-29 0l826 1434q-41 35 -58.5 88t-1.5 116q20 78 84 127.5t142 49.5q49 0 89 -20.5t65.5 -54.5t34.5 -78t-3 -91q-14 -53 -46 -94t-79 -64l309 -1413h-172l-80 375h-712l-213 -375h-185zM461 537h586l-158 753zM840 1618q-10 -47 14.5 -85t75.5 -38h8q39 4 69.5 30.5 t39.5 61.5q10 47 -16.5 85t-78.5 38q-39 0 -70.5 -26.5t-41.5 -65.5z" />
<glyph unicode="&#xc6;" horiz-adv-x="2068" d="M-31 0l1000 1495h1106l-27 -162h-889l17 -502h782l-29 -161h-749l18 -506h643l-29 -164h-778l-12 365h-614l-244 -365h-195zM514 522h504l-23 719z" />
<glyph unicode="&#xc7;" horiz-adv-x="1669" d="M178 829q25 147 98.5 273.5t183 218.5t249 143.5t297.5 51.5q236 0 395.5 -100.5t249.5 -293.5l-164 -78q-35 80 -80 138.5t-105.5 95.5t-137.5 55.5t-177 18.5q-119 0 -226.5 -41t-191.5 -113t-142 -171t-79 -218q-23 -133 5 -254t99.5 -212t185.5 -145.5t261 -54.5 q154 0 286 70t224 199l147 -101q-117 -154 -273.5 -236.5t-350.5 -92.5l-19 -99q121 -6 172.5 -60t38.5 -130q-14 -86 -94.5 -132t-195.5 -46q-102 0 -177 31.5t-122 84.5l127 72q35 -35 76.5 -55.5t103.5 -20.5q63 0 102 20.5t47 59.5q16 84 -139 84h-82l35 193 q-170 14 -300 86.5t-212 186.5t-112.5 261.5t-2.5 310.5z" />
<glyph unicode="&#xc8;" horiz-adv-x="1292" d="M76 0l262 1495h979l-29 -160h-811l-86 -501h809l-29 -162h-809l-90 -510h811l-28 -162h-979zM567 1964h193l180 -330h-135z" />
<glyph unicode="&#xc9;" horiz-adv-x="1292" d="M76 0l262 1495h979l-29 -160h-811l-86 -501h809l-29 -162h-809l-90 -510h811l-28 -162h-979zM786 1634l299 330h193l-350 -330h-142z" />
<glyph unicode="&#xca;" horiz-adv-x="1292" d="M76 0l262 1495h979l-29 -160h-811l-86 -501h809l-29 -162h-809l-90 -510h811l-28 -162h-979zM543 1634l301 330h129l186 -330h-155l-115 209l-189 -209h-157z" />
<glyph unicode="&#xcb;" horiz-adv-x="1292" d="M76 0l262 1495h979l-29 -160h-811l-86 -501h809l-29 -162h-809l-90 -510h811l-28 -162h-979zM571 1782q8 45 43 72.5t78 27.5q59 0 87 -40t18 -89q-6 -45 -39 -71.5t-80 -26.5q-57 0 -87 37t-20 90zM942 1782q6 45 42 72.5t79 27.5q57 0 86 -40t18 -89 q-8 -45 -40.5 -71.5t-79.5 -26.5q-55 0 -85 37t-20 90z" />
<glyph unicode="&#xcc;" horiz-adv-x="550" d="M94 0l262 1495h172l-262 -1495h-172zM180 1964h193l180 -330h-135z" />
<glyph unicode="&#xcd;" horiz-adv-x="550" d="M94 0l262 1495h172l-262 -1495h-172zM399 1634l299 330h193l-350 -330h-142z" />
<glyph unicode="&#xce;" horiz-adv-x="550" d="M94 0l262 1495h172l-262 -1495h-172zM156 1634l301 330h129l186 -330h-156l-114 209l-189 -209h-157z" />
<glyph unicode="&#xcf;" horiz-adv-x="550" d="M94 0l262 1495h172l-262 -1495h-172zM184 1782q8 45 43 72.5t78 27.5q59 0 87 -40t18 -89q-6 -45 -39 -71.5t-80 -26.5q-57 0 -87 37t-20 90zM555 1782q6 45 42 72.5t79 27.5q57 0 86 -40t18 -89q-8 -45 -41 -71.5t-80 -26.5q-55 0 -84.5 37t-19.5 90z" />
<glyph unicode="&#xd0;" horiz-adv-x="1546" d="M84 711l29 133h149l115 651h411q164 -2 298.5 -65.5t224.5 -173t128 -253t9 -305.5q-27 -150 -99.5 -277.5t-181 -221t-247 -146.5t-293.5 -53h-512l125 711h-156zM315 160h324q117 0 223.5 42t191.5 115.5t143 175t79 220.5q20 127 -7.5 240.5t-96 198.5t-172 135 t-234.5 50h-246l-86 -493h428l-26 -133h-424z" />
<glyph unicode="&#xd1;" horiz-adv-x="1562" d="M76 0l262 1495h178l653 -1237l220 1237h167l-262 -1495h-168l-663 1251l-219 -1251h-168zM618 1626q18 109 82 175.5t156 66.5q53 0 90 -16.5t72 -39.5q33 -23 62.5 -41t66.5 -18q78 0 98 107h121q-23 -111 -84 -176.5t-158 -65.5q-61 0 -103 22.5t-77 45.5 q-27 18 -53.5 32.5t-59.5 14.5q-76 0 -94 -107h-119z" />
<glyph unicode="&#xd2;" horiz-adv-x="1792" d="M178 829q27 150 100.5 276t181 217t244 142.5t285.5 51.5q180 0 321.5 -73t233.5 -191.5t129 -272.5t8 -315q-27 -150 -99.5 -275t-180 -216t-242.5 -142t-287 -51q-176 0 -317 67.5t-235.5 184t-133.5 271t-8 326.5zM348 811q-23 -135 6 -256t101.5 -213t182.5 -145.5 t249 -53.5q117 0 221 41t187 113t140.5 171t77.5 214q23 125 -3.5 246t-97.5 216t-181.5 152.5t-255.5 57.5q-117 0 -222.5 -41t-188.5 -114t-139 -172t-77 -216zM727 1974h193l180 -329h-135z" />
<glyph unicode="&#xd3;" horiz-adv-x="1792" d="M178 829q27 150 100.5 276t181 217t244 142.5t285.5 51.5q180 0 321.5 -73t233.5 -191.5t129 -272.5t8 -315q-27 -150 -99.5 -275t-180 -216t-242.5 -142t-287 -51q-176 0 -317 67.5t-235.5 184t-133.5 271t-8 326.5zM348 811q-23 -135 6 -256t101.5 -213t182.5 -145.5 t249 -53.5q117 0 221 41t187 113t140.5 171t77.5 214q23 125 -3.5 246t-97.5 216t-181.5 152.5t-255.5 57.5q-117 0 -222.5 -41t-188.5 -114t-139 -172t-77 -216zM948 1636l299 330h193l-350 -330h-142z" />
<glyph unicode="&#xd4;" horiz-adv-x="1792" d="M178 829q27 150 100.5 276t181 217t244 142.5t285.5 51.5q180 0 321.5 -73t233.5 -191.5t129 -272.5t8 -315q-27 -150 -99.5 -275t-180 -216t-242.5 -142t-287 -51q-176 0 -317 67.5t-235.5 184t-133.5 271t-8 326.5zM348 811q-23 -135 6 -256t101.5 -213t182.5 -145.5 t249 -53.5q117 0 221 41t187 113t140.5 171t77.5 214q23 125 -3.5 246t-97.5 216t-181.5 152.5t-255.5 57.5q-117 0 -222.5 -41t-188.5 -114t-139 -172t-77 -216zM702 1645l302 329h129l186 -329h-156l-114 208l-189 -208h-158z" />
<glyph unicode="&#xd5;" horiz-adv-x="1792" d="M178 829q27 150 100.5 276t181 217t244 142.5t285.5 51.5q180 0 321.5 -73t233.5 -191.5t129 -272.5t8 -315q-27 -150 -99.5 -275t-180 -216t-242.5 -142t-287 -51q-176 0 -317 67.5t-235.5 184t-133.5 271t-8 326.5zM348 811q-23 -135 6 -256t101.5 -213t182.5 -145.5 t249 -53.5q117 0 221 41t187 113t140.5 171t77.5 214q23 125 -3.5 246t-97.5 216t-181.5 152.5t-255.5 57.5q-117 0 -222.5 -41t-188.5 -114t-139 -172t-77 -216zM672 1659q18 109 81.5 175.5t155.5 66.5q53 0 90 -16.5t72 -39.5q33 -23 62.5 -41t66.5 -18q78 0 98 106h121 q-23 -111 -84 -176t-157 -65q-61 0 -103.5 22.5t-77.5 44.5q-27 18 -53 32.5t-59 14.5q-76 0 -94 -106h-119z" />
<glyph unicode="&#xd6;" horiz-adv-x="1792" d="M178 829q27 150 100.5 276t181 217t244 142.5t285.5 51.5q180 0 321.5 -73t233.5 -191.5t129 -272.5t8 -315q-27 -150 -99.5 -275t-180 -216t-242.5 -142t-287 -51q-176 0 -317 67.5t-235.5 184t-133.5 271t-8 326.5zM348 811q-23 -135 6 -256t101.5 -213t182.5 -145.5 t249 -53.5q117 0 221 41t187 113t140.5 171t77.5 214q23 125 -3.5 246t-97.5 216t-181.5 152.5t-255.5 57.5q-117 0 -222.5 -41t-188.5 -114t-139 -172t-77 -216zM731 1792q8 45 43 72.5t78 27.5q59 0 87 -40t17 -89q-6 -45 -38.5 -71.5t-79.5 -26.5q-57 0 -87 37t-20 90z M1102 1792q6 45 42 72.5t79 27.5q57 0 85.5 -40t18.5 -89q-8 -45 -41 -71.5t-80 -26.5q-55 0 -84.5 37t-19.5 90z" />
<glyph unicode="&#xd7;" d="M152 500l292 250l-202 247l116 99l203 -248l289 246l86 -103l-289 -246l201 -243l-119 -99l-199 242l-292 -248z" />
<glyph unicode="&#xd8;" horiz-adv-x="1792" d="M178 829q27 150 100.5 276t181 217t244 142.5t285.5 51.5q135 0 249 -42t202 -114l157 166l91 -76l-164 -174q104 -123 146 -281.5t11 -330.5q-27 -150 -99.5 -275t-180 -216t-242.5 -142t-287 -51q-129 0 -239.5 37.5t-200.5 103.5l-147 -156l-90 78l149 160 q-109 117 -155 278.5t-11 347.5zM348 811q-25 -141 7 -265t110 -216l858 907q-68 53 -155 85t-193 32q-117 0 -222.5 -41t-188.5 -114t-139.5 -172t-76.5 -216zM553 248q66 -49 151 -77t183 -28q117 0 221 41t187 113t140.5 171t77.5 214q23 129 -5.5 251t-102.5 218z" />
<glyph unicode="&#xd9;" horiz-adv-x="1480" d="M168 569l164 926h172l-166 -944q-16 -90 0 -165t61 -130t118 -86t173 -31q98 0 175 30t133.5 82t91 122.5t49.5 150.5l170 971h172l-170 -969q-23 -127 -74 -227t-131 -172t-187.5 -109.5t-240.5 -37.5q-129 0 -233.5 39.5t-174 115.5t-98.5 185.5t-4 248.5zM631 1942 h192l181 -330h-136z" />
<glyph unicode="&#xda;" horiz-adv-x="1480" d="M168 569l164 926h172l-166 -944q-16 -90 0 -165t61 -130t118 -86t173 -31q98 0 175 30t133.5 82t91 122.5t49.5 150.5l170 971h172l-170 -969q-23 -127 -74 -227t-131 -172t-187.5 -109.5t-240.5 -37.5q-129 0 -233.5 39.5t-174 115.5t-98.5 185.5t-4 248.5zM852 1612 l299 330h192l-350 -330h-141z" />
<glyph unicode="&#xdb;" horiz-adv-x="1480" d="M168 569l164 926h172l-166 -944q-16 -90 0 -165t61 -130t118 -86t173 -31q98 0 175 30t133.5 82t91 122.5t49.5 150.5l170 971h172l-170 -969q-23 -127 -74 -227t-131 -172t-187.5 -109.5t-240.5 -37.5q-129 0 -233.5 39.5t-174 115.5t-98.5 185.5t-4 248.5zM606 1612 l301 330h129l187 -330h-156l-115 209l-188 -209h-158z" />
<glyph unicode="&#xdc;" horiz-adv-x="1480" d="M168 569l164 926h172l-166 -944q-16 -90 0 -165t61 -130t118 -86t173 -31q98 0 175 30t133.5 82t91 122.5t49.5 150.5l170 971h172l-170 -969q-23 -127 -74 -227t-131 -172t-187.5 -109.5t-240.5 -37.5q-129 0 -233.5 39.5t-174 115.5t-98.5 185.5t-4 248.5zM635 1759 q8 45 43 73t78 28q59 0 86.5 -40t17.5 -89q-6 -45 -39 -72t-80 -27q-57 0 -86.5 37t-19.5 90zM1006 1759q6 45 41.5 73t78.5 28q57 0 86 -40t19 -89q-8 -45 -41 -72t-80 -27q-55 0 -85 37t-19 90z" />
<glyph unicode="&#xdd;" horiz-adv-x="1382" d="M213 1495h178l328 -729l579 729h201l-723 -897l-104 -598h-172l108 621zM782 1610l299 329h193l-350 -329h-142z" />
<glyph unicode="&#xde;" horiz-adv-x="1269" d="M68 0l262 1495h174l-51 -295h295q92 0 174 -33.5t139 -95t83.5 -147.5t8.5 -191q-14 -86 -56 -158.5t-106.5 -126t-150.5 -83t-189 -29.5h-350l-59 -336h-174zM328 494h334q135 0 219 75.5t104 186.5q10 59 -5 111.5t-50 91t-88.5 61t-116.5 22.5h-301z" />
<glyph unicode="&#xdf;" horiz-adv-x="1236" d="M-272 -508l26 158q76 0 127 14t85 47t54.5 84t32.5 125l223 1258q37 215 156 331.5t330 116.5q106 0 187 -40t133.5 -106.5t72 -150.5t2.5 -172q-23 -119 -101.5 -199.5t-178.5 -117.5q68 -23 119 -67t81.5 -103.5t40.5 -129t-2 -139.5q-16 -92 -57 -168.5t-105.5 -132 t-150.5 -87t-191 -31.5q-37 0 -74.5 7t-72.5 18t-63.5 24.5t-47.5 27.5l37 146q35 -29 96.5 -48.5t118.5 -19.5q68 0 126.5 21.5t102.5 59.5t72.5 89t38.5 113q12 70 -3 132t-54 108.5t-100.5 73t-141.5 26.5h-41l25 158h43q55 0 107.5 17t96.5 50t74.5 80t42.5 109 q10 57 -1 112t-42.5 96t-82 67t-115.5 26q-115 0 -197 -74t-104 -211l-228 -1268q-20 -115 -54 -195.5t-88 -133t-132 -77t-184 -24.5h-39z" />
<glyph unicode="&#xe0;" horiz-adv-x="1390" d="M115 618q20 111 74.5 204t133 162t178 106.5t208.5 37.5q160 0 266 -70.5t153 -185.5l43 234h170l-194 -1106h-168l31 178q-68 -92 -166.5 -146.5t-225.5 -54.5q-129 0 -232 51.5t-171 139.5t-95.5 204.5t-4.5 245.5zM281 598q-14 -92 5 -175t68 -147.5t124 -102.5 t173 -38q78 0 149.5 29t128 81t96.5 122.5t54 154.5q16 88 -1 169t-65 144.5t-123 101.5t-175 38q-80 0 -151.5 -28.5t-130 -79t-98.5 -119t-54 -150.5zM457 1587h192l180 -330h-135z" />
<glyph unicode="&#xe1;" horiz-adv-x="1390" d="M115 618q20 111 74.5 204t133 162t178 106.5t208.5 37.5q160 0 266 -70.5t153 -185.5l43 234h170l-194 -1106h-168l31 178q-68 -92 -166.5 -146.5t-225.5 -54.5q-129 0 -232 51.5t-171 139.5t-95.5 204.5t-4.5 245.5zM281 598q-14 -92 5 -175t68 -147.5t124 -102.5 t173 -38q78 0 149.5 29t128 81t96.5 122.5t54 154.5q16 88 -1 169t-65 144.5t-123 101.5t-175 38q-80 0 -151.5 -28.5t-130 -79t-98.5 -119t-54 -150.5zM678 1257l299 330h192l-350 -330h-141z" />
<glyph unicode="&#xe2;" horiz-adv-x="1390" d="M115 618q20 111 74.5 204t133 162t178 106.5t208.5 37.5q160 0 266 -70.5t153 -185.5l43 234h170l-194 -1106h-168l31 178q-68 -92 -166.5 -146.5t-225.5 -54.5q-129 0 -232 51.5t-171 139.5t-95.5 204.5t-4.5 245.5zM281 598q-14 -92 5 -175t68 -147.5t124 -102.5 t173 -38q78 0 149.5 29t128 81t96.5 122.5t54 154.5q16 88 -1 169t-65 144.5t-123 101.5t-175 38q-80 0 -151.5 -28.5t-130 -79t-98.5 -119t-54 -150.5zM434 1257l301 330h129l187 -330h-156l-115 209l-188 -209h-158z" />
<glyph unicode="&#xe3;" horiz-adv-x="1390" d="M115 618q20 111 74.5 204t133 162t178 106.5t208.5 37.5q160 0 266 -70.5t153 -185.5l43 234h170l-194 -1106h-168l31 178q-68 -92 -166.5 -146.5t-225.5 -54.5q-129 0 -232 51.5t-171 139.5t-95.5 204.5t-4.5 245.5zM281 598q-14 -92 5 -175t68 -147.5t124 -102.5 t173 -38q78 0 149.5 29t128 81t96.5 122.5t54 154.5q16 88 -1 169t-65 144.5t-123 101.5t-175 38q-80 0 -151.5 -28.5t-130 -79t-98.5 -119t-54 -150.5zM403 1272q18 109 82 175t156 66q53 0 90 -16t72 -39q33 -23 62.5 -41t66.5 -18q78 0 98 106h121q-23 -111 -84 -176 t-158 -65q-61 0 -103 22.5t-77 44.5q-27 18 -53.5 32.5t-59.5 14.5q-76 0 -94 -106h-119z" />
<glyph unicode="&#xe4;" horiz-adv-x="1390" d="M115 618q20 111 74.5 204t133 162t178 106.5t208.5 37.5q160 0 266 -70.5t153 -185.5l43 234h170l-194 -1106h-168l31 178q-68 -92 -166.5 -146.5t-225.5 -54.5q-129 0 -232 51.5t-171 139.5t-95.5 204.5t-4.5 245.5zM281 598q-14 -92 5 -175t68 -147.5t124 -102.5 t173 -38q78 0 149.5 29t128 81t96.5 122.5t54 154.5q16 88 -1 169t-65 144.5t-123 101.5t-175 38q-80 0 -151.5 -28.5t-130 -79t-98.5 -119t-54 -150.5zM463 1405q8 45 43 72.5t78 27.5q59 0 86.5 -40t17.5 -89q-6 -45 -39 -71.5t-80 -26.5q-57 0 -86.5 37t-19.5 90z M834 1405q6 45 41.5 72.5t78.5 27.5q57 0 86 -40t19 -89q-8 -45 -41 -71.5t-80 -26.5q-55 0 -85 37t-19 90z" />
<glyph unicode="&#xe5;" horiz-adv-x="1390" d="M115 618q20 111 74.5 204t133 162t178 106.5t208.5 37.5q160 0 266 -70.5t153 -185.5l43 234h170l-194 -1106h-168l31 178q-68 -92 -166.5 -146.5t-225.5 -54.5q-129 0 -232 51.5t-171 139.5t-95.5 204.5t-4.5 245.5zM281 598q-14 -92 5 -175t68 -147.5t124 -102.5 t173 -38q78 0 149.5 29t128 81t96.5 122.5t54 154.5q16 88 -1 169t-65 144.5t-123 101.5t-175 38q-80 0 -151.5 -28.5t-130 -79t-98.5 -119t-54 -150.5zM578.5 1409q-9.5 45 3.5 94q20 78 83.5 127t141.5 49q49 0 89 -20.5t65.5 -54t35 -77.5t-3.5 -91q-20 -78 -80.5 -129.5 t-146.5 -51.5q-49 0 -88 20.5t-64.5 54.5t-35 79zM684 1483q-10 -47 14.5 -85t75.5 -38q41 0 75 27.5t42 64.5q10 47 -16.5 85t-77.5 38q-39 0 -71 -26.5t-42 -65.5z" />
<glyph unicode="&#xe6;" horiz-adv-x="2164" d="M53 326q14 86 60.5 146t118 98t167 54.5t211.5 16.5h344l15 78q10 57 -6.5 106t-55.5 85t-98 55.5t-133 19.5q-133 0 -216 -47t-149 -133l-137 80q94 111 217 177t305 66q158 0 257.5 -59t136.5 -160q84 98 204.5 158.5t276.5 60.5q131 0 232.5 -47t167 -127t92 -188.5 t8.5 -230.5l-7 -41h-960q2 -164 105.5 -264.5t295.5 -100.5q111 0 196 42t152 122l136 -100q-94 -106 -215 -161t-279 -55q-188 0 -312 71t-186 190q-213 -261 -567 -261q-111 0 -187.5 30t-122.5 78t-62.5 110.5t-4.5 130.5zM229 326q-16 -88 44.5 -144.5t195.5 -56.5 q139 0 259 60.5t220 201.5q-4 25 -6 51.5t-2 55.5h-352q-170 0 -256 -35t-103 -133zM1122 641h793q-4 158 -94 250t-262 92q-172 -2 -285 -95t-152 -247z" />
<glyph unicode="&#xe7;" horiz-adv-x="1261" d="M116.5 397.5q-22.5 108.5 0.5 225.5q18 111 73.5 204t135.5 159.5t180 104t213 37.5q195 0 318.5 -86t183.5 -223l-160 -74q-41 100 -124 164t-226 66q-74 0 -145.5 -26.5t-130 -76t-99.5 -118t-55 -152.5q-16 -92 4 -176t69 -148.5t126 -103.5t175 -39q113 0 206 52.5 t153 150.5l151 -82q-78 -123 -201.5 -194.5t-277.5 -81.5l-18 -99q121 -6 172 -60t39 -130q-14 -86 -95 -132t-196 -46q-102 0 -177 31.5t-122 84.5l127 72q35 -35 77 -55.5t103 -20.5q63 0 102 20.5t47 59.5q16 84 -139 84h-82l35 195q-119 16 -211 73.5t-150.5 144.5 t-81 195.5z" />
<glyph unicode="&#xe8;" horiz-adv-x="1331" d="M116.5 370.5q-22.5 116.5 0.5 250.5q20 106 73.5 199t133 162t185 107.5t230.5 38.5q129 0 229.5 -46t166 -125.5t92 -187t8.5 -230.5l-8 -45h-959q2 -164 104.5 -264.5t295.5 -100.5q111 0 194.5 43t151.5 123l133 -100q-94 -106 -213 -162t-277 -56q-156 0 -268.5 51.5 t-181 138.5t-91 203.5zM287 641h792q-2 158 -92 250t-260 92q-174 -2 -287.5 -95t-152.5 -247zM477 1589h193l180 -329h-135z" />
<glyph unicode="&#xe9;" horiz-adv-x="1331" d="M116.5 370.5q-22.5 116.5 0.5 250.5q20 106 73.5 199t133 162t185 107.5t230.5 38.5q129 0 229.5 -46t166 -125.5t92 -187t8.5 -230.5l-8 -45h-959q2 -164 104.5 -264.5t295.5 -100.5q111 0 194.5 43t151.5 123l133 -100q-94 -106 -213 -162t-277 -56q-156 0 -268.5 51.5 t-181 138.5t-91 203.5zM287 641h792q-2 158 -92 250t-260 92q-174 -2 -287.5 -95t-152.5 -247zM698 1260l299 329h193l-350 -329h-142z" />
<glyph unicode="&#xea;" horiz-adv-x="1331" d="M116.5 370.5q-22.5 116.5 0.5 250.5q20 106 73.5 199t133 162t185 107.5t230.5 38.5q129 0 229.5 -46t166 -125.5t92 -187t8.5 -230.5l-8 -45h-959q2 -164 104.5 -264.5t295.5 -100.5q111 0 194.5 43t151.5 123l133 -100q-94 -106 -213 -162t-277 -56q-156 0 -268.5 51.5 t-181 138.5t-91 203.5zM287 641h792q-2 158 -92 250t-260 92q-174 -2 -287.5 -95t-152.5 -247zM453 1260l301 329h129l186 -329h-156l-114 208l-189 -208h-157z" />
<glyph unicode="&#xeb;" horiz-adv-x="1331" d="M116.5 370.5q-22.5 116.5 0.5 250.5q20 106 73.5 199t133 162t185 107.5t230.5 38.5q129 0 229.5 -46t166 -125.5t92 -187t8.5 -230.5l-8 -45h-959q2 -164 104.5 -264.5t295.5 -100.5q111 0 194.5 43t151.5 123l133 -100q-94 -106 -213 -162t-277 -56q-156 0 -268.5 51.5 t-181 138.5t-91 203.5zM287 641h792q-2 158 -92 250t-260 92q-174 -2 -287.5 -95t-152.5 -247zM481 1397q8 45 43 72.5t78 27.5q59 0 87 -40t18 -89q-6 -45 -39 -71.5t-80 -26.5q-57 0 -87 36.5t-20 90.5zM852 1397q6 45 42 72.5t79 27.5q57 0 85.5 -40t18.5 -89 q-8 -45 -41 -71.5t-80 -26.5q-55 0 -84.5 36.5t-19.5 90.5z" />
<glyph unicode="&#xec;" horiz-adv-x="471" d="M53 0l195 1106h170l-195 -1106h-170zM70 1575h192l180 -330h-135z" />
<glyph unicode="&#xed;" horiz-adv-x="471" d="M53 0l195 1106h170l-195 -1106h-170zM289 1257l299 330h192l-350 -330h-141z" />
<glyph unicode="&#xee;" horiz-adv-x="471" d="M45 1245l301 330h129l187 -330h-156l-115 209l-188 -209h-158zM53 0l195 1106h170l-195 -1106h-170z" />
<glyph unicode="&#xef;" horiz-adv-x="471" d="M53 0l195 1106h170l-195 -1106h-170zM74 1393q8 45 43 72.5t78 27.5q59 0 86.5 -40t17.5 -89q-6 -45 -39 -71.5t-80 -26.5q-57 0 -87 36.5t-19 90.5zM444 1393q6 45 42 72.5t79 27.5q57 0 86 -40t19 -89q-8 -45 -41 -71.5t-80 -26.5q-55 0 -85 36.5t-20 90.5z" />
<glyph unicode="&#xf0;" horiz-adv-x="1376" d="M117 600q18 115 71.5 210t132 162.5t176 104.5t201.5 37q119 0 204 -41t140 -102q-80 176 -251 362l-242 -139l-57 92l221 129q-49 47 -104.5 96.5t-116.5 102.5h243q33 -29 62.5 -58.5l58.5 -58.5l227 131l62 -90l-215 -125q197 -227 280.5 -464.5t40.5 -467.5 q-20 -111 -73.5 -203t-132 -159.5t-179 -104.5t-217.5 -37q-129 0 -236.5 48.5t-179 132.5t-103.5 197.5t-13 244.5zM291 600q-16 -90 2 -174t67.5 -148.5t125 -104.5t173.5 -40q74 0 144.5 27.5t128 76t97.5 115t54 144.5q16 88 0 172t-63 149.5t-123 106.5t-176 41 q-78 0 -148.5 -27t-128 -75t-98.5 -114.5t-55 -148.5z" />
<glyph unicode="&#xf1;" horiz-adv-x="1300" d="M51 0l195 1106h168l-31 -166q66 92 162 140t219 48q113 0 198 -36.5t137 -105t70.5 -165t-2.5 -215.5l-108 -606h-172l106 606q31 170 -37.5 271.5t-238.5 101.5t-264.5 -107.5t-126.5 -289.5l-105 -582h-170zM451 1268q18 109 81.5 175t155.5 66q53 0 90 -16t72 -39 q33 -23 62.5 -41t66.5 -18q78 0 98 106h121q-23 -111 -84 -176t-158 -65q-61 0 -103 22.5t-77 44.5q-27 18 -53.5 32.5t-58.5 14.5q-76 0 -95 -106h-118z" />
<glyph unicode="&#xf2;" horiz-adv-x="1368" d="M117 629q18 106 72.5 197.5t134 159t183 105t222.5 37.5q133 0 240.5 -51t178.5 -139t100.5 -208t4.5 -257q-18 -109 -71.5 -200t-132 -156.5t-182 -102.5t-222.5 -37q-135 0 -243.5 50.5t-180 138.5t-100.5 207t-4 256zM283 606q-18 -100 1 -186t68 -149.5t125 -100.5 t170 -37q86 0 160 25.5t132 73t96 114t55 150.5q16 94 -0.5 181t-64.5 153.5t-125 106.5t-181 40q-88 0 -162 -26.5t-130 -76t-93 -118t-51 -150.5zM473 1587h193l180 -330h-135z" />
<glyph unicode="&#xf3;" horiz-adv-x="1368" d="M117 629q18 106 72.5 197.5t134 159t183 105t222.5 37.5q133 0 240.5 -51t178.5 -139t100.5 -208t4.5 -257q-18 -109 -71.5 -200t-132 -156.5t-182 -102.5t-222.5 -37q-135 0 -243.5 50.5t-180 138.5t-100.5 207t-4 256zM283 606q-18 -100 1 -186t68 -149.5t125 -100.5 t170 -37q86 0 160 25.5t132 73t96 114t55 150.5q16 94 -0.5 181t-64.5 153.5t-125 106.5t-181 40q-88 0 -162 -26.5t-130 -76t-93 -118t-51 -150.5zM694 1257l299 330h193l-350 -330h-142z" />
<glyph unicode="&#xf4;" horiz-adv-x="1368" d="M117 629q18 106 72.5 197.5t134 159t183 105t222.5 37.5q133 0 240.5 -51t178.5 -139t100.5 -208t4.5 -257q-18 -109 -71.5 -200t-132 -156.5t-182 -102.5t-222.5 -37q-135 0 -243.5 50.5t-180 138.5t-100.5 207t-4 256zM283 606q-18 -100 1 -186t68 -149.5t125 -100.5 t170 -37q86 0 160 25.5t132 73t96 114t55 150.5q16 94 -0.5 181t-64.5 153.5t-125 106.5t-181 40q-88 0 -162 -26.5t-130 -76t-93 -118t-51 -150.5zM449 1257l301 330h129l186 -330h-156l-114 209l-189 -209h-157z" />
<glyph unicode="&#xf5;" horiz-adv-x="1368" d="M117 629q18 106 72.5 197.5t134 159t183 105t222.5 37.5q133 0 240.5 -51t178.5 -139t100.5 -208t4.5 -257q-18 -109 -71.5 -200t-132 -156.5t-182 -102.5t-222.5 -37q-135 0 -243.5 50.5t-180 138.5t-100.5 207t-4 256zM283 606q-18 -100 1 -186t68 -149.5t125 -100.5 t170 -37q86 0 160 25.5t132 73t96 114t55 150.5q16 94 -0.5 181t-64.5 153.5t-125 106.5t-181 40q-88 0 -162 -26.5t-130 -76t-93 -118t-51 -150.5zM418 1272q18 109 81.5 175t155.5 66q53 0 90 -16t72 -39q33 -23 62.5 -41t66.5 -18q78 0 98 106h121q-23 -111 -84 -176 t-157 -65q-61 0 -103.5 22.5t-77.5 44.5q-27 18 -53 32.5t-59 14.5q-76 0 -94 -106h-119z" />
<glyph unicode="&#xf6;" horiz-adv-x="1368" d="M117 629q18 106 72.5 197.5t134 159t183 105t222.5 37.5q133 0 240.5 -51t178.5 -139t100.5 -208t4.5 -257q-18 -109 -71.5 -200t-132 -156.5t-182 -102.5t-222.5 -37q-135 0 -243.5 50.5t-180 138.5t-100.5 207t-4 256zM283 606q-18 -100 1 -186t68 -149.5t125 -100.5 t170 -37q86 0 160 25.5t132 73t96 114t55 150.5q16 94 -0.5 181t-64.5 153.5t-125 106.5t-181 40q-88 0 -162 -26.5t-130 -76t-93 -118t-51 -150.5zM477 1405q8 45 43 72.5t78 27.5q59 0 87 -40t17 -89q-6 -45 -38.5 -71.5t-79.5 -26.5q-57 0 -87 37t-20 90zM848 1405 q6 45 42 72.5t79 27.5q57 0 85.5 -40t18.5 -89q-8 -45 -41 -71.5t-80 -26.5q-55 0 -84.5 37t-19.5 90z" />
<glyph unicode="&#xf7;" d="M152 676l26 145h758l-27 -145h-757zM373 434q8 45 43 73t76 28q59 0 87.5 -40t18.5 -89q-8 -45 -41 -73t-78 -28q-57 0 -87 38t-19 91zM492 1092q8 43 41.5 70.5t76.5 27.5q59 0 87 -40t20 -87q-10 -47 -42 -74.5t-79 -27.5q-57 0 -86 38.5t-18 92.5z" />
<glyph unicode="&#xf8;" horiz-adv-x="1370" d="M117 629q18 106 72.5 197.5t134 159t183 105t222.5 37.5q98 0 181 -27.5t149 -76.5l115 121l86 -76l-117 -125q74 -90 104.5 -210t5.5 -261q-18 -109 -71.5 -200t-132 -156.5t-182 -102.5t-222.5 -37q-188 0 -323 95l-111 -119l-86 80l111 117q-80 88 -113 210.5 t-6 268.5zM283 606q-18 -100 1 -185t66 -149l598 635q-45 33 -102.5 51.5t-126.5 18.5q-88 0 -162 -26.5t-130 -76t-93 -118t-51 -150.5zM436 193q88 -60 211 -60q86 0 160 25.5t132 73t96 114t55 150.5q16 92 0.5 177t-62.5 150z" />
<glyph unicode="&#xf9;" horiz-adv-x="1249" d="M121.5 282.5q-15.5 96.5 7.5 215.5l107 608h172l-107 -604q-29 -166 35.5 -269.5t218.5 -103.5q141 0 238.5 96.5t130.5 274.5l108 606h168l-194 -1106h-168l28 168q-66 -92 -156.5 -141.5t-207.5 -49.5q-109 0 -187.5 37t-128 104.5t-65 164zM428 1548h193l180 -329 h-135z" />
<glyph unicode="&#xfa;" horiz-adv-x="1249" d="M121.5 282.5q-15.5 96.5 7.5 215.5l107 608h172l-107 -604q-29 -166 35.5 -269.5t218.5 -103.5q141 0 238.5 96.5t130.5 274.5l108 606h168l-194 -1106h-168l28 168q-66 -92 -156.5 -141.5t-207.5 -49.5q-109 0 -187.5 37t-128 104.5t-65 164zM655 1219l299 329h193 l-350 -329h-142z" />
<glyph unicode="&#xfb;" horiz-adv-x="1249" d="M121.5 282.5q-15.5 96.5 7.5 215.5l107 608h172l-107 -604q-29 -166 35.5 -269.5t218.5 -103.5q141 0 238.5 96.5t130.5 274.5l108 606h168l-194 -1106h-168l28 168q-66 -92 -156.5 -141.5t-207.5 -49.5q-109 0 -187.5 37t-128 104.5t-65 164zM418 1219l301 329h129 l186 -329h-155l-115 208l-189 -208h-157z" />
<glyph unicode="&#xfc;" horiz-adv-x="1249" d="M121.5 282.5q-15.5 96.5 7.5 215.5l107 608h172l-107 -604q-29 -166 35.5 -269.5t218.5 -103.5q141 0 238.5 96.5t130.5 274.5l108 606h168l-194 -1106h-168l28 168q-66 -92 -156.5 -141.5t-207.5 -49.5q-109 0 -187.5 37t-128 104.5t-65 164zM442 1366q8 45 43 72.5 t78 27.5q59 0 87 -40t18 -89q-6 -45 -39 -71.5t-80 -26.5q-57 0 -87 37t-20 90zM813 1366q6 45 42 72.5t79 27.5q57 0 86 -40t18 -89q-8 -45 -40.5 -71.5t-79.5 -26.5q-55 0 -85 37t-20 90z" />
<glyph unicode="&#xfd;" horiz-adv-x="1216" d="M-193 -264l142 110q27 -45 64.5 -71.5t101.5 -26.5q33 0 65.5 9.5t66.5 33t68.5 65.5t75.5 109l64 105l-305 1036h176l243 -846l496 846h190l-718 -1194q-55 -92 -105.5 -154.5t-100.5 -99.5t-105.5 -53.5t-121.5 -16.5q-104 0 -179 41t-118 107zM623 1229l299 330h192 l-350 -330h-141z" />
<glyph unicode="&#xfe;" horiz-adv-x="1392" d="M-31 -508l375 2122h172q-20 -113 -41 -225q-16 -98 -37.5 -213t-38.5 -215q72 74 169.5 120.5t217.5 46.5q127 0 227.5 -51t166 -138t91 -202.5t3.5 -244.5q-18 -117 -73.5 -211.5t-133.5 -162t-175.5 -104.5t-199.5 -37q-168 0 -271.5 74t-150.5 187l-129 -746h-172z M315 582q-16 -90 2.5 -171t65.5 -142.5t123 -97.5t174 -36q80 0 152.5 29t130 80t96.5 118.5t51 147.5q16 92 -2 176t-66.5 148.5t-123 102.5t-168.5 38q-78 0 -151 -30t-131 -83t-98 -124.5t-55 -155.5z" />
<glyph unicode="&#xff;" horiz-adv-x="1216" d="M-193 -264l142 110q27 -45 64.5 -71.5t101.5 -26.5q33 0 65.5 9.5t66.5 33t68.5 65.5t75.5 109l64 105l-305 1036h176l243 -846l496 846h190l-718 -1194q-55 -92 -105.5 -154.5t-100.5 -99.5t-105.5 -53.5t-121.5 -16.5q-104 0 -179 41t-118 107zM410 1376q8 45 42.5 73 t77.5 28q59 0 87 -40t18 -89q-6 -45 -39 -72t-80 -27q-57 0 -87 37t-19 90zM780 1376q6 45 42 73t79 28q57 0 86 -40t19 -89q-8 -45 -41 -72t-80 -27q-55 0 -85 37t-20 90z" />
<glyph unicode="&#x152;" horiz-adv-x="2584" d="M176 829q27 150 101.5 276t184 217t246 142.5t283.5 51.5q223 0 379 -102.5t227 -272.5l62 354h946l-29 -160h-774l-88 -501h774l-28 -162h-774l-91 -510h775l-27 -162h-946l45 258q-104 -129 -249.5 -203.5t-320.5 -74.5q-174 0 -316 68.5t-236.5 185t-134.5 270 t-9 325.5zM346 811q-23 -129 5 -249t100.5 -212t184.5 -147.5t255 -55.5q113 0 217 43t188 119t141.5 177.5t78.5 215.5q23 125 -4 244t-96.5 209t-180.5 145.5t-254 55.5q-117 0 -223.5 -41t-191.5 -115t-142 -173t-78 -216z" />
<glyph unicode="&#x153;" horiz-adv-x="2312" d="M117 629q18 106 72.5 197.5t134 159t183 105t222.5 37.5q160 0 282 -71.5t187 -194.5q82 121 213 193.5t305 72.5q131 0 233.5 -46t168 -125.5t92 -187t8.5 -230.5l-8 -45h-961q2 -164 106.5 -264.5t297.5 -100.5q111 0 194.5 42t153.5 122l133 -100q-94 -106 -215 -161 t-277 -55q-184 0 -307 68t-186 184q-82 -117 -212 -184.5t-294 -67.5q-135 0 -243.5 50.5t-179 138.5t-99.5 207t-4 256zM283 606q-18 -100 1 -186t68 -149.5t125 -100.5t170 -37q86 0 160 25.5t131 73t96 114t56 150.5q16 94 -0.5 181t-63.5 153.5t-124 106.5t-181 40 q-88 0 -162 -26.5t-130 -76t-94 -118t-52 -150.5zM1268 641h794q-2 158 -93 250t-265 92q-170 -2 -282.5 -95t-153.5 -247z" />
<glyph unicode="&#x178;" horiz-adv-x="1382" d="M213 1495h178l328 -729l579 729h201l-723 -897l-104 -598h-172l108 621zM575 1761q8 45 43 73t78 28q59 0 87 -40t18 -89q-6 -45 -39 -72t-80 -27q-57 0 -87 37t-20 90zM946 1761q6 45 42 73t79 28q57 0 86 -40t18 -89q-8 -45 -40.5 -72t-79.5 -27q-55 0 -85 37t-20 90z " />
<glyph unicode="&#x2c6;" horiz-adv-x="1083" d="M356 1245l301 330h129l187 -330h-156l-115 209l-188 -209h-158z" />
<glyph unicode="&#x2dc;" horiz-adv-x="1083" d="M311 1260q18 109 82 175t156 66q53 0 90 -16.5t72 -38.5q33 -23 62.5 -41.5t66.5 -18.5q78 0 98 107h121q-23 -111 -84.5 -176.5t-157.5 -65.5q-61 0 -103 22.5t-77 45.5q-27 18 -53.5 32.5t-59.5 14.5q-76 0 -94 -106h-119z" />
<glyph unicode="&#x2000;" horiz-adv-x="987" />
<glyph unicode="&#x2001;" horiz-adv-x="1974" />
<glyph unicode="&#x2002;" horiz-adv-x="987" />
<glyph unicode="&#x2003;" horiz-adv-x="1974" />
<glyph unicode="&#x2004;" horiz-adv-x="658" />
<glyph unicode="&#x2005;" horiz-adv-x="493" />
<glyph unicode="&#x2006;" horiz-adv-x="329" />
<glyph unicode="&#x2007;" horiz-adv-x="329" />
<glyph unicode="&#x2008;" horiz-adv-x="246" />
<glyph unicode="&#x2009;" horiz-adv-x="394" />
<glyph unicode="&#x200a;" horiz-adv-x="109" />
<glyph unicode="&#x2010;" d="M123 451l27 145h757l-26 -145h-758z" />
<glyph unicode="&#x2011;" d="M123 451l27 145h757l-26 -145h-758z" />
<glyph unicode="&#x2012;" d="M123 451l27 145h757l-26 -145h-758z" />
<glyph unicode="&#x2013;" horiz-adv-x="1103" d="M123 451l27 145h839l-26 -145h-840z" />
<glyph unicode="&#x2014;" horiz-adv-x="1521" d="M123 451l27 145h1249l-27 -145h-1249z" />
<glyph unicode="&#x2018;" horiz-adv-x="505" d="M209 1186q16 100 86 179t190 144l45 -77q-94 -49 -149 -113t-68 -129q-2 -18 0 -33q20 80 97 80q47 0 73.5 -38t18.5 -87q-10 -51 -50.5 -87t-103.5 -36q-72 0 -112.5 53.5t-26.5 143.5z" />
<glyph unicode="&#x2019;" horiz-adv-x="505" d="M209 1057q92 47 148.5 110.5t66.5 130.5q4 16 0 29q-10 -41 -34.5 -58.5t-59.5 -17.5q-47 0 -75 37t-17 88q8 51 49 86t102 35q74 0 115 -53t26 -144q-16 -100 -86.5 -179t-189.5 -142z" />
<glyph unicode="&#x201a;" horiz-adv-x="507" d="M2 -209q92 47 148.5 110.5t66.5 131.5q4 16 0 28q-10 -41 -34.5 -58t-59.5 -17q-47 0 -75 37.5t-17 87.5q8 51 49 86.5t102 35.5q74 0 115 -53t27 -143q-16 -102 -87 -181t-190 -143z" />
<glyph unicode="&#x201c;" horiz-adv-x="886" d="M209 1186q16 100 86 179t190 144l45 -77q-94 -49 -149 -113t-68 -129q-4 -18 0 -35q10 41 36 57.5t61 16.5q47 0 71.5 -37t14.5 -86q-8 -53 -48.5 -85t-99.5 -32q-72 0 -112.5 53.5t-26.5 143.5zM592 1186q16 100 87 179t189 144l45 -77q-92 -49 -148 -113t-67 -129 q-4 -23 -2 -33q12 39 37 55.5t60 16.5q47 0 71.5 -37t16.5 -86q-10 -53 -49.5 -85t-98.5 -32q-74 0 -114.5 53.5t-26.5 143.5z" />
<glyph unicode="&#x201d;" horiz-adv-x="886" d="M203 1057q92 47 148.5 110.5t66.5 130.5q4 16 0 33q-10 -41 -35 -56t-59 -15q-47 0 -72 35.5t-16 84.5q10 53 49 85t98 32q74 0 115 -53t26 -144q-16 -100 -86.5 -179t-189.5 -142zM586 1057q94 47 149.5 110.5t67.5 130.5q2 14 -2 35q-10 -41 -35 -57t-59 -16 q-47 0 -72 35.5t-14 84.5q8 53 48 85t99 32q72 0 113 -53t26 -144q-16 -100 -85.5 -179t-190.5 -142z" />
<glyph unicode="&#x201e;" horiz-adv-x="886" d="M-4 -209q94 49 150.5 112.5t66.5 131.5q4 16 0 33q-10 -41 -34.5 -57.5t-59.5 -16.5q-47 0 -71.5 37t-16.5 86q10 53 49 84.5t98 31.5q74 0 115 -53t26 -143q-16 -100 -86.5 -179t-189.5 -145zM381 -209q94 49 149.5 112.5t67.5 131.5q2 14 -2 35q-10 -41 -34.5 -58.5 t-59.5 -17.5q-47 0 -71.5 37t-14.5 86q8 53 48 84.5t99 31.5q72 0 113 -53t26 -143q-16 -100 -85.5 -179t-190.5 -145z" />
<glyph unicode="&#x2022;" horiz-adv-x="757" d="M236 518q0 66 46 112t109 46q66 0 112 -46t46 -112t-46 -111t-112 -45q-63 0 -109 45.5t-46 110.5z" />
<glyph unicode="&#x2026;" horiz-adv-x="1198" d="M37 121q8 47 46 77.5t85 30.5q66 0 96.5 -44t20.5 -97q-10 -49 -46 -80t-87 -31q-61 0 -94 42t-21 102zM399 121q8 47 47 77.5t86 30.5q63 0 94 -44t23 -97q-10 -49 -46 -80t-87 -31q-61 0 -94 42t-23 102zM762 121q8 47 47 77.5t86 30.5q63 0 94 -44t23 -97 q-10 -49 -46 -80t-87 -31q-61 0 -94 42t-23 102z" />
<glyph unicode="&#x202f;" horiz-adv-x="394" />
<glyph unicode="&#x2039;" horiz-adv-x="655" d="M158 461l18 108l363 244l-23 -137l-250 -166l193 -164l-25 -129z" />
<glyph unicode="&#x203a;" horiz-adv-x="655" d="M121 215l24 137l248 164l-190 166l24 129l277 -244l-21 -108z" />
<glyph unicode="&#x205f;" horiz-adv-x="493" />
<glyph unicode="&#x20ac;" horiz-adv-x="1849" d="M106 457l25 139h174q-12 106 10 231q4 18 7.5 37t7.5 37h-146l23 139h178q53 104 134 192.5t181.5 151t217 97.5t241.5 35q111 0 209 -28t180 -78t145.5 -124t102.5 -166l-164 -76q-59 143 -180 225.5t-315 82.5q-172 0 -319.5 -85t-237.5 -227h798l-61 -139h-803 q-8 -23 -13 -46.5t-9 -49.5q-23 -106 -7 -209h695l-62 -139h-598q57 -137 181 -225.5t313 -88.5q168 0 311 84t229 232l154 -74q-104 -184 -286.5 -294.5t-424.5 -110.5q-127 0 -235.5 35.5t-193.5 98t-145.5 150.5t-90.5 193h-226z" />
<glyph unicode="&#x2122;" horiz-adv-x="1480" d="M264 1382l21 113h489l-20 -113h-183l-86 -481h-123l87 481h-185zM731 901l105 594h122l150 -266l256 266h125l-107 -594h-122l71 399l-250 -249l-157 256l-72 -406h-121z" />
<glyph unicode="&#x25fc;" horiz-adv-x="1105" d="M0 0v1106h1106v-1106h-1106z" />
<glyph unicode="&#xfb01;" horiz-adv-x="1255" d="M117 956l26 150h203l16 88q23 129 53.5 211t80 128t124 63.5t185.5 17.5h90l-29 -158h-75q-66 0 -110 -8t-72.5 -36t-47 -80t-33.5 -140l-16 -86h295l-27 -150h-295l-168 -956h-163l165 956h-202zM838 0l194 1106h170l-194 -1106h-170zM1049 1462q8 51 48 83t87 32 q68 0 100.5 -47t22.5 -103q-10 -51 -48.5 -82.5t-91.5 -31.5q-63 0 -97 45t-21 104z" />
<glyph unicode="&#xfb02;" horiz-adv-x="1253" d="M117 956l26 150h203l16 88q23 129 53.5 211t80 128t124 63.5t185.5 17.5h90l-29 -158h-75q-66 0 -110 -8t-72.5 -36t-47 -80t-33.5 -140l-16 -86h295l-27 -150h-295l-168 -956h-163l165 956h-202zM838 0l282 1614h170l-282 -1614h-170z" />
</font>
</defs>
</svg>
