<?xml version="1.0" standalone="no"?>
<!DOCTYPE svg PUBLIC "-//W3C//DTD SVG 1.1//EN" "http://www.w3.org/Graphics/SVG/1.1/DTD/svg11.dtd" >
<svg xmlns="http://www.w3.org/2000/svg" xmlns:xlink="http://www.w3.org/1999/xlink" version="1.1">
<metadata></metadata>
<defs>
<font id="sharp_sanslight_italic" horiz-adv-x="1015" >
<font-face units-per-em="2048" ascent="1536" descent="-512" />
<missing-glyph horiz-adv-x="477" />
<glyph horiz-adv-x="0" />
<glyph unicode="&#xd;" horiz-adv-x="477" />
<glyph horiz-adv-x="0" />
<glyph horiz-adv-x="0" />
<glyph unicode=" "  horiz-adv-x="477" />
<glyph unicode="&#x09;" horiz-adv-x="477" />
<glyph unicode="&#xa0;" horiz-adv-x="477" />
<glyph unicode="!" horiz-adv-x="538" d="M96 74q4 29 29 48t53 19q41 0 59.5 -27.5t12.5 -62.5q-6 -29 -27.5 -48t-54.5 -19q-39 0 -59.5 26.5t-12.5 63.5zM201 354q8 59 25.5 169t38 238t42 260t39.5 234l41 240h78l-41 -240q-18 -102 -43 -234t-50.5 -260t-47 -237.5t-33.5 -169.5h-49z" />
<glyph unicode="&#x22;" horiz-adv-x="589" d="M258 1024q0 20 4 60t9 85t10.5 87t9.5 67l31 172h65l-31 -172q-4 -25 -13 -68t-19.5 -87t-20.5 -84t-16 -60h-29zM457 1024q0 20 4 60t9 85t10 87t9 67l31 172h66l-31 -172q-4 -25 -13.5 -68t-19.5 -87t-20 -84t-17 -60h-28z" />
<glyph unicode="#" horiz-adv-x="1753" d="M125 453l12 71h416l82 469h-414l12 72h414l76 430h76l-76 -430h487l76 430h78l-76 -430h420l-12 -72h-420l-82 -469h420l-12 -71h-420l-80 -453h-78l80 453h-488l-79 -453h-76l80 453h-416zM629 524h487l82 469h-487z" />
<glyph unicode="$" horiz-adv-x="1226" d="M84 238l66 47q49 -84 133 -147.5t206 -80.5l125 711q-63 29 -127.5 65.5t-114.5 88t-76 121t-9 165.5q12 68 47 124.5t90 97t129 63.5t162 23q8 0 14 -1.5t14 -1.5l35 199h70l-37 -205q104 -16 190 -70.5t142 -142.5l-64 -45q-47 82 -118.5 127t-161.5 62l-111 -623 q70 -35 137.5 -78t117.5 -99t74.5 -132t6.5 -174q-14 -80 -55 -145.5t-102.5 -111.5t-142.5 -70.5t-173 -24.5h-6l-35 -205h-70l37 209q-141 16 -237.5 87.5t-155.5 166.5zM362 1196q-12 -72 7.5 -126t59.5 -95t92 -73t106 -58l104 602h-22q-147 0 -237 -69.5t-110 -180.5z M559 53q154 0 259 79t128 204q14 78 -2 138.5t-54 107.5t-93.5 85t-118.5 70z" />
<glyph unicode="%" horiz-adv-x="1800" d="M121 0l1546 1495h98l-1546 -1495h-98zM299 1223q12 63 44 117.5t79 93.5t105.5 60.5t119.5 21.5q76 0 138.5 -31t104.5 -82t59.5 -118.5t2.5 -143.5q-12 -66 -43.5 -119t-78 -92t-105 -60.5t-121.5 -21.5q-76 0 -138.5 29.5t-103 81t-58 120t-5.5 144.5zM365 1212 q-10 -57 3 -110t44.5 -95t82 -68t113.5 -26q49 0 96.5 17.5t85 49.5t63.5 75t36 94q8 57 -4.5 111.5t-44 97.5t-81.5 68.5t-116 25.5q-51 0 -97 -18.5t-84 -50t-63.5 -75.5t-33.5 -96zM926 352q12 63 43.5 117.5t79 94.5t105.5 61.5t120 21.5q76 0 138.5 -30.5t103 -82 t59 -120t4.5 -144.5q-12 -66 -44 -119t-79 -92t-104.5 -60.5t-120.5 -21.5q-78 0 -139.5 30t-103.5 81t-58.5 119.5t-3.5 144.5zM991 344q-10 -57 3.5 -111.5t45 -96.5t82 -67.5t113.5 -25.5q49 0 96 17.5t85 49t63.5 74.5t33.5 95q10 57 -2 111t-44.5 97t-83 69t-113.5 26 q-51 0 -98.5 -17.5t-84 -49.5t-62.5 -76t-34 -95z" />
<glyph unicode="&#x26;" horiz-adv-x="1650" d="M119 403q14 86 65.5 150.5t123 116t158.5 93.5t175 81q-84 111 -126 205t-23 196q20 117 111 194t235 77q76 0 137 -27t102 -72t58.5 -105.5t5.5 -127.5q-12 -66 -48 -118t-89.5 -95t-119 -79t-136.5 -69l18 -22l321 -379l429 477h90l-473 -524l321 -375h-88l-279 324 q-66 -74 -132 -136.5t-136.5 -109.5t-148.5 -74t-168 -27q-100 0 -178 34t-128.5 92.5t-71 136t-5.5 163.5zM193 395q-12 -74 5 -137t60 -110.5t107.5 -75t144.5 -27.5t148.5 25.5t133 69.5t126 103.5t124.5 127.5l-333 393l-27 29q-84 -39 -166 -78t-149.5 -85 t-114.5 -103.5t-59 -131.5zM563 1239q-16 -86 19.5 -171t122.5 -196q68 31 129 64t110 70.5t82 83t43 100.5q8 51 -4 98t-43 83t-79 56.5t-112 20.5q-113 0 -182.5 -56.5t-85.5 -152.5z" />
<glyph unicode="'" horiz-adv-x="391" d="M258 1024q0 20 4 60t9 85t10.5 87t9.5 67l31 172h65l-31 -172q-4 -25 -13 -68t-19.5 -87t-20.5 -84t-16 -60h-29z" />
<glyph unicode="(" horiz-adv-x="892" d="M161.5 255q-18.5 165 12.5 347q33 182 108.5 335t176 272.5t216.5 204.5t228 132l35 -61q-113 -49 -223.5 -131t-203.5 -194.5t-161.5 -255t-99.5 -312.5q-29 -170 -13.5 -323.5t65.5 -284.5t130 -235.5t180 -176.5l-53 -55q-100 72 -184 182.5t-139.5 250.5t-74 305z " />
<glyph unicode=")" horiz-adv-x="892" d="M-55 -428q113 49 222 132t201.5 197.5t161 258t99.5 313.5q29 170 12.5 323.5t-67 282.5t-130 233.5t-180.5 176.5l53 55q100 -72 184.5 -181.5t139.5 -249.5t74.5 -305t-13.5 -345q-33 -182 -107.5 -337t-173.5 -275.5t-214 -206.5t-227 -133z" />
<glyph unicode="*" horiz-adv-x="937" d="M199 985l327 150l-274 151l47 64l248 -187l39 332h73l-77 -330l307 183l29 -66l-326 -147l270 -148l-47 -63l-244 182l-39 -336h-73l78 336l-310 -186z" />
<glyph unicode="+" d="M143 715l13 67h348l59 342h66l-60 -342h344l-12 -67h-344l-61 -348h-66l62 348h-349z" />
<glyph unicode="," horiz-adv-x="403" d="M-20 -219q70 35 118.5 96.5t59.5 120.5q2 29 -4 49q-12 -55 -66 -55q-29 0 -46 21.5t-11 54.5q4 33 29.5 53t62.5 20q49 0 74.5 -39t15.5 -104q-14 -80 -71.5 -146.5t-139.5 -111.5z" />
<glyph unicode="-" d="M125 492l12 65h758l-12 -65h-758z" />
<glyph unicode="." horiz-adv-x="403" d="M31 74q4 29 27.5 48t54.5 19q41 0 59 -27.5t12 -62.5q-6 -29 -28.5 -48t-55.5 -19q-37 0 -57 26.5t-12 63.5z" />
<glyph unicode="/" horiz-adv-x="946" d="M-33 0l971 1495h86l-969 -1495h-88z" />
<glyph unicode="0" horiz-adv-x="1417" d="M175.5 387q-19.5 143 17.5 348l14 84q35 195 98.5 328t147.5 215t184 118t209 36q113 0 210 -37t161.5 -124t88 -229.5t-11.5 -351.5l-16 -90q-35 -197 -96.5 -331t-142.5 -217t-180 -119.5t-210 -36.5q-129 0 -229.5 40.5t-162.5 132t-81.5 234.5zM249.5 412 q16.5 -131 71 -211t140.5 -115t192 -35q88 0 173 32t158 107.5t130 197.5t88 304l17 92q33 193 14 320t-74 202.5t-139 107.5t-178 32t-181.5 -33t-161 -108.5t-130 -197.5t-88.5 -302l-13 -72q-35 -190 -18.5 -321z" />
<glyph unicode="1" horiz-adv-x="749" d="M190 1053l15 73h10q86 0 157.5 29t127 79t91.5 116.5t48 144.5h74l-262 -1495h-78l221 1257q-55 -90 -153.5 -147t-227.5 -57h-23z" />
<glyph unicode="2" horiz-adv-x="1220" d="M45 0l14 84q14 82 63.5 155.5t120 140t156.5 127t176 116.5q88 57 175.5 111t159 112.5t120.5 123t62 138.5q14 74 -6.5 136.5t-67.5 108.5t-117 71.5t-156 25.5q-129 0 -239.5 -57.5t-175.5 -149.5l-64 35q78 109 204 173.5t282 64.5q102 0 185 -32t139.5 -88.5t81 -133 t9.5 -164.5q-16 -86 -68 -158t-128 -135.5t-168 -121.5t-185 -118q-86 -53 -165.5 -108.5t-145 -114.5t-110.5 -123.5t-58 -136.5l-2 -8h858l-14 -74h-936z" />
<glyph unicode="3" horiz-adv-x="1193" d="M33 190l63 41q53 -86 164 -134t250 -48q172 0 291 84t147 238q14 82 -6 150.5t-67.5 117.5t-118 76.5t-156.5 27.5h-164l10 70h160q82 0 157 21.5t134 61.5t100 97.5t54 128.5q12 76 -8.5 137.5t-67.5 104.5t-117 65.5t-153 22.5q-143 0 -245 -48t-167 -120l-53 43 q72 78 187.5 133.5t279.5 55.5q104 0 188 -29t140.5 -82t80 -127t8.5 -164q-23 -127 -113.5 -215t-236.5 -125q68 -23 120 -61.5t85 -92t45 -119t0 -141.5q-16 -92 -61 -162.5t-113 -118.5t-156 -73.5t-190 -25.5q-82 0 -156 16t-135 46t-108.5 67.5t-71.5 80.5z" />
<glyph unicode="4" horiz-adv-x="1216" d="M66 385l6 72l952 1038h76l-182 -1040h221l-15 -70h-219l-67 -385h-76l67 385h-763zM158 455h684l164 923z" />
<glyph unicode="5" horiz-adv-x="1222" d="M53 221l70 35q51 -94 147.5 -150.5t229.5 -56.5q92 0 174 30t146.5 83t106.5 129t58 166q16 92 2 174t-59 145.5t-120 100t-179 36.5q-117 0 -206 -36.5t-161 -110.5l-65 31l219 698h747l-10 -70h-688l-174 -559q68 53 153.5 84t198.5 31q119 0 206 -43t140 -116.5 t71.5 -171t0.5 -204.5q-18 -100 -66.5 -186t-121 -148.5t-167.5 -97t-206 -34.5q-158 0 -276 68.5t-171 172.5z" />
<glyph unicode="6" horiz-adv-x="1351" d="M179 426.5q-17 134.5 18 325.5q33 193 106.5 336t176 238t231.5 142.5t276 47.5q109 0 174.5 -18.5t124.5 -53.5l-49 -64q-49 33 -108.5 49.5t-145.5 16.5q-131 0 -248 -43t-210 -129t-159.5 -217t-97.5 -307l-10 -52q27 68 75 124.5t109.5 97.5t135 63.5t155.5 22.5 q125 0 222.5 -48.5t159 -129t86 -185t5.5 -217.5q-18 -98 -65 -180t-117 -141.5t-160 -92t-194 -32.5q-125 0 -236.5 55t-171.5 153q-66 104 -83 238.5zM256 557q-16 -84 2 -174t69.5 -165t138.5 -123t210 -48q86 0 162.5 28.5t137 80t101.5 122t58 156.5q16 96 -5.5 187.5 t-75 162t-136 112.5t-191.5 42q-88 0 -167 -28.5t-141.5 -79t-105.5 -121t-57 -152.5z" />
<glyph unicode="7" horiz-adv-x="1241" d="M244 0l942 1425h-916l15 70h995l-10 -65l-936 -1430h-90z" />
<glyph unicode="8" horiz-adv-x="1335" d="M100 434q25 145 135.5 239.5t276.5 135.5q-57 20 -104.5 53t-78 79t-43 103.5t0.5 126.5q12 74 52 136.5t104.5 108.5t152.5 73t197 27q117 0 205.5 -33t145 -88.5t80 -128t9.5 -152.5q-23 -129 -115 -210t-225 -111q74 -25 133 -64t98 -93t54.5 -119.5t3.5 -141.5 q-14 -84 -58.5 -156t-116 -125t-174 -83.5t-233.5 -30.5t-231.5 35.5t-166 98t-92 145.5t-10.5 175zM174 424q-12 -74 9.5 -141.5t75.5 -119.5t141 -83t208 -31q113 0 200 25.5t150.5 69.5t100.5 105.5t49 133.5q14 82 -10.5 152.5t-80.5 122t-142.5 81t-196.5 29.5 q-111 0 -198 -26.5t-151.5 -72.5t-103.5 -109.5t-51 -135.5zM358 1161q-12 -74 9.5 -134t70.5 -104t121 -68t158 -24q190 0 306 79t138 208q12 68 -6 128.5t-65.5 104.5t-124 70.5t-181.5 26.5q-94 0 -168.5 -22.5t-128 -60.5t-86 -90t-43.5 -114z" />
<glyph unicode="9" horiz-adv-x="1325" d="M139 94l56 60q53 -47 130.5 -76t188.5 -29q246 0 398.5 184.5t209.5 516.5l8 55q-27 -61 -70.5 -113.5t-102 -92.5t-129 -62.5t-150.5 -22.5q-121 0 -215 45t-155.5 123t-86 179.5t-6.5 215.5q18 96 64.5 176t114 138.5t155.5 91.5t188 33q129 0 232.5 -55.5 t165.5 -149.5q68 -106 78 -241.5t-23 -326.5q-61 -362 -231 -562.5t-453 -200.5q-129 0 -218 31.5t-149 82.5zM287 1069q-16 -94 5 -181t73.5 -154.5t133.5 -108.5t185 -41q86 0 162 27.5t136 76.5t100 116.5t55 147.5q16 92 -3.5 181.5t-71.5 159t-135 112.5t-194 43 q-82 0 -156.5 -27.5t-134 -79t-100.5 -121t-55 -151.5z" />
<glyph unicode=":" horiz-adv-x="401" d="M31 74q4 29 27.5 48t54.5 19q41 0 59 -27.5t12 -62.5q-6 -29 -28.5 -48t-55.5 -19q-37 0 -57 26.5t-12 63.5zM188 967q4 31 29 50t53 19q41 0 59.5 -27.5t12.5 -62.5q-6 -29 -27.5 -48t-54.5 -19q-39 0 -59.5 26.5t-12.5 61.5z" />
<glyph unicode=";" horiz-adv-x="403" d="M-20 -219q70 35 118.5 96.5t59.5 120.5q2 29 -4 49q-12 -55 -66 -55q-29 0 -46 21.5t-11 54.5q4 33 29.5 53t62.5 20q49 0 74.5 -39t15.5 -104q-14 -80 -71.5 -146.5t-139.5 -111.5zM188 967q4 31 29 50t53 19q41 0 59.5 -27.5t12.5 -62.5q-6 -29 -27.5 -48t-54.5 -19 q-39 0 -59.5 26.5t-12.5 61.5z" />
<glyph unicode="&#x3c;" d="M145 719l13 67l809 295l-15 -73l-716 -258l626 -265l-14 -69z" />
<glyph unicode="=" d="M115 547l12 67h758l-13 -67h-757zM174 874l12 68h758l-12 -68h-758z" />
<glyph unicode="&#x3e;" d="M94 414l15 75l718 256l-628 265l14 69l700 -303l-12 -67z" />
<glyph unicode="?" horiz-adv-x="1083" d="M283 1384q66 59 160 95.5t198 36.5q90 0 168 -28t133 -78t80 -123t8 -161q-14 -84 -55 -136t-95.5 -92t-116 -78t-117.5 -90t-100 -128t-65 -194l-12 -64h-72l11 64q23 127 67.5 210.5t101 140t118 94.5t114.5 77t93 85t52 120t-8 133t-64 99t-108.5 61.5t-138.5 21.5 q-88 0 -167 -32t-134 -85zM309 72q4 31 27.5 50t54.5 19q41 0 59.5 -27.5t12.5 -62.5q-6 -29 -28.5 -49t-55.5 -20q-37 0 -57.5 27.5t-12.5 62.5z" />
<glyph unicode="@" horiz-adv-x="1810" d="M156 586q27 150 101.5 273.5t184 213.5t246.5 140.5t291 50.5q174 0 310 -62.5t224.5 -165t124 -236.5t9.5 -276q-12 -72 -39 -140.5t-70 -123.5t-101.5 -89t-131.5 -34q-98 0 -147.5 52.5t-57.5 129.5q-23 -35 -52.5 -67.5t-68.5 -58t-87 -41t-104 -15.5q-68 0 -122 28 t-87.5 75t-46 109.5t-0.5 133.5q12 74 48 144.5t91.5 125t127 88t155.5 33.5q100 0 155.5 -54t70.5 -122q14 49 22 81t12 50l9 33h67l-100 -370q-23 -80 -22 -134.5t18.5 -88t50.5 -48t76 -14.5q51 0 95 28.5t79 74.5t58.5 105.5t33.5 121.5q23 125 -7 244.5t-108 211.5 t-200.5 148.5t-286.5 56.5q-137 0 -263 -47t-226.5 -130t-169 -196.5t-93.5 -249.5q-27 -150 1 -291t108 -249.5t209 -175t303 -66.5q127 0 243.5 45t213.5 129l51 -51q-104 -90 -236.5 -139t-277.5 -49q-182 0 -323.5 68.5t-232.5 185t-125 272.5t-3 332zM602 473 q-18 -115 36 -190.5t163 -75.5q66 0 119 24.5t94 66.5t68.5 96.5t41.5 113.5q18 59 16.5 113.5t-23 96.5t-61.5 66.5t-100 24.5q-68 0 -127 -28.5t-105 -75t-78 -107.5t-44 -125z" />
<glyph unicode="A" horiz-adv-x="1513" d="M6 0l879 1495h80l354 -1495h-78l-108 463h-773l-270 -463h-84zM401 535h715l-205 872z" />
<glyph unicode="B" horiz-adv-x="1425" d="M100 0l262 1495h592q92 0 167 -34t125 -91t72 -132q13 -45 13 -93q0 -31 -6 -64q-20 -115 -97 -200.5t-192 -118.5q55 -25 99.5 -64t72.5 -90q28 -52 40 -112q5 -28 6 -57q0 -33 -7 -68q-14 -80 -55 -148.5t-102.5 -118t-140.5 -77t-169 -27.5h-680zM188 70h596 q76 0 141.5 23.5t116 65.5t84 99t45.5 125q5 29 5 56q0 43 -12 83q-19 64 -60 112t-101.5 75.5t-130.5 27.5h-567zM317 807h592q66 0 123.5 21.5t103.5 60.5t75.5 90t39.5 111q5 26 5 52q0 38 -11 74q-18 60 -59 107t-102.5 74.5t-137.5 27.5h-520z" />
<glyph unicode="C" horiz-adv-x="1705" d="M203 836q27 150 103.5 274.5t188 214.5t249 140.5t284.5 50.5q231 0 388 -95.5t245 -273.5l-74 -35q-76 162 -209 247t-358 85q-131 0 -255 -46t-224.5 -128t-170 -197t-94.5 -250q-13 -71 -13 -139q0 -78 17 -152q31 -139 112 -245.5t209 -171t298 -64.5q180 0 339 77 t263 224l66 -45q-119 -162 -292 -244.5t-382 -82.5q-182 0 -324.5 68.5t-234.5 185t-127 272.5q-19 83 -19 171q0 77 15 159z" />
<glyph unicode="D" horiz-adv-x="1550" d="M100 0l262 1495h406q162 -2 296 -66.5t224 -174.5q90 -108 129 -254q22 -83 23 -173q0 -67 -13 -137q-29 -160 -103.5 -287t-183 -217t-245.5 -138t-291 -48h-504zM190 72h420q135 0 258 44t221.5 125t167 197.5t95.5 261.5q11 62 11 122q0 82 -20 158 q-34 132 -116 230.5t-203 156.5t-270 58h-326z" />
<glyph unicode="E" horiz-adv-x="1320" d="M100 0l262 1495h973l-12 -72h-897l-113 -639h897l-12 -69h-897l-113 -641h897l-12 -74h-973z" />
<glyph unicode="F" horiz-adv-x="1273" d="M100 0l262 1495h953l-12 -72h-877l-115 -659h875l-12 -72h-875l-121 -692h-78z" />
<glyph unicode="G" horiz-adv-x="1816" d="M199 838q27 147 100.5 272t182 215t243.5 140.5t283 50.5q217 0 379.5 -98.5t257.5 -264.5l-72 -39q-86 156 -229.5 243t-342.5 87q-133 0 -253.5 -46t-218 -129t-164 -197t-91.5 -247q-12 -66 -12 -131q0 -79 18 -156q33 -139 118 -246.5t216 -173t301 -65.5 q145 0 267.5 50.5t213.5 137.5t148.5 203.5t75.5 249.5h-698l12 72h774l-2 -18q-12 -154 -72.5 -293.5t-162 -245t-244 -167.5t-318.5 -62q-178 0 -323.5 68.5t-241.5 185t-136 272.5q-23 88 -23 182q0 73 14 150z" />
<glyph unicode="H" horiz-adv-x="1497" d="M100 0l262 1495h78l-125 -711h951l125 711h75l-262 -1495h-76l125 713h-950l-125 -713h-78z" />
<glyph unicode="I" horiz-adv-x="516" d="M123 0l262 1495h78l-262 -1495h-78z" />
<glyph unicode="J" horiz-adv-x="1058" d="M49 205l68 33q35 -82 110.5 -134.5t194.5 -52.5q145 0 229 89t109 229l196 1126h78l-198 -1126q-31 -176 -133.5 -282.5t-286.5 -106.5q-141 0 -234.5 64.5t-132.5 160.5z" />
<glyph unicode="K" horiz-adv-x="1398" d="M100 0l262 1495h78l-172 -975l1045 975h102l-651 -608l455 -887h-84l-428 836l-457 -424l-72 -412h-78z" />
<glyph unicode="L" horiz-adv-x="1247" d="M100 0l262 1495h78l-252 -1421h854l-10 -74h-932z" />
<glyph unicode="M" horiz-adv-x="1785" d="M100 0l262 1495h72l467 -829l785 829h69l-262 -1495h-74l238 1362l-772 -815l-469 827l-240 -1374h-76z" />
<glyph unicode="N" horiz-adv-x="1566" d="M100 0l262 1495h82l773 -1384l243 1384h76l-262 -1495h-78l-776 1389l-244 -1389h-76z" />
<glyph unicode="O" horiz-adv-x="1832" d="M201 838q27 150 101.5 273.5t182 213.5t239.5 140.5t275 50.5q186 0 331 -76t237 -198t127 -276q19 -84 20 -171q0 -71 -14 -144q-27 -150 -100.5 -273.5t-180 -211.5t-239 -137t-275.5 -49q-176 0 -320.5 68.5t-239.5 185t-135 272.5q-23 88 -23 182q0 73 14 150z M276 825q-11 -67 -12 -131q0 -87 22 -168q36 -141 122 -246.5t214.5 -167t288.5 -61.5q127 0 246 45t214 127t161.5 193.5t91.5 245.5q13 67 13 132q0 76 -17 151q-31 140 -113 252t-211 180.5t-301 68.5q-129 0 -248.5 -46t-216 -129t-163 -196.5t-91.5 -249.5z" />
<glyph unicode="P" horiz-adv-x="1427" d="M100 0l262 1495h494q121 0 221.5 -41t168.5 -114q68 -74 98 -178q18 -62 18 -130q0 -47 -8 -96q-18 -104 -68.5 -191.5t-128.5 -151t-181.5 -98t-227.5 -34.5h-490l-80 -461h-78zM270 532h482q111 0 200.5 31t157.5 86.5t110 131t58 165.5q8 44 8 86q0 54 -14 104 q-24 88 -81.5 152t-145 100.5t-197.5 36.5h-420z" />
<glyph unicode="Q" horiz-adv-x="1828" d="M201 838q27 150 101.5 273.5t182 213.5t239.5 140.5t275 50.5q186 0 331 -76t237 -198t127 -276q19 -85 19 -171q0 -71 -13 -144q-27 -145 -97.5 -265t-172.5 -208l118 -178h-84l-88 135q-102 -76 -222 -115.5t-249 -39.5q-176 0 -320.5 68.5t-239.5 185t-135 272.5 q-23 88 -23 182q0 73 14 150zM276 825q-11 -67 -11 -131q0 -87 21 -168q36 -141 122 -246.5t214.5 -167t288.5 -61.5q117 0 224.5 38t199.5 106l-264 401h82l238 -356q88 80 149.5 187.5t83.5 234.5q13 67 13 132q0 76 -17 151q-31 140 -113 252t-211 180.5t-301 68.5 q-129 0 -248.5 -46t-216 -129t-163 -196.5t-91.5 -249.5z" />
<glyph unicode="R" horiz-adv-x="1447" d="M100 0l262 1495h568q113 0 204 -41t151.5 -111.5t84.5 -166.5q13 -53 13 -109q0 -46 -9 -94q-14 -88 -56 -162t-103.5 -127t-136 -86t-154.5 -41l305 -557h-84l-299 553h-572l-96 -553h-78zM287 618h551q90 0 167.5 26t138 73t100.5 114.5t54 153.5q6 38 6 75 q0 49 -11 95q-19 80 -69 139.5t-128 95t-178 37.5h-490z" />
<glyph unicode="S" horiz-adv-x="1349" d="M43 274l66 52q86 -127 225 -203t332 -76q98 0 176 23.5t133 63.5t89 95.5t46 118.5q7 36 7 68q1 54 -19 96q-30 66 -92 110t-146 73.5t-172 58.5q-90 29 -177 60.5t-150.5 80.5t-95.5 121q-20 45 -20 103q0 35 7 75q25 143 150.5 233.5t340.5 90.5q184 0 333 -74 t241 -184l-62 -50q-88 111 -219 175.5t-299 64.5q-186 0 -288.5 -71.5t-122.5 -188.5q-6 -32 -6 -60q0 -52 20 -90q30 -60 89.5 -102.5t140.5 -72t167 -56.5q92 -29 181.5 -62.5t155.5 -86.5q66 -52 98 -128q19 -47 20 -109q0 -39 -8 -85q-12 -76 -53 -141.5t-108 -114.5 t-157.5 -78t-203.5 -29q-106 0 -198.5 24t-170.5 63.5t-140.5 94t-109.5 117.5z" />
<glyph unicode="T" horiz-adv-x="1327" d="M256 1425l12 70h1123l-11 -70h-526l-248 -1425h-78l250 1425h-522z" />
<glyph unicode="U" horiz-adv-x="1474" d="M186 557l166 938h76l-166 -950q-9 -53 -9 -102q1 -47 9 -93q18 -92 70.5 -157.5t142.5 -103.5t217 -38q106 0 192.5 33t151 90t105.5 135t57 170l178 1016h76l-178 -1016q-18 -111 -66.5 -203t-123 -158.5t-175 -102t-225.5 -35.5q-135 0 -238.5 40.5t-169.5 116.5 q-64 77 -88 183q-12 55 -13 116q0 58 11 121z" />
<glyph unicode="V" horiz-adv-x="1497" d="M266 1495h78l322 -1399l811 1399h84l-871 -1495h-78z" />
<glyph unicode="W" horiz-adv-x="2254" d="M291 1495h78l163 -1378l715 1378h70l242 -1382l649 1382h82l-707 -1495h-78l-239 1382l-715 -1382h-78z" />
<glyph unicode="X" horiz-adv-x="1384" d="M-6 0l696 780l-383 715h82l352 -661l582 661h92l-637 -723l418 -772h-84l-387 719l-635 -719h-96z" />
<glyph unicode="Y" horiz-adv-x="1353" d="M233 1495h82l375 -844l666 844h92l-731 -922l-101 -573h-77l102 586z" />
<glyph unicode="Z" horiz-adv-x="1327" d="M37 0l12 72l1194 1353h-926l11 70h1020l-13 -70l-1192 -1353h967l-12 -72h-1061z" />
<glyph unicode="[" horiz-adv-x="901" d="M18 -471l344 1966h560l-11 -70h-483l-322 -1826h482l-13 -70h-557z" />
<glyph unicode="\" horiz-adv-x="946" d="M233 1495h78l451 -1495h-82z" />
<glyph unicode="]" horiz-adv-x="901" d="M2 -471l12 68h480l323 1828h-481l12 70h559l-346 -1966h-559z" />
<glyph unicode="^" horiz-adv-x="1077" d="M324 1024l319 340h49l207 -340h-80l-162 268l-245 -268h-88z" />
<glyph unicode="_" d="M6 -160l14 66h758l-14 -66h-758z" />
<glyph unicode="`" horiz-adv-x="1077" d="M522 1565h101l194 -303h-69z" />
<glyph unicode="a" horiz-adv-x="1411" d="M129 621q20 111 75.5 204t135.5 160.5t180.5 105t208.5 37.5q96 0 176 -26.5t141.5 -74.5t102.5 -112.5t59 -140.5l60 332h73l-194 -1106h-72l45 262q-76 -129 -196.5 -207t-276.5 -78q-133 0 -238.5 51.5t-175 139.5t-98.5 204q-16 65 -16 135q0 56 10 114zM203 608 q-8 -48 -8 -95q0 -62 14 -120q24 -102 83.5 -179t152.5 -122t210 -45q96 0 182.5 35t155 98.5t114.5 148.5t62 187q9 49 9 97q0 53 -11 105q-20 98 -76.5 173.5t-147.5 121.5t-214 46q-96 0 -183 -34t-158 -93.5t-119 -142t-66 -181.5z" />
<glyph unicode="b" horiz-adv-x="1417" d="M78 0l282 1614h76l-133 -754q82 129 207 198.5t274 69.5q127 0 230.5 -52t172 -140t96.5 -205q15 -64 15 -133q0 -56 -10 -115q-20 -111 -74.5 -204t-133.5 -160.5t-177.5 -104.5t-204.5 -37q-98 0 -179 26t-143.5 73t-104.5 110.5t-62 141.5l-55 -328h-76zM248 588 q-8 -47 -8 -92q0 -56 12 -110q22 -98 80.5 -172.5t151.5 -119.5t214 -45q92 0 178.5 34t156 93.5t117.5 141t64 178.5q9 51 9 100q0 56 -12 110q-23 101 -81.5 180t-148.5 126t-207 47q-94 0 -182 -36t-159 -98.5t-119 -149.5t-66 -187z" />
<glyph unicode="c" horiz-adv-x="1292" d="M129 621q20 113 74.5 207t134.5 160.5t180 103t209 36.5q186 0 307 -81.5t185 -210.5l-68 -37q-53 115 -156.5 187.5t-269.5 72.5q-94 0 -181 -33t-157 -91t-118 -141t-66 -184q-8 -48 -8 -93q0 -61 14 -120q24 -102 85.5 -180t156 -124t213.5 -46q135 0 251.5 59.5 t188.5 172.5l67 -37q-80 -129 -215.5 -197t-293.5 -68q-135 0 -244 52.5t-180.5 140.5t-101.5 205q-17 66 -17 136q0 54 10 110z" />
<glyph unicode="d" horiz-adv-x="1415" d="M129 625q20 111 75.5 204t135.5 159.5t180.5 103t208.5 36.5q96 0 175 -26.5t139.5 -73.5t101.5 -110.5t61 -139.5l150 836h74l-285 -1614h-70l41 244q-78 -119 -201 -193t-270 -74q-131 0 -236.5 52.5t-175 141.5t-98.5 206q-16 65 -16 135q0 55 10 113zM205 612 q-8 -50 -8 -97q0 -61 13 -118q23 -102 83.5 -180t152.5 -124t211 -46q94 0 180.5 35t155 96.5t114.5 146.5t64 183q8 49 8 96q0 56 -11 110q-21 100 -78.5 176.5t-148.5 122.5t-212 46q-96 0 -183 -33t-158 -91t-119 -141t-64 -182z" />
<glyph unicode="e" horiz-adv-x="1353" d="M129 616q20 111 75.5 205t138.5 163t188.5 106.5t226.5 37.5q125 0 222 -45t162 -121q64 -78 92 -182q18 -68 18 -142q0 -40 -5 -81l-4 -29h-1050q-1 -17 -1 -34q0 -85 26 -158q30 -88 92.5 -152.5t154.5 -100.5t213 -36q125 0 233.5 49t186.5 148l63 -45 q-190 -222 -493 -222q-150 0 -261.5 49.5t-181 135.5t-95.5 202q-13 59 -13 124q0 62 12 128zM199 596h977q1 19 1 37q0 79 -21 148q-26 85 -80 147.5t-136 97.5t-188 35q-102 0 -193.5 -33t-165.5 -92t-124 -142.5t-68 -185.5q-2 -4 -2 -12z" />
<glyph unicode="f" horiz-adv-x="741" d="M137 1042l13 64h212l23 129q20 115 49 188.5t77 115.5t117.5 58.5t174.5 16.5h49l-14 -70h-41q-84 0 -141.5 -11t-95.5 -45t-60.5 -94.5t-40.5 -160.5l-23 -127h324l-10 -64h-326l-180 -1042h-76l182 1042h-213z" />
<glyph unicode="g" horiz-adv-x="1411" d="M68 -168l75 25q45 -117 152.5 -185.5t273.5 -68.5q113 0 201 33.5t152.5 97t105.5 151.5t59 197q2 25 9 51q4 23 9 51.5t11 57.5q-74 -121 -194.5 -193t-274.5 -72q-133 0 -238.5 52.5t-175 141.5t-98.5 206q-16 65 -16 135q0 55 10 113q20 111 75.5 204t135.5 159.5 t179 103t210 36.5q98 0 178 -27.5t140.5 -75.5t101.5 -114.5t59 -144.5q6 41 16.5 98.5t20.5 110.5t17.5 91t7.5 40h71l-182 -1022q-47 -260 -189.5 -405.5t-404.5 -145.5q-190 0 -317 82t-180 217zM203 612q-8 -48 -8 -95q0 -62 14 -120q24 -102 84.5 -180t152.5 -124 t211 -46q94 0 180.5 35t154 96.5t114.5 146.5t63 183q9 50 9 99q0 54 -11 107q-20 99 -77.5 176t-148.5 123t-212 46q-96 0 -183 -33t-158 -91t-119 -141t-66 -182z" />
<glyph unicode="h" horiz-adv-x="1329" d="M78 0l282 1614h76l-133 -746q66 117 181.5 188.5t269.5 71.5q119 0 207 -39.5t142 -110.5q53 -71 71 -170q8 -45 8 -94q0 -58 -11 -122l-102 -592h-74l103 592q10 58 10 111q0 38 -5 74q-13 85 -58.5 148.5t-122 99.5t-183.5 36q-96 0 -175 -31t-139 -87t-100 -135 t-57 -173l-112 -635h-78z" />
<glyph unicode="i" horiz-adv-x="425" d="M76 0l196 1106h76l-196 -1106h-76zM293 1462q4 31 28.5 49.5t53.5 18.5q41 0 59 -28q13 -20 14 -43q0 -9 -2 -19q-6 -29 -27 -48.5t-54 -19.5q-39 0 -59 28q-15 20 -15 43q0 9 2 19z" />
<glyph unicode="j" horiz-adv-x="430" d="M-281 -473l15 70q82 0 137 12t92 46t60.5 93t39.5 154l9 52q10 52 25.5 137t34 193.5t38.5 221.5q47 264 106 600h76l-213 -1206q-20 -111 -48 -183.5t-73 -114.5t-111.5 -58.5t-164.5 -16.5h-23zM299 1462q4 31 27.5 49.5t54.5 18.5q41 0 59 -28q13 -19 13 -42 q0 -9 -2 -20q-4 -29 -26.5 -48.5t-53.5 -19.5q-39 0 -59 28q-15 19 -15 43q0 9 2 19z" />
<glyph unicode="k" horiz-adv-x="1155" d="M78 0l282 1614h76l-213 -1211l842 703h102l-561 -471l398 -635h-84l-371 594l-342 -285l-53 -309h-76z" />
<glyph unicode="l" horiz-adv-x="423" d="M78 0l282 1614h76l-282 -1614h-76z" />
<glyph unicode="m" horiz-adv-x="2101" d="M72 0l194 1106h72l-43 -240q59 121 166.5 191.5t255.5 70.5q76 0 140.5 -22.5t113.5 -61t79.5 -93t41.5 -115.5q57 131 172.5 211.5t275.5 80.5q117 0 201 -43t135 -117q50 -72 68 -172q8 -46 8 -97q0 -57 -10 -117l-103 -582h-74l103 582q11 62 11 120q0 35 -4 68 q-11 88 -53 152.5t-115 101.5t-179 37q-92 0 -164 -32t-125 -87t-88 -131t-53 -164l-113 -647h-72l113 643q10 51 10 97q0 39 -7 74q-15 77 -58 132t-110.5 85t-153.5 30q-96 0 -172 -33t-132.5 -90t-92.5 -134t-52 -163l-113 -641h-73z" />
<glyph unicode="n" horiz-adv-x="1327" d="M72 0l194 1106h72l-39 -223q66 111 176.5 178t259.5 67q123 0 214 -39.5t147 -110.5t76 -169q9 -47 10 -99q0 -56 -11 -118l-104 -592h-76l105 592q10 54 10 103q0 43 -8 83q-16 86 -62.5 148.5t-125.5 98.5t-185 36q-98 0 -176 -32t-137.5 -87t-97.5 -133t-56 -170 l-113 -639h-73z" />
<glyph unicode="o" horiz-adv-x="1382" d="M131 629q18 111 72.5 203t133.5 157.5t179 102t213 36.5q139 0 247.5 -54t177.5 -145q70 -91 96 -210q14 -64 13 -131q0 -58 -10 -119q-20 -111 -74.5 -202t-133 -155.5t-178 -99.5t-208.5 -35q-135 0 -243.5 51.5t-180 139.5t-100.5 207q-16 64 -16 132q0 60 12 122z M205 614q-9 -53 -10 -103q0 -58 13 -112q23 -102 83.5 -181t153.5 -125t212 -46q96 0 183.5 31t157 88t116.5 137t66 178q8 51 8 100q0 59 -12 115q-22 104 -80 185.5t-152 130.5t-217 49q-100 0 -188 -33t-156 -91t-114 -140t-64 -183z" />
<glyph unicode="p" horiz-adv-x="1411" d="M-10 -477l280 1583h72l-45 -254q80 127 207 201.5t280 74.5q127 0 229.5 -52t170 -140t95.5 -206q15 -65 15 -133q0 -56 -10 -114q-20 -113 -74.5 -206t-133.5 -160.5t-178 -104.5t-208 -37q-98 0 -179 28t-142.5 75t-103.5 112.5t-60 141.5q-6 -41 -16.5 -97.5 t-21.5 -121t-22.5 -133t-23.5 -134.5q-27 -156 -58 -323h-73zM246 590q-10 -51 -10 -100q0 -52 11 -102q21 -99 78.5 -175t149.5 -122t215 -46q96 0 183.5 34t157 93t116.5 142t65 180q8 49 8 96q0 60 -13 117q-23 102 -82.5 180t-150.5 124t-206 46q-96 0 -183 -36 t-157 -98.5t-117 -147.5t-65 -185z" />
<glyph unicode="q" horiz-adv-x="1415" d="M129 625q20 111 75.5 204t135.5 159.5t180.5 103t208.5 36.5q98 0 179 -27.5t141.5 -76.5t101.5 -115.5t59 -144.5l60 342h76l-279 -1579h-74q25 135 47 264q20 111 42 235t38 218q-74 -121 -195.5 -194t-275.5 -73q-133 0 -239.5 52.5t-176 141.5t-98.5 206 q-16 65 -16 135q0 55 10 113zM203 612q-8 -48 -8 -95q0 -62 14 -120q24 -102 84.5 -180t152.5 -124t211 -46q94 0 180.5 35t154 96.5t114.5 146.5t63 183q9 50 9 99q0 54 -11 107q-20 99 -77.5 176t-148.5 123t-212 46q-96 0 -184 -33t-159 -91t-119 -141t-64 -182z" />
<glyph unicode="r" horiz-adv-x="808" d="M72 0l194 1106h72l-49 -277q59 125 169.5 201t260.5 76h100l-14 -76h-90q-96 0 -174 -32.5t-136.5 -88t-96.5 -130t-54 -161.5l-109 -618h-73z" />
<glyph unicode="s" horiz-adv-x="1083" d="M10 219l68 45q59 -94 170.5 -156.5t259.5 -62.5q156 0 236.5 63.5t97.5 153.5q4 23 4 43q0 40 -16 71q-24 46 -71.5 77.5t-111 54t-131.5 43.5q-70 20 -137.5 45t-116.5 62q-48 36 -74 90q-16 35 -17 81q0 25 5 54q23 117 125 183q98 64 243 64h13q154 0 266.5 -55 t190.5 -149l-62 -47q-70 92 -167 139t-232 47q-127 0 -207 -49t-96 -142q-3 -19 -3 -36q-1 -38 15 -66q22 -41 67.5 -69.5t107 -49t126.5 -41.5q72 -23 141.5 -48t121.5 -65q52 -41 78 -101q16 -38 16 -87q0 -29 -5 -61q-10 -55 -40.5 -105.5t-83 -87.5t-124 -58.5 t-163.5 -21.5q-172 0 -297 69t-197 173z" />
<glyph unicode="t" horiz-adv-x="743" d="M135 1042l10 64h211l47 264l82 41l-55 -305h309l-12 -64h-307l-115 -649q-15 -90 -15 -151v-8q1 -62 28.5 -99t85 -52t151.5 -15l-10 -68h-8q-109 0 -177.5 19.5t-103.5 64.5t-40 121q-1 15 -1 32q0 67 16 156l115 649h-211z" />
<glyph unicode="u" horiz-adv-x="1275" d="M152 308q-6 39 -6 80q0 65 14 136l102 582h74l-103 -586q-13 -67 -13 -127q0 -30 3 -59q10 -86 52 -149.5t114 -100.5t176 -37q88 0 163 31t134.5 85t99 131t58.5 169l115 643h71l-192 -1106h-74l41 238q-66 -123 -176.5 -192t-255.5 -69q-117 0 -201 41t-133 115.5 t-63 174.5z" />
<glyph unicode="v" horiz-adv-x="1177" d="M162 1106h78l241 -1016l637 1016h86l-698 -1106h-76z" />
<glyph unicode="w" horiz-adv-x="1810" d="M178 1106h78l102 -995l598 995h68l178 -1000l533 1000h88l-598 -1106h-74l-178 1001l-602 -1001h-72z" />
<glyph unicode="x" horiz-adv-x="1191" d="M-16 0l565 569l-344 537h84l315 -492l488 492h96l-547 -547l365 -559h-86l-332 512l-506 -512h-98z" />
<glyph unicode="y" horiz-adv-x="1218" d="M-195 -272l62 49q35 -55 86 -84t125 -29q47 0 89 12.5t82 41t80 77.5t85 121l96 156l-342 1036h78l315 -958l588 958h86l-758 -1221q-51 -80 -97 -136t-93 -92t-97.5 -51.5t-109.5 -15.5q-92 0 -162 35t-113 101z" />
<glyph unicode="z" horiz-adv-x="1193" d="M37 0l10 68l995 972h-804l12 66h907l-12 -66l-998 -972h836l-12 -68h-934z" />
<glyph unicode="{" horiz-adv-x="913" d="M129 477l12 76q61 0 101.5 10t66 36t41 69t25.5 106l47 277q23 125 58.5 210t97 137t151.5 74.5t221 22.5h23l-12 -68q-121 0 -201 -18t-132.5 -61t-82 -116t-47.5 -183l-49 -277q-18 -115 -57.5 -176t-121.5 -84q74 -27 90.5 -89.5t-2.5 -166.5l-51 -281 q-18 -111 -14 -183.5t41 -115.5t110.5 -61t194.5 -18l-12 -68h-23q-129 0 -211 22.5t-126 74.5t-51 137t15 210l50 281q10 59 12 102t-13.5 70t-51 39t-99.5 12z" />
<glyph unicode="|" horiz-adv-x="436" d="M8 -471l346 1966h76l-346 -1966h-76z" />
<glyph unicode="}" horiz-adv-x="948" d="M-2 -471l10 68q121 0 201 18t132 61t83 116t49 183l47 277q20 113 57 175t119 85q-74 25 -89 88.5t3 167.5l54 281q18 111 13 183.5t-42 115.5t-110.5 61t-192.5 18l12 68h23q129 0 210.5 -22.5t126 -74.5t51.5 -137t-16 -210l-51 -281q-10 -59 -12 -102t13.5 -70t51 -39 t101.5 -12l-15 -76q-61 0 -100 -10t-64.5 -36t-41 -69t-25.5 -106l-47 -277q-23 -125 -59.5 -210t-97 -137t-151.5 -74.5t-221 -22.5h-22z" />
<glyph unicode="~" horiz-adv-x="933" d="M256 1225q23 78 76 127t123 49q43 0 79.5 -19.5t71.5 -44.5q35 -20 68 -37.5t67 -17.5q94 0 131 107h64q-23 -80 -75 -128.5t-130 -48.5q-47 0 -86 20.5t-74 43.5q-33 23 -63.5 39t-63.5 16q-86 0 -122 -106h-66z" />
<glyph unicode="&#xa1;" horiz-adv-x="538" d="M41 -471l41 240q18 104 43 235t49.5 260t46 238.5t33.5 169.5h49q-8 -59 -24.5 -169t-37 -239t-42 -260t-39.5 -235l-41 -240h-78zM254 975q4 29 27.5 48t54.5 19q39 0 58.5 -27.5t13.5 -62.5q-6 -29 -28.5 -48t-55.5 -19q-39 0 -58.5 27.5t-11.5 62.5z" />
<glyph unicode="&#xa2;" horiz-adv-x="1310" d="M155.5 371.5q-18.5 97.5 0.5 203.5q18 102 70.5 188.5t126 149t165.5 97t193 34.5h8l45 246h76l-45 -252q141 -23 241.5 -108.5t141.5 -212.5l-72 -27q-20 61 -56 112.5t-86.5 90.5t-115 60.5t-141.5 21.5q-84 0 -163 -31t-143.5 -85t-109.5 -130t-60 -166 q-18 -98 3.5 -191t77 -164t141.5 -114t196 -43q68 0 131.5 19.5t118.5 55.5t100 85t76 111l66 -33q-70 -141 -202 -225t-292 -84h-19.5t-19.5 2l-43 -248h-76l43 258q-100 20 -178 73.5t-129 131t-69.5 175z" />
<glyph unicode="&#xa3;" horiz-adv-x="1566" d="M82 203q14 72 72.5 117t154.5 47q86 2 159 -38t142 -93q16 41 23 77q8 55 4 105.5t-16.5 97.5t-32 93t-39.5 93h-275l13 64h231q-41 88 -65.5 182t-3.5 207q14 80 54 146.5t101.5 114.5t141 74t172.5 26q135 0 236 -50.5t167 -144.5l-68 -33q-59 84 -144 123t-194 39 q-78 0 -144 -22.5t-116.5 -62.5t-84 -96.5t-46.5 -121.5q-18 -106 8.5 -198.5t65.5 -182.5h477l-10 -64h-438q41 -92 66.5 -184t6.5 -201q-6 -31 -15 -61.5t-23 -58.5q37 -29 75.5 -56.5t79.5 -49t86 -34t96 -12.5q68 0 118 16.5t88 55.5t63.5 101.5t42.5 154.5l8 43h78 l-11 -54q-37 -205 -126 -293.5t-254 -88.5q-119 0 -209 50t-168 111q-47 -72 -125 -118t-189 -46q-51 0 -97 14.5t-80 43t-50 70.5t-6 98zM145 193q-12 -78 40 -120t130 -42q92 0 159 42t108 107q-66 53 -130.5 91t-140.5 38q-72 0 -113.5 -33.5t-52.5 -82.5z" />
<glyph unicode="&#xa4;" horiz-adv-x="1652" d="M166 211l242 209q-55 74 -83 165t-22 193q8 104 51 195.5t115 156.5l-150 189l52 43l151 -188q74 53 162 78.5t186 19.5q102 -6 189.5 -48t152.5 -108l224 197l45 -49l-224 -199q57 -74 86 -166t23 -194q-8 -111 -54 -202t-120 -157l135 -164l-51 -45l-139 166 q-72 -49 -158 -74.5t-180 -17.5q-104 6 -193.5 48t-154.5 112l-240 -211zM381 774q-6 -96 22.5 -182t85 -153.5t136.5 -109.5t176 -48q94 -6 180 23.5t151.5 88t106.5 139t49 177.5q6 94 -23.5 181t-86 153.5t-136 109.5t-174.5 49q-96 6 -181 -23.5t-150.5 -88 t-107.5 -139.5t-48 -177z" />
<glyph unicode="&#xa5;" horiz-adv-x="1366" d="M256 340l12 66h353l47 270h-353l13 65h346l-367 754h82l336 -698l582 698h90l-631 -754h346l-12 -65h-355l-47 -270h355l-13 -66h-354l-59 -340h-76l59 340h-354z" />
<glyph unicode="&#xa6;" horiz-adv-x="436" d="M18 -471l152 860h78l-152 -860h-78zM213 635l152 860h77l-151 -860h-78z" />
<glyph unicode="&#xa7;" horiz-adv-x="1273" d="M109 219l75 29q23 -45 65 -82t96 -63.5t116.5 -42t126.5 -15.5q133 0 232.5 52.5t121.5 162.5q10 61 -16.5 103.5t-78.5 71t-122 48t-143 37.5q-86 20 -160 48t-127 67t-79 90t-13 123q12 72 71.5 126t151.5 81q-47 35 -71.5 82t-12.5 114q12 72 51 122t97.5 82t134 46.5 t159.5 14.5q63 0 124 -13.5t112 -37t92 -54.5t66 -65l-74 -29q-41 57 -129 97t-199 40q-63 0 -123.5 -10t-109.5 -32.5t-83 -62.5t-44 -98q-10 -59 15.5 -98t75.5 -66.5t118.5 -48t142.5 -39.5q82 -23 157.5 -47t131 -60t83 -86t15.5 -120q-14 -72 -75.5 -132t-153.5 -89 q51 -35 76.5 -85t13.5 -122q-10 -70 -49 -122t-97.5 -88t-133 -52t-156.5 -16q-80 0 -154 18t-136.5 50t-109.5 76t-71 95zM279 848q-10 -55 14 -97t73.5 -75t116 -56.5t142.5 -41.5q66 -16 129 -36t116 -46q86 29 141.5 78t67.5 108q8 55 -15.5 95t-72.5 70t-117.5 52.5 t-148.5 42.5q-66 16 -130.5 35.5t-117.5 48.5q-86 -29 -137 -74t-61 -104z" />
<glyph unicode="&#xa8;" horiz-adv-x="1079" d="M463 1376q6 29 27.5 45.5t50.5 16.5q37 0 54 -24.5t9 -55.5q-4 -29 -24.5 -45.5t-49.5 -16.5q-35 0 -53 22.5t-14 57.5zM770 1376q4 29 25.5 45.5t50.5 16.5q35 0 52 -24.5t11 -55.5q-4 -29 -24 -45.5t-49 -16.5q-35 0 -53.5 22.5t-12.5 57.5z" />
<glyph unicode="&#xa9;" horiz-adv-x="1845" d="M211 838q27 150 101.5 273.5t182 213.5t239.5 140.5t276 50.5q174 0 317 -70t238.5 -188.5t135.5 -275.5t9 -331q-27 -150 -101.5 -273.5t-181 -211.5t-239 -137t-273.5 -49q-176 0 -320 68.5t-239.5 185t-135.5 272.5t-9 332zM283 825q-27 -150 7 -290t118 -248.5 t214 -174t300 -65.5q129 0 247.5 46t216 127t164 193.5t90.5 248.5q27 143 -4.5 284t-113.5 254t-212 181.5t-302 68.5q-131 0 -252 -46t-218.5 -129t-164 -197.5t-90.5 -252.5zM584 793q14 78 54 143t97.5 113.5t128 75t148.5 26.5q117 0 197.5 -50t121.5 -136l-65 -33 q-35 72 -95.5 111.5t-162.5 39.5q-63 0 -122 -21.5t-107 -61t-80.5 -94t-45.5 -120.5q-12 -72 1.5 -138t51 -118.5t98 -84t142.5 -31.5q84 0 161 40t124 109l63 -31q-57 -88 -150 -137t-206 -49q-92 0 -166 36t-121 97.5t-65.5 142t-1.5 171.5z" />
<glyph unicode="&#xaa;" horiz-adv-x="937" d="M219 1210q12 70 45 125.5t81 94t106.5 59t123.5 20.5q104 0 174 -53t93 -137l32 176h62l-115 -641h-61l26 145q-45 -68 -115.5 -111.5t-162.5 -43.5q-72 0 -130.5 28.5t-98 77.5t-56 116t-4.5 144zM281 1206q-10 -63 2 -118.5t44.5 -97.5t82 -65.5t110.5 -23.5 q55 0 105.5 20.5t90.5 56.5t67.5 84t37.5 103q10 57 -3 109.5t-47 92.5t-84 63.5t-112 23.5q-55 0 -105 -18.5t-89 -51t-65.5 -78.5t-34.5 -100z" />
<glyph unicode="&#xab;" horiz-adv-x="931" d="M154 485l10 56l340 243l-15 -73l-280 -203l211 -201l-12 -65zM461 485l10 56l340 243l-12 -73l-281 -203l211 -201l-14 -65z" />
<glyph unicode="&#xac;" horiz-adv-x="1316" d="M174 930l12 71h1063l-108 -602h-78l94 531h-983z" />
<glyph unicode="&#xad;" d="M125 492l12 65h758l-12 -65h-758z" />
<glyph unicode="&#xae;" horiz-adv-x="1847" d="M164 586q27 150 101.5 274.5t182 214.5t239.5 140.5t276 50.5q174 0 317 -70t238.5 -188.5t135.5 -276.5t9 -332q-27 -150 -101.5 -273.5t-181 -211.5t-239 -137t-273.5 -49q-176 0 -320.5 68.5t-239.5 185t-135 272.5t-9 332zM236 575q-27 -150 6.5 -290t117.5 -249.5 t214 -175t300 -65.5q129 0 248 46t216.5 127t164 194.5t90.5 249.5q27 143 -5 284.5t-113.5 253t-211.5 180t-302 68.5q-131 0 -252 -46t-218.5 -129t-164 -197.5t-90.5 -250.5zM582 119l135 766h315q55 0 101.5 -21.5t78 -58.5t46 -84t6.5 -98q-16 -96 -88 -155.5 t-172 -59.5h-13l168 -289h-80l-200 348h118q72 0 127.5 45t67.5 117q12 82 -38 135t-136 57h-240l-121 -702h-75z" />
<glyph unicode="&#xaf;" horiz-adv-x="1077" d="M416 1325l12 68h541l-13 -68h-540z" />
<glyph unicode="&#xb0;" horiz-adv-x="931" d="M401 1323q0 39 15.5 75t42 61.5t61.5 41t76 15.5t77 -15.5t61.5 -41t41 -61.5t15.5 -75q0 -82 -56.5 -138.5t-138.5 -56.5q-41 0 -76 15.5t-61.5 41t-42 61.5t-15.5 77zM467 1321q0 -53 38 -91t91 -38t91 38t38 91t-38 91t-91 38t-91 -38t-38 -91z" />
<glyph unicode="&#xb1;" d="M68 276l12 68h758l-13 -68h-757zM178 907l12 68h345l61 344h68l-62 -344h346l-12 -68h-346l-60 -346h-67l59 346h-344z" />
<glyph unicode="&#xb2;" horiz-adv-x="802" d="M147 631l11 71q10 55 37.5 100.5t67.5 84.5t92.5 73.5t111.5 69.5q45 27 90 52.5t82 54t63.5 62.5t34.5 75q12 72 -38 123t-142 51q-70 0 -127 -34t-90 -87l-59 29q41 70 114.5 110.5t165.5 40.5q61 0 110.5 -18.5t82 -51t46 -77.5t5.5 -96q-10 -51 -39 -91t-69 -74 t-89 -62.5t-98 -57.5q-113 -66 -187.5 -127t-91.5 -152l-2 -4h476l-11 -65h-547z" />
<glyph unicode="&#xb3;" horiz-adv-x="743" d="M109 760l63 39q29 -53 87 -84t138 -31q92 0 154.5 44t77.5 126q14 84 -44.5 139.5t-156.5 55.5h-72l11 63h71q98 0 161 44t75 116q14 80 -37 127t-145 47q-70 0 -120 -24.5t-83 -59.5l-56 41q39 41 107 72.5t154 31.5q129 0 197.5 -69.5t49.5 -173.5q-12 -68 -58 -117 t-124 -72q74 -29 115 -90t24 -145q-20 -104 -101 -163t-204 -59q-98 0 -173 41t-111 101z" />
<glyph unicode="&#xb4;" horiz-adv-x="1077" d="M465 1262l303 303h102l-329 -303h-76z" />
<glyph unicode="&#xb5;" horiz-adv-x="1277" d="M-10 -489l284 1595h74q-31 -164 -53 -293q-10 -55 -19.5 -108.5t-17.5 -95.5t-12 -68.5t-4 -28.5q-18 -98 -9 -182t49 -147.5t110.5 -99.5t174.5 -36q88 0 164 31t135.5 85t99.5 131t56 169l115 643h73l-194 -1106h-74l41 231q-66 -121 -176.5 -187.5t-253.5 -66.5 q-154 0 -243 69t-122 179l-125 -714h-73z" />
<glyph unicode="&#xb6;" horiz-adv-x="1157" d="M176 1085q16 90 63.5 165t116 129.5t154.5 85t180 30.5h457l-262 -1495h-70l252 1427h-125l-252 -1427h-69l108 618h-182q-96 0 -172 38t-125 102.5t-69.5 148.5t-4.5 178z" />
<glyph unicode="&#xb7;" horiz-adv-x="403" d="M129 532q4 29 27.5 47.5t52.5 18.5q41 0 58.5 -26.5t11.5 -59.5q-4 -29 -26.5 -47.5t-53.5 -18.5q-37 0 -56.5 26t-13.5 60z" />
<glyph unicode="&#xb8;" horiz-adv-x="1077" d="M104 -356l66 39q37 -41 86 -65t125 -24q78 0 133 30t66 83q10 55 -37 86t-146 31h-49l33 176h65l-24 -127q125 -4 182.5 -51t44.5 -123q-14 -78 -88.5 -121t-185.5 -43q-92 0 -157.5 31t-113.5 78z" />
<glyph unicode="&#xb9;" horiz-adv-x="462" d="M168 1245l14 72h6q51 0 89 15.5t65 41t41 57t20 64.5h70l-154 -864h-71l131 725q-25 -47 -73 -79t-126 -32h-12z" />
<glyph unicode="&#xba;" horiz-adv-x="884" d="M217 1208q10 66 42 121t78 95t104.5 61.5t119.5 21.5q76 0 137.5 -29.5t103.5 -80.5t60.5 -118t5.5 -142q-12 -66 -43.5 -120t-79 -93t-105 -60.5t-118.5 -21.5q-76 0 -138 29.5t-103 79.5t-58.5 117t-5.5 140zM276 1204q-10 -59 2.5 -113.5t45 -96.5t83.5 -67.5 t117 -25.5q51 0 98.5 17.5t85 50t63.5 77t36 97.5q10 55 -3 110.5t-45 99.5t-83 70.5t-117 26.5q-51 0 -98 -18.5t-85 -51t-64.5 -78t-35.5 -98.5z" />
<glyph unicode="&#xbb;" horiz-adv-x="931" d="M123 240l14 73l281 201l-211 203l12 65l254 -243l-10 -56zM432 240l12 73l283 201l-211 203l12 65l254 -243l-10 -56z" />
<glyph unicode="&#xbc;" horiz-adv-x="1452" d="M-6 0l1339 1495h94l-1339 -1495h-94zM186 1245l15 72h6q51 0 89 15.5t64.5 41t41 57t20.5 64.5h70l-154 -864h-72l131 725q-25 -47 -73 -79t-125 -32h-13zM666 201l8 65l549 598h67l-106 -600h145l-10 -63h-145l-35 -201h-68l35 201h-440zM758 264h360l86 494z" />
<glyph unicode="&#xbd;" horiz-adv-x="1634" d="M-6 0l1339 1495h94l-1339 -1495h-94zM186 1245l15 72h6q51 0 89 15.5t64.5 41t41 57t20.5 64.5h70l-154 -864h-72l131 725q-25 -47 -73 -79t-125 -32h-13zM866 0l11 72q10 55 37.5 100t67.5 84t92 74t112 69q45 27 90 52.5t82 54.5t63.5 62.5t34.5 74.5q12 72 -38 123 t-142 51q-70 0 -127 -33.5t-90 -87.5l-60 29q41 70 115 111t166 41q61 0 110.5 -18.5t82 -51.5t46 -78t5.5 -96q-10 -51 -39 -91t-69 -74t-89 -62.5t-98 -57.5q-113 -66 -187.5 -127t-91.5 -151l-2 -4h475l-10 -66h-547z" />
<glyph unicode="&#xbe;" horiz-adv-x="1701" d="M104 764l64 39q29 -53 87 -84t138 -31q92 0 154.5 44t77.5 126q14 84 -44.5 139.5t-156.5 55.5h-72l10 63h72q98 0 160.5 44t75.5 116q14 80 -37 127t-146 47q-70 0 -120 -24.5t-82 -59.5l-56 41q39 41 106.5 72.5t153.5 31.5q129 0 198 -69.5t50 -173.5 q-12 -68 -58 -117t-124 -72q74 -29 115 -90t24 -145q-20 -104 -101 -162.5t-204 -58.5q-98 0 -173 41t-112 100zM244 0l1339 1495h94l-1339 -1495h-94zM913 201l9 65l548 598h68l-106 -600h145l-10 -63h-146l-35 -201h-67l35 201h-441zM1006 264h360l86 494z" />
<glyph unicode="&#xbf;" horiz-adv-x="1083" d="M39 -102q14 82 55 135t95.5 94t116 78t117.5 89t100 128t65 194l12 66h74l-12 -66q-23 -127 -68 -209.5t-101.5 -139t-118 -95.5t-114.5 -78t-93 -86t-52 -119q-12 -74 7 -133t64 -99t109.5 -61.5t138.5 -21.5q88 0 167 32t134 85l51 -51q-66 -59 -160 -95.5t-198 -36.5 q-90 0 -168 28t-133 78t-79.5 121.5t-8.5 162.5zM608 973q4 29 27.5 48t52.5 19q41 0 60.5 -26.5t13.5 -61.5q-6 -31 -28.5 -50t-55.5 -19q-41 0 -59.5 27.5t-10.5 62.5z" />
<glyph unicode="&#xc0;" horiz-adv-x="1513" d="M6 0l879 1495h80l354 -1495h-78l-108 463h-773l-270 -463h-84zM401 535h715l-205 872zM686 1954h100l195 -303h-70z" />
<glyph unicode="&#xc1;" horiz-adv-x="1513" d="M6 0l879 1495h80l354 -1495h-78l-108 463h-773l-270 -463h-84zM401 535h715l-205 872zM913 1651l304 303h102l-330 -303h-76z" />
<glyph unicode="&#xc2;" horiz-adv-x="1513" d="M6 0l879 1495h80l354 -1495h-78l-108 463h-773l-270 -463h-84zM401 535h715l-205 872zM664 1651l297 303h65l191 -303h-80l-152 239l-235 -239h-86z" />
<glyph unicode="&#xc3;" horiz-adv-x="1513" d="M6 0l879 1495h80l354 -1495h-78l-108 463h-773l-270 -463h-84zM401 535h715l-205 872zM592 1663q16 86 71.5 142.5t133.5 56.5q53 0 96 -21.5t84 -48.5t79 -48.5t87 -21.5q51 0 87 33t48 98h65q-18 -94 -73.5 -146t-134.5 -52q-61 0 -107.5 24.5t-87.5 51.5 q-37 23 -74 43t-82 20q-47 0 -82.5 -35t-46.5 -96h-63z" />
<glyph unicode="&#xc4;" horiz-adv-x="1513" d="M6 0l879 1495h80l354 -1495h-78l-108 463h-773l-270 -463h-84zM401 535h715l-205 872zM733 1765q6 29 27.5 45.5t50.5 16.5q37 0 54.5 -24.5t8.5 -55.5q-4 -29 -24 -45t-49 -16q-35 0 -53.5 22.5t-14.5 56.5zM1040 1765q4 29 25.5 45.5t50.5 16.5q35 0 52.5 -24.5 t11.5 -55.5q-4 -29 -24.5 -45t-49.5 -16q-35 0 -53.5 22.5t-12.5 56.5z" />
<glyph unicode="&#xc5;" horiz-adv-x="1513" d="M6 0l850 1448q-53 23 -83 77t-15 124q16 72 72.5 116.5t127.5 44.5q45 0 80 -18t57.5 -47t31 -67t-0.5 -76q-12 -57 -52 -100.5t-97 -59.5l342 -1442h-78l-108 463h-773l-270 -463h-84zM401 535h715l-205 872zM817 1636q-10 -53 20.5 -97t92.5 -44h10q47 4 83 38t44 79 q10 53 -21.5 96t-93.5 43q-47 0 -86 -32.5t-49 -82.5z" />
<glyph unicode="&#xc6;" horiz-adv-x="2105" d="M6 0l1002 1495h1093l-12 -72h-995l61 -639h821l-12 -69h-803l60 -641h630l-12 -74h-686l-43 457h-711l-305 -457h-88zM446 526h658l-78 865z" />
<glyph unicode="&#xc7;" horiz-adv-x="1705" d="M203 836q27 150 103.5 274.5t188 214.5t249 140.5t284.5 50.5q231 0 388 -95.5t245 -273.5l-74 -35q-76 162 -209 247t-358 85q-131 0 -255 -46t-224.5 -128t-170 -197t-94.5 -250q-27 -152 4 -291t112 -245.5t209 -171t298 -64.5q180 0 339 77t263 224l66 -45 q-115 -156 -280 -237.5t-363 -87.5l-23 -119q125 -4 182.5 -51.5t44.5 -122.5q-14 -78 -88.5 -121t-185.5 -43q-92 0 -157.5 30.5t-112.5 77.5l65 39q37 -41 86 -64.5t125 -23.5q78 0 133.5 30t65.5 83q10 55 -37 86t-145 31h-50l31 168q-174 6 -310 76.5t-223 187 t-120 268.5t-2 322z" />
<glyph unicode="&#xc8;" horiz-adv-x="1320" d="M100 0l262 1495h973l-12 -72h-897l-113 -639h897l-12 -69h-897l-113 -641h897l-12 -74h-973zM616 1954h101l194 -303h-69z" />
<glyph unicode="&#xc9;" horiz-adv-x="1320" d="M100 0l262 1495h973l-12 -72h-897l-113 -639h897l-12 -69h-897l-113 -641h897l-12 -74h-973zM829 1651l304 303h102l-330 -303h-76z" />
<glyph unicode="&#xca;" horiz-adv-x="1320" d="M100 0l262 1495h973l-12 -72h-897l-113 -639h897l-12 -69h-897l-113 -641h897l-12 -74h-973zM582 1651l297 303h65l191 -303h-80l-152 239l-235 -239h-86z" />
<glyph unicode="&#xcb;" horiz-adv-x="1320" d="M100 0l262 1495h973l-12 -72h-897l-113 -639h897l-12 -69h-897l-113 -641h897l-12 -74h-973zM651 1765q6 29 27.5 45.5t50.5 16.5q37 0 54.5 -24.5t9.5 -55.5q-4 -29 -24.5 -45t-49.5 -16q-35 0 -53.5 22.5t-14.5 56.5zM958 1765q4 29 26 45.5t50 16.5q35 0 52.5 -24.5 t11.5 -55.5q-4 -29 -24.5 -45t-49.5 -16q-35 0 -53.5 22.5t-12.5 56.5z" />
<glyph unicode="&#xcc;" horiz-adv-x="516" d="M123 0l262 1495h78l-262 -1495h-78zM199 1954h100l195 -303h-70z" />
<glyph unicode="&#xcd;" horiz-adv-x="516" d="M123 0l262 1495h78l-262 -1495h-78zM412 1651l303 303h102l-330 -303h-75z" />
<glyph unicode="&#xce;" horiz-adv-x="516" d="M123 0l262 1495h78l-262 -1495h-78zM164 1651l297 303h65l191 -303h-80l-152 239l-235 -239h-86z" />
<glyph unicode="&#xcf;" horiz-adv-x="516" d="M123 0l262 1495h78l-262 -1495h-78zM233 1765q6 29 28 45.5t50 16.5q37 0 54.5 -24.5t9.5 -55.5q-4 -29 -24.5 -45t-49.5 -16q-35 0 -53.5 22.5t-14.5 56.5zM541 1765q4 29 25.5 45.5t49.5 16.5q35 0 52.5 -24.5t11.5 -55.5q-4 -29 -24.5 -45t-49.5 -16q-35 0 -53 22.5 t-12 56.5z" />
<glyph unicode="&#xd0;" horiz-adv-x="1568" d="M104 741l15 62h162l120 692h383q162 -2 297.5 -66.5t225.5 -174t129 -255t10 -309.5q-29 -158 -103.5 -284.5t-183 -217t-246 -139.5t-290.5 -49h-484l129 741h-164zM227 72h400q135 0 259 45t223 127t166.5 197.5t92.5 258.5q27 147 -7 279.5t-116 231t-203.5 156.5 t-271.5 58h-303l-111 -622h508l-12 -62h-506z" />
<glyph unicode="&#xd1;" horiz-adv-x="1566" d="M100 0l262 1495h82l773 -1384l243 1384h76l-262 -1495h-78l-776 1389l-244 -1389h-76zM618 1642q16 86 71.5 142.5t133.5 56.5q53 0 96.5 -21.5t84.5 -47.5q41 -27 78.5 -48.5t86.5 -21.5q51 0 87 32.5t49 98.5h65q-18 -94 -73.5 -146.5t-135.5 -52.5q-61 0 -107 24.5 t-87 51.5q-37 23 -74 43.5t-82 20.5q-47 0 -83 -35t-46 -97h-64z" />
<glyph unicode="&#xd2;" horiz-adv-x="1832" d="M201 838q27 150 101.5 273.5t182 213.5t239.5 140.5t275 50.5q186 0 331 -76t237 -198t127 -276.5t6 -314.5q-27 -150 -100.5 -273.5t-180 -211.5t-239 -137t-275.5 -49q-176 0 -320.5 68.5t-239.5 185t-135 272.5t-9 332zM276 825q-27 -158 9.5 -299t122.5 -246.5 t214.5 -167t288.5 -61.5q127 0 246 45t214 127t161.5 193.5t91.5 245.5q27 143 -4 283t-113 252t-211 180.5t-301 68.5q-129 0 -248.5 -46t-216 -129t-163 -196.5t-91.5 -249.5zM774 1964h100l195 -303h-70z" />
<glyph unicode="&#xd3;" horiz-adv-x="1832" d="M201 838q27 150 101.5 273.5t182 213.5t239.5 140.5t275 50.5q186 0 331 -76t237 -198t127 -276.5t6 -314.5q-27 -150 -100.5 -273.5t-180 -211.5t-239 -137t-275.5 -49q-176 0 -320.5 68.5t-239.5 185t-135 272.5t-9 332zM276 825q-27 -158 9.5 -299t122.5 -246.5 t214.5 -167t288.5 -61.5q127 0 246 45t214 127t161.5 193.5t91.5 245.5q27 143 -4 283t-113 252t-211 180.5t-301 68.5q-129 0 -248.5 -46t-216 -129t-163 -196.5t-91.5 -249.5zM985 1655l303 303h103l-330 -303h-76z" />
<glyph unicode="&#xd4;" horiz-adv-x="1832" d="M201 838q27 150 101.5 273.5t182 213.5t239.5 140.5t275 50.5q186 0 331 -76t237 -198t127 -276.5t6 -314.5q-27 -150 -100.5 -273.5t-180 -211.5t-239 -137t-275.5 -49q-176 0 -320.5 68.5t-239.5 185t-135 272.5t-9 332zM276 825q-27 -158 9.5 -299t122.5 -246.5 t214.5 -167t288.5 -61.5q127 0 246 45t214 127t161.5 193.5t91.5 245.5q27 143 -4 283t-113 252t-211 180.5t-301 68.5q-129 0 -248.5 -46t-216 -129t-163 -196.5t-91.5 -249.5zM739 1661l297 303h66l190 -303h-80l-151 240l-236 -240h-86z" />
<glyph unicode="&#xd5;" horiz-adv-x="1832" d="M201 838q27 150 101.5 273.5t182 213.5t239.5 140.5t275 50.5q186 0 331 -76t237 -198t127 -276.5t6 -314.5q-27 -150 -100.5 -273.5t-180 -211.5t-239 -137t-275.5 -49q-176 0 -320.5 68.5t-239.5 185t-135 272.5t-9 332zM276 825q-27 -158 9.5 -299t122.5 -246.5 t214.5 -167t288.5 -61.5q127 0 246 45t214 127t161.5 193.5t91.5 245.5q27 143 -4 283t-113 252t-211 180.5t-301 68.5q-129 0 -248.5 -46t-216 -129t-163 -196.5t-91.5 -249.5zM688 1673q16 86 71.5 142.5t133.5 56.5q53 0 96 -21.5t84 -48.5t79 -48t87 -21q51 0 87 32.5 t48 98.5h66q-18 -94 -73.5 -146.5t-135.5 -52.5q-61 0 -107.5 24.5t-87.5 51.5q-37 23 -73.5 43t-81.5 20q-47 0 -83 -34.5t-46 -96.5h-64z" />
<glyph unicode="&#xd6;" horiz-adv-x="1832" d="M201 838q27 150 101.5 273.5t182 213.5t239.5 140.5t275 50.5q186 0 331 -76t237 -198t127 -276.5t6 -314.5q-27 -150 -100.5 -273.5t-180 -211.5t-239 -137t-275.5 -49q-176 0 -320.5 68.5t-239.5 185t-135 272.5t-9 332zM276 825q-27 -158 9.5 -299t122.5 -246.5 t214.5 -167t288.5 -61.5q127 0 246 45t214 127t161.5 193.5t91.5 245.5q27 143 -4 283t-113 252t-211 180.5t-301 68.5q-129 0 -248.5 -46t-216 -129t-163 -196.5t-91.5 -249.5zM809 1776q6 29 27.5 45t50.5 16q37 0 54 -24.5t9 -55.5q-4 -29 -24 -45t-49 -16 q-35 0 -53.5 22.5t-14.5 57.5zM1116 1776q4 29 25.5 45t50.5 16q35 0 52.5 -24.5t10.5 -55.5q-4 -29 -24 -45t-49 -16q-35 0 -53.5 22.5t-12.5 57.5z" />
<glyph unicode="&#xd7;" d="M160 471l327 279l-225 276l51 45l228 -276l317 270l41 -47l-319 -273l223 -268l-53 -45l-222 270l-327 -278z" />
<glyph unicode="&#xd8;" horiz-adv-x="1832" d="M201 838q27 150 101.5 273.5t182 213.5t239.5 140.5t275 50.5q141 0 258 -44.5t207 -121.5l146 159l49 -41l-148 -161q123 -127 172.5 -300t16.5 -356q-27 -150 -100.5 -273.5t-180 -211.5t-239 -137t-275.5 -49q-137 0 -252.5 40.5t-208.5 114.5l-145 -160l-49 43 l145 160q-123 119 -176 290t-18 370zM276 825q-29 -178 17.5 -330.5t155.5 -261.5l966 1063q-80 70 -185.5 110t-234.5 40t-248.5 -46t-216 -129t-163 -197t-91.5 -249zM496 190q82 -66 186 -102.5t229 -36.5q127 0 246 45t214 127t161.5 193.5t91.5 245.5q29 162 -13 317.5 t-151 271.5z" />
<glyph unicode="&#xd9;" horiz-adv-x="1474" d="M186 557l166 938h76l-166 -950q-18 -104 -0.5 -195.5t70.5 -157t143 -103.5t217 -38q106 0 192.5 33t151 90t105.5 135t57 170l178 1016h76l-178 -1016q-18 -111 -66.5 -203t-123 -158.5t-175 -102t-225.5 -35.5q-135 0 -238.5 40.5t-169 116.5t-89 182.5t-1.5 237.5z M664 1931h100l194 -303h-69z" />
<glyph unicode="&#xda;" horiz-adv-x="1474" d="M186 557l166 938h76l-166 -950q-18 -104 -0.5 -195.5t70.5 -157t143 -103.5t217 -38q106 0 192.5 33t151 90t105.5 135t57 170l178 1016h76l-178 -1016q-18 -111 -66.5 -203t-123 -158.5t-175 -102t-225.5 -35.5q-135 0 -238.5 40.5t-169 116.5t-89 182.5t-1.5 237.5z M877 1628l303 303h102l-330 -303h-75z" />
<glyph unicode="&#xdb;" horiz-adv-x="1474" d="M186 557l166 938h76l-166 -950q-18 -104 -0.5 -195.5t70.5 -157t143 -103.5t217 -38q106 0 192.5 33t151 90t105.5 135t57 170l178 1016h76l-178 -1016q-18 -111 -66.5 -203t-123 -158.5t-175 -102t-225.5 -35.5q-135 0 -238.5 40.5t-169 116.5t-89 182.5t-1.5 237.5z M629 1628l297 303h65l191 -303h-80l-152 240l-235 -240h-86z" />
<glyph unicode="&#xdc;" horiz-adv-x="1474" d="M186 557l166 938h76l-166 -950q-18 -104 -0.5 -195.5t70.5 -157t143 -103.5t217 -38q106 0 192.5 33t151 90t105.5 135t57 170l178 1016h76l-178 -1016q-18 -111 -66.5 -203t-123 -158.5t-175 -102t-225.5 -35.5q-135 0 -238.5 40.5t-169 116.5t-89 182.5t-1.5 237.5z M698 1743q6 29 28 45t50 16q37 0 54.5 -24.5t9.5 -55.5q-4 -29 -24.5 -45t-49.5 -16q-35 0 -53.5 22.5t-14.5 57.5zM1006 1743q4 29 25.5 45t49.5 16q35 0 52.5 -24.5t11.5 -55.5q-4 -29 -24.5 -45t-49.5 -16q-35 0 -53.5 22.5t-11.5 57.5z" />
<glyph unicode="&#xdd;" horiz-adv-x="1353" d="M233 1495h82l375 -844l666 844h92l-731 -922l-101 -573h-77l102 586zM819 1630l303 303h103l-330 -303h-76z" />
<glyph unicode="&#xde;" horiz-adv-x="1230" d="M84 0l262 1495h78l-53 -297h311q98 0 182 -34t142.5 -93t84 -144t9.5 -186q-14 -86 -56.5 -156.5t-107 -122.5t-150.5 -81t-188 -29h-375l-61 -352h-78zM236 424h370q86 0 158 24.5t125 67.5t88 103.5t47 132.5q14 80 -6.5 148.5t-67.5 118.5t-118.5 78.5t-157.5 28.5 h-316z" />
<glyph unicode="&#xdf;" horiz-adv-x="1239" d="M-285 -508l13 72q158 0 234.5 82t103.5 237l237 1336q35 203 155 309t304 106q102 0 179 -39t125 -103.5t65.5 -145t3.5 -164.5q-12 -66 -44 -120t-75 -95t-95.5 -70t-107.5 -43q76 -18 136.5 -63.5t99 -107.5t53 -138t0.5 -154q-16 -88 -57 -161.5t-103.5 -128 t-144.5 -85t-183 -30.5q-47 0 -94 10t-88 27.5t-75.5 38t-57.5 40.5l29 62q20 -23 53 -42.5t70.5 -33.5t79.5 -23.5t81 -9.5q84 0 155 27t125 73t89 108.5t47 135.5q14 82 -5 158t-66.5 133.5t-119 92t-161.5 34.5h-37l10 72h39q53 0 112.5 19.5t114 57.5t94.5 94t52 132 q12 72 -1 139.5t-52 119.5t-101.5 84t-148.5 32q-70 0 -132.5 -22.5t-112.5 -67.5t-85 -109.5t-49 -146.5l-236 -1334q-35 -199 -133 -297t-282 -98h-13z" />
<glyph unicode="&#xe0;" horiz-adv-x="1411" d="M129 621q20 111 75.5 204t135.5 160.5t180.5 105t208.5 37.5q96 0 176 -26.5t141.5 -74.5t102.5 -112.5t59 -140.5l60 332h73l-194 -1106h-72l45 262q-76 -129 -196.5 -207t-276.5 -78q-133 0 -238.5 51.5t-175 139.5t-98.5 204.5t-6 248.5zM203 608q-18 -113 6 -215 t83.5 -179t152.5 -122t210 -45q96 0 182.5 35t155 98.5t114.5 148.5t62 187q18 104 -2 202.5t-76.5 173.5t-147.5 121t-214 46q-96 0 -183 -34t-158 -93.5t-119 -142t-66 -181.5zM518 1577h100l195 -303h-70z" />
<glyph unicode="&#xe1;" horiz-adv-x="1411" d="M129 621q20 111 75.5 204t135.5 160.5t180.5 105t208.5 37.5q96 0 176 -26.5t141.5 -74.5t102.5 -112.5t59 -140.5l60 332h73l-194 -1106h-72l45 262q-76 -129 -196.5 -207t-276.5 -78q-133 0 -238.5 51.5t-175 139.5t-98.5 204.5t-6 248.5zM203 608q-18 -113 6 -215 t83.5 -179t152.5 -122t210 -45q96 0 182.5 35t155 98.5t114.5 148.5t62 187q18 104 -2 202.5t-76.5 173.5t-147.5 121t-214 46q-96 0 -183 -34t-158 -93.5t-119 -142t-66 -181.5zM733 1274l303 303h103l-330 -303h-76z" />
<glyph unicode="&#xe2;" horiz-adv-x="1411" d="M129 621q20 111 75.5 204t135.5 160.5t180.5 105t208.5 37.5q96 0 176 -26.5t141.5 -74.5t102.5 -112.5t59 -140.5l60 332h73l-194 -1106h-72l45 262q-76 -129 -196.5 -207t-276.5 -78q-133 0 -238.5 51.5t-175 139.5t-98.5 204.5t-6 248.5zM203 608q-18 -113 6 -215 t83.5 -179t152.5 -122t210 -45q96 0 182.5 35t155 98.5t114.5 148.5t62 187q18 104 -2 202.5t-76.5 173.5t-147.5 121t-214 46q-96 0 -183 -34t-158 -93.5t-119 -142t-66 -181.5zM485 1274l297 303h66l190 -303h-80l-151 239l-236 -239h-86z" />
<glyph unicode="&#xe3;" horiz-adv-x="1411" d="M129 621q20 111 75.5 204t135.5 160.5t180.5 105t208.5 37.5q96 0 176 -26.5t141.5 -74.5t102.5 -112.5t59 -140.5l60 332h73l-194 -1106h-72l45 262q-76 -129 -196.5 -207t-276.5 -78q-133 0 -238.5 51.5t-175 139.5t-98.5 204.5t-6 248.5zM203 608q-18 -113 6 -215 t83.5 -179t152.5 -122t210 -45q96 0 182.5 35t155 98.5t114.5 148.5t62 187q18 104 -2 202.5t-76.5 173.5t-147.5 121t-214 46q-96 0 -183 -34t-158 -93.5t-119 -142t-66 -181.5zM426 1296q16 86 71.5 142.5t133.5 56.5q53 0 96 -21.5t84 -48.5t79 -48t87 -21q51 0 87 32.5 t48 98.5h66q-18 -94 -73.5 -146.5t-135.5 -52.5q-61 0 -107.5 24.5t-87.5 51.5q-37 23 -73.5 43t-82.5 20q-47 0 -82.5 -34.5t-46.5 -96.5h-63z" />
<glyph unicode="&#xe4;" horiz-adv-x="1411" d="M129 621q20 111 75.5 204t135.5 160.5t180.5 105t208.5 37.5q96 0 176 -26.5t141.5 -74.5t102.5 -112.5t59 -140.5l60 332h73l-194 -1106h-72l45 262q-76 -129 -196.5 -207t-276.5 -78q-133 0 -238.5 51.5t-175 139.5t-98.5 204.5t-6 248.5zM203 608q-18 -113 6 -215 t83.5 -179t152.5 -122t210 -45q96 0 182.5 35t155 98.5t114.5 148.5t62 187q18 104 -2 202.5t-76.5 173.5t-147.5 121t-214 46q-96 0 -183 -34t-158 -93.5t-119 -142t-66 -181.5zM555 1389q6 29 27.5 45t50.5 16q37 0 54.5 -24.5t8.5 -55.5q-4 -29 -24 -45t-49 -16 q-35 0 -53.5 22.5t-14.5 57.5zM862 1389q4 29 25.5 45t50.5 16q35 0 52.5 -24.5t10.5 -55.5q-4 -29 -24 -45t-49 -16q-35 0 -53.5 22.5t-12.5 57.5z" />
<glyph unicode="&#xe5;" horiz-adv-x="1411" d="M129 621q20 111 75.5 204t135.5 160.5t180.5 105t208.5 37.5q96 0 176 -26.5t141.5 -74.5t102.5 -112.5t59 -140.5l60 332h73l-194 -1106h-72l45 262q-76 -129 -196.5 -207t-276.5 -78q-133 0 -238.5 51.5t-175 139.5t-98.5 204.5t-6 248.5zM203 608q-18 -113 6 -215 t83.5 -179t152.5 -122t210 -45q96 0 182.5 35t155 98.5t114.5 148.5t62 187q18 104 -2 202.5t-76.5 173.5t-147.5 121t-214 46q-96 0 -183 -34t-158 -93.5t-119 -142t-66 -181.5zM614 1473q16 72 72.5 116.5t128.5 44.5q45 0 80 -18.5t57.5 -47t30.5 -66.5t0 -77 q-16 -70 -70.5 -117.5t-132.5 -47.5q-41 0 -74.5 16t-57 46t-33 69t-1.5 82zM674 1460q-10 -53 20.5 -97t91.5 -44q51 0 90 35t48 82q10 53 -22 96t-93 43q-47 0 -86 -33t-49 -82z" />
<glyph unicode="&#xe6;" horiz-adv-x="2263" d="M55 319q14 84 62.5 139.5t122 88.5t172 46t217.5 13h407q0 2 1 3t1 5l17 93q14 80 -5.5 145.5t-68.5 112.5t-125 72.5t-172 25.5q-145 0 -255 -48t-196 -151l-55 47q100 104 226 160.5t288 56.5q180 0 295 -79.5t133 -219.5q82 135 222.5 217t318.5 82q127 0 225.5 -45 t163 -122.5t92 -183t15.5 -224.5l-3 -14h-1054q-6 -106 23.5 -196.5t92 -156t156.5 -102.5t215 -37q125 0 234.5 48t187.5 147l66 -45q-188 -219 -498 -220q-209 0 -342 92.5t-182 241.5q-117 -170 -279 -248.5t-348 -78.5q-111 0 -186.5 28.5t-120.5 75.5t-59.5 107.5 t-4.5 123.5zM135 322q-10 -55 3.5 -105.5t51 -87.5t100 -58.5t154.5 -21.5q158 0 312.5 78t277.5 256q-12 74 -6 156h-410q-104 0 -189 -8.5t-146.5 -32t-98.5 -66.5t-49 -110zM1108 606h975q4 98 -22.5 182t-81 144.5t-137.5 94.5t-189 34q-100 0 -191.5 -33t-163 -92 t-122 -142t-68.5 -186v-2z" />
<glyph unicode="&#xe7;" horiz-adv-x="1292" d="M129 621q20 113 74.5 207t134.5 160.5t180 103t209 36.5q186 0 307 -81.5t185 -210.5l-68 -37q-53 115 -156.5 187.5t-269.5 72.5q-94 0 -181 -33t-157 -91t-118 -141t-66 -184q-18 -111 6 -213t85.5 -180t156 -124t213.5 -46q135 0 251.5 59.5t188.5 172.5l67 -37 q-80 -129 -216 -197t-293 -68l-23 -116q125 -4 182.5 -51.5t44.5 -122.5q-14 -78 -88.5 -121t-185.5 -43q-92 0 -157.5 30.5t-112.5 77.5l65 39q37 -41 86 -64.5t125 -23.5q78 0 133 30t66 83q10 55 -37 86t-146 31h-49l31 170q-121 12 -217 67t-158.5 141t-88.5 197t-3 234 z" />
<glyph unicode="&#xe8;" horiz-adv-x="1353" d="M129 616q20 111 75.5 205t138.5 163t188.5 106.5t226.5 37.5q125 0 222 -45t161.5 -121.5t92.5 -181t13 -223.5l-4 -29h-1050q-6 -104 24.5 -192t93 -152.5t154.5 -100.5t213 -36q125 0 233.5 49t186.5 148l63 -45q-190 -222 -493 -222q-150 0 -261.5 49.5t-181 135.5 t-95.5 202.5t-1 251.5zM199 596h977q6 100 -20 185t-80 147.5t-136 97.5t-188 35q-102 0 -193.5 -33t-165.5 -92t-124 -142.5t-68 -185.5q-2 -4 -2 -12zM532 1579h101l194 -303h-69z" />
<glyph unicode="&#xe9;" horiz-adv-x="1353" d="M129 616q20 111 75.5 205t138.5 163t188.5 106.5t226.5 37.5q125 0 222 -45t161.5 -121.5t92.5 -181t13 -223.5l-4 -29h-1050q-6 -104 24.5 -192t93 -152.5t154.5 -100.5t213 -36q125 0 233.5 49t186.5 148l63 -45q-190 -222 -493 -222q-150 0 -261.5 49.5t-181 135.5 t-95.5 202.5t-1 251.5zM199 596h977q6 100 -20 185t-80 147.5t-136 97.5t-188 35q-102 0 -193.5 -33t-165.5 -92t-124 -142.5t-68 -185.5q-2 -4 -2 -12zM745 1276l304 303h102l-330 -303h-76z" />
<glyph unicode="&#xea;" horiz-adv-x="1353" d="M129 616q20 111 75.5 205t138.5 163t188.5 106.5t226.5 37.5q125 0 222 -45t161.5 -121.5t92.5 -181t13 -223.5l-4 -29h-1050q-6 -104 24.5 -192t93 -152.5t154.5 -100.5t213 -36q125 0 233.5 49t186.5 148l63 -45q-190 -222 -493 -222q-150 0 -261.5 49.5t-181 135.5 t-95.5 202.5t-1 251.5zM199 596h977q6 100 -20 185t-80 147.5t-136 97.5t-188 35q-102 0 -193.5 -33t-165.5 -92t-124 -142.5t-68 -185.5q-2 -4 -2 -12zM498 1276l297 303h65l191 -303h-80l-152 240l-235 -240h-86z" />
<glyph unicode="&#xeb;" horiz-adv-x="1353" d="M129 616q20 111 75.5 205t138.5 163t188.5 106.5t226.5 37.5q125 0 222 -45t161.5 -121.5t92.5 -181t13 -223.5l-4 -29h-1050q-6 -104 24.5 -192t93 -152.5t154.5 -100.5t213 -36q125 0 233.5 49t186.5 148l63 -45q-190 -222 -493 -222q-150 0 -261.5 49.5t-181 135.5 t-95.5 202.5t-1 251.5zM199 596h977q6 100 -20 185t-80 147.5t-136 97.5t-188 35q-102 0 -193.5 -33t-165.5 -92t-124 -142.5t-68 -185.5q-2 -4 -2 -12zM567 1382q6 29 27.5 45.5t50.5 16.5q37 0 54.5 -24.5t9.5 -55.5q-4 -29 -24.5 -45t-49.5 -16q-35 0 -53.5 22.5 t-14.5 56.5zM874 1382q4 29 26 45.5t50 16.5q35 0 52.5 -24.5t11.5 -55.5q-4 -29 -24.5 -45t-49.5 -16q-35 0 -53.5 22.5t-12.5 56.5z" />
<glyph unicode="&#xec;" horiz-adv-x="425" d="M76 0l196 1106h76l-196 -1106h-76zM82 1565h100l195 -303h-70z" />
<glyph unicode="&#xed;" horiz-adv-x="425" d="M76 0l196 1106h76l-196 -1106h-76zM303 1274l303 303h103l-330 -303h-76z" />
<glyph unicode="&#xee;" horiz-adv-x="425" d="M47 1262l297 303h66l190 -303h-80l-151 239l-236 -239h-86zM76 0l196 1106h76l-196 -1106h-76z" />
<glyph unicode="&#xef;" horiz-adv-x="425" d="M76 0l196 1106h76l-196 -1106h-76zM117 1376q6 29 27.5 45.5t50.5 16.5q37 0 54 -24.5t9 -55.5q-4 -29 -24.5 -45.5t-49.5 -16.5q-35 0 -53 22.5t-14 57.5zM424 1376q4 29 25.5 45.5t50.5 16.5q35 0 52 -24.5t11 -55.5q-4 -29 -24.5 -45.5t-49.5 -16.5q-35 0 -53 22.5 t-12 57.5z" />
<glyph unicode="&#xf0;" horiz-adv-x="1394" d="M129 612q18 117 73.5 211.5t136.5 161t181.5 102t210.5 35.5q166 0 278.5 -84t164.5 -209q-31 139 -111 282.5t-215 291.5l-258 -139l-29 49l246 133q-82 84 -180 168h114q37 -33 71 -64.5t65 -66.5l258 139l30 -47l-247 -135q215 -238 298.5 -480.5t40.5 -474.5 q-20 -113 -75.5 -206t-135 -160.5t-178 -104.5t-206.5 -37q-131 0 -239 50.5t-180.5 136.5t-103 201.5t-10.5 246.5zM209 612q-18 -109 4.5 -210t82.5 -180t153.5 -127t214.5 -48q90 0 176 34t155.5 93t118.5 140t66 178q18 104 -4.5 205.5t-81 181t-149.5 128t-208 48.5 q-98 0 -187 -33t-158.5 -91.5t-117 -140t-65.5 -178.5z" />
<glyph unicode="&#xf1;" horiz-adv-x="1327" d="M72 0l194 1106h72l-39 -223q66 111 176.5 178t259.5 67q123 0 214 -39.5t147.5 -110.5t76 -169t-1.5 -217l-104 -592h-76l105 592q18 100 2.5 186t-62.5 148.5t-126 98.5t-185 36q-98 0 -176 -32t-137.5 -87t-97.5 -133t-56 -170l-113 -639h-73zM440 1305q16 86 71.5 142 t133.5 56q53 0 96 -21.5t84 -47.5q41 -27 79 -48.5t87 -21.5q51 0 87 33t48 98h66q-18 -94 -73.5 -146.5t-135.5 -52.5q-61 0 -107.5 25t-87.5 51q-37 23 -73.5 43.5t-81.5 20.5q-47 0 -83 -35t-46 -96h-64z" />
<glyph unicode="&#xf2;" horiz-adv-x="1382" d="M131 629q18 111 72.5 203t133.5 157.5t179 102t213 36.5q139 0 247.5 -54t177.5 -145t95.5 -210t3.5 -250q-20 -111 -74.5 -202t-133 -155.5t-178 -99.5t-208.5 -35q-135 0 -243.5 51.5t-180 139.5t-100.5 207t-4 254zM205 614q-20 -113 3 -215t83.5 -181t153.5 -125 t212 -46q96 0 183.5 31t157 88t116.5 137t66 178q18 111 -3.5 215.5t-80 185.5t-152.5 130t-217 49q-100 0 -188 -33t-156 -91t-114 -140t-64 -183zM514 1577h100l195 -303h-70z" />
<glyph unicode="&#xf3;" horiz-adv-x="1382" d="M131 629q18 111 72.5 203t133.5 157.5t179 102t213 36.5q139 0 247.5 -54t177.5 -145t95.5 -210t3.5 -250q-20 -111 -74.5 -202t-133 -155.5t-178 -99.5t-208.5 -35q-135 0 -243.5 51.5t-180 139.5t-100.5 207t-4 254zM205 614q-20 -113 3 -215t83.5 -181t153.5 -125 t212 -46q96 0 183.5 31t157 88t116.5 137t66 178q18 111 -3.5 215.5t-80 185.5t-152.5 130t-217 49q-100 0 -188 -33t-156 -91t-114 -140t-64 -183zM729 1274l303 303h103l-330 -303h-76z" />
<glyph unicode="&#xf4;" horiz-adv-x="1382" d="M131 629q18 111 72.5 203t133.5 157.5t179 102t213 36.5q139 0 247.5 -54t177.5 -145t95.5 -210t3.5 -250q-20 -111 -74.5 -202t-133 -155.5t-178 -99.5t-208.5 -35q-135 0 -243.5 51.5t-180 139.5t-100.5 207t-4 254zM205 614q-20 -113 3 -215t83.5 -181t153.5 -125 t212 -46q96 0 183.5 31t157 88t116.5 137t66 178q18 111 -3.5 215.5t-80 185.5t-152.5 130t-217 49q-100 0 -188 -33t-156 -91t-114 -140t-64 -183zM481 1274l297 303h66l190 -303h-80l-151 239l-236 -239h-86z" />
<glyph unicode="&#xf5;" horiz-adv-x="1382" d="M131 629q18 111 72.5 203t133.5 157.5t179 102t213 36.5q139 0 247.5 -54t177.5 -145t95.5 -210t3.5 -250q-20 -111 -74.5 -202t-133 -155.5t-178 -99.5t-208.5 -35q-135 0 -243.5 51.5t-180 139.5t-100.5 207t-4 254zM205 614q-20 -113 3 -215t83.5 -181t153.5 -125 t212 -46q96 0 183.5 31t157 88t116.5 137t66 178q18 111 -3.5 215.5t-80 185.5t-152.5 130t-217 49q-100 0 -188 -33t-156 -91t-114 -140t-64 -183zM410 1286q16 86 71.5 142.5t132.5 56.5q53 0 96.5 -21.5t84.5 -48.5t78.5 -48t87.5 -21q51 0 86.5 32.5t48.5 98.5h65 q-18 -94 -73.5 -146.5t-135.5 -52.5q-61 0 -107 24.5t-87 51.5q-37 23 -74 43t-82 20q-47 0 -83 -34.5t-46 -96.5h-63z" />
<glyph unicode="&#xf6;" horiz-adv-x="1382" d="M131 629q18 111 72.5 203t133.5 157.5t179 102t213 36.5q139 0 247.5 -54t177.5 -145t95.5 -210t3.5 -250q-20 -111 -74.5 -202t-133 -155.5t-178 -99.5t-208.5 -35q-135 0 -243.5 51.5t-180 139.5t-100.5 207t-4 254zM205 614q-20 -113 3 -215t83.5 -181t153.5 -125 t212 -46q96 0 183.5 31t157 88t116.5 137t66 178q18 111 -3.5 215.5t-80 185.5t-152.5 130t-217 49q-100 0 -188 -33t-156 -91t-114 -140t-64 -183zM551 1389q6 29 27.5 45t50.5 16q37 0 54 -24.5t9 -55.5q-4 -29 -24.5 -45t-49.5 -16q-35 0 -53 22.5t-14 57.5zM858 1389 q4 29 25.5 45t50.5 16q35 0 52.5 -24.5t10.5 -55.5q-4 -29 -24 -45t-49 -16q-35 0 -53.5 22.5t-12.5 57.5z" />
<glyph unicode="&#xf7;" d="M143 715l13 67h757l-12 -67h-758zM393 418q4 29 27.5 47t52.5 18q39 0 57.5 -26.5t12.5 -59.5q-6 -29 -27.5 -47t-52.5 -18q-37 0 -57.5 25.5t-12.5 60.5zM514 1092q4 29 27.5 48t52.5 19q39 0 57.5 -26.5t12.5 -61.5q-6 -29 -27.5 -47t-52.5 -18q-37 0 -57.5 25.5 t-12.5 60.5z" />
<glyph unicode="&#xf8;" horiz-adv-x="1382" d="M131 629q18 111 72.5 203t133.5 157.5t179 102t213 36.5q109 0 197 -32.5t155 -89.5l115 122l47 -38l-119 -127q86 -94 120 -222.5t9 -271.5q-20 -111 -74.5 -202t-133 -155.5t-178 -99.5t-208.5 -35q-102 0 -189 29t-155 82l-108 -117l-47 43l108 117q-90 90 -128 218 t-9 280zM205 614q-23 -125 8 -236.5t106 -191.5l713 766q-59 51 -135 80t-170 29q-100 0 -188 -33t-156 -91t-114 -140.5t-64 -182.5zM367 143q57 -47 129.5 -71.5t160.5 -24.5q96 0 183.5 31t157 88t116.5 137t66 178q20 121 -7.5 232.5t-97.5 193.5z" />
<glyph unicode="&#xf9;" horiz-adv-x="1275" d="M151.5 307.5q-14.5 100.5 8.5 216.5l102 582h74l-103 -586q-20 -100 -10 -186t52 -149.5t114 -100.5t176 -37q88 0 163 31t134.5 85t99 131t58.5 169l115 643h71l-192 -1106h-74l41 238q-66 -123 -176.5 -192t-255.5 -69q-117 0 -201 41t-133 115t-63.5 174.5zM500 1538 h100l195 -303h-70z" />
<glyph unicode="&#xfa;" horiz-adv-x="1275" d="M151.5 307.5q-14.5 100.5 8.5 216.5l102 582h74l-103 -586q-20 -100 -10 -186t52 -149.5t114 -100.5t176 -37q88 0 163 31t134.5 85t99 131t58.5 169l115 643h71l-192 -1106h-74l41 238q-66 -123 -176.5 -192t-255.5 -69q-117 0 -201 41t-133 115t-63.5 174.5zM713 1235 l303 303h102l-330 -303h-75z" />
<glyph unicode="&#xfb;" horiz-adv-x="1275" d="M151.5 307.5q-14.5 100.5 8.5 216.5l102 582h74l-103 -586q-20 -100 -10 -186t52 -149.5t114 -100.5t176 -37q88 0 163 31t134.5 85t99 131t58.5 169l115 643h71l-192 -1106h-74l41 238q-66 -123 -176.5 -192t-255.5 -69q-117 0 -201 41t-133 115t-63.5 174.5zM465 1235 l297 303h65l191 -303h-80l-152 240l-235 -240h-86z" />
<glyph unicode="&#xfc;" horiz-adv-x="1275" d="M151.5 307.5q-14.5 100.5 8.5 216.5l102 582h74l-103 -586q-20 -100 -10 -186t52 -149.5t114 -100.5t176 -37q88 0 163 31t134.5 85t99 131t58.5 169l115 643h71l-192 -1106h-74l41 238q-66 -123 -176.5 -192t-255.5 -69q-117 0 -201 41t-133 115t-63.5 174.5zM535 1350 q6 29 27.5 45t49.5 16q37 0 54.5 -24.5t9.5 -55.5q-4 -29 -24.5 -45t-49.5 -16q-35 0 -53.5 22.5t-13.5 57.5zM842 1350q4 29 25.5 45t50.5 16q35 0 52 -24.5t11 -55.5q-4 -29 -24.5 -45t-49.5 -16q-35 0 -53 22.5t-12 57.5z" />
<glyph unicode="&#xfd;" horiz-adv-x="1218" d="M-195 -272l62 49q35 -55 86 -84t125 -29q47 0 89 12.5t82 41t80 77.5t85 121l96 156l-342 1036h78l315 -958l588 958h86l-758 -1221q-51 -80 -97 -136t-93 -92t-97.5 -51.5t-109.5 -15.5q-92 0 -162 35t-113 101zM676 1245l303 303h102l-329 -303h-76z" />
<glyph unicode="&#xfe;" horiz-adv-x="1406" d="M-18 -508l378 2122h74q-27 -145 -51 -285q-23 -119 -44.5 -248t-37.5 -223q80 125 207 197.5t280 72.5q125 0 225.5 -51t168 -139t94.5 -204t4 -247q-20 -115 -75.5 -208t-134.5 -160.5t-177.5 -104.5t-204.5 -37q-102 0 -183 28t-141.5 77t-99.5 114.5t-57 143.5 l-150 -848h-75zM242 582q-18 -104 3 -200.5t78.5 -170.5t149.5 -118t215 -44q94 0 181 34t156 94.5t117 142t64 178.5q20 111 -2 212t-80.5 179t-148.5 124t-205 46q-96 0 -185 -36t-160 -100.5t-119 -151.5t-64 -189z" />
<glyph unicode="&#xff;" horiz-adv-x="1218" d="M-195 -272l62 49q35 -55 86 -84t125 -29q47 0 89 12.5t82 41t80 77.5t85 121l96 156l-342 1036h78l315 -958l588 958h86l-758 -1221q-51 -80 -97 -136t-93 -92t-97.5 -51.5t-109.5 -15.5q-92 0 -162 35t-113 101zM498 1360q6 29 27.5 45t49.5 16q37 0 54.5 -24.5 t9.5 -55.5q-4 -29 -24.5 -45t-49.5 -16q-35 0 -53 22.5t-14 57.5zM805 1360q4 29 25.5 45t50.5 16q35 0 52 -24.5t11 -55.5q-4 -29 -24.5 -45t-49.5 -16q-35 0 -53 22.5t-12 57.5z" />
<glyph unicode="&#x152;" horiz-adv-x="2689" d="M199 838q27 150 103.5 273.5t187 213.5t244.5 140.5t278 50.5q133 0 245.5 -38t198.5 -105.5t144.5 -162t82.5 -206.5l86 491h922l-12 -72h-846l-113 -639h846l-12 -69h-846l-113 -641h844l-10 -74h-922l68 389q-53 -92 -125 -168t-159 -129t-185 -82.5t-203 -29.5 q-176 0 -320.5 68.5t-239.5 185t-135 272.5t-9 332zM274 825q-27 -147 6 -286.5t117 -247t214 -173t298 -65.5q127 0 247 50.5t217 137.5t165 204.5t92 250.5q0 4 1 9.5t1 9.5l4 22v4q16 137 -18.5 264.5t-115.5 225.5t-206 156.5t-288 58.5q-129 0 -251 -46t-221.5 -129 t-168 -196.5t-93.5 -249.5z" />
<glyph unicode="&#x153;" horiz-adv-x="2420" d="M131 629q18 111 72.5 203t134.5 157.5t180 102t213 36.5q98 0 180 -29.5t146.5 -81.5t109.5 -123t68 -151q35 86 92 157t133 121t166 78.5t191 28.5q127 0 225 -44t162.5 -121.5t93.5 -182t14 -223.5l-4 -29h-1053q-6 -104 25 -192t93.5 -152.5t155.5 -100.5t214 -36 q125 0 234.5 48t187.5 147l65 -45q-188 -219 -497 -220q-104 0 -191.5 28t-153 77t-111.5 116.5t-69 147.5q-78 -176 -224.5 -272.5t-326.5 -96.5q-135 0 -243.5 51.5t-179 139.5t-99.5 207t-4 254zM205 614q-20 -113 3 -215t83.5 -181t153.5 -125t212 -46q94 0 181.5 31 t157 88t117.5 137t67 178q18 111 -3.5 215.5t-80 185.5t-151.5 130t-216 49q-102 0 -189 -33t-156 -91t-115 -140t-64 -183zM1262 596h979q6 100 -21 186t-82 147.5t-138 96.5t-192 35q-100 0 -191 -33t-163 -92t-122 -142.5t-68 -185.5q-2 -4 -2 -12z" />
<glyph unicode="&#x178;" horiz-adv-x="1353" d="M233 1495h82l375 -844l666 844h92l-731 -922l-101 -573h-77l102 586zM641 1745q6 29 27.5 45t50.5 16q37 0 54.5 -24.5t8.5 -55.5q-4 -29 -24 -45t-49 -16q-35 0 -53.5 22.5t-14.5 57.5zM948 1745q4 29 25.5 45t50.5 16q35 0 52.5 -24.5t10.5 -55.5q-4 -29 -24 -45 t-49 -16q-35 0 -53.5 22.5t-12.5 57.5z" />
<glyph unicode="&#x2c6;" horiz-adv-x="1077" d="M381 1262l297 303h65l191 -303h-80l-152 239l-235 -239h-86z" />
<glyph unicode="&#x2dc;" horiz-adv-x="1077" d="M295 1274q16 86 71.5 142.5t133.5 56.5q53 0 96 -21.5t84 -48.5t79 -48.5t87 -21.5q51 0 87 33t48 98h66q-18 -94 -73.5 -146t-135.5 -52q-61 0 -107.5 24.5t-87.5 50.5q-37 23 -74 43.5t-82 20.5q-47 0 -82.5 -35t-46.5 -96h-63z" />
<glyph unicode="&#x2000;" horiz-adv-x="982" />
<glyph unicode="&#x2001;" horiz-adv-x="1964" />
<glyph unicode="&#x2002;" horiz-adv-x="982" />
<glyph unicode="&#x2003;" horiz-adv-x="1964" />
<glyph unicode="&#x2004;" horiz-adv-x="654" />
<glyph unicode="&#x2005;" horiz-adv-x="491" />
<glyph unicode="&#x2006;" horiz-adv-x="327" />
<glyph unicode="&#x2007;" horiz-adv-x="327" />
<glyph unicode="&#x2008;" horiz-adv-x="245" />
<glyph unicode="&#x2009;" horiz-adv-x="392" />
<glyph unicode="&#x200a;" horiz-adv-x="109" />
<glyph unicode="&#x2010;" d="M125 492l12 65h758l-12 -65h-758z" />
<glyph unicode="&#x2011;" d="M125 492l12 65h758l-12 -65h-758z" />
<glyph unicode="&#x2012;" d="M125 492l12 65h758l-12 -65h-758z" />
<glyph unicode="&#x2013;" horiz-adv-x="1110" d="M125 492l12 65h854l-12 -65h-854z" />
<glyph unicode="&#x2014;" horiz-adv-x="1531" d="M125 492l12 65h1264l-12 -65h-1264z" />
<glyph unicode="&#x2018;" horiz-adv-x="399" d="M217 1243q14 80 71.5 145.5t139.5 112.5l23 -43q-70 -35 -119 -95t-60 -120q-6 -31 4 -51v2q12 55 66 55q29 0 46.5 -21.5t10.5 -53.5q-4 -33 -29.5 -53.5t-62.5 -20.5q-49 0 -74.5 39t-15.5 104z" />
<glyph unicode="&#x2019;" horiz-adv-x="399" d="M205 1137q70 35 118 96t58 121q6 29 -4 51v-2q-4 -31 -21.5 -43t-44.5 -12q-29 0 -46 20.5t-11 54.5q6 33 31.5 52.5t60.5 19.5q51 0 75.5 -38t14.5 -103q-14 -80 -70.5 -146.5t-138.5 -111.5z" />
<glyph unicode="&#x201a;" horiz-adv-x="403" d="M-20 -219q70 35 118.5 96.5t59.5 120.5q2 29 -4 49q-12 -55 -66 -55q-29 0 -46 21.5t-11 54.5q4 33 29.5 53t62.5 20q49 0 74.5 -39t15.5 -104q-14 -80 -71.5 -146.5t-139.5 -111.5z" />
<glyph unicode="&#x201c;" horiz-adv-x="694" d="M217 1243q14 80 71.5 145.5t139.5 112.5l23 -43q-70 -35 -119 -95t-60 -120q-6 -31 4 -51v2q12 55 66 55q29 0 46.5 -21.5t10.5 -53.5q-4 -33 -29.5 -53.5t-62.5 -20.5q-49 0 -74.5 39t-15.5 104zM512 1243q14 80 70.5 145.5t138.5 112.5l22 -43q-70 -35 -117.5 -95 t-58.5 -120q-6 -31 4 -51v2q8 55 66 55q29 0 46 -21.5t11 -53.5q-6 -33 -31.5 -53.5t-60.5 -20.5q-51 0 -75.5 39t-14.5 104z" />
<glyph unicode="&#x201d;" horiz-adv-x="694" d="M205 1137q70 35 118 96t58 121q6 29 -4 51v-2q-4 -31 -21.5 -43t-44.5 -12q-29 0 -46 20.5t-11 54.5q6 33 31.5 52.5t60.5 19.5q51 0 75.5 -38t14.5 -103q-14 -80 -70.5 -146.5t-138.5 -111.5zM498 1137q70 35 119 96t59 121q2 27 -4 49q-6 -31 -23.5 -43t-42.5 -12 q-29 0 -46 20.5t-11 54.5q4 33 29.5 52.5t62.5 19.5q49 0 74.5 -38t15.5 -103q-14 -80 -71.5 -146.5t-139.5 -111.5z" />
<glyph unicode="&#x201e;" horiz-adv-x="696" d="M-20 -219q70 35 118.5 96.5t59.5 120.5q2 29 -4 49q-12 -55 -66 -55q-29 0 -46 21.5t-11 54.5q4 33 29.5 53t62.5 20q49 0 74.5 -39t15.5 -104q-14 -80 -71.5 -146.5t-139.5 -111.5zM274 -219q70 35 118 96.5t59 120.5q6 29 -5 51v-2q-8 -55 -65 -55q-29 0 -46.5 21.5 t-10.5 54.5q6 33 31.5 53t60.5 20q51 0 75.5 -39t14.5 -104q-14 -80 -70.5 -146.5t-138.5 -111.5z" />
<glyph unicode="&#x2022;" horiz-adv-x="602" d="M225 518q0 41 28 68.5t66 27.5q41 0 69 -27.5t28 -68.5q0 -39 -28 -66.5t-69 -27.5q-39 0 -66.5 27.5t-27.5 66.5z" />
<glyph unicode="&#x2026;" horiz-adv-x="937" d="M33 72q4 29 27.5 48t52.5 19q39 0 57 -26.5t12 -61.5q-6 -29 -27.5 -47t-52.5 -18q-37 0 -57 25.5t-12 60.5zM307 72q4 29 27.5 48t52.5 19q39 0 57.5 -26.5t12.5 -61.5q-6 -29 -27.5 -47t-52.5 -18q-37 0 -57.5 25.5t-12.5 60.5zM584 72q4 29 27.5 48t52.5 19 q39 0 57 -26.5t12 -61.5q-6 -29 -27.5 -47t-52.5 -18q-37 0 -57.5 25.5t-11.5 60.5z" />
<glyph unicode="&#x202f;" horiz-adv-x="392" />
<glyph unicode="&#x2039;" horiz-adv-x="624" d="M154 485l10 56l340 243l-15 -73l-280 -203l211 -201l-12 -65z" />
<glyph unicode="&#x203a;" horiz-adv-x="624" d="M123 240l14 73l281 201l-211 203l12 65l254 -243l-10 -56z" />
<glyph unicode="&#x205f;" horiz-adv-x="491" />
<glyph unicode="&#x20ac;" horiz-adv-x="1847" d="M92 465l10 65h220q-4 12 -5.5 24.5t-3.5 25.5q-16 127 9 256q4 27 9 51t15 49l10 29h-176l10 65h193q51 109 134 199t185.5 153.5t219 98.5t237.5 35q217 0 376 -90.5t245 -264.5l-72 -35q-72 154 -209 236t-348 82q-104 0 -206.5 -30t-191.5 -84t-163 -130t-123 -170 h940l-29 -65h-942l-10 -29h2q-10 -29 -18.5 -55.5t-12.5 -57.5q-10 -63 -13 -123.5t7 -119.5q2 -12 3 -24.5t5 -25.5h785l-29 -65h-737q29 -90 81 -166t126.5 -131t170 -86t212.5 -31q180 0 341.5 84t262.5 234l67 -35q-111 -166 -289 -260t-389 -94q-127 0 -235.5 35.5 t-193.5 100t-145 153.5t-91 196h-244z" />
<glyph unicode="&#x2122;" horiz-adv-x="1495" d="M260 1442l10 53h490l-10 -53h-215l-95 -541h-61l96 541h-215zM717 901l104 594h58l200 -342l336 342h60l-107 -594h-61l90 492l-328 -332l-207 342l-88 -502h-57z" />
<glyph unicode="&#x25fc;" horiz-adv-x="1105" d="M0 0v1106h1106v-1106h-1106z" />
<glyph unicode="&#xfb01;" horiz-adv-x="1150" d="M119 1042l12 64h213l23 129q20 115 48.5 188.5t77 115.5t118 58.5t173.5 16.5h50l-15 -70h-41q-84 0 -141 -11t-95 -45t-60.5 -94.5t-41.5 -160.5l-22 -127h323l-10 -64h-325l-181 -1042h-75l182 1042h-213zM801 0l196 1106h76l-196 -1106h-76zM1018 1462q4 31 28.5 49.5 t53.5 18.5q41 0 59.5 -27.5t11.5 -62.5q-6 -29 -27 -48.5t-54 -19.5q-39 0 -59.5 27.5t-12.5 62.5z" />
<glyph unicode="&#xfb02;" horiz-adv-x="1148" d="M119 1042l12 64h213l23 129q20 115 48.5 188.5t77 115.5t118 58.5t173.5 16.5h50l-15 -70h-41q-84 0 -141 -11t-95 -45t-60.5 -94.5t-41.5 -160.5l-22 -127h323l-10 -64h-325l-181 -1042h-75l182 1042h-213zM803 0l282 1614h76l-282 -1614h-76z" />
</font>
</defs>
</svg>
