<?xml version="1.0" standalone="no"?>
<!DOCTYPE svg PUBLIC "-//W3C//DTD SVG 1.1//EN" "http://www.w3.org/Graphics/SVG/1.1/DTD/svg11.dtd" >
<svg xmlns="http://www.w3.org/2000/svg" xmlns:xlink="http://www.w3.org/1999/xlink" version="1.1">
<metadata></metadata>
<defs>
<font id="sharp_sansbook" horiz-adv-x="1034" >
<font-face units-per-em="2048" ascent="1536" descent="-512" />
<missing-glyph horiz-adv-x="514" />
<glyph horiz-adv-x="0" />
<glyph unicode="&#xd;" horiz-adv-x="514" />
<glyph horiz-adv-x="0" />
<glyph horiz-adv-x="0" />
<glyph unicode=" "  horiz-adv-x="514" />
<glyph unicode="&#x09;" horiz-adv-x="514" />
<glyph unicode="&#xa0;" horiz-adv-x="514" />
<glyph unicode="!" horiz-adv-x="557" d="M248 373q-4 66 -9.5 173t-9.5 231t-6 250t-2 228v240h119v-240q0 -102 -2 -228t-5 -250t-8.5 -231.5t-9.5 -172.5h-67zM172 90q0 45 32 76t75 31q47 0 77.5 -31t30.5 -76q0 -47 -30.5 -78.5t-77.5 -31.5t-77 31.5t-30 78.5z" />
<glyph unicode="&#x22;" horiz-adv-x="647" d="M195 1024q-4 18 -9.5 56t-10.5 81t-9 86t-4 76v172h104v-172q0 -31 -4 -75t-8 -87t-10 -81t-8 -56h-41zM414 1024q-4 18 -9.5 56t-10.5 81t-9 86t-4 76v172h104v-172q0 -31 -4 -75t-8 -87t-10 -81t-8 -56h-41z" />
<glyph unicode="#" horiz-adv-x="1771" d="M1106 418h-444v-418h-119v418h-414v112h414v451h-414v113h414v401h119v-401h444v401h119v-401h417v-113h-417v-451h417v-112h-417v-418h-119v418zM662 530h444v451h-444v-451z" />
<glyph unicode="$" horiz-adv-x="1200" d="M1071 401q0 -80 -28.5 -151.5t-81 -127.5t-129 -93t-170.5 -45v-230h-113v228q-139 10 -253 75.5t-187 165.5l98 76q57 -88 148 -143.5t196 -65.5v655q-74 25 -144.5 52.5t-125 71.5t-88 108.5t-33.5 161.5q0 78 29.5 143.5t82 114.5t123 78.5t154.5 37.5v207h113v-207 q129 -10 219 -63t157 -139l-94 -72q-51 72 -119.5 116t-162.5 54v-584q76 -25 148.5 -55.5t130.5 -78.5t94 -118t36 -172zM950 399q0 68 -23.5 117t-62.5 85t-92 61.5t-110 46.5v-617q129 18 208.5 100t79.5 207zM281 1139q0 -59 21.5 -102.5t58 -75t86 -55t104.5 -44.5v547 q-117 -14 -193.5 -85.5t-76.5 -184.5z" />
<glyph unicode="%" horiz-adv-x="1818" d="M289 1176q0 -49 19.5 -93.5t51 -77t74.5 -52t92 -19.5t92.5 19.5t76 52t51 76.5t18.5 94q0 49 -18.5 93t-51 76.5t-76 51t-92.5 18.5t-92 -18.5t-74.5 -51t-51 -76.5t-19.5 -93zM985 319q0 70 26.5 132.5t72.5 108.5t107.5 72.5t133.5 26.5q70 0 132.5 -26.5t108.5 -72.5 t72.5 -108.5t26.5 -132.5q0 -72 -26.5 -133t-72.5 -108t-108.5 -74t-132.5 -27q-72 0 -133.5 27t-107.5 74t-72.5 108t-26.5 133zM1493 1495h149l-1284 -1495h-149zM1087 319q0 -51 18.5 -95t51.5 -76.5t76 -51t92 -18.5t92 18.5t75 51t51.5 76.5t19.5 95q0 49 -19.5 93.5 t-51.5 77t-75 51t-92 18.5t-92 -18.5t-76 -51t-51.5 -77t-18.5 -93.5zM186 1176q0 70 27 132t73 108t107.5 73t132.5 27q70 0 132.5 -27t108.5 -73t72.5 -108.5t26.5 -131.5q0 -72 -26.5 -133.5t-72.5 -108.5t-108.5 -73.5t-132.5 -26.5q-72 0 -133 26.5t-107 73.5 t-73 108.5t-27 133.5z" />
<glyph unicode="&#x26;" horiz-adv-x="1648" d="M553 -20q-193 0 -303.5 104t-110.5 278q0 86 38 156t97.5 128.5t135 108.5t151.5 97q-49 51 -86 95t-61.5 85t-36.5 84t-12 94q0 57 23.5 112.5t66.5 98.5t102 69t131 26q74 0 134.5 -23t103.5 -63.5t67.5 -96t24.5 -123.5q0 -59 -23.5 -109t-63.5 -94t-93.5 -84 t-112.5 -79l365 -363l342 418h137l-404 -489l416 -410h-160l-325 326q-74 -86 -136.5 -151.5t-126 -108.5t-131 -64.5t-149.5 -21.5zM553 92q72 0 128 16.5t108.5 53.5t107.5 94t123 139l-389 389q-72 -43 -138.5 -89t-118.5 -96t-84 -108.5t-32 -128.5q0 -121 80 -195.5 t215 -74.5zM481 1217q0 -39 9.5 -72t30 -69t54 -74.5t82.5 -90.5q51 33 95.5 67t77 70.5t52 76.5t19.5 85q0 96 -62.5 148.5t-150.5 52.5q-92 0 -149.5 -57t-57.5 -137z" />
<glyph unicode="'" horiz-adv-x="428" d="M195 1024q-4 18 -9.5 56t-10.5 81t-9 86t-4 76v172h104v-172q0 -31 -4 -75t-8 -87t-10 -81t-8 -56h-41v0z" />
<glyph unicode="(" horiz-adv-x="919" d="M702 -508q-117 82 -219 183.5t-178 226.5t-120 276.5t-44 333.5q0 180 43 330.5t118 276.5t176.5 227.5t215.5 183.5l82 -90q-113 -78 -206 -172t-160.5 -209t-104.5 -251t-37 -296q0 -162 38 -298t106.5 -251t163 -209t206.5 -170l-80 -92v0z" />
<glyph unicode=")" horiz-adv-x="919" d="M651 512q0 160 -36.5 296t-104.5 249.5t-161 208t-206 172.5l82 92q115 -82 216.5 -183.5t176 -227.5t117.5 -277.5t43 -331.5q0 -182 -44 -332.5t-119.5 -276.5t-178 -227.5t-219.5 -181.5l-80 92q113 76 207 170t162.5 209t106.5 251t38 298z" />
<glyph unicode="*" horiz-adv-x="958" d="M506 1090l29 -320h-111l29 320l-263 -185l-53 94l291 136l-291 137l53 92l263 -186l-29 317h111l-29 -313l258 180l53 -94l-291 -133l291 -134l-55 -94z" />
<glyph unicode="+" d="M139 799h328v325h102v-325h328v-103h-328v-329h-102v329h-328v103z" />
<glyph unicode="," horiz-adv-x="452" d="M195 -10q-39 0 -65 24.5t-26 71.5q0 43 31 73.5t82 30.5q72 0 106.5 -48t34.5 -109q0 -92 -52 -170t-144 -127l-37 63q74 35 112.5 95.5t38.5 121.5q0 16 -8 37q-5 -63 -73 -63z" />
<glyph unicode="-" d="M139 567h758v-104h-758v104z" />
<glyph unicode="." horiz-adv-x="452" d="M119 90q0 45 31.5 76t74.5 31q47 0 78 -31t31 -76q0 -47 -31 -78.5t-78 -31.5t-76.5 31.5t-29.5 78.5z" />
<glyph unicode="/" horiz-adv-x="1009" d="M797 1495h127l-709 -1495h-127z" />
<glyph unicode="0" horiz-adv-x="1423" d="M709 92q86 0 166.5 29t142 101.5t98.5 193.5t37 305v70q0 184 -37 302.5t-98.5 187.5t-140 95.5t-164.5 26.5t-166 -28.5t-141.5 -98.5t-98.5 -187.5t-37 -297.5v-70q0 -186 36 -307t95.5 -192.5t139.5 -100.5t168 -29zM711 -20q-121 0 -222.5 39.5t-177 128 t-117.5 229.5t-42 344v70q0 195 46 332t123.5 225t178 128t211.5 40q113 0 215 -41t179 -129.5t122 -225.5t45 -329v-70q0 -207 -44 -348.5t-120 -228.5t-178 -125.5t-219 -38.5z" />
<glyph unicode="1" horiz-adv-x="817" d="M510 0v1221q-35 -92 -127 -147.5t-246 -55.5h-18v123h14q193 0 284 94t91 260h121v-1495h-119z" />
<glyph unicode="2" horiz-adv-x="1239" d="M143 121q0 88 37 161.5t96.5 139t135 124t153.5 113.5q74 51 143.5 103.5t125 107t89 112.5t33.5 126q0 133 -91 217t-249 84q-133 0 -225 -69.5t-145 -174.5l-103 56q31 63 78 116.5t106.5 93t132 62.5t154.5 23q106 0 191.5 -32t146 -87.5t93 -130t32.5 -160.5 t-38 -157.5t-97 -135t-136 -120t-153 -111.5q-74 -53 -143.5 -105.5t-122.5 -108t-86 -117t-33 -130.5v-8h832v-113h-957v121z" />
<glyph unicode="3" horiz-adv-x="1208" d="M567 -18q-170 0 -290.5 52t-202.5 152l94 78q66 -80 166 -129t233 -49q84 0 155 23.5t122 66.5t79.5 101.5t28.5 128.5q0 74 -30.5 132t-83 99t-123 62.5t-150.5 21.5h-153v110h153q158 0 255.5 78t97.5 211q0 135 -97.5 212t-253.5 77q-125 0 -214 -49t-136 -119l-96 70 q63 82 178 143.5t270 61.5q106 0 192.5 -29t147 -81t93 -125t32.5 -161q0 -123 -63.5 -211t-175.5 -133q125 -45 199.5 -137t74.5 -233q0 -94 -36 -172t-101.5 -134.5t-158.5 -87t-206 -30.5z" />
<glyph unicode="4" horiz-adv-x="1249" d="M850 365h-737v108l735 1022h117v-1024h217v-106h-217v-365h-115v365zM850 471v840l-606 -840h606z" />
<glyph unicode="5" horiz-adv-x="1232" d="M612 -20q-160 0 -283.5 66.5t-193.5 176.5l109 72q57 -92 148 -148.5t220 -56.5q82 0 153 28.5t121 81t78.5 124t28.5 155.5q0 98 -32.5 171t-88 122t-126 72.5t-144.5 23.5q-104 0 -195.5 -46t-138.5 -117l-116 36l114 754h748v-106h-647l-82 -529q57 49 140 83t177 34 q96 0 188.5 -29.5t164 -91t114.5 -155t43 -222.5q0 -111 -37 -202t-102.5 -157.5t-157.5 -103t-203 -36.5z" />
<glyph unicode="6" horiz-adv-x="1353" d="M698 -20q-117 0 -225 45t-182 141q-72 88 -105.5 204.5t-33.5 303.5q0 197 53 352.5t150.5 265t234.5 167t307 57.5q63 0 115.5 -7.5t99.5 -19.5l-41 -113q-35 12 -80 21.5t-94 9.5q-289 0 -451.5 -174t-177.5 -498q59 129 181 200t268 71q109 0 202 -38t160.5 -105.5 t105.5 -163t38 -210.5q0 -102 -38 -195t-106.5 -163t-166 -110.5t-214.5 -40.5zM700 90q86 0 161 31t128 84t84 127t31 157q0 92 -28.5 168t-82 129.5t-127 83t-161.5 29.5q-86 0 -161 -30.5t-131.5 -85t-89 -129t-32.5 -162.5q0 -86 30.5 -160t86 -127t130 -84t162.5 -31z " />
<glyph unicode="7" horiz-adv-x="1204" d="M946 1384h-835v111h958v-102l-639 -1393h-129z" />
<glyph unicode="8" horiz-adv-x="1335" d="M670 -20q-133 0 -234.5 30.5t-171 87t-105.5 136t-36 176.5q0 131 81 230t216 151q-113 49 -176.5 137t-63.5 200q0 84 34 156t96.5 123t152.5 80t205 29q111 0 200.5 -29t154 -80t99.5 -123t35 -156q0 -117 -66.5 -202.5t-177.5 -132.5q137 -53 218 -153.5t81 -229.5 q0 -96 -35.5 -176t-105.5 -136.5t-171 -87t-230 -30.5zM670 88q205 0 317.5 89t112.5 233q0 66 -30 125t-85 104t-136 71.5t-181 26.5q-104 0 -185.5 -24.5t-135.5 -68.5t-81.5 -104.5t-27.5 -129.5q0 -145 112.5 -233.5t319.5 -88.5zM668 842q176 0 278.5 79.5t102.5 206.5 q0 129 -99.5 206t-281.5 77q-178 0 -279.5 -80t-101.5 -203q0 -127 102.5 -206.5t278.5 -79.5z" />
<glyph unicode="9" horiz-adv-x="1333" d="M516 -20q-111 0 -191.5 25.5t-150.5 64.5l64 104q63 -41 132.5 -63.5t143.5 -22.5q279 0 418 178t139 545v16q-20 -78 -62 -137t-100.5 -101t-129 -63.5t-150.5 -21.5q-104 0 -195.5 37t-159 103.5t-105.5 159.5t-38 208q0 102 38 193t106.5 161t162.5 110t209 40 t221.5 -47.5t178.5 -141.5q70 -86 102.5 -207t32.5 -309q0 -403 -172 -617t-494 -214zM641 610q80 0 152.5 31t128 84t88 126t32.5 159t-29.5 159.5t-81.5 127t-125 83t-161 29.5q-90 0 -164.5 -30.5t-127 -85t-81 -127t-28.5 -154.5q0 -90 28.5 -165t81 -127t126 -81 t161.5 -29z" />
<glyph unicode=":" horiz-adv-x="452" d="M119 90q0 45 31.5 76t74.5 31q47 0 78 -31t31 -76q0 -47 -31 -78.5t-78 -31.5t-76.5 31.5t-29.5 78.5zM119 938q0 45 31.5 75.5t74.5 30.5q47 0 78 -30.5t31 -75.5q0 -47 -31 -79t-78 -32t-76.5 32t-29.5 79z" />
<glyph unicode=";" horiz-adv-x="452" d="M125 -201q74 35 112.5 95.5t38.5 121.5q0 16 -8 37q-6 -63 -73 -63q-39 0 -65 24.5t-26 71.5q0 43 31 73.5t82 30.5q72 0 106.5 -48t34.5 -109q0 -92 -52 -170t-144 -127zM119 938q0 45 31.5 75.5t74.5 30.5q47 0 78 -30.5t31 -75.5q0 -47 -31 -79t-78 -32t-76.5 32 t-29.5 79z" />
<glyph unicode="&#x3c;" d="M139 700v101l758 291v-107l-635 -233l635 -242v-109z" />
<glyph unicode="=" d="M139 961h758v-103h-758v103zM139 629h758v-101h-758v101z" />
<glyph unicode="&#x3e;" d="M139 510l635 242l-635 233v107l758 -291v-101l-758 -299v109z" />
<glyph unicode="?" horiz-adv-x="1165" d="M492 367q0 135 29.5 223t74.5 149.5t98.5 104.5t98.5 86t74.5 94t29.5 131q0 57 -24.5 104.5t-66.5 81t-99.5 52t-124.5 18.5q-129 0 -207 -54t-125 -145l-105 50q53 106 165 180t274 74q92 0 171 -27t137 -74t91 -113.5t33 -148.5q0 -96 -31 -157.5t-77 -108.5t-99 -88 t-99 -96.5t-77 -134.5t-31 -201v-17h-110v17zM547 -20q-47 0 -77 31.5t-30 78.5q0 45 32 76t75 31q47 0 77.5 -31t30.5 -76q0 -47 -30.5 -78.5t-77.5 -31.5z" />
<glyph unicode="@" horiz-adv-x="1814" d="M905 -256q-160 0 -299 60.5t-242.5 164t-163 243.5t-59.5 300t62.5 299t170 243.5t249 165t301.5 60.5q164 0 301 -57.5t236.5 -152.5t154.5 -220t55 -260q0 -84 -19.5 -162t-59.5 -137.5t-98 -94t-136 -34.5q-92 0 -148.5 40t-79.5 101q-35 -59 -104.5 -103t-169.5 -44 q-61 0 -121.5 24.5t-106.5 71.5t-72 116.5t-15 159.5q12 92 47 161t86 114t111.5 67.5t123.5 22.5q86 0 146.5 -37t91.5 -92q4 39 6 62.5t4 35.5q2 14 2 19h113l-41 -371q-14 -131 21.5 -185.5t113.5 -54.5q45 0 82 23.5t62.5 66.5t39 101.5t13.5 126.5q0 115 -47.5 220 t-131.5 187t-201.5 130.5t-260.5 48.5q-137 0 -258 -52.5t-211.5 -142.5t-142.5 -210t-52 -257t50 -257t137 -210t205 -142.5t255 -52.5q143 0 263 53.5t212 147.5l82 -71q-98 -102 -242.5 -169t-314.5 -67zM879 262q55 0 97 21.5t72.5 58.5t49 85t22.5 101q6 51 -3 99.5 t-33.5 84.5t-63.5 57.5t-92 21.5q-98 0 -175 -70t-89 -193q-8 -55 5 -103t41.5 -84t72 -57.5t96.5 -21.5z" />
<glyph unicode="A" horiz-adv-x="1527" d="M700 1495h127l607 -1495h-125l-172 428h-748l-170 -428h-125zM434 541h658l-332 821z" />
<glyph unicode="B" horiz-adv-x="1425" d="M193 1495h632q96 0 176 -28.5t138.5 -80t90.5 -122t32 -156.5q0 -113 -54.5 -200t-154.5 -132q117 -41 183.5 -137t66.5 -227q0 -92 -33 -168t-92.5 -130.5t-140.5 -84t-179 -29.5h-665v1495zM311 717v-608h545q72 0 132.5 23.5t103.5 63.5t67.5 95t24.5 121 q0 133 -88 219t-242 86h-543zM311 1386v-561h533q70 0 125 21.5t94 59.5t59.5 90.5t20.5 111.5t-23.5 110.5t-66.5 88t-101.5 58t-128.5 21.5h-512z" />
<glyph unicode="C" horiz-adv-x="1708" d="M915 -20q-160 0 -299 60t-243.5 164.5t-165 244t-60.5 299.5t60.5 299t165 243.5t244 165t298.5 60.5q104 0 201.5 -28t182.5 -77t155 -118.5t121 -153.5l-102 -60q-84 145 -229.5 235.5t-328.5 90.5q-137 0 -254.5 -52.5t-204.5 -141.5t-137.5 -208.5t-50.5 -254.5 t50.5 -255t137.5 -209t204.5 -140.5t254.5 -51.5q197 0 346.5 95.5t229.5 248.5l104 -53q-49 -90 -118.5 -165t-156.5 -128t-189.5 -81.5t-215.5 -28.5z" />
<glyph unicode="D" horiz-adv-x="1554" d="M193 1495h440q168 0 310 -57.5t245.5 -157.5t161 -236.5t57.5 -295.5q0 -160 -59.5 -297.5t-163 -236.5t-244.5 -156.5t-303 -57.5h-444v1495zM311 1386v-1275h318q141 0 261 48t208 134t138 202.5t50 252.5q0 135 -48 251.5t-136 202.5t-209 135t-268 49h-314z" />
<glyph unicode="E" horiz-adv-x="1351" d="M193 1495h1005v-113h-887v-577h887v-111h-887v-581h887v-113h-1005v1495z" />
<glyph unicode="F" horiz-adv-x="1249" d="M193 1495h946v-113h-828v-618h828v-113h-828v-651h-118v1495z" />
<glyph unicode="G" horiz-adv-x="1814" d="M928 -20q-170 0 -313.5 59t-247 162.5t-162 244t-58.5 302.5q0 160 57.5 300t160 243.5t244 164t311.5 60.5q223 0 390 -95.5t271 -267.5l-102 -59q-86 150 -225.5 230.5t-333.5 80.5q-147 0 -267.5 -52.5t-205.5 -141.5t-132 -208.5t-47 -254.5q0 -137 48.5 -257 t134.5 -208t207.5 -139.5t269.5 -51.5q137 0 248.5 44t191.5 122t128 183.5t60 228.5h-647v110h766v-30q0 -156 -51 -296.5t-147.5 -246t-234.5 -166.5t-314 -61z" />
<glyph unicode="H" horiz-adv-x="1507" d="M1196 694h-885v-694h-118v1495h118v-688h885v688h119v-1495h-119v694z" />
<glyph unicode="I" horiz-adv-x="534" d="M209 1495h117v-1495h-117v1495z" />
<glyph unicode="J" horiz-adv-x="1019" d="M455 -20q-135 0 -230.5 57t-142.5 153l106 68q35 -76 100.5 -123t164.5 -47q123 0 192.5 80t69.5 217v1110h119v-1108q0 -188 -100.5 -297.5t-278.5 -109.5z" />
<glyph unicode="K" horiz-adv-x="1406" d="M639 819l-328 -377v-442h-116v1495h116v-905l789 905h141l-520 -594l600 -901h-139z" />
<glyph unicode="L" horiz-adv-x="1251" d="M193 1495h118v-1382h813v-113h-931v1495z" />
<glyph unicode="M" horiz-adv-x="1787" d="M193 1495h116l576 -797l598 797h112v-1495h-114v1313l-598 -801l-576 786v-1298h-114v1495z" />
<glyph unicode="N" horiz-adv-x="1574" d="M193 1495h131l944 -1319v1319h114v-1495h-127l-948 1325v-1325h-114v1495z" />
<glyph unicode="O" horiz-adv-x="1826" d="M913 -20q-170 0 -310 60t-241.5 164.5t-158 244t-56.5 299.5t61.5 299t166 243.5t244 165t296.5 60.5q160 0 299.5 -60.5t243 -165t162.5 -244t59 -298.5q0 -158 -60 -297.5t-164.5 -244t-244 -165.5t-297.5 -61zM913 92q137 0 255 51.5t205 140.5t137.5 208.5 t50.5 255.5q0 135 -49.5 253.5t-136.5 207.5t-204.5 141.5t-255.5 52.5q-137 0 -255.5 -52.5t-205.5 -141.5t-137.5 -207.5t-50.5 -253.5q0 -137 49.5 -257t135.5 -208t204.5 -139.5t257.5 -51.5z" />
<glyph unicode="P" horiz-adv-x="1423" d="M193 1495h544q125 0 227.5 -40t174 -108.5t110.5 -164t39 -205.5q0 -111 -39 -206t-111.5 -164.5t-174 -109.5t-224.5 -40h-428v-457h-118v1495zM311 1386v-819h422q102 0 183 32t136.5 87t85 130t29.5 161q0 88 -29.5 162.5t-86 130t-137 86t-183.5 30.5h-420z" />
<glyph unicode="Q" horiz-adv-x="1828" d="M913 -20q-170 0 -310 59t-241.5 162.5t-158 244t-56.5 302.5q0 160 61.5 299t166 243.5t244 165t296.5 60.5q160 0 299.5 -60.5t243 -165t162.5 -244t59 -298.5q0 -154 -60 -293.5t-165 -243.5l180 -211h-151l-115 135q-98 -74 -213 -114.5t-242 -40.5zM913 92 q111 0 207.5 33t175.5 92l-335 399h147l274 -321q84 88 131.5 203.5t47.5 249.5q0 135 -49.5 253.5t-136.5 207.5t-204.5 141.5t-255.5 52.5q-137 0 -254.5 -52.5t-204.5 -141.5t-137.5 -207.5t-50.5 -253.5t49.5 -255t136.5 -209t204.5 -140.5t254.5 -51.5z" />
<glyph unicode="R" horiz-adv-x="1427" d="M193 1495h606q104 0 194 -37t157 -100.5t103.5 -148.5t36.5 -181q0 -74 -23.5 -143.5t-66.5 -127t-103.5 -101.5t-133.5 -66l335 -590h-133l-311 557h-543v-557h-118v1495zM311 1386v-720h477q86 0 156 29.5t121 80.5t78.5 115.5t27.5 136.5q0 76 -27.5 141.5 t-77.5 113.5t-121 75.5t-154 27.5h-480z" />
<glyph unicode="S" horiz-adv-x="1359" d="M705 -20q-223 0 -379 82.5t-260 224.5l100 78q88 -135 220 -206t319 -71q193 0 297 91t104 239q0 82 -40 134t-106.5 85t-153.5 53.5t-181 40.5q-88 18 -173 42t-153 66t-108.5 108.5t-40.5 168.5q0 84 33.5 157t98 127t154.5 85t205 31q199 0 332 -77t221 -196l-94 -72 q-72 113 -183.5 176.5t-275.5 63.5q-190 0 -282.5 -81t-92.5 -210q0 -78 32 -125t87 -76.5t131 -48t166 -39.5q90 -18 186.5 -44.5t175 -71.5t130 -116t51.5 -179q0 -90 -38 -170t-106.5 -140.5t-163.5 -95t-212 -34.5z" />
<glyph unicode="T" horiz-adv-x="1327" d="M604 1386h-487v109h1093v-109h-489v-1386h-117v1386z" />
<glyph unicode="U" horiz-adv-x="1515" d="M754 -20q-133 0 -237.5 41.5t-178.5 116.5t-113 180.5t-39 232.5v944h119v-944q0 -98 31 -182t88 -145.5t140 -96.5t190 -35q100 0 185 31t144.5 90t93 144t33.5 194v944h119v-942q0 -131 -43 -237.5t-118.5 -181.5t-182 -114.5t-231.5 -39.5z" />
<glyph unicode="V" horiz-adv-x="1492" d="M94 1495h123l528 -1335l529 1335h125l-594 -1495h-119z" />
<glyph unicode="W" horiz-adv-x="2215" d="M113 1495h123l346 -1321l471 1321h102l434 -1323l393 1323h121l-452 -1495h-119l-432 1315l-467 -1315h-121z" />
<glyph unicode="X" horiz-adv-x="1347" d="M672 692l-461 -692h-137l530 776l-487 719h137l422 -633l420 633h137l-490 -717l527 -778h-133z" />
<glyph unicode="Y" horiz-adv-x="1339" d="M604 596l-532 899h137l455 -778l469 778h135l-545 -889v-606h-119v596z" />
<glyph unicode="Z" horiz-adv-x="1306" d="M127 109l915 1277h-882v109h1018v-109l-910 -1273h914v-113h-1055v109z" />
<glyph unicode="[" horiz-adv-x="835" d="M139 1495h559v-111h-440v-1744h440v-111h-559v1966z" />
<glyph unicode="\" horiz-adv-x="1009" d="M88 1495h127l709 -1495h-127z" />
<glyph unicode="]" horiz-adv-x="835" d="M139 -362h441v1746h-441v111h559v-1966h-559v109z" />
<glyph unicode="^" horiz-adv-x="1089" d="M498 1399h90l258 -342h-123l-180 239l-174 -239h-123z" />
<glyph unicode="_" horiz-adv-x="1171" d="M139 -20h895v-103h-895v103z" />
<glyph unicode="`" horiz-adv-x="1089" d="M332 1561h151l246 -318h-111z" />
<glyph unicode="a" horiz-adv-x="1253" d="M494 -20q-102 0 -177 26.5t-124.5 70.5t-73 102.5t-23.5 121.5q0 86 36 150.5t101.5 109.5t158.5 67.5t210 22.5h375v68q0 141 -93 225t-268 84q-141 0 -231 -49t-158 -145l-94 71q86 104 202 163.5t281 59.5q117 0 206 -30.5t148.5 -85t89.5 -128t30 -159.5v-725h-115 v197q-80 -104 -208 -160.5t-273 -56.5zM506 80q66 0 133.5 15.5t129.5 48t115.5 82.5t92.5 120v209h-373q-193 0 -290 -62.5t-97 -185.5q0 -47 16.5 -88t52.5 -71.5t90 -49t130 -18.5z" />
<glyph unicode="b" horiz-adv-x="1425" d="M731 -23q-63 0 -128.5 17.5t-125 50.5t-111 81t-83.5 110v-236h-111v1614h113v-742q33 61 84 109.5t110.5 80.5t125 49t130.5 17q121 0 224.5 -44t180.5 -121.5t121 -182t44 -227.5q0 -125 -42 -230.5t-118 -182.5t-181.5 -120t-232.5 -43zM731 88q96 0 179 35 t143.5 96.5t95.5 146.5t35 187q0 98 -35 184t-95.5 148.5t-143.5 98.5t-179 36q-98 0 -182 -37t-146.5 -100.5t-97.5 -148.5t-35 -181t35 -181t97.5 -148.5t146.5 -99.5t182 -36z" />
<glyph unicode="c" horiz-adv-x="1333" d="M700 -23q-123 0 -229 45.5t-184 123t-122 182t-44 225.5q0 123 45 228.5t123 182t183.5 120.5t225.5 44q90 0 171 -24.5t148.5 -68.5t120 -106.5t83.5 -135.5l-109 -48q-55 127 -162.5 201t-253.5 74q-96 0 -179 -37t-144.5 -100.5t-96 -148.5t-34.5 -181t35.5 -181 t97 -148.5t145.5 -100.5t182 -37q150 0 255.5 82t158.5 205l111 -47q-66 -154 -200 -251.5t-327 -97.5z" />
<glyph unicode="d" horiz-adv-x="1427" d="M694 -23q-127 0 -232.5 43t-181 120t-117.5 182.5t-42 230.5q0 123 44 227.5t120.5 182t180 121.5t224.5 44q63 0 130 -17t127.5 -50t110.5 -82t85 -111v746h112v-1614h-112v236q-35 -61 -85 -109.5t-109.5 -81.5t-125.5 -50.5t-129 -17.5zM694 88q98 0 182.5 36 t146.5 99.5t97 148.5t35 181t-35 181t-97 148.5t-146 100.5t-183 37q-96 0 -179 -36t-143.5 -98.5t-95 -148.5t-34.5 -184q0 -102 34.5 -187t95 -146.5t143.5 -96.5t179 -35z" />
<glyph unicode="e" horiz-adv-x="1382" d="M702 -23q-135 0 -242.5 43t-182 120t-115.5 180.5t-41 226.5t43 229.5t120.5 184t184 122.5t233.5 45q119 0 221.5 -42t177.5 -116.5t117 -178t42 -226.5v-59h-1027q6 -92 43 -169t98.5 -133.5t144.5 -88t181 -31.5q150 0 252.5 61.5t167.5 184.5l105 -58 q-92 -147 -215.5 -221t-307.5 -74zM702 1022q-92 0 -171.5 -30.5t-141 -86t-100.5 -130.5t-51 -161h901q-8 90 -42 165t-91.5 129.5t-134.5 84t-169 29.5z" />
<glyph unicode="f" horiz-adv-x="780" d="M47 1106h217v108q0 119 17.5 197t62.5 123t121 62.5t190 17.5h47v-111h-38q-90 0 -145.5 -10t-86.5 -41t-41 -88t-10 -152v-106h321v-102h-321v-1004h-117v1004h-217v102z" />
<glyph unicode="g" horiz-adv-x="1429" d="M694 -23q-127 0 -232.5 43t-181 120t-117.5 182.5t-42 230.5q0 123 44 227.5t120.5 182t181 121.5t227.5 44q63 0 129 -17t126.5 -51t110.5 -83t85 -113v242h115v-995q0 -135 -39 -243t-112 -183.5t-177.5 -115.5t-235.5 -40q-186 0 -305 63.5t-201 169.5l101 74 q35 -49 73.5 -86t87 -62.5t109 -39t135.5 -13.5q211 0 331 124t120 347v138q-33 -63 -84 -113.5t-111.5 -84.5t-127.5 -51.5t-130 -17.5zM694 88q98 0 182.5 36t145.5 99.5t97 148.5t36 181t-35 181t-97 148.5t-146 100.5t-183 37q-96 0 -179 -36t-143.5 -98.5t-95 -148.5 t-34.5 -184q0 -102 34.5 -187t95 -146.5t143.5 -96.5t179 -35z" />
<glyph unicode="h" horiz-adv-x="1349" d="M172 1614h113v-717q57 104 165.5 167.5t249.5 63.5q111 0 201 -34.5t153.5 -101t98.5 -161t35 -213.5v-618h-119v618q0 182 -99.5 292t-285.5 110q-84 0 -156.5 -31t-126 -85t-84 -128t-30.5 -160v-616h-115v1614z" />
<glyph unicode="i" horiz-adv-x="458" d="M172 1106h115v-1106h-115v1106zM123 1454q0 45 31.5 76t74.5 31q47 0 78 -31t31 -76q0 -47 -31 -79t-78 -32t-76.5 32t-29.5 79z" />
<glyph unicode="j" horiz-adv-x="456" d="M-121 -356q88 0 145.5 9t90 40t45 87t12.5 150v1176h117v-1178q0 -117 -19.5 -194.5t-64.5 -122.5t-120 -63.5t-185 -18.5h-21v115zM121 1454q0 45 31.5 76t74.5 31q47 0 78 -31t31 -76q0 -47 -31 -79t-78 -32t-76.5 32t-29.5 79z" />
<glyph unicode="k" horiz-adv-x="1175" d="M559 573l-274 -286v-287h-113v1614h113v-1190l655 682h152l-449 -461l475 -645h-143z" />
<glyph unicode="l" horiz-adv-x="456" d="M172 1614h113v-1614h-113v1614z" />
<glyph unicode="m" horiz-adv-x="2185" d="M168 1106h111v-205q53 102 153 164.5t242 62.5q166 0 272.5 -72.5t149.5 -195.5q47 119 161.5 193.5t270.5 74.5q117 0 208 -34.5t154.5 -99t97 -154.5t33.5 -199v-641h-114v649q0 80 -27 148.5t-77 119t-120.5 78t-156.5 27.5q-80 0 -148.5 -26.5t-121 -76t-82 -119 t-29.5 -155.5v-645h-115v668q0 80 -25.5 145.5t-72.5 111.5t-114.5 71.5t-151.5 25.5q-82 0 -153 -28.5t-122 -80t-79.5 -125t-28.5 -161.5v-627h-115v1106z" />
<glyph unicode="n" horiz-adv-x="1347" d="M168 1106h111v-219q55 106 163.5 173.5t253.5 67.5q111 0 201 -34.5t153.5 -101t98.5 -161t35 -213.5v-618h-117v618q0 182 -100.5 292t-286.5 110q-84 0 -156.5 -31t-126 -85t-84 -128t-30.5 -160v-616h-115v1106z" />
<glyph unicode="o" horiz-adv-x="1390" d="M694 -23q-125 0 -229.5 43t-181 120t-119.5 182.5t-43 230.5q0 123 44 227.5t120.5 182t181 121.5t227.5 44t227.5 -44t182.5 -121.5t122 -182t44 -227.5q0 -121 -44 -225.5t-121 -182t-182.5 -123t-228.5 -45.5zM694 88q98 0 181 35t143.5 97.5t95.5 147.5t35 185 q0 98 -35 184t-96.5 148.5t-144 98.5t-179.5 36q-96 0 -179 -36t-143.5 -98.5t-95 -148.5t-34.5 -184q0 -102 34.5 -187t95 -146.5t143.5 -96.5t179 -35z" />
<glyph unicode="p" horiz-adv-x="1425" d="M731 -23q-63 0 -128.5 17.5t-125 50.5t-111 81t-83.5 110v-646h-115v1516h113v-242q33 63 83 112.5t110.5 83.5t128 51t132.5 17q121 0 224.5 -44t180.5 -121.5t121 -182t44 -227.5q0 -125 -42 -230.5t-118 -182.5t-181.5 -120t-232.5 -43zM731 88q96 0 179 35 t143.5 96.5t95.5 146.5t35 187q0 98 -35 184t-95.5 148.5t-143.5 98.5t-179 36q-98 0 -182 -37t-146.5 -100.5t-97.5 -148.5t-35 -181t35 -181t97.5 -148.5t146.5 -99.5t182 -36z" />
<glyph unicode="q" horiz-adv-x="1423" d="M694 -23q-127 0 -232.5 43t-181 120t-117.5 182.5t-42 230.5q0 123 44 227.5t120.5 182t180 121.5t224.5 44q63 0 130 -17t127.5 -50t110.5 -82t85 -111v238h112v-1516h-112v646q-35 -61 -85 -109.5t-109.5 -81.5t-125.5 -50.5t-129 -17.5zM694 88q98 0 182.5 36 t146.5 99.5t97 148.5t35 181t-35 181t-97 148.5t-146 100.5t-183 37q-96 0 -179 -36t-143.5 -98.5t-95 -148.5t-34.5 -184q0 -102 34.5 -187t95 -146.5t143.5 -96.5t179 -35z" />
<glyph unicode="r" horiz-adv-x="854" d="M168 1106h106v-221q35 117 118 177t214 60q115 0 182 -39l-55 -106q-23 16 -55.5 26.5t-75.5 10.5q-160 0 -240.5 -103.5t-80.5 -320.5v-590h-113v1106z" />
<glyph unicode="s" horiz-adv-x="1083" d="M565 -23q-188 0 -309 62.5t-199 155.5l93 84q66 -84 166 -140.5t249 -56.5q150 0 226.5 63.5t76.5 167.5q0 55 -28.5 91t-76.5 57.5t-110.5 35t-128.5 25.5q-74 12 -145.5 29.5t-128.5 48.5t-92 82t-35 133q0 63 24.5 120.5t73.5 100.5t124 68.5t173 25.5 q154 0 259.5 -52t183.5 -134l-91 -82q-57 72 -143 119t-209 47q-152 0 -214 -58.5t-62 -152.5q0 -53 28.5 -86t75.5 -54.5t108.5 -33.5t127.5 -25q74 -12 146.5 -29.5t129.5 -50t93 -86t36 -139.5q0 -70 -27.5 -131t-81 -106t-132.5 -72t-181 -27z" />
<glyph unicode="t" horiz-adv-x="813" d="M47 1106h213v246l115 71v-317h336v-102h-336v-693q0 -121 48 -169t126 -48q82 0 141 64l70 -82q-47 -43 -98.5 -64.5t-122.5 -21.5q-139 0 -209 76.5t-70 238.5v699h-213v102z" />
<glyph unicode="u" horiz-adv-x="1310" d="M633 -23q-233 0 -353 135.5t-120 374.5v619h114v-619q0 -182 93.5 -291.5t275.5 -109.5q84 0 154.5 30.5t123 85t81 128t28.5 159.5v617h113v-1106h-111v215q-53 -104 -155.5 -171t-243.5 -67z" />
<glyph unicode="v" horiz-adv-x="1157" d="M57 1106h125l391 -969l400 969h127l-471 -1106h-115z" />
<glyph unicode="w" horiz-adv-x="1861" d="M86 1106h125l297 -946l371 946h104l363 -936l307 936h123l-381 -1106h-97l-370 942l-371 -942h-115z" />
<glyph unicode="x" horiz-adv-x="1187" d="M520 565l-426 541h146l354 -459l354 459h146l-428 -541l450 -565h-145l-377 479l-373 -479h-147z" />
<glyph unicode="y" horiz-adv-x="1177" d="M248 -373q-86 0 -150.5 31t-105.5 78l84 88q35 -41 73.5 -64.5t98.5 -23.5q45 0 78.5 11t62.5 40t57.5 79t63.5 128l27 57l-471 1055h127l407 -920l391 920h129l-510 -1147q-39 -88 -75.5 -150.5t-78.5 -102.5t-92 -59.5t-116 -19.5z" />
<glyph unicode="z" horiz-adv-x="1144" d="M119 113l762 886h-736v107h873v-113l-760 -887h768v-106h-907v113z" />
<glyph unicode="{" horiz-adv-x="890" d="M752 -471q-129 0 -215 22.5t-138.5 74.5t-75 137t-22.5 210v263q0 59 -6 101t-25.5 67.5t-58.5 37t-102 11.5v112q63 0 102 11.5t58.5 38t25.5 68.5t6 101v267q0 125 22.5 210t75 137t138.5 74.5t215 22.5h22v-106q-109 0 -178.5 -15.5t-109.5 -54.5t-54 -104.5 t-14 -165.5v-267q0 -111 -28 -177t-103 -95q78 -29 104.5 -95.5t26.5 -176.5v-263q0 -100 14 -165.5t54 -104.5t110 -54.5t178 -15.5v-106h-22z" />
<glyph unicode="|" horiz-adv-x="450" d="M166 1495h119v-1966h-119v1966z" />
<glyph unicode="}" horiz-adv-x="890" d="M119 -362q109 0 178.5 15t109 53t54 103.5t14.5 165.5v263q0 111 25.5 177t103.5 95q-74 29 -101.5 95.5t-27.5 176.5v267q0 100 -14.5 164.5t-54 103.5t-109.5 54t-178 15v109h22q129 0 215 -22.5t138.5 -74.5t75 -137t22.5 -210v-267q0 -59 6 -101t25.5 -68.5t57.5 -38 t103 -11.5v-112q-66 0 -103.5 -11.5t-57 -37t-25.5 -67.5t-6 -101v-263q0 -125 -22.5 -210t-75 -137t-138.5 -74.5t-215 -22.5h-22v109z" />
<glyph unicode="~" horiz-adv-x="993" d="M168 1143q4 94 55 150.5t131 56.5q53 0 89 -16.5t71 -39.5q33 -18 64.5 -37.5t68.5 -19.5q82 0 94 102h95q-4 -94 -52.5 -150t-134.5 -56q-59 0 -101 22.5t-79 44.5q-29 16 -55.5 29.5t-59.5 13.5q-76 0 -88 -100h-98v0z" />
<glyph unicode="&#xa1;" horiz-adv-x="557" d="M221 -231q0 102 2 229t5 250t7.5 230.5t8.5 172.5h69q4 -66 9.5 -173t9.5 -230t6 -250t2 -229v-240h-119v240zM279 827q-47 0 -77 32t-30 79q0 45 32 75.5t75 30.5q47 0 77.5 -30.5t30.5 -75.5q0 -47 -30.5 -79t-77.5 -32z" />
<glyph unicode="&#xa2;" horiz-adv-x="1294" d="M604 -16q-102 10 -188 55t-148.5 115.5t-97.5 162t-35 195.5t36 195.5t98.5 161t148.5 114.5t186 57v250h121v-250q150 -14 263.5 -97t166.5 -212l-108 -45q-51 117 -147.5 183.5t-229.5 66.5q-86 0 -162 -33t-132.5 -90t-88 -135t-31.5 -166q0 -90 31.5 -168t88 -134 t132.5 -89t164 -33q137 0 233 72.5t144 185.5l108 -45q-57 -131 -167.5 -217t-264.5 -100v-250h-121v250z" />
<glyph unicode="&#xa3;" horiz-adv-x="1488" d="M201 772h229q-45 70 -75.5 149.5t-30.5 184.5q0 92 31.5 167t89 129t137.5 84t178 30q152 0 260 -63.5t172 -164.5l-94 -71q-51 92 -134 144t-206 52q-70 0 -127.5 -22.5t-99.5 -63.5t-64.5 -97t-22.5 -122q0 -98 36 -179t83 -157h438v-96h-376q47 -74 81.5 -153 t34.5 -173q0 -78 -26 -143q63 -53 129.5 -92t152.5 -39q113 0 171.5 61.5t58.5 224.5v37h119v-51q0 -197 -85 -282.5t-253 -85.5q-113 0 -193 44t-145 101q-47 -66 -120 -105.5t-169 -39.5q-133 0 -194.5 59t-61.5 151q0 90 62.5 147.5t172.5 59.5q82 0 146.5 -35.5 t124.5 -82.5q6 31 6 65q0 96 -44 175t-99 157h-293v96zM381 72q74 0 128 32.5t87 85.5q-53 47 -108.5 80t-122.5 33q-68 0 -102 -31.5t-34 -83.5q0 -53 40 -84.5t112 -31.5z" />
<glyph unicode="&#xa4;" horiz-adv-x="1644" d="M831 209q-96 0 -181 30.5t-154 86.5l-191 -199l-72 72l191 198q-59 70 -91 157t-32 187q0 98 32 186.5t91 157.5l-191 199l70 72l193 -201q68 55 152.5 87t182.5 32q94 0 179.5 -31t152.5 -86l180 189l70 -72l-178 -184q59 -72 94 -160t35 -189q0 -102 -35 -191t-96 -159 l178 -182l-72 -72l-180 185q-68 -53 -151 -83t-177 -30zM831 315q86 0 162 34t132.5 91.5t88 135t31.5 165.5t-31.5 166t-88 135.5t-132 91t-162.5 33.5q-86 0 -161.5 -33.5t-131 -91t-87 -135.5t-31.5 -166t31.5 -165.5t87 -135t131 -91.5t161.5 -34z" />
<glyph unicode="&#xa5;" horiz-adv-x="1413" d="M299 754h346l-498 741h136l426 -647l424 647h133l-494 -741h340v-99h-344v-247h344v-99h-344v-309h-119v309h-350v99h350v247h-350v99z" />
<glyph unicode="&#xa6;" horiz-adv-x="505" d="M166 1495h119v-860h-119v860zM166 389h119v-860h-119v860z" />
<glyph unicode="&#xa7;" horiz-adv-x="1302" d="M649 -20q-115 0 -198.5 27.5t-141 72.5t-87 102.5t-36.5 118.5l119 27q2 -51 24.5 -97.5t65.5 -80t107.5 -54t150.5 -20.5q53 0 108.5 11t99.5 35.5t72 63.5t28 95q0 49 -27 81.5t-76 54t-116.5 37t-147.5 31.5q-100 20 -182 45t-139.5 59t-88 79t-30.5 108 q0 80 51 146.5t143 95.5q-57 35 -88 81t-31 115q0 72 31 128.5t84 95.5t128 58.5t161 19.5q109 0 187.5 -27t132 -70t82 -98t34.5 -113l-115 -22q-4 51 -24.5 94t-58 74.5t-97 49t-143.5 17.5q-55 0 -107.5 -11t-93.5 -34.5t-65.5 -62.5t-24.5 -94q0 -49 26.5 -81 t74.5 -54.5t115 -39t146 -32.5q100 -23 180.5 -46.5t137.5 -56t88 -78t31 -108.5q0 -76 -51.5 -142.5t-139.5 -97.5q59 -33 91 -80t32 -118q0 -72 -32.5 -128.5t-90 -96.5t-134.5 -60t-165 -20zM655 575q53 -10 101.5 -21t89.5 -26q92 25 136 76t44 111q0 45 -31.5 76.5 t-84 55t-122 41t-147.5 34.5q-53 10 -101 22t-89 27q-88 -12 -137.5 -64.5t-47.5 -115.5q0 -49 32 -83t85 -58.5t123.5 -41.5t148.5 -33z" />
<glyph unicode="&#xa8;" horiz-adv-x="1097" d="M254 1386q0 41 29.5 70t68.5 29q43 0 72 -29t29 -70t-29 -70.5t-72 -29.5t-70.5 29.5t-27.5 70.5zM618 1386q0 41 29 70t70 29q43 0 71.5 -29t28.5 -70t-28.5 -70.5t-71.5 -29.5t-71 29.5t-28 70.5z" />
<glyph unicode="&#xa9;" horiz-adv-x="1818" d="M909 -20q-160 0 -299 60t-243.5 164.5t-165 244t-60.5 299.5t60.5 299t165 243.5t244 165t298.5 60.5q160 0 299.5 -60.5t243.5 -165t164.5 -244t60.5 -298.5q0 -160 -60.5 -299.5t-164.5 -244t-243.5 -164.5t-299.5 -60zM909 84q137 0 257 52t208 142.5t138.5 211 t50.5 258.5q0 137 -50.5 257.5t-138.5 211t-207.5 142.5t-257.5 52q-139 0 -258 -52t-207 -142.5t-138 -211t-50 -257.5t50 -258t138 -211.5t207 -142.5t258 -52zM918 342q-86 0 -161 32t-129.5 87t-86 129t-31.5 158t31.5 157.5t87 129t129 87t160.5 31.5q113 0 206 -55.5 t144 -141.5l-101 -63q-35 66 -100.5 107.5t-151.5 41.5q-59 0 -112 -23.5t-93 -63.5t-63.5 -93t-23.5 -114t23.5 -115.5t63.5 -94.5t93 -63.5t112 -23.5q90 0 158 45t101 116l102 -57q-49 -94 -145 -153.5t-213 -59.5z" />
<glyph unicode="&#xaa;" horiz-adv-x="917" d="M379 891q-111 0 -161 51t-50 121q0 92 72.5 140t197.5 48h207v29q0 66 -46 104.5t-134 38.5q-72 0 -122 -27.5t-87 -82.5l-78 59q43 57 116 96t175 39q115 0 189.5 -57t74.5 -170v-379h-90v117q-41 -61 -111.5 -94t-152.5 -33zM385 973q33 0 71 8t72.5 24.5t65.5 43 t51 61.5v64h-207q-96 0 -136 -31t-40 -78q0 -41 33 -66.5t90 -25.5z" />
<glyph unicode="&#xab;" horiz-adv-x="985" d="M168 475v74l317 239v-92l-243 -186l243 -184v-90zM500 475v74l315 239v-92l-242 -186l242 -184v-90z" />
<glyph unicode="&#xac;" horiz-adv-x="1296" d="M1065 934h-965v113h1084v-635h-119v522z" />
<glyph unicode="&#xad;" d="M139 567h758v-104h-758v104z" />
<glyph unicode="&#xae;" horiz-adv-x="1818" d="M909 -256q-160 0 -299 60.5t-243.5 165t-165 243.5t-60.5 299t60.5 299t165 243.5t244 165t298.5 60.5q160 0 299.5 -60.5t243.5 -165t164.5 -243.5t60.5 -299t-60.5 -299t-164.5 -243.5t-243.5 -165t-299.5 -60.5zM909 -152q137 0 257 52.5t208 142.5t138.5 211 t50.5 258t-50.5 258t-138.5 211t-207.5 142.5t-257.5 52.5q-139 0 -258 -52.5t-207 -142.5t-138 -211t-50 -258t50 -258t138 -211t207 -142.5t258 -52.5zM643 907h303q63 0 115.5 -19.5t89.5 -52t57.5 -77.5t20.5 -94q0 -88 -47 -158t-138 -92l185 -273h-131l-224 346h56 q80 0 132 47.5t52 124.5q0 76 -53 114t-127 38h-180v-670h-111v766z" />
<glyph unicode="&#xaf;" horiz-adv-x="1089" d="M276 1393h541v-103h-541v103z" />
<glyph unicode="&#xb0;" horiz-adv-x="948" d="M475 1059q-47 0 -89 18.5t-72.5 49t-49 72.5t-18.5 89t18.5 88t49 72t72.5 49.5t89 18.5t89 -18.5t73 -49.5t48 -72t17 -88t-17 -89t-48 -72.5t-73 -49t-89 -18.5zM475 1157q53 0 91 38t38 91t-38 91t-91 38t-91 -38t-38 -91t38 -91t91 -38z" />
<glyph unicode="&#xb1;" d="M139 997h328v328h102v-328h328v-102h-328v-328h-102v328h-328v102zM139 371h758v-103h-758v103z" />
<glyph unicode="&#xb2;" horiz-adv-x="780" d="M113 735q0 53 21.5 98.5t57 84t79.5 73.5t89 66q39 27 76 52.5t64.5 52t45 56t17.5 64.5q0 61 -44 102t-124 41q-70 0 -120 -39.5t-78 -99.5l-93 47q39 86 114 137.5t177 51.5q131 0 204 -69t73 -171q0 -53 -21.5 -95t-56.5 -77t-77 -65.5t-85 -61.5q-41 -29 -79 -57.5 t-66.5 -58t-46 -62.5t-17.5 -70h451v-104h-561v104z" />
<glyph unicode="&#xb3;" horiz-adv-x="770" d="M360 618q-92 0 -170.5 35t-132.5 101l93 71q74 -109 210 -108q100 0 152.5 44t52.5 116q0 76 -55 115.5t-139 39.5h-86v101h86q86 0 132 42t46 107q0 66 -48 104.5t-141 38.5q-61 0 -109 -28.5t-77 -75.5l-94 59q39 59 112.5 100.5t172.5 41.5q135 0 211.5 -64.5 t76.5 -175.5q0 -68 -32.5 -118t-92.5 -79q66 -27 106 -79t40 -129q0 -113 -78 -186t-236 -73z" />
<glyph unicode="&#xb4;" horiz-adv-x="1089" d="M575 1559h154l-287 -318h-110z" />
<glyph unicode="&#xb5;" horiz-adv-x="1335" d="M168 1106h113v-617q0 -86 28.5 -159.5t80.5 -128t123 -85t155 -30.5t154.5 30.5t122.5 85t81 128t29 159.5v617h112v-1106h-110v215q-53 -104 -153.5 -171t-235.5 -67t-235.5 67t-153.5 171v-625h-111v1516z" />
<glyph unicode="&#xb6;" horiz-adv-x="1239" d="M739 618h-186q-96 0 -177 34t-140.5 93.5t-93 139.5t-33.5 172t33.5 172t93 139t140.5 93t175 34h522v-1495h-106v1389h-123v-1389h-105v618z" />
<glyph unicode="&#xb7;" horiz-adv-x="452" d="M121 510q0 43 30.5 72.5t71.5 29.5q45 0 75 -29.5t30 -72.5t-30 -73.5t-75 -30.5t-73.5 30.5t-28.5 73.5z" />
<glyph unicode="&#xb8;" horiz-adv-x="1089" d="M539 -465q-96 0 -165 31t-120 78l94 57q41 -35 82 -56.5t109 -21.5q72 0 117.5 29t45.5 74q0 41 -44 65.5t-126 24.5h-67v204h100v-129q111 -2 179.5 -46t68.5 -115q0 -43 -21.5 -79t-58.5 -61.5t-87 -40t-107 -14.5z" />
<glyph unicode="&#xb9;" horiz-adv-x="550" d="M295 631v688q-18 -51 -70.5 -80t-126.5 -29h-14v115h8q98 0 150.5 43t52.5 139h106v-876h-106z" />
<glyph unicode="&#xba;" horiz-adv-x="923" d="M461 891q-63 0 -119.5 24.5t-97.5 65.5t-65.5 97.5t-24.5 119.5t24.5 120.5t65.5 98.5t97 65.5t120 24.5q63 0 120.5 -24.5t98.5 -65.5t65.5 -98t24.5 -121q0 -63 -24.5 -119.5t-65.5 -97.5t-98.5 -65.5t-120.5 -24.5zM461 979q45 0 85 17.5t69.5 47t46 69.5t16.5 85 t-16.5 86t-46 70.5t-69.5 47t-85 17.5t-84 -17.5t-68.5 -47t-46 -70.5t-16.5 -86t16.5 -85t46 -69.5t68.5 -47t84 -17.5z" />
<glyph unicode="&#xbb;" horiz-adv-x="985" d="M168 328l244 184l-244 184v92l317 -239v-72l-317 -239v90zM500 328l243 184l-243 184v92l315 -239v-72l-315 -239v90z" />
<glyph unicode="&#xbc;" horiz-adv-x="1603" d="M1212 203h-411v94l401 580h113v-576h129v-98h-129v-203h-103v203zM1212 301v424l-292 -424h292zM295 631v688q-18 -51 -70.5 -80t-126.5 -29h-14v115h8q98 0 150.5 43t52.5 139h106v-876h-106zM1208 1495h140l-1080 -1495h-139z" />
<glyph unicode="&#xbd;" horiz-adv-x="1681" d="M1014 104q0 53 21.5 98.5t57 84.5t80 73.5t89.5 65.5q39 27 75.5 52.5t64.5 52t45 56t17 64.5q0 61 -44 102.5t-124 41.5q-70 0 -120 -40t-78 -100l-92 47q39 86 113.5 137.5t176.5 51.5q131 0 204 -68.5t73 -171.5q0 -53 -21.5 -95t-56.5 -77t-77 -65.5t-85 -61.5 q-41 -29 -78.5 -57.5t-66.5 -58t-46.5 -62.5t-17.5 -70h451v-104h-561v104zM295 631v688q-18 -51 -70.5 -80t-126.5 -29h-14v115h8q98 0 150.5 43t52.5 139h106v-876h-106zM1208 1495h140l-1080 -1495h-139z" />
<glyph unicode="&#xbe;" horiz-adv-x="1763" d="M360 618q-92 0 -170.5 35t-132.5 101l93 71q74 -109 210 -108q100 0 152.5 44t52.5 116q0 76 -55 115.5t-139 39.5h-86v101h86q86 0 132 42t46 107q0 66 -48 104.5t-141 38.5q-61 0 -109 -28.5t-77 -75.5l-94 59q39 59 112.5 100.5t172.5 41.5q135 0 211.5 -64.5 t76.5 -175.5q0 -68 -32.5 -118t-92.5 -79q66 -27 106 -79t40 -129q0 -113 -78 -186t-236 -73zM1389 1495h139l-1079 -1495h-140zM1393 203h-412v94l401 580h113v-576h129v-98h-129v-203h-102v203zM1393 301v424l-293 -424h293z" />
<glyph unicode="&#xbf;" horiz-adv-x="1165" d="M578 -492q-92 0 -171 26t-137.5 74t-91.5 114.5t-33 148.5q0 96 31 159.5t76 111.5t99.5 90t99.5 97.5t75.5 133.5t30.5 194v17h109v-17q0 -129 -30 -216t-75 -148.5t-96 -105.5t-96 -88t-75 -97t-30 -133q0 -57 24.5 -104.5t66.5 -81t99.5 -52t123.5 -18.5 q129 0 206.5 54t126.5 145l105 -50q-53 -106 -164.5 -180t-273.5 -74zM608 827q-47 0 -76.5 32t-29.5 79q0 45 31.5 75.5t74.5 30.5q47 0 78 -30.5t31 -75.5q0 -47 -31 -79t-78 -32z" />
<glyph unicode="&#xc0;" horiz-adv-x="1527" d="M700 1495h127l607 -1495h-125l-172 428h-748l-170 -428h-125zM434 541h658l-332 821zM428 1950h152l245 -318h-110z" />
<glyph unicode="&#xc1;" horiz-adv-x="1527" d="M700 1495h127l607 -1495h-125l-172 428h-748l-170 -428h-125zM434 541h658l-332 821zM934 1948h153l-286 -318h-111z" />
<glyph unicode="&#xc2;" horiz-adv-x="1527" d="M700 1495h127l607 -1495h-125l-172 428h-748l-170 -428h-125zM434 541h658l-332 821zM713 1956h100l244 -318h-125l-170 226l-170 -226h-123z" />
<glyph unicode="&#xc3;" horiz-adv-x="1527" d="M700 1495h127l607 -1495h-125l-172 428h-748l-170 -428h-125zM434 541h658l-332 821zM397 1638q0 102 53.5 162t137.5 60q51 0 93 -18.5t83 -43.5q39 -23 74.5 -43t72.5 -20q47 0 75 28.5t28 89.5h94q0 -104 -50 -163.5t-145 -59.5q-59 0 -105 23.5t-87 48.5 q-35 20 -65.5 37.5t-67.5 17.5q-41 0 -67.5 -29.5t-26.5 -89.5h-97z" />
<glyph unicode="&#xc4;" horiz-adv-x="1527" d="M700 1495h127l607 -1495h-125l-172 428h-748l-170 -428h-125zM434 541h658l-332 821zM477 1776q0 41 30 69.5t68 28.5q43 0 72 -28.5t29 -69.5t-29 -71t-72 -30t-70.5 30t-27.5 71zM842 1776q0 41 28.5 69.5t69.5 28.5q43 0 71.5 -28.5t28.5 -69.5t-28.5 -71t-71.5 -30 t-70.5 30t-27.5 71z" />
<glyph unicode="&#xc5;" horiz-adv-x="1527" d="M672 1423q-51 25 -82 73t-31 110q0 43 15.5 79.5t43 64.5t64.5 44t78 16q43 0 81 -16t65.5 -44t44 -64.5t16.5 -79.5q0 -59 -31 -107.5t-80 -73.5l578 -1425h-125l-172 428h-748l-170 -428h-125zM434 541h658l-332 821zM760 1495q47 0 80.5 32t33.5 79t-33.5 79.5 t-80.5 32.5q-45 0 -78 -32.5t-33 -79.5q0 -45 30 -76t71 -35h10z" />
<glyph unicode="&#xc6;" horiz-adv-x="2162" d="M860 1495h1149v-113h-995l129 -577h866v-111h-842l129 -581h713v-113h-805l-90 408h-678l-205 -408h-129zM492 516h598l-185 819z" />
<glyph unicode="&#xc7;" horiz-adv-x="1708" d="M911 -475q-96 0 -164.5 30.5t-119.5 77.5l94 58q41 -35 82 -56.5t108 -21.5q72 0 118 28.5t46 73.5q0 41 -44 65.5t-126 24.5h-67v179q-145 14 -271.5 79.5t-219.5 168t-146.5 234.5t-53.5 282q0 160 60.5 299t165 243.5t244 165t298.5 60.5q104 0 201.5 -28t182.5 -77 t155 -118.5t121 -153.5l-102 -60q-84 145 -229.5 235.5t-328.5 90.5q-137 0 -254.5 -52.5t-204.5 -141.5t-137.5 -208.5t-50.5 -254.5t50.5 -255t137.5 -209t204.5 -140.5t254.5 -51.5q197 0 346.5 95.5t229.5 248.5l104 -53q-49 -88 -116.5 -160.5t-151.5 -126t-182 -84 t-207 -32.5v-99q111 -2 179.5 -46t68.5 -116q0 -43 -21.5 -78.5t-58.5 -61t-87.5 -40t-107.5 -14.5z" />
<glyph unicode="&#xc8;" horiz-adv-x="1351" d="M193 1495h1005v-113h-887v-577h887v-111h-887v-581h887v-113h-1005v1495zM385 1950h152l245 -318h-110z" />
<glyph unicode="&#xc9;" horiz-adv-x="1351" d="M193 1495h1005v-113h-887v-577h887v-111h-887v-581h887v-113h-1005v1495zM891 1948h153l-286 -318h-111z" />
<glyph unicode="&#xca;" horiz-adv-x="1351" d="M193 1495h1005v-113h-887v-577h887v-111h-887v-581h887v-113h-1005v1495zM670 1956h100l244 -318h-125l-170 226l-170 -226h-123z" />
<glyph unicode="&#xcb;" horiz-adv-x="1351" d="M193 1495h1005v-113h-887v-577h887v-111h-887v-581h887v-113h-1005v1495zM434 1776q0 41 30 69.5t68 28.5q43 0 72 -28.5t29 -69.5t-29 -71t-72 -30t-70.5 30t-27.5 71zM799 1776q0 41 28.5 69.5t69.5 28.5q43 0 71.5 -28.5t28.5 -69.5t-28.5 -71t-71.5 -30t-70.5 30 t-27.5 71z" />
<glyph unicode="&#xcc;" horiz-adv-x="534" d="M209 1495h117v-1495h-117v1495zM-63 1950h151l246 -318h-111z" />
<glyph unicode="&#xcd;" horiz-adv-x="534" d="M209 1495h117v-1495h-117v1495zM442 1948h154l-287 -318h-110z" />
<glyph unicode="&#xce;" horiz-adv-x="534" d="M209 1495h117v-1495h-117v1495zM221 1956h101l243 -318h-125l-170 226l-170 -226h-123z" />
<glyph unicode="&#xcf;" horiz-adv-x="534" d="M209 1495h117v-1495h-117v1495zM-14 1776q0 41 29.5 69.5t68.5 28.5q43 0 71.5 -28.5t28.5 -69.5t-28.5 -71t-71.5 -30t-70.5 30t-27.5 71zM350 1776q0 41 29 69.5t70 28.5q43 0 71.5 -28.5t28.5 -69.5t-28.5 -71t-71.5 -30t-71 30t-28 71z" />
<glyph unicode="&#xd0;" horiz-adv-x="1576" d="M84 819h154v676h415q170 0 312.5 -57.5t246 -157.5t161 -236.5t57.5 -295.5q0 -160 -59.5 -297.5t-163 -236.5t-245 -156.5t-305.5 -57.5h-419v725h-154v94zM356 725v-614h291q141 0 262 48t210 134t140.5 202.5t51.5 252.5q0 135 -49.5 251.5t-138.5 202.5t-210.5 135 t-269.5 49h-287v-567h473v-94h-473z" />
<glyph unicode="&#xd1;" horiz-adv-x="1574" d="M193 1495h131l944 -1319v1319h114v-1495h-127l-948 1325v-1325h-114v1495zM432 1616q0 102 53.5 161.5t137.5 59.5q51 0 93 -18.5t83 -42.5q39 -23 74.5 -43.5t72.5 -20.5q47 0 75 28.5t28 90.5h94q0 -104 -50.5 -163.5t-144.5 -59.5q-59 0 -105 23.5t-87 47.5 q-35 20 -66 38t-67 18q-41 0 -68 -30t-27 -89h-96z" />
<glyph unicode="&#xd2;" horiz-adv-x="1826" d="M913 -20q-170 0 -310 60t-241.5 164.5t-158 244t-56.5 299.5t61.5 299t166 243.5t244 165t296.5 60.5q160 0 299.5 -60.5t243 -165t162.5 -244t59 -298.5q0 -158 -60 -297.5t-164.5 -244t-244 -165.5t-297.5 -61zM913 92q137 0 255 51.5t205 140.5t137.5 208.5 t50.5 255.5q0 135 -49.5 253.5t-136.5 207.5t-204.5 141.5t-255.5 52.5q-137 0 -255.5 -52.5t-205.5 -141.5t-137.5 -207.5t-50.5 -253.5q0 -137 49.5 -257t135.5 -208t204.5 -139.5t257.5 -51.5zM580 1960h151l246 -318h-111z" />
<glyph unicode="&#xd3;" horiz-adv-x="1826" d="M913 -20q-170 0 -310 60t-241.5 164.5t-158 244t-56.5 299.5t61.5 299t166 243.5t244 165t296.5 60.5q160 0 299.5 -60.5t243 -165t162.5 -244t59 -298.5q0 -158 -60 -297.5t-164.5 -244t-244 -165.5t-297.5 -61zM913 92q137 0 255 51.5t205 140.5t137.5 208.5 t50.5 255.5q0 135 -49.5 253.5t-136.5 207.5t-204.5 141.5t-255.5 52.5q-137 0 -255.5 -52.5t-205.5 -141.5t-137.5 -207.5t-50.5 -253.5q0 -137 49.5 -257t135.5 -208t204.5 -139.5t257.5 -51.5zM1092 1962h153l-287 -317h-110z" />
<glyph unicode="&#xd4;" horiz-adv-x="1826" d="M913 -20q-170 0 -310 60t-241.5 164.5t-158 244t-56.5 299.5t61.5 299t166 243.5t244 165t296.5 60.5q160 0 299.5 -60.5t243 -165t162.5 -244t59 -298.5q0 -158 -60 -297.5t-164.5 -244t-244 -165.5t-297.5 -61zM913 92q137 0 255 51.5t205 140.5t137.5 208.5 t50.5 255.5q0 135 -49.5 253.5t-136.5 207.5t-204.5 141.5t-255.5 52.5q-137 0 -255.5 -52.5t-205.5 -141.5t-137.5 -207.5t-50.5 -253.5q0 -137 49.5 -257t135.5 -208t204.5 -139.5t257.5 -51.5zM864 1966h101l243 -317h-125l-170 225l-170 -225h-122z" />
<glyph unicode="&#xd5;" horiz-adv-x="1826" d="M913 -20q-170 0 -310 60t-241.5 164.5t-158 244t-56.5 299.5t61.5 299t166 243.5t244 165t296.5 60.5q160 0 299.5 -60.5t243 -165t162.5 -244t59 -298.5q0 -158 -60 -297.5t-164.5 -244t-244 -165.5t-297.5 -61zM913 92q137 0 255 51.5t205 140.5t137.5 208.5 t50.5 255.5q0 135 -49.5 253.5t-136.5 207.5t-204.5 141.5t-255.5 52.5q-137 0 -255.5 -52.5t-205.5 -141.5t-137.5 -207.5t-50.5 -253.5q0 -137 49.5 -257t135.5 -208t204.5 -139.5t257.5 -51.5zM549 1649q0 102 53 161.5t137 59.5q51 0 93 -18.5t83 -43.5q39 -23 75 -43 t73 -20q47 0 74.5 28.5t27.5 90.5h95q0 -104 -50.5 -164t-144.5 -60q-59 0 -105.5 24t-87.5 48q-35 20 -65.5 37.5t-67.5 17.5q-41 0 -67.5 -29.5t-26.5 -88.5h-96z" />
<glyph unicode="&#xd6;" horiz-adv-x="1826" d="M913 -20q-170 0 -310 60t-241.5 164.5t-158 244t-56.5 299.5t61.5 299t166 243.5t244 165t296.5 60.5q160 0 299.5 -60.5t243 -165t162.5 -244t59 -298.5q0 -158 -60 -297.5t-164.5 -244t-244 -165.5t-297.5 -61zM913 92q137 0 255 51.5t205 140.5t137.5 208.5 t50.5 255.5q0 135 -49.5 253.5t-136.5 207.5t-204.5 141.5t-255.5 52.5q-137 0 -255.5 -52.5t-205.5 -141.5t-137.5 -207.5t-50.5 -253.5q0 -137 49.5 -257t135.5 -208t204.5 -139.5t257.5 -51.5zM629 1786q0 41 29.5 69.5t68.5 28.5q43 0 71.5 -28.5t28.5 -69.5 t-28.5 -70.5t-71.5 -29.5t-70.5 29.5t-27.5 70.5zM993 1786q0 41 29 69.5t70 28.5q43 0 71.5 -28.5t28.5 -69.5t-28.5 -70.5t-71.5 -29.5t-71 29.5t-28 70.5z" />
<glyph unicode="&#xd7;" d="M186 483l263 262l-263 265l70 69l262 -264l262 262l70 -69l-262 -263l262 -260l-70 -69l-262 260l-262 -262z" />
<glyph unicode="&#xd8;" horiz-adv-x="1830" d="M915 -20q-125 0 -234.5 32.5t-199.5 91.5l-145 -186l-84 64l145 188q-117 106 -182 254.5t-65 323.5q0 160 61 299t165.5 243.5t244 165t297.5 60.5q119 0 226 -35t199 -97l150 193l84 -64l-150 -194q117 -104 185.5 -251.5t68.5 -319.5q0 -158 -60 -297.5t-164.5 -244 t-244 -165.5t-297.5 -61zM915 92q137 0 255 51.5t205 140.5t137.5 208.5t50.5 255.5q0 143 -55.5 267t-151.5 214l-803 -1030q78 -51 168 -79t194 -28zM268 748q0 -145 53.5 -269.5t149.5 -214.5l803 1030q-78 51 -167 80t-189 29q-137 0 -256 -52.5t-206 -141.5 t-137.5 -207.5t-50.5 -253.5z" />
<glyph unicode="&#xd9;" horiz-adv-x="1515" d="M754 -20q-133 0 -237.5 41.5t-178.5 116.5t-113 180.5t-39 232.5v944h119v-944q0 -98 31 -182t88 -145.5t140 -96.5t190 -35q100 0 185 31t144.5 90t93 144t33.5 194v944h119v-942q0 -131 -43 -237.5t-118.5 -181.5t-182 -114.5t-231.5 -39.5zM424 1927h151l246 -317 h-110z" />
<glyph unicode="&#xda;" horiz-adv-x="1515" d="M754 -20q-133 0 -237.5 41.5t-178.5 116.5t-113 180.5t-39 232.5v944h119v-944q0 -98 31 -182t88 -145.5t140 -96.5t190 -35q100 0 185 31t144.5 90t93 144t33.5 194v944h119v-942q0 -131 -43 -237.5t-118.5 -181.5t-182 -114.5t-231.5 -39.5zM930 1925h153l-286 -317 h-111z" />
<glyph unicode="&#xdb;" horiz-adv-x="1515" d="M754 -20q-133 0 -237.5 41.5t-178.5 116.5t-113 180.5t-39 232.5v944h119v-944q0 -98 31 -182t88 -145.5t140 -96.5t190 -35q100 0 185 31t144.5 90t93 144t33.5 194v944h119v-942q0 -131 -43 -237.5t-118.5 -181.5t-182 -114.5t-231.5 -39.5zM709 1933h100l244 -317 h-125l-170 225l-170 -225h-123z" />
<glyph unicode="&#xdc;" horiz-adv-x="1515" d="M754 -20q-133 0 -237.5 41.5t-178.5 116.5t-113 180.5t-39 232.5v944h119v-944q0 -98 31 -182t88 -145.5t140 -96.5t190 -35q100 0 185 31t144.5 90t93 144t33.5 194v944h119v-942q0 -131 -43 -237.5t-118.5 -181.5t-182 -114.5t-231.5 -39.5zM473 1753q0 41 29.5 69.5 t68.5 28.5q43 0 72 -28.5t29 -69.5t-29 -70.5t-72 -29.5t-70.5 29.5t-27.5 70.5zM838 1753q0 41 28.5 69.5t69.5 28.5q43 0 71.5 -28.5t28.5 -69.5t-28.5 -70.5t-71.5 -29.5t-70.5 29.5t-27.5 70.5z" />
<glyph unicode="&#xdd;" horiz-adv-x="1339" d="M604 596l-532 899h137l455 -778l469 778h135l-545 -889v-606h-119v596zM854 1927h154l-287 -317h-111z" />
<glyph unicode="&#xde;" horiz-adv-x="1308" d="M188 1495h119v-313h383q104 0 190.5 -31t146.5 -86t93 -132t33 -169t-33 -169t-93 -132t-145 -87t-192 -32h-383v-344h-119v1495zM307 1071v-618h375q164 0 257 87t93 224q0 68 -24.5 124t-69.5 97t-109.5 63.5t-146.5 22.5h-375z" />
<glyph unicode="&#xdf;" horiz-adv-x="1236" d="M-100 -393q154 0 212 71.5t58 225.5v1292q0 94 30.5 174t87 137.5t136.5 89t176 31.5q102 0 183 -30.5t137.5 -86t86 -131t29.5 -163.5q0 -121 -62.5 -216.5t-170.5 -142.5q145 -45 228 -151.5t83 -262.5q0 -98 -32.5 -182t-93 -146.5t-144.5 -97t-187 -34.5 q-137 0 -227 51l10 112q43 -27 96.5 -43t120.5 -16q74 0 136.5 25.5t108.5 71.5t71.5 113t25.5 146q0 76 -26.5 139.5t-76.5 108.5t-122 70.5t-162 25.5h-39v115h39q61 0 116.5 23.5t97.5 65.5t65.5 100.5t23.5 128.5q0 61 -19 117.5t-58 98.5t-98.5 66.5t-141.5 24.5 q-66 0 -122 -22.5t-99 -63.5t-67.5 -99.5t-24.5 -132.5v-1304q0 -215 -84 -313.5t-281 -98.5h-20v113z" />
<glyph unicode="&#xe0;" horiz-adv-x="1253" d="M494 -20q-102 0 -177 26.5t-124.5 70.5t-73 102.5t-23.5 121.5q0 86 36 150.5t101.5 109.5t158.5 67.5t210 22.5h375v68q0 141 -93 225t-268 84q-141 0 -231 -49t-158 -145l-94 71q86 104 202 163.5t281 59.5q117 0 206 -30.5t148.5 -85t89.5 -128t30 -159.5v-725h-115 v197q-80 -104 -208 -160.5t-273 -56.5zM506 80q66 0 133.5 15.5t129.5 48t115.5 82.5t92.5 120v209h-373q-193 0 -290 -62.5t-97 -185.5q0 -47 16.5 -88t52.5 -71.5t90 -49t130 -18.5zM289 1573h151l246 -318h-111z" />
<glyph unicode="&#xe1;" horiz-adv-x="1253" d="M494 -20q-102 0 -177 26.5t-124.5 70.5t-73 102.5t-23.5 121.5q0 86 36 150.5t101.5 109.5t158.5 67.5t210 22.5h375v68q0 141 -93 225t-268 84q-141 0 -231 -49t-158 -145l-94 71q86 104 202 163.5t281 59.5q117 0 206 -30.5t148.5 -85t89.5 -128t30 -159.5v-725h-115 v197q-80 -104 -208 -160.5t-273 -56.5zM506 80q66 0 133.5 15.5t129.5 48t115.5 82.5t92.5 120v209h-373q-193 0 -290 -62.5t-97 -185.5q0 -47 16.5 -88t52.5 -71.5t90 -49t130 -18.5zM795 1571h153l-286 -318h-111z" />
<glyph unicode="&#xe2;" horiz-adv-x="1253" d="M494 -20q-102 0 -177 26.5t-124.5 70.5t-73 102.5t-23.5 121.5q0 86 36 150.5t101.5 109.5t158.5 67.5t210 22.5h375v68q0 141 -93 225t-268 84q-141 0 -231 -49t-158 -145l-94 71q86 104 202 163.5t281 59.5q117 0 206 -30.5t148.5 -85t89.5 -128t30 -159.5v-725h-115 v197q-80 -104 -208 -160.5t-273 -56.5zM506 80q66 0 133.5 15.5t129.5 48t115.5 82.5t92.5 120v209h-373q-193 0 -290 -62.5t-97 -185.5q0 -47 16.5 -88t52.5 -71.5t90 -49t130 -18.5zM573 1579h101l244 -317h-125l-170 225l-170 -225h-123z" />
<glyph unicode="&#xe3;" horiz-adv-x="1253" d="M494 -20q-102 0 -177 26.5t-124.5 70.5t-73 102.5t-23.5 121.5q0 86 36 150.5t101.5 109.5t158.5 67.5t210 22.5h375v68q0 141 -93 225t-268 84q-141 0 -231 -49t-158 -145l-94 71q86 104 202 163.5t281 59.5q117 0 206 -30.5t148.5 -85t89.5 -128t30 -159.5v-725h-115 v197q-80 -104 -208 -160.5t-273 -56.5zM506 80q66 0 133.5 15.5t129.5 48t115.5 82.5t92.5 120v209h-373q-193 0 -290 -62.5t-97 -185.5q0 -47 16.5 -88t52.5 -71.5t90 -49t130 -18.5zM258 1262q0 102 53.5 161.5t137.5 59.5q51 0 93 -18.5t83 -43.5q39 -23 74.5 -43 t72.5 -20q47 0 74.5 28.5t27.5 90.5h95q0 -104 -50.5 -164t-144.5 -60q-59 0 -105 23.5t-87 48.5q-35 20 -66 37.5t-67 17.5q-41 0 -68 -29.5t-27 -88.5h-96z" />
<glyph unicode="&#xe4;" horiz-adv-x="1253" d="M494 -20q-102 0 -177 26.5t-124.5 70.5t-73 102.5t-23.5 121.5q0 86 36 150.5t101.5 109.5t158.5 67.5t210 22.5h375v68q0 141 -93 225t-268 84q-141 0 -231 -49t-158 -145l-94 71q86 104 202 163.5t281 59.5q117 0 206 -30.5t148.5 -85t89.5 -128t30 -159.5v-725h-115 v197q-80 -104 -208 -160.5t-273 -56.5zM506 80q66 0 133.5 15.5t129.5 48t115.5 82.5t92.5 120v209h-373q-193 0 -290 -62.5t-97 -185.5q0 -47 16.5 -88t52.5 -71.5t90 -49t130 -18.5zM338 1399q0 41 29.5 69.5t68.5 28.5q43 0 72 -28.5t29 -69.5t-29 -71t-72 -30t-70.5 30 t-27.5 71zM702 1399q0 41 29 69.5t70 28.5q43 0 71.5 -28.5t28.5 -69.5t-28.5 -71t-71.5 -30t-71 30t-28 71z" />
<glyph unicode="&#xe5;" horiz-adv-x="1253" d="M494 -20q-102 0 -177 26.5t-124.5 70.5t-73 102.5t-23.5 121.5q0 86 36 150.5t101.5 109.5t158.5 67.5t210 22.5h375v68q0 141 -93 225t-268 84q-141 0 -231 -49t-158 -145l-94 71q86 104 202 163.5t281 59.5q117 0 206 -30.5t148.5 -85t89.5 -128t30 -159.5v-725h-115 v197q-80 -104 -208 -160.5t-273 -56.5zM506 80q66 0 133.5 15.5t129.5 48t115.5 82.5t92.5 120v209h-373q-193 0 -290 -62.5t-97 -185.5q0 -47 16.5 -88t52.5 -71.5t90 -49t130 -18.5zM621 1253q-84 0 -142.5 58.5t-58.5 144.5q0 43 15.5 80t43 64.5t64.5 44t78 16.5 q43 0 80.5 -16.5t65.5 -44t44 -64.5t16 -80t-16 -80t-44 -64.5t-65.5 -43t-80.5 -15.5zM621 1346q47 0 80.5 31.5t33.5 78.5t-33.5 80t-80.5 33q-45 0 -78 -33t-33 -80t33 -78.5t78 -31.5z" />
<glyph unicode="&#xe6;" horiz-adv-x="2236" d="M500 -23q-104 0 -180 26t-125.5 69t-73 100t-23.5 123q0 170 132 252t364 82h426v92q0 66 -23.5 122t-71.5 98t-118 65.5t-162 23.5q-147 0 -250.5 -58.5t-156.5 -156.5l-99 62q72 111 204 181t310 70q188 0 300 -76.5t151 -195.5q72 125 199 198.5t290 73.5 q121 0 224.5 -40.5t178.5 -115.5t118 -178.5t43 -228.5v-41h-1027q4 -96 39 -177t96.5 -140.5t145.5 -92t184 -32.5q154 0 257.5 65.5t162.5 182.5l99 -56q-84 -139 -208 -218t-307 -79q-188 0 -320 80t-200 213q-41 -66 -105.5 -120t-142 -93t-162.5 -59.5t-169 -20.5z M510 78q70 0 145.5 16.5t147 53t134 93t103.5 136.5q-20 70 -20 147h-424q-195 0 -287 -50t-92 -173q0 -96 70.5 -159.5t222.5 -63.5zM1593 1024q-88 0 -165.5 -29.5t-137 -83t-99.5 -126t-54 -156.5h899q-10 88 -45 160.5t-93.5 125t-135.5 81t-169 28.5z" />
<glyph unicode="&#xe7;" horiz-adv-x="1333" d="M707 -477q-96 0 -165 30.5t-120 77.5l94 58q41 -35 82 -56.5t109 -21.5q72 0 117.5 28.5t45.5 73.5q0 41 -44 65.5t-126 24.5h-67v179q-111 12 -205 61t-162.5 125t-106.5 175t-38 210q0 123 45 228.5t123 182t183.5 120.5t225.5 44q90 0 171 -24.5t148.5 -68.5 t120 -106.5t83.5 -135.5l-109 -48q-55 127 -162.5 201t-253.5 74q-96 0 -179 -37t-144.5 -100.5t-96 -148.5t-34.5 -181t35.5 -181t97 -148.5t145.5 -100.5t182 -37q150 0 255.5 82t158.5 205l111 -47q-61 -147 -187.5 -242.5t-306.5 -103.5v-101q111 -2 179.5 -46 t68.5 -116q0 -43 -21.5 -78.5t-58.5 -61.5t-87 -40t-107 -14z" />
<glyph unicode="&#xe8;" horiz-adv-x="1382" d="M702 -23q-135 0 -242.5 43t-182 120t-115.5 180.5t-41 226.5t43 229.5t120.5 184t184 122.5t233.5 45q119 0 221.5 -42t177.5 -116.5t117 -178t42 -226.5v-59h-1027q6 -92 43 -169t98.5 -133.5t144.5 -88t181 -31.5q150 0 252.5 61.5t167.5 184.5l105 -58 q-92 -147 -215.5 -221t-307.5 -74zM702 1022q-92 0 -171.5 -30.5t-141 -86t-100.5 -130.5t-51 -161h901q-8 90 -42 165t-91.5 129.5t-134.5 84t-169 29.5zM371 1573h151l246 -318h-111z" />
<glyph unicode="&#xe9;" horiz-adv-x="1382" d="M702 -23q-135 0 -242.5 43t-182 120t-115.5 180.5t-41 226.5t43 229.5t120.5 184t184 122.5t233.5 45q119 0 221.5 -42t177.5 -116.5t117 -178t42 -226.5v-59h-1027q6 -92 43 -169t98.5 -133.5t144.5 -88t181 -31.5q150 0 252.5 61.5t167.5 184.5l105 -58 q-92 -147 -215.5 -221t-307.5 -74zM702 1022q-92 0 -171.5 -30.5t-141 -86t-100.5 -130.5t-51 -161h901q-8 90 -42 165t-91.5 129.5t-134.5 84t-169 29.5zM877 1571h153l-287 -318h-110z" />
<glyph unicode="&#xea;" horiz-adv-x="1382" d="M702 -23q-135 0 -242.5 43t-182 120t-115.5 180.5t-41 226.5t43 229.5t120.5 184t184 122.5t233.5 45q119 0 221.5 -42t177.5 -116.5t117 -178t42 -226.5v-59h-1027q6 -92 43 -169t98.5 -133.5t144.5 -88t181 -31.5q150 0 252.5 61.5t167.5 184.5l105 -58 q-92 -147 -215.5 -221t-307.5 -74zM702 1022q-92 0 -171.5 -30.5t-141 -86t-100.5 -130.5t-51 -161h901q-8 90 -42 165t-91.5 129.5t-134.5 84t-169 29.5zM655 1579h101l243 -317h-125l-169 225l-170 -225h-123z" />
<glyph unicode="&#xeb;" horiz-adv-x="1382" d="M702 -23q-135 0 -242.5 43t-182 120t-115.5 180.5t-41 226.5t43 229.5t120.5 184t184 122.5t233.5 45q119 0 221.5 -42t177.5 -116.5t117 -178t42 -226.5v-59h-1027q6 -92 43 -169t98.5 -133.5t144.5 -88t181 -31.5q150 0 252.5 61.5t167.5 184.5l105 -58 q-92 -147 -215.5 -221t-307.5 -74zM702 1022q-92 0 -171.5 -30.5t-141 -86t-100.5 -130.5t-51 -161h901q-8 90 -42 165t-91.5 129.5t-134.5 84t-169 29.5zM420 1399q0 41 29.5 69.5t68.5 28.5q43 0 71.5 -28.5t28.5 -69.5t-28.5 -71t-71.5 -30t-70.5 30t-27.5 71zM784 1399 q0 41 29 69.5t70 28.5q43 0 71.5 -28.5t28.5 -69.5t-28.5 -71t-71.5 -30t-71 30t-28 71z" />
<glyph unicode="&#xec;" horiz-adv-x="458" d="M172 1106h115v-1106h-115v1106zM-104 1561h151l246 -318h-111z" />
<glyph unicode="&#xed;" horiz-adv-x="458" d="M172 1106h115v-1106h-115v1106zM414 1579h153l-286 -317h-111z" />
<glyph unicode="&#xee;" horiz-adv-x="458" d="M172 1106h115v-1106h-115v1106zM180 1567h101l243 -318h-125l-170 226l-170 -226h-122z" />
<glyph unicode="&#xef;" horiz-adv-x="458" d="M172 1106h115v-1106h-115v1106zM-55 1386q0 41 29.5 70t68.5 29q43 0 71.5 -29t28.5 -70t-28.5 -70.5t-71.5 -29.5t-70.5 29.5t-27.5 70.5zM309 1386q0 41 29 70t70 29q43 0 71.5 -29t28.5 -70t-28.5 -70.5t-71.5 -29.5t-71 29.5t-28 70.5z" />
<glyph unicode="&#xf0;" horiz-adv-x="1366" d="M623 1411q-115 98 -258 203h184q45 -35 86 -69t80 -68l207 147l59 -65l-199 -144q463 -436 463 -876q0 -117 -43 -217.5t-118.5 -176t-179 -118.5t-222.5 -43q-117 0 -219.5 42t-178 116.5t-119.5 176t-44 220.5q0 117 43 218t117.5 176t175 117t213.5 42 q131 0 224 -48.5t150 -125.5q-51 104 -138 210.5t-214 223.5l-203 -146l-61 66zM684 96q92 0 172 35t139.5 95.5t93 140t33.5 172.5q0 90 -33.5 169.5t-93 140t-139.5 95.5t-172 35q-90 0 -171 -35t-140.5 -94t-94 -139t-34.5 -172t34.5 -172t94 -140.5t140.5 -95.5t171 -35 z" />
<glyph unicode="&#xf1;" horiz-adv-x="1347" d="M168 1106h111v-219q55 106 163.5 173.5t253.5 67.5q111 0 201 -34.5t153.5 -101t98.5 -161t35 -213.5v-618h-117v618q0 182 -100.5 292t-286.5 110q-84 0 -156.5 -31t-126 -85t-84 -128t-30.5 -160v-616h-115v1106zM305 1257q0 102 53.5 162t137.5 60q51 0 93 -18.5 t83 -43.5q39 -23 74.5 -43t72.5 -20q47 0 75 28.5t28 90.5h94q0 -104 -50.5 -164t-144.5 -60q-59 0 -105 23.5t-87 48.5q-35 20 -66 37.5t-67 17.5q-41 0 -68 -29.5t-27 -89.5h-96z" />
<glyph unicode="&#xf2;" horiz-adv-x="1390" d="M694 -23q-125 0 -229.5 43t-181 120t-119.5 182.5t-43 230.5q0 123 44 227.5t120.5 182t181 121.5t227.5 44t227.5 -44t182.5 -121.5t122 -182t44 -227.5q0 -121 -44 -225.5t-121 -182t-182.5 -123t-228.5 -45.5zM694 88q98 0 181 35t143.5 97.5t95.5 147.5t35 185 q0 98 -35 184t-96.5 148.5t-144 98.5t-179.5 36q-96 0 -179 -36t-143.5 -98.5t-95 -148.5t-34.5 -184q0 -102 34.5 -187t95 -146.5t143.5 -96.5t179 -35zM362 1573h152l246 -318h-111z" />
<glyph unicode="&#xf3;" horiz-adv-x="1390" d="M694 -23q-125 0 -229.5 43t-181 120t-119.5 182.5t-43 230.5q0 123 44 227.5t120.5 182t181 121.5t227.5 44t227.5 -44t182.5 -121.5t122 -182t44 -227.5q0 -121 -44 -225.5t-121 -182t-182.5 -123t-228.5 -45.5zM694 88q98 0 181 35t143.5 97.5t95.5 147.5t35 185 q0 98 -35 184t-96.5 148.5t-144 98.5t-179.5 36q-96 0 -179 -36t-143.5 -98.5t-95 -148.5t-34.5 -184q0 -102 34.5 -187t95 -146.5t143.5 -96.5t179 -35zM868 1571h154l-287 -318h-110z" />
<glyph unicode="&#xf4;" horiz-adv-x="1390" d="M694 -23q-125 0 -229.5 43t-181 120t-119.5 182.5t-43 230.5q0 123 44 227.5t120.5 182t181 121.5t227.5 44t227.5 -44t182.5 -121.5t122 -182t44 -227.5q0 -121 -44 -225.5t-121 -182t-182.5 -123t-228.5 -45.5zM694 88q98 0 181 35t143.5 97.5t95.5 147.5t35 185 q0 98 -35 184t-96.5 148.5t-144 98.5t-179.5 36q-96 0 -179 -36t-143.5 -98.5t-95 -148.5t-34.5 -184q0 -102 34.5 -187t95 -146.5t143.5 -96.5t179 -35zM647 1579h101l243 -317h-125l-170 225l-170 -225h-123z" />
<glyph unicode="&#xf5;" horiz-adv-x="1390" d="M694 -23q-125 0 -229.5 43t-181 120t-119.5 182.5t-43 230.5q0 123 44 227.5t120.5 182t181 121.5t227.5 44t227.5 -44t182.5 -121.5t122 -182t44 -227.5q0 -121 -44 -225.5t-121 -182t-182.5 -123t-228.5 -45.5zM694 88q98 0 181 35t143.5 97.5t95.5 147.5t35 185 q0 98 -35 184t-96.5 148.5t-144 98.5t-179.5 36q-96 0 -179 -36t-143.5 -98.5t-95 -148.5t-34.5 -184q0 -102 34.5 -187t95 -146.5t143.5 -96.5t179 -35zM332 1262q0 102 53 161.5t137 59.5q51 0 93 -18.5t83 -43.5q39 -23 75 -43t73 -20q47 0 74.5 28.5t27.5 90.5h94 q0 -104 -50 -164t-144 -60q-59 0 -105.5 23.5t-87.5 48.5q-35 20 -65.5 37.5t-67.5 17.5q-41 0 -67.5 -29.5t-26.5 -88.5h-96z" />
<glyph unicode="&#xf6;" horiz-adv-x="1390" d="M694 -23q-125 0 -229.5 43t-181 120t-119.5 182.5t-43 230.5q0 123 44 227.5t120.5 182t181 121.5t227.5 44t227.5 -44t182.5 -121.5t122 -182t44 -227.5q0 -121 -44 -225.5t-121 -182t-182.5 -123t-228.5 -45.5zM694 88q98 0 181 35t143.5 97.5t95.5 147.5t35 185 q0 98 -35 184t-96.5 148.5t-144 98.5t-179.5 36q-96 0 -179 -36t-143.5 -98.5t-95 -148.5t-34.5 -184q0 -102 34.5 -187t95 -146.5t143.5 -96.5t179 -35zM412 1399q0 41 29.5 69.5t68.5 28.5q43 0 71.5 -28.5t28.5 -69.5t-28.5 -71t-71.5 -30t-70.5 30t-27.5 71zM776 1399 q0 41 29 69.5t69 28.5q43 0 72 -28.5t29 -69.5t-28.5 -71t-72.5 -30q-43 0 -70.5 30t-27.5 71z" />
<glyph unicode="&#xf7;" d="M139 799h758v-103h-758v103zM424 1085q0 39 27.5 66t64.5 27q41 0 67.5 -27t26.5 -66t-26.5 -66.5t-67.5 -27.5t-66.5 27.5t-25.5 66.5zM424 410q0 39 27.5 65.5t64.5 26.5q41 0 67.5 -26.5t26.5 -65.5t-26.5 -67t-67.5 -28t-66.5 28t-25.5 67z" />
<glyph unicode="&#xf8;" horiz-adv-x="1390" d="M293 139q-80 78 -126 183.5t-46 230.5q0 121 45 226.5t122 183t181 121.5t225 44q90 0 171 -24.5t151 -71.5l106 131l80 -57l-110 -137q82 -78 130 -184.5t48 -231.5q0 -121 -45 -226.5t-124 -183t-183.5 -122t-223.5 -44.5q-92 0 -172 25t-149 72l-115 -144l-82 64z M694 86q94 0 177 37t144.5 100.5t96.5 148.5t35 181t-34 179t-93 147l-576 -717q53 -35 116.5 -55.5t133.5 -20.5zM242 553q0 -94 32.5 -177t92.5 -147l577 713q-53 37 -116.5 57.5t-133.5 20.5q-94 0 -177 -37t-144.5 -100.5t-96 -148.5t-34.5 -181z" />
<glyph unicode="&#xf9;" horiz-adv-x="1310" d="M633 -23q-233 0 -353 135.5t-120 374.5v619h114v-619q0 -182 93.5 -291.5t275.5 -109.5q84 0 154.5 30.5t123 85t81 128t28.5 159.5v617h113v-1106h-111v215q-53 -104 -155.5 -171t-243.5 -67zM305 1538h152l245 -317h-110z" />
<glyph unicode="&#xfa;" horiz-adv-x="1310" d="M633 -23q-233 0 -353 135.5t-120 374.5v619h114v-619q0 -182 93.5 -291.5t275.5 -109.5q84 0 154.5 30.5t123 85t81 128t28.5 159.5v617h113v-1106h-111v215q-53 -104 -155.5 -171t-243.5 -67zM811 1536h154l-287 -317h-111z" />
<glyph unicode="&#xfb;" horiz-adv-x="1310" d="M633 -23q-233 0 -353 135.5t-120 374.5v619h114v-619q0 -182 93.5 -291.5t275.5 -109.5q84 0 154.5 30.5t123 85t81 128t28.5 159.5v617h113v-1106h-111v215q-53 -104 -155.5 -171t-243.5 -67zM590 1544h100l244 -317h-125l-170 225l-170 -225h-123z" />
<glyph unicode="&#xfc;" horiz-adv-x="1310" d="M633 -23q-233 0 -353 135.5t-120 374.5v619h114v-619q0 -182 93.5 -291.5t275.5 -109.5q84 0 154.5 30.5t123 85t81 128t28.5 159.5v617h113v-1106h-111v215q-53 -104 -155.5 -171t-243.5 -67zM354 1364q0 41 30 69.5t69 28.5q43 0 71.5 -28.5t28.5 -69.5t-28.5 -70.5 t-71.5 -29.5t-71 29.5t-28 70.5zM719 1364q0 41 28.5 69.5t69.5 28.5q43 0 72 -28.5t29 -69.5t-29 -70.5t-72 -29.5t-70.5 29.5t-27.5 70.5z" />
<glyph unicode="&#xfd;" horiz-adv-x="1177" d="M248 -373q-86 0 -150.5 31t-105.5 78l84 88q35 -41 73.5 -64.5t98.5 -23.5q45 0 78.5 11t62.5 40t57.5 79t63.5 128l27 57l-471 1055h127l407 -920l391 920h129l-510 -1147q-39 -88 -75.5 -150.5t-78.5 -102.5t-92 -59.5t-116 -19.5zM776 1542h154l-287 -317h-111z" />
<glyph unicode="&#xfe;" horiz-adv-x="1435" d="M741 -23q-66 0 -132 17.5t-127.5 52.5t-112 85t-82.5 116v-756h-115v2122h115v-758q33 66 83 116t111.5 85t129 53t134.5 18q121 0 224.5 -44t180.5 -121.5t121 -182t44 -227.5q0 -125 -42 -230.5t-118 -182.5t-181.5 -120t-232.5 -43zM741 88q96 0 179.5 35t143.5 96.5 t95 146.5t35 187q0 98 -35 184t-95 148.5t-143 98.5t-180 36q-98 0 -182 -37t-146.5 -100.5t-97 -148.5t-34.5 -181t34.5 -181t97 -148.5t146.5 -99.5t182 -36z" />
<glyph unicode="&#xff;" horiz-adv-x="1177" d="M248 -373q-86 0 -150.5 31t-105.5 78l84 88q35 -41 73.5 -64.5t98.5 -23.5q45 0 78.5 11t62.5 40t57.5 79t63.5 128l27 57l-471 1055h127l407 -920l391 920h129l-510 -1147q-39 -88 -75.5 -150.5t-78.5 -102.5t-92 -59.5t-116 -19.5zM319 1370q0 41 30 69.5t69 28.5 q43 0 71.5 -28.5t28.5 -69.5t-28.5 -70.5t-71.5 -29.5t-71 29.5t-28 70.5zM684 1370q0 41 28.5 69.5t69.5 28.5q43 0 72 -28.5t29 -69.5t-29 -70.5t-72 -29.5t-70.5 29.5t-27.5 70.5z" />
<glyph unicode="&#x152;" horiz-adv-x="2629" d="M1563 354q-96 -170 -264.5 -272t-385.5 -102q-160 0 -299 60t-242.5 164.5t-164 244t-60.5 299.5t60.5 299t164 243.5t243 165t298.5 60.5q217 0 385 -103.5t265 -273.5v356h913v-113h-795v-577h795v-111h-795v-581h795v-113h-913v354zM913 96q135 0 254 51.5t206 140.5 t138.5 206.5t51.5 253.5q0 135 -51.5 253.5t-138.5 207.5t-205.5 140.5t-254.5 51.5q-135 0 -252.5 -51.5t-204.5 -140.5t-138.5 -207.5t-51.5 -253.5t51.5 -253t138.5 -207t204.5 -140.5t252.5 -51.5z" />
<glyph unicode="&#x153;" horiz-adv-x="2412" d="M694 -23q-121 0 -225 44.5t-181 122t-122 183t-45 226.5t45 226.5t122 183t181 121.5t225 44q86 0 165 -23.5t145.5 -66.5t119 -103.5t84.5 -133.5q66 147 200 237t314 90q121 0 224.5 -42t179.5 -116.5t119 -178t43 -226.5v-53h-1026q6 -92 41.5 -171t97 -136.5 t144.5 -89t181 -31.5q152 0 255.5 64.5t162.5 179.5l97 -56q-84 -137 -207 -216t-305 -79q-197 0 -330 87.5t-197 230.5q-33 -72 -84 -130.5t-116.5 -99t-143.5 -64.5t-164 -24zM694 86q94 0 177 37t144.5 100.5t96.5 148.5t35 181t-35 181t-96.5 148.5t-144.5 100.5 t-177 37t-177 -37t-144.5 -100.5t-96 -148.5t-34.5 -181t34.5 -181t96 -148.5t144.5 -100.5t177 -37zM1722 1022q-90 0 -166.5 -30.5t-137 -84t-99.5 -126t-51 -158.5h899q-8 88 -44 161.5t-94.5 127t-136.5 82t-170 28.5z" />
<glyph unicode="&#x178;" horiz-adv-x="1339" d="M604 596l-532 899h137l455 -778l469 778h135l-545 -889v-606h-119v596zM397 1755q0 41 30 69.5t69 28.5q43 0 71.5 -28.5t28.5 -69.5t-28.5 -70.5t-71.5 -29.5t-71 29.5t-28 70.5zM762 1755q0 41 28.5 69.5t69.5 28.5q43 0 72 -28.5t29 -69.5t-29 -70.5t-72 -29.5 t-70.5 29.5t-27.5 70.5z" />
<glyph unicode="&#x2c6;" horiz-adv-x="1089" d="M496 1567h100l244 -318h-125l-170 226l-170 -226h-123z" />
<glyph unicode="&#x2dc;" horiz-adv-x="1089" d="M186 1249q0 102 53.5 161.5t137.5 59.5q51 0 93 -18t83 -43q39 -23 75 -43t72 -20q47 0 75 28.5t28 89.5h94q0 -104 -50 -163.5t-145 -59.5q-59 0 -105 23.5t-87 48.5q-35 20 -65.5 37.5t-67.5 17.5q-41 0 -67.5 -29.5t-26.5 -89.5h-97v0z" />
<glyph unicode="&#x2000;" horiz-adv-x="983" />
<glyph unicode="&#x2001;" horiz-adv-x="1966" />
<glyph unicode="&#x2002;" horiz-adv-x="983" />
<glyph unicode="&#x2003;" horiz-adv-x="1966" />
<glyph unicode="&#x2004;" horiz-adv-x="655" />
<glyph unicode="&#x2005;" horiz-adv-x="491" />
<glyph unicode="&#x2006;" horiz-adv-x="327" />
<glyph unicode="&#x2007;" horiz-adv-x="327" />
<glyph unicode="&#x2008;" horiz-adv-x="245" />
<glyph unicode="&#x2009;" horiz-adv-x="393" />
<glyph unicode="&#x200a;" horiz-adv-x="109" />
<glyph unicode="&#x2010;" d="M139 567h758v-104h-758v104z" />
<glyph unicode="&#x2011;" d="M139 567h758v-104h-758v104z" />
<glyph unicode="&#x2012;" d="M139 567h758v-104h-758v104z" />
<glyph unicode="&#x2013;" horiz-adv-x="1138" d="M139 567h860v-104h-860v104z" />
<glyph unicode="&#x2014;" horiz-adv-x="1548" d="M139 567h1270v-104h-1270v104z" />
<glyph unicode="&#x2018;" horiz-adv-x="509" d="M217 1239q0 -23 8 -39q4 66 76 66q37 0 62.5 -24.5t25.5 -72.5q0 -43 -30.5 -73.5t-82.5 -30.5q-72 0 -106.5 48t-34.5 110q0 92 52.5 169.5t144.5 127.5l37 -64q-74 -35 -113 -95.5t-39 -121.5z" />
<glyph unicode="&#x2019;" horiz-adv-x="509" d="M156 1122q74 35 112.5 95.5t38.5 121.5q0 16 -8 37q-6 -63 -76 -63q-37 0 -62.5 24.5t-25.5 71.5q0 43 31 73.5t82 30.5q72 0 106.5 -48t34.5 -109q0 -92 -52 -170t-144 -127z" />
<glyph unicode="&#x201a;" horiz-adv-x="452" d="M125 -201q74 35 112.5 95.5t38.5 121.5q0 16 -8 37q-6 -63 -73 -63q-39 0 -65 24.5t-26 71.5q0 43 31 73.5t82 30.5q72 0 106.5 -48t34.5 -109q0 -92 -52 -170t-144 -127z" />
<glyph unicode="&#x201c;" horiz-adv-x="860" d="M217 1239q0 -23 8 -39q4 66 74 66q39 0 64.5 -24.5t25.5 -72.5q0 -43 -30.5 -73.5t-82.5 -30.5q-72 0 -106.5 48t-34.5 110q0 92 52.5 169.5t144.5 127.5l37 -64q-74 -35 -113 -95.5t-39 -121.5zM567 1239q0 -23 8 -39q4 66 74 66q39 0 64.5 -24.5t25.5 -72.5 q0 -43 -30.5 -73.5t-81.5 -30.5q-72 0 -107 48t-35 110q0 92 52.5 169.5t144.5 127.5l37 -64q-74 -35 -113 -95.5t-39 -121.5z" />
<glyph unicode="&#x201d;" horiz-adv-x="860" d="M506 1122q74 35 112.5 95.5t38.5 121.5q0 16 -8 37q-4 -31 -21.5 -47t-43.5 -16q-45 0 -72 24.5t-27 71.5q0 43 31 73.5t82 30.5q72 0 106.5 -48t34.5 -109q0 -92 -52 -170t-144 -127zM156 1122q74 35 112.5 95.5t38.5 121.5q0 16 -8 37q-4 -31 -21.5 -47t-44.5 -16 q-45 0 -71.5 24.5t-26.5 71.5q0 43 31 73.5t82 30.5q72 0 106.5 -48t34.5 -109q0 -92 -52 -170t-144 -127z" />
<glyph unicode="&#x201e;" horiz-adv-x="798" d="M627 16q0 16 -9 37q-4 -31 -21 -47t-44 -16q-45 0 -71.5 24.5t-26.5 71.5q0 43 30.5 73.5t81.5 30.5q72 0 107 -48t35 -109q0 -92 -52.5 -170t-144.5 -127l-37 63q74 35 113 95.5t39 121.5zM276 16q0 16 -8 37q-4 -31 -21.5 -47t-43.5 -16q-45 0 -72 24.5t-27 71.5 q0 43 31 73.5t82 30.5q72 0 106.5 -48t34.5 -109q0 -92 -52 -170t-144 -127l-37 63q74 35 112.5 95.5t38.5 121.5z" />
<glyph unicode="&#x2022;" horiz-adv-x="686" d="M344 391q-51 0 -87 36t-36 87t36 87t87 36t87 -36t36 -87t-36 -87t-87 -36z" />
<glyph unicode="&#x2026;" horiz-adv-x="1124" d="M123 84q0 43 30.5 72.5t71.5 29.5q45 0 75 -29.5t30 -72.5t-30 -73.5t-75 -30.5t-73.5 30.5t-28.5 73.5zM459 84q0 43 30.5 72.5t71.5 29.5q45 0 75 -29.5t30 -72.5t-30 -73.5t-75 -30.5t-73.5 30.5t-28.5 73.5zM795 84q0 43 30.5 72.5t71.5 29.5q45 0 74.5 -29.5 t29.5 -72.5t-29.5 -73.5t-74.5 -30.5t-73.5 30.5t-28.5 73.5z" />
<glyph unicode="&#x202f;" horiz-adv-x="393" />
<glyph unicode="&#x2039;" horiz-adv-x="653" d="M174 473v78l307 244v-99l-235 -186l235 -182v-99z" />
<glyph unicode="&#x203a;" horiz-adv-x="653" d="M174 328l234 184l-234 184v101l307 -244v-80l-307 -244v99z" />
<glyph unicode="&#x205f;" horiz-adv-x="491" />
<glyph unicode="&#x20ac;" horiz-adv-x="1820" d="M92 1032h215q43 106 115 194.5t164 153t202.5 100.5t231.5 36q172 0 316.5 -68t248.5 -184l-82 -76q-86 98 -210 157.5t-273 59.5q-98 0 -187.5 -27.5t-164 -77t-133 -118t-97.5 -150.5h848l-24 -98h-863q-27 -86 -26 -186q0 -98 24 -187h762l-24 -98h-699 q39 -82 98.5 -150.5t134 -118t165 -76t190.5 -26.5q158 0 285 63.5t213 172.5l92 -70q-104 -129 -256 -203.5t-334 -74.5q-123 0 -234.5 35.5t-204.5 99t-164 152.5t-114 196h-215v98h182q-20 84 -20 187q0 92 22 186h-184v98z" />
<glyph unicode="&#x2122;" horiz-adv-x="1456" d="M657 1495h82l244 -324l252 324h76v-594h-88v445l-240 -304l-240 306v-447h-86v594zM301 1415h-195v80h476v-80h-193v-514h-88v514z" />
<glyph unicode="&#x25fc;" horiz-adv-x="1105" d="M0 1106h1106v-1106h-1106v1106z" />
<glyph unicode="&#xfb01;" horiz-adv-x="1239" d="M47 1106h217v108q0 119 17.5 197t62.5 123t121 62.5t190 17.5h47v-111h-38q-90 0 -145.5 -10t-86.5 -41t-41 -88t-10 -152v-106h321v-102h-321v-1004h-117v1004h-217v102zM952 1106h115v-1106h-115v1106zM903 1454q0 45 31.5 76t74.5 31q47 0 78 -31t31 -76 q0 -47 -31 -79t-78 -32t-76.5 32t-29.5 79z" />
<glyph unicode="&#xfb02;" horiz-adv-x="1236" d="M47 1106h217v108q0 119 17.5 197t62.5 123t121 62.5t190 17.5h47v-111h-38q-90 0 -145.5 -10t-86.5 -41t-41 -88t-10 -152v-106h321v-102h-321v-1004h-117v1004h-217v102zM952 1614h113v-1614h-113v1614z" />
</font>
</defs>
</svg>
