<?xml version="1.0" standalone="no"?>
<!DOCTYPE svg PUBLIC "-//W3C//DTD SVG 1.1//EN" "http://www.w3.org/Graphics/SVG/1.1/DTD/svg11.dtd" >
<svg xmlns="http://www.w3.org/2000/svg" xmlns:xlink="http://www.w3.org/1999/xlink" version="1.1">
<metadata></metadata>
<defs>
<font id="sharp_sanslight" horiz-adv-x="1009" >
<font-face units-per-em="2048" ascent="1536" descent="-512" />
<missing-glyph horiz-adv-x="477" />
<glyph horiz-adv-x="0" />
<glyph unicode="&#xd;" horiz-adv-x="477" />
<glyph horiz-adv-x="0" />
<glyph horiz-adv-x="0" />
<glyph unicode=" "  horiz-adv-x="477" />
<glyph unicode="&#x09;" horiz-adv-x="477" />
<glyph unicode="&#xa0;" horiz-adv-x="477" />
<glyph unicode="!" horiz-adv-x="532" d="M188 68q0 35 22.5 57t57.5 22t57.5 -22.5t22.5 -56.5q0 -35 -22.5 -58.5t-57.5 -23.5t-57.5 23.5t-22.5 58.5zM229 1255v240h78v-240q0 -102 -1 -234t-3 -261t-5 -239.5t-5 -170.5h-47q-2 59 -5 170t-5.5 240t-4.5 261t-2 234z" />
<glyph unicode="&#x22;" horiz-adv-x="583" d="M158 1323v172h69v-172q0 -29 -2 -72t-5 -87t-6 -82t-5 -58h-31q-2 20 -6 58t-7 82t-5 87t-2 72zM356 1323v172h70v-172q0 -29 -2 -72t-5 -87t-6 -82t-5 -58h-31q-2 20 -6 58t-7.5 82t-5.5 87t-2 72z" />
<glyph unicode="#" horiz-adv-x="1746" d="M121 453v71h436v469h-436v72h436v430h78v-430h467v430h78v-430h446v-72h-446v-469h446v-71h-446v-453h-78v453h-467v-453h-78v453h-436zM635 524h467v469h-467v-469z" />
<glyph unicode="$" horiz-adv-x="1165" d="M113 193l63 51q59 -80 158.5 -132.5t212.5 -60.5v709q-76 25 -148.5 51.5t-129 69.5t-91.5 106.5t-35 159.5q0 80 31 145.5t85 113.5t128 75.5t158 31.5v207h73v-207q125 -8 216.5 -57t154.5 -125l-59 -49q-53 70 -130 113t-182 51v-633q78 -25 153 -55.5t134.5 -76.5 t95 -116t35.5 -172q0 -84 -29.5 -156.5t-85 -127t-132 -88t-171.5 -39.5v-228h-73v228q-135 6 -249 63t-183 148zM221 1147q0 -72 26.5 -121t70.5 -84t103.5 -60.5t125.5 -45.5v610q-68 -4 -127.5 -26.5t-103.5 -60.5t-69.5 -91t-25.5 -121zM618 53q72 6 134.5 33t108.5 71 t71.5 103t25.5 131q0 80 -27.5 136.5t-74.5 95.5t-108.5 65.5t-129.5 48.5v-684z" />
<glyph unicode="%" horiz-adv-x="1794" d="M193 1182q0 70 26.5 131t71.5 106t105.5 71t129.5 26q70 0 130.5 -26t105.5 -71t71.5 -106.5t26.5 -130.5q0 -70 -26.5 -130.5t-71.5 -105.5t-105.5 -71.5t-130.5 -26.5t-130 26.5t-105 71.5t-71.5 105.5t-26.5 130.5zM225 0l1284 1495h99l-1284 -1495h-99zM260 1182 q0 -55 21.5 -103.5t58.5 -85.5t85 -58.5t101 -21.5q55 0 103.5 21.5t84.5 58.5t57.5 85t21.5 104q0 55 -21.5 104t-57.5 85t-84 57.5t-104 21.5q-53 0 -101 -21.5t-85 -57.5t-58.5 -85t-21.5 -104zM973 313q0 70 25.5 130.5t70.5 105.5t106.5 71.5t131.5 26.5t130 -26.5 t105 -71.5t71.5 -105.5t26.5 -130.5t-26.5 -130t-71.5 -106t-105.5 -73t-129.5 -27q-70 0 -131.5 27t-106.5 73t-70.5 106t-25.5 130zM1040 313q0 -55 21.5 -104t57.5 -85t84 -57.5t104 -21.5q55 0 103 21.5t84 57.5t57.5 85t21.5 104t-21.5 103.5t-57.5 84.5t-84 57.5 t-103 21.5t-103.5 -21.5t-84.5 -57.5t-57.5 -84.5t-21.5 -103.5z" />
<glyph unicode="&#x26;" horiz-adv-x="1656" d="M139 362q0 86 40 156t103.5 128.5t144.5 108.5t161 97q-100 100 -154.5 182t-56.5 178q0 61 23.5 116.5t66.5 97.5t101.5 66t125.5 24q72 0 131.5 -21.5t101.5 -60.5t65.5 -93.5t23.5 -121.5q0 -61 -25.5 -112.5t-69.5 -96.5t-102.5 -85t-122.5 -79q0 -2 2 -2l408 -393 l371 448h88l-408 -493l422 -406h-104l-363 350q-76 -90 -141.5 -159.5t-131 -116.5t-135 -70.5t-153.5 -23.5q-96 0 -172 27.5t-129 77.5t-82 120.5t-29 156.5zM217 362q0 -68 22.5 -124t65.5 -98t105.5 -65.5t140.5 -23.5q76 0 137.5 20.5t120.5 63.5t119.5 107.5 t132.5 152.5l-416 402l-12 10q-78 -45 -151.5 -92t-133 -100.5t-95.5 -115t-36 -137.5zM453 1217q0 -41 12 -79t37.5 -77t62.5 -81t86 -91q57 35 110.5 71.5t92.5 76.5t62.5 84t23.5 98q0 109 -69.5 169t-176.5 60q-104 0 -172.5 -64.5t-68.5 -166.5z" />
<glyph unicode="'" horiz-adv-x="385" d="M158 1323v172h69v-172q0 -29 -2 -72t-5 -87t-6 -82t-5 -58h-31q-2 20 -6 58t-7 82t-5 87t-2 72z" />
<glyph unicode="(" horiz-adv-x="864" d="M137 512q0 178 41 329.5t114 277.5t172 228.5t214 182.5l55 -57q-115 -78 -209 -176.5t-161.5 -218.5t-105.5 -261t-38 -305q0 -166 39 -308.5t108.5 -262t166 -217t210.5 -175.5l-51 -59q-119 80 -220 182.5t-176 228.5t-117 277.5t-42 333.5z" />
<glyph unicode=")" horiz-adv-x="864" d="M123 -449q115 78 211 175.5t164.5 217t107.5 261t39 307.5q0 162 -37 304t-104.5 262t-162.5 218.5t-210 176.5l55 57q117 -80 215.5 -182.5t171 -228.5t113.5 -277.5t41 -329.5q0 -180 -42 -331.5t-116.5 -278.5t-176 -229.5t-218.5 -182.5z" />
<glyph unicode="*" horiz-adv-x="931" d="M131 985l301 150l-301 151l37 64l281 -187l-21 332h76l-23 -330l277 183l37 -66l-297 -147l297 -148l-37 -63l-275 182l21 -336h-76l21 336l-281 -186z" />
<glyph unicode="+" d="M127 715v67h344v342h68v-342h346v-67h-346v-348h-68v348h-344z" />
<glyph unicode="," horiz-adv-x="403" d="M111 66q0 33 22.5 55t61.5 22q53 0 80.5 -36.5t27.5 -94.5q0 -82 -47 -153.5t-119 -114.5l-26 43q63 33 100 95.5t37 121.5q0 29 -10 45q-1 -57 -58 -57q-29 0 -49 19.5t-20 54.5z" />
<glyph unicode="-" d="M127 485v68h758v-68h-758z" />
<glyph unicode="." horiz-adv-x="399" d="M121 68q0 35 22.5 57t55.5 22q35 0 57.5 -22.5t22.5 -56.5q0 -35 -23 -58.5t-57 -23.5q-35 0 -56.5 23.5t-21.5 58.5z" />
<glyph unicode="/" horiz-adv-x="940" d="M76 0l708 1495h82l-708 -1495h-82z" />
<glyph unicode="0" horiz-adv-x="1411" d="M164 721v70q0 193 45 331t119.5 225t172 128t204.5 41q109 0 207 -41t172.5 -129.5t118.5 -225.5t44 -329v-70q0 -207 -42 -348.5t-115.5 -228.5t-172.5 -125.5t-212 -38.5q-117 0 -215.5 38.5t-171 126.5t-113.5 229.5t-41 346.5zM242 723q0 -195 36.5 -323t99 -205.5 t146.5 -109.5t178 -32q92 0 176.5 33t149 109.5t103 205.5t38.5 322v68q0 184 -38.5 309t-103 200.5t-147.5 108.5t-173 33q-92 0 -176.5 -33t-149 -109.5t-102 -201.5t-37.5 -307v-68z" />
<glyph unicode="1" horiz-adv-x="749" d="M102 1069v76h13q86 0 151.5 28.5t110.5 76.5t68.5 111.5t23.5 133.5h78v-1495h-76v1300q-14 -45 -43 -87t-73 -73.5t-102 -51t-130 -19.5h-21z" />
<glyph unicode="2" horiz-adv-x="1222" d="M139 0v84q0 88 38 163t99.5 140.5t140.5 125.5t158 118q76 55 150 110.5t132 113.5t93 122.5t35 136.5q0 74 -25.5 134.5t-74.5 105.5t-118 69.5t-155 24.5q-74 0 -135 -20.5t-111.5 -57.5t-89 -86t-65.5 -106l-68 36q31 63 76 119t104.5 95.5t131 63.5t157.5 24 q104 0 187.5 -31t141.5 -84t90 -127t32 -160t-38 -158.5t-98.5 -137t-138 -123t-157.5 -115.5t-154 -112.5t-130 -115t-91 -126t-35 -142.5v-10h860v-74h-942z" />
<glyph unicode="3" horiz-adv-x="1206" d="M102 172l62 49q59 -72 168.5 -122t242.5 -50q88 0 163 25.5t130.5 72t87 109.5t31.5 141q0 82 -32.5 145.5t-88 107.5t-130 67.5t-161.5 23.5h-163v70h163q84 0 154 22.5t120 64.5t77.5 101.5t27.5 133.5t-28.5 132t-79.5 99t-121 62.5t-152 21.5q-129 0 -225 -51 t-143 -113l-62 47q31 35 73 68t97.5 59.5t121 42t140.5 15.5q98 0 182.5 -28t145 -78t94 -120.5t33.5 -156.5q0 -133 -70.5 -224.5t-199.5 -132.5q135 -39 218 -134t83 -245q0 -92 -36 -168.5t-100.5 -132t-153.5 -86t-198 -30.5q-160 0 -279.5 52t-191.5 140z" />
<glyph unicode="4" horiz-adv-x="1208" d="M84 457l778 1038h76v-1040h219v-70h-219v-385h-76v385h-772zM170 455h692v921z" />
<glyph unicode="5" horiz-adv-x="1216" d="M131 188l70 48q63 -86 158.5 -135.5t220.5 -49.5q92 0 168.5 33t134 91t89.5 137t32 171q0 111 -38 191t-99.5 132t-139.5 77.5t-158 25.5q-100 0 -195 -46t-149 -111l-71 26l110 717h729v-68h-663l-92 -575q59 53 147 90t184 37t187.5 -29.5t163 -90t115.5 -154 t44 -222.5q0 -109 -35.5 -201t-102.5 -159.5t-158.5 -105t-202.5 -37.5q-141 0 -259 55t-190 153z" />
<glyph unicode="6" horiz-adv-x="1349" d="M164 666q0 197 51 354.5t146.5 267t231.5 169t304 59.5q121 0 209 -27l-27 -72q-39 12 -84 20.5t-98 8.5q-156 0 -277.5 -52.5t-205.5 -151.5t-129 -242.5t-47 -323.5q25 74 70.5 134t107 104t136.5 69t157 25q111 0 204 -39t161.5 -108.5t106.5 -164t38 -204.5 q0 -104 -38 -197.5t-106.5 -163.5t-164 -110.5t-210.5 -40.5q-117 0 -223 46t-180 142q-35 43 -60.5 92t-42 109.5t-23.5 133t-7 163.5zM258 492q0 -92 34 -172t93 -140.5t140 -94.5t177 -34q94 0 175 35t140.5 94.5t92.5 139t33 172.5q0 96 -33 178t-91 141t-139 93 t-178 34q-92 0 -172.5 -35t-141 -95t-95.5 -141t-35 -175z" />
<glyph unicode="7" horiz-adv-x="1220" d="M113 1423v72h974v-65l-688 -1430h-84l691 1423h-893z" />
<glyph unicode="8" horiz-adv-x="1337" d="M125 399q0 141 87 246t249 152q-129 43 -198.5 134t-69.5 208q0 80 31.5 148.5t93 119.5t149.5 80t201 29t201.5 -29t150 -79t94.5 -119.5t33 -149.5q0 -117 -70.5 -207t-199.5 -133q160 -45 247.5 -148.5t87.5 -242.5q0 -92 -34.5 -171t-104 -135.5t-171 -89 t-232.5 -32.5q-135 0 -237.5 31.5t-170 87t-102.5 132t-35 168.5zM201 399q0 -76 29.5 -140t89 -110.5t146.5 -72t204 -25.5q115 0 201.5 27.5t146 75t90.5 113t31 141.5q0 72 -30 136t-89 113.5t-146.5 78t-203.5 28.5q-119 0 -207 -28.5t-146.5 -79t-87 -117t-28.5 -140.5 zM262 1139q0 -66 26.5 -122t79 -98t128.5 -66t174 -24t173 25t127 66t78.5 97t26.5 122q0 135 -105.5 222t-301.5 87q-96 0 -171 -23.5t-127.5 -65.5t-80 -98.5t-27.5 -121.5z" />
<glyph unicode="9" horiz-adv-x="1310" d="M127 1020q0 100 37 190t103.5 158t158.5 108t203 40q113 0 216 -46.5t175 -138.5q70 -84 98.5 -202.5t28.5 -307.5q0 -195 -43 -350.5t-126 -265t-204.5 -167.5t-281.5 -58q-98 0 -176 21.5t-138 55.5l41 68q55 -35 123 -54.5t150 -19.5q289 0 436 202t147 568v49 q-18 -78 -60 -141t-102.5 -109.5t-135.5 -72t-156 -25.5q-106 0 -196.5 38t-157 103.5t-103.5 156.5t-37 200zM201 1020q0 -92 31.5 -171t88 -136.5t135.5 -89t171 -31.5q86 0 163.5 32.5t136 91t92.5 136.5t34 168q0 88 -32 166t-88 136t-134 91t-170 33q-94 0 -173 -33 t-135.5 -91t-88 -136t-31.5 -166z" />
<glyph unicode=":" horiz-adv-x="399" d="M121 139q0 35 22.5 57.5t55.5 22.5q35 0 57.5 -22.5t22.5 -57.5t-23 -57.5t-57 -22.5q-35 0 -56.5 22.5t-21.5 57.5zM121 940q0 35 22.5 56.5t55.5 21.5q35 0 57.5 -21.5t22.5 -56.5t-23 -58.5t-57 -23.5q-35 0 -56.5 23.5t-21.5 58.5z" />
<glyph unicode=";" horiz-adv-x="403" d="M111 66q0 33 22.5 55t61.5 22q53 0 80.5 -36.5t27.5 -94.5q0 -82 -47 -153.5t-119 -114.5l-26 43q63 33 100 95.5t37 121.5q0 29 -10 45q0 -57 -58 -57q-29 0 -49 19.5t-20 54.5zM121 940q0 35 22.5 56.5t55.5 21.5q35 0 57.5 -21.5t22.5 -56.5t-23 -58.5t-57 -23.5 q-35 0 -56.5 23.5t-21.5 58.5z" />
<glyph unicode="&#x3c;" d="M127 719v67l758 295v-71l-676 -256l676 -267v-71z" />
<glyph unicode="=" d="M127 547v67h758v-67h-758zM127 874v68h758v-68h-758z" />
<glyph unicode="&#x3e;" d="M127 416v71l674 267l-674 256v71l758 -295v-67z" />
<glyph unicode="?" horiz-adv-x="1120" d="M133 1272q53 104 159.5 174t266.5 70q88 0 165 -25t134 -70t89 -108.5t32 -141.5q0 -98 -30.5 -160.5t-77 -108.5t-99.5 -87t-99 -96t-77 -136t-31 -206v-45h-71v45q0 133 29.5 220t75.5 146.5t98.5 101.5t98.5 86t75.5 99t29.5 141q0 61 -26.5 112.5t-72.5 87.5 t-109.5 56.5t-135.5 20.5q-135 0 -221 -56.5t-135 -152.5zM451 68q0 35 22.5 57t56.5 22q35 0 57.5 -22.5t22.5 -56.5q0 -35 -22.5 -58.5t-57.5 -23.5t-57 23.5t-22 58.5z" />
<glyph unicode="@" horiz-adv-x="1806" d="M137 512q0 160 62.5 299t170 243.5t250 165t302.5 60.5q162 0 299 -56.5t236 -151.5t154.5 -220t55.5 -262q0 -80 -19.5 -157t-58.5 -138.5t-96 -98t-131 -36.5q-98 0 -151.5 49t-69.5 127q-31 -70 -101.5 -125t-183.5 -55q-59 0 -117.5 23.5t-103.5 69.5t-70.5 115.5 t-15.5 161.5q12 92 47 161t84 115t110.5 68.5t127.5 22.5q98 0 160.5 -50t84.5 -122q6 53 9.5 86t5.5 49q2 20 4 25h69l-41 -371q-16 -152 26 -217.5t130 -65.5q51 0 93 29t73 78t47 115.5t16 140.5q0 123 -50 235.5t-139 198.5t-213 137t-271 51q-145 0 -273.5 -55 t-224.5 -150.5t-152.5 -223.5t-56.5 -271q0 -145 53.5 -272t145.5 -222.5t217 -150.5t270 -55q152 0 280 58t224 161l55 -49q-100 -106 -245.5 -172t-313.5 -66q-160 0 -299 60.5t-242.5 164t-163 243.5t-59.5 300zM629 526q-8 -61 6 -115.5t46 -96.5t81 -65.5t108 -23.5 q61 0 109.5 24.5t82.5 66.5t52.5 97.5t24.5 114.5q6 57 -3.5 111.5t-36 95.5t-70.5 65.5t-103 24.5q-55 0 -105.5 -20.5t-90.5 -59t-66.5 -94t-34.5 -125.5z" />
<glyph unicode="A" horiz-adv-x="1509" d="M94 0l621 1495h82l618 -1495h-80l-192 463h-778l-189 -463h-82zM395 535h719l-360 872z" />
<glyph unicode="B" horiz-adv-x="1427" d="M197 0v1495h649q88 0 163.5 -28.5t131 -80t87.5 -120t32 -150.5q0 -119 -63.5 -209t-174.5 -131q125 -37 198.5 -137t73.5 -236q0 -88 -31.5 -161.5t-87 -128t-132 -84t-169.5 -29.5h-677zM274 72h598q74 0 137.5 25.5t109.5 70.5t72 105.5t26 129.5q0 70 -26 131.5 t-71 106.5t-108.5 70.5t-139.5 25.5h-598v-665zM274 807h590q70 0 128.5 24.5t100.5 65.5t65.5 97.5t23.5 121.5q0 66 -27 122t-73 98t-107.5 65.5t-132.5 23.5h-568v-618z" />
<glyph unicode="C" horiz-adv-x="1720" d="M150 748q0 160 60 299t164.5 243.5t244 165t299.5 60.5q104 0 199 -27t179 -75t154 -116.5t121 -150.5l-66 -37q-90 150 -242.5 243t-344.5 93q-145 0 -270.5 -55.5t-218.5 -150.5t-146.5 -222t-53.5 -270t53.5 -270.5t146.5 -221.5t218 -148.5t271 -54.5q100 0 191 25.5 t169 72t141.5 112t106.5 145.5l67 -35q-49 -88 -119.5 -161t-157.5 -124t-187 -79.5t-211 -28.5q-160 0 -299.5 60t-244 164.5t-164.5 244t-60 299.5z" />
<glyph unicode="D" horiz-adv-x="1548" d="M197 0v1495h430q164 0 305 -57.5t244.5 -157.5t163 -236.5t59.5 -295.5q0 -160 -59.5 -297.5t-164 -236.5t-244.5 -156.5t-302 -57.5h-432zM274 72h351q145 0 272 52t220 142t147.5 214t54.5 268q0 143 -53.5 267t-146.5 215t-220 143t-276 52h-349v-1353z" />
<glyph unicode="E" horiz-adv-x="1343" d="M197 0v1495h987v-72h-910v-639h910v-69h-910v-641h910v-74h-987z" />
<glyph unicode="F" horiz-adv-x="1273" d="M197 0v1495h952v-72h-875v-659h875v-72h-875v-692h-77z" />
<glyph unicode="G" horiz-adv-x="1820" d="M150 748q0 160 59 300t163.5 243.5t246 164t307.5 60.5q219 0 386 -95.5t269 -261.5l-65 -39q-90 154 -240 240t-352 86q-152 0 -279 -55.5t-219 -150.5t-144.5 -222t-52.5 -270q0 -145 51.5 -271.5t143.5 -220.5t220 -148.5t282 -54.5q147 0 268 49.5t209 135.5 t139 202.5t62 253.5h-693v72h768v-18q0 -158 -53 -297.5t-151.5 -244t-237.5 -165.5t-311 -61q-168 0 -310.5 60t-246 163.5t-161.5 244t-58 300.5z" />
<glyph unicode="H" horiz-adv-x="1497" d="M197 0v1495h77v-711h951v711h75v-1495h-75v713h-951v-713h-77z" />
<glyph unicode="I" horiz-adv-x="509" d="M217 0v1495h76v-1495h-76z" />
<glyph unicode="J" horiz-adv-x="1040" d="M100 193l70 40q35 -84 108.5 -133t188.5 -49q147 0 226 91t79 239v1114h78v-1112q0 -90 -25.5 -164t-75 -127t-120 -82.5t-160.5 -29.5q-135 0 -228.5 55t-140.5 158z" />
<glyph unicode="K" horiz-adv-x="1402" d="M199 0v1495h75v-971l861 971h94l-533 -600l617 -895h-92l-578 842l-369 -414v-428h-75z" />
<glyph unicode="L" horiz-adv-x="1255" d="M197 0v1495h77v-1421h854v-74h-931z" />
<glyph unicode="M" horiz-adv-x="1785" d="M197 0v1495h75l613 -840l633 840h71v-1495h-73v1376l-631 -841l-613 831v-1366h-75z" />
<glyph unicode="N" horiz-adv-x="1566" d="M197 0v1495h84l1013 -1380v1380h76v-1495h-82l-1016 1382v-1382h-75z" />
<glyph unicode="O" horiz-adv-x="1832" d="M150 748q0 160 60 299t164.5 243.5t245 165t298.5 60.5q160 0 299 -60.5t243.5 -165t163.5 -244t59 -298.5q0 -158 -60 -297.5t-164.5 -244t-243.5 -165.5t-297 -61q-164 0 -305.5 60t-244 164.5t-160.5 244t-58 299.5zM227 748q0 -145 53.5 -271.5t146.5 -220.5 t219.5 -148.5t271.5 -54.5q143 0 269 54.5t219 148.5t146.5 221t53.5 271q0 143 -53.5 270t-146.5 221t-219 149.5t-269 55.5q-145 0 -270.5 -55.5t-219.5 -149.5t-147.5 -221t-53.5 -270z" />
<glyph unicode="P" horiz-adv-x="1425" d="M197 0v1495h524q131 0 235.5 -39t177 -107.5t111.5 -162.5t39 -207t-39 -208t-111.5 -163.5t-176 -107.5t-232.5 -39h-451v-461h-77zM274 532h449q115 0 205 34t151.5 93.5t94 141.5t32.5 178q0 98 -32.5 180t-95 141.5t-153.5 92t-206 32.5h-445v-893z" />
<glyph unicode="Q" horiz-adv-x="1835" d="M150 748q0 160 60 299t164.5 243.5t245 165t298.5 60.5q160 0 299 -60.5t243.5 -165t163.5 -244t59 -298.5q0 -160 -62 -301.5t-173 -247.5l176 -199h-98l-133 150q-98 -80 -219 -125t-256 -45q-164 0 -305.5 60t-244 163.5t-160.5 244t-58 300.5zM229 748 q0 -143 53.5 -270.5t146.5 -221.5t218.5 -148.5t270.5 -54.5q123 0 231 39t197 111l-334 383h98l291 -334q96 96 150.5 222t54.5 274q0 143 -53.5 270t-146.5 221t-219 149.5t-269 55.5q-145 0 -270.5 -55.5t-218.5 -149.5t-146.5 -221t-53.5 -270z" />
<glyph unicode="R" horiz-adv-x="1439" d="M197 0v1495h630q100 0 187.5 -36t151 -98.5t100.5 -146.5t37 -178q0 -80 -28 -152.5t-75 -131t-112.5 -99.5t-141.5 -57l363 -596h-88l-347 578h-600v-578h-77zM274 647h549q86 0 160 31t127 84t84 123.5t31 150.5q0 82 -31 153t-84 123t-127 82.5t-160 30.5h-549v-778z " />
<glyph unicode="S" horiz-adv-x="1370" d="M80 285l65 51q188 -285 570 -285q106 0 189 27.5t138.5 76t84 114t28.5 141.5q0 90 -42 147t-111.5 93t-158.5 56.5t-184 38.5q-92 18 -182 41t-160.5 64t-114.5 106.5t-44 167.5q0 82 33.5 154t96 125t151.5 83t202 30q199 0 334 -76t227 -195l-61 -47 q-78 117 -202 183.5t-298 66.5q-100 0 -176 -24.5t-127 -67.5t-78 -101.5t-27 -128.5q0 -86 37 -139t100.5 -86t147.5 -52.5t176 -37.5q94 -18 190.5 -43t173.5 -68t125 -112.5t48 -177.5q0 -86 -36 -165t-102.5 -137.5t-161.5 -93t-216 -34.5q-219 0 -375 81.5t-260 223.5z " />
<glyph unicode="T" horiz-adv-x="1318" d="M119 1425v70h1081v-70h-504v-1425h-75v1425h-502z" />
<glyph unicode="U" horiz-adv-x="1476" d="M188 528v967h76v-965q0 -104 33 -192t94.5 -151.5t148.5 -98.5t195 -35q104 0 192.5 33t152 95.5t98 150.5t34.5 198v965h76v-965q0 -123 -40 -225t-113.5 -174t-175 -111.5t-224.5 -39.5q-125 0 -226 39.5t-172 112.5t-110 174.5t-39 221.5z" />
<glyph unicode="V" horiz-adv-x="1492" d="M94 1495h80l571 -1393l572 1393h82l-615 -1495h-77z" />
<glyph unicode="W" horiz-adv-x="2240" d="M125 1495h82l379 -1378l493 1378h64l473 -1384l420 1384h80l-459 -1495h-78l-469 1376l-489 -1376h-78z" />
<glyph unicode="X" horiz-adv-x="1345" d="M84 0l545 778l-498 717h88l457 -661l450 661h91l-500 -715l543 -780h-89l-499 723l-498 -723h-90z" />
<glyph unicode="Y" horiz-adv-x="1341" d="M82 1495h90l498 -840l501 840h89l-553 -911v-584h-76v578z" />
<glyph unicode="Z" horiz-adv-x="1318" d="M131 0v72l965 1353h-924v70h1012v-70l-963 -1351h969v-74h-1059z" />
<glyph unicode="[" horiz-adv-x="811" d="M127 -471v1966h559v-70h-483v-1826h483v-70h-559z" />
<glyph unicode="\" horiz-adv-x="940" d="M76 1495h82l708 -1495h-82z" />
<glyph unicode="]" horiz-adv-x="811" d="M127 -403h481v1828h-481v70h559v-1966h-559v68z" />
<glyph unicode="^" horiz-adv-x="1069" d="M248 1024l258 340h51l264 -340h-82l-209 268l-198 -268h-84z" />
<glyph unicode="_" horiz-adv-x="1077" d="M127 -20h825v-68h-825v68z" />
<glyph unicode="`" horiz-adv-x="1069" d="M344 1571h102l250 -303h-75z" />
<glyph unicode="a" horiz-adv-x="1261" d="M100 295q0 86 37 150.5t103.5 107.5t161 64.5t210.5 21.5h414v82q0 76 -25.5 138.5t-76 107.5t-124 70.5t-171.5 25.5q-158 0 -255.5 -51t-172.5 -148l-62 49q88 100 204 157.5t286 57.5q117 0 205 -30.5t146 -85t88 -129t30 -160.5v-723h-72v256q-78 -127 -217 -201.5 t-305 -74.5q-104 0 -181 25.5t-126.5 68.5t-73 100t-23.5 121zM178 299q0 -51 19.5 -97t59.5 -81t103.5 -55.5t149.5 -20.5q80 0 156.5 21.5t144.5 61.5t123 98.5t92 131.5v220h-412q-205 0 -320.5 -69t-115.5 -210z" />
<glyph unicode="b" horiz-adv-x="1425" d="M174 0v1616h72v-803q31 74 83 133.5t117.5 99t139 61t151.5 21.5q119 0 223.5 -44t182.5 -121.5t122 -183t44 -226.5q0 -123 -44 -227.5t-121 -182t-181.5 -122t-227.5 -44.5q-76 0 -150.5 21.5t-139 61.5t-117 99.5t-82.5 133.5v-293h-72zM236 553q0 -104 38.5 -196.5 t106.5 -160t159 -107.5t195 -40t195.5 38t158 105.5t104.5 159.5t38 201q0 106 -38 198.5t-104.5 161t-157.5 107.5t-196 39q-104 0 -195 -40t-159 -108.5t-106.5 -161t-38.5 -196.5z" />
<glyph unicode="c" horiz-adv-x="1323" d="M117 553q0 121 45 226.5t122.5 183t183 121.5t226.5 44q176 0 309.5 -86t200.5 -227l-67 -33q-63 127 -176 202t-267 75q-106 0 -197 -40t-159 -108.5t-105.5 -161t-37.5 -196.5t37.5 -196.5t105.5 -161t160 -108.5t200 -40q164 0 276.5 83t172.5 208l70 -33 q-68 -143 -199.5 -235.5t-319.5 -92.5q-127 0 -233.5 45.5t-183 123t-120.5 182t-44 225.5z" />
<glyph unicode="d" horiz-adv-x="1429" d="M117 553q0 121 45 226.5t121.5 183t181 121.5t225.5 44q76 0 152 -21.5t141.5 -63.5t117.5 -101t83 -135v809h71v-1616h-71v301q-31 -78 -83 -137.5t-116.5 -101.5t-140.5 -63.5t-152 -21.5q-123 0 -228.5 44.5t-182 122t-120.5 182t-44 227.5zM195 553q0 -109 37.5 -201 t105.5 -159.5t159 -105.5t195 -38t195.5 40t159 107.5t105.5 160t38 196.5t-38 196.5t-105.5 161t-158.5 108.5t-196 40q-104 0 -195 -39t-159 -107.5t-105.5 -161t-37.5 -198.5z" />
<glyph unicode="e" horiz-adv-x="1372" d="M117 551q0 121 43 226.5t120.5 183t183 122.5t232.5 45q123 0 225.5 -43t176 -118.5t114.5 -180t41 -225.5v-39h-1063q4 -102 41 -188t101.5 -150.5t156 -100.5t205.5 -36q322 0 455 264l68 -37q-82 -147 -210.5 -222t-310.5 -75q-139 0 -246.5 44.5t-181 121t-112.5 182 t-39 226.5zM190 592h988q-6 100 -42 186t-98.5 148.5t-149 98.5t-192.5 36q-104 0 -193 -37t-155.5 -99.5t-107.5 -148.5t-50 -184z" />
<glyph unicode="f" horiz-adv-x="731" d="M53 1040v66h203v131q0 115 16.5 188.5t58.5 115.5t113.5 58.5t182.5 16.5h26v-72h-20q-92 0 -151.5 -10t-93.5 -43t-46 -94.5t-12 -161.5v-129h323v-66h-323v-1040h-74v1040h-203z" />
<glyph unicode="g" horiz-adv-x="1425" d="M117 553q0 121 45 226.5t122.5 183t182 121.5t225.5 44q76 0 152 -21.5t140.5 -63.5t116.5 -101t83 -135v299h73v-1004q0 -133 -39.5 -238.5t-112.5 -179t-175.5 -112.5t-227.5 -39q-180 0 -304 61.5t-201 172.5l65 47q70 -104 175.5 -157.5t264.5 -53.5q109 0 198 33.5 t151.5 97t97.5 157t35 209.5v201q-31 -78 -83 -137.5t-116.5 -101.5t-140.5 -63.5t-152 -21.5q-123 0 -228.5 44.5t-182 122t-120.5 182t-44 227.5zM195 553q0 -109 37.5 -201t105.5 -159.5t159 -105.5t195 -38t195.5 40t159 107.5t105.5 160t38 196.5t-38 196.5t-105.5 161 t-158.5 108.5t-196 40q-104 0 -195 -39t-159 -107.5t-105.5 -161t-37.5 -198.5z" />
<glyph unicode="h" horiz-adv-x="1353" d="M174 0v1616h72v-770q25 61 68.5 112.5t102 89t128 59t149.5 21.5q111 0 203 -34.5t157.5 -100t101.5 -159t36 -211.5v-623h-76v623q0 98 -29.5 179t-85 138t-135.5 88t-180 31q-92 0 -172 -33t-139.5 -91t-93 -138t-33.5 -174v-623h-74z" />
<glyph unicode="i" horiz-adv-x="421" d="M133 1452q0 35 22.5 56.5t55.5 21.5q35 0 57.5 -21.5t22.5 -56.5t-22.5 -57.5t-57.5 -22.5t-56.5 22.5t-21.5 57.5zM174 0v1106h74v-1106h-74z" />
<glyph unicode="j" horiz-adv-x="423" d="M-135 -383q94 0 154.5 10.5t95.5 43t48 94t13 161.5v1180h76v-1182q0 -115 -18.5 -188.5t-61.5 -116.5t-114.5 -59.5t-180.5 -16.5h-12v74zM133 1452q0 35 23.5 56.5t56.5 21.5q35 0 56.5 -21.5t21.5 -56.5t-21.5 -57.5t-56.5 -22.5t-57.5 22.5t-22.5 57.5z" />
<glyph unicode="k" horiz-adv-x="1181" d="M174 0v1616h74v-1243l723 733h100l-457 -459l502 -647h-92l-465 600l-311 -317v-283h-74z" />
<glyph unicode="l" horiz-adv-x="421" d="M174 0v1616h74v-1616h-74z" />
<glyph unicode="m" horiz-adv-x="2148" d="M168 0v1106h70v-248q45 117 150.5 193.5t258.5 76.5q170 0 278.5 -78.5t145.5 -218.5q18 63 59 118t97.5 94.5t128 62t153.5 22.5q111 0 199 -34.5t149.5 -97t94.5 -151.5t33 -198v-647h-74v653q0 88 -29 164t-81 129t-127 84t-167 31q-84 0 -157.5 -27.5t-128 -79 t-85 -124t-30.5 -164.5v-666h-74v676q0 180 -104.5 282.5t-284.5 102.5q-88 0 -161.5 -31t-127 -86t-83 -132t-29.5 -169v-643h-74z" />
<glyph unicode="n" horiz-adv-x="1349" d="M168 0v1106h70v-270q25 63 68.5 116.5t102 92t130 61t151.5 22.5q111 0 202 -34.5t156.5 -100t101.5 -159t36 -211.5v-623h-74v623q0 98 -29.5 179t-86 138t-136.5 88t-178 31q-92 0 -172 -33t-140.5 -91t-94 -138t-33.5 -174v-623h-74z" />
<glyph unicode="o" horiz-adv-x="1384" d="M117 553q0 121 45 226.5t122.5 183t182 121.5t225.5 44t225.5 -44t182.5 -121.5t123 -183t45 -226.5t-44 -225.5t-122 -182t-183.5 -123t-226.5 -45.5q-123 0 -227.5 44.5t-182 122t-121.5 182t-44 227.5zM195 553q0 -109 37.5 -201t105.5 -159.5t159 -105.5t195 -38 t195.5 39t159 106.5t105.5 159.5t38 199q0 106 -39 198.5t-105.5 161t-157.5 107.5t-196 39q-104 0 -195 -39t-159 -107.5t-105.5 -161t-37.5 -198.5z" />
<glyph unicode="p" horiz-adv-x="1421" d="M168 -426v1532h72v-297q31 76 83 135.5t117.5 100t140 62t152.5 21.5q119 0 223.5 -44t182.5 -121.5t122 -183t44 -226.5q0 -123 -44 -227.5t-121 -182t-181.5 -122t-227.5 -44.5q-78 0 -151.5 21.5t-138 61.5t-117 98.5t-82.5 134.5v-719h-74zM231 553q0 -115 42 -207 t112 -158.5t160 -102.5t186 -36q104 0 194.5 38t158 105.5t105.5 159.5t38 201q0 106 -38 198.5t-105.5 161t-157.5 107.5t-195 39q-106 0 -197.5 -40t-159 -108.5t-105.5 -161t-38 -196.5z" />
<glyph unicode="q" horiz-adv-x="1423" d="M117 553q0 121 45 226.5t121.5 183t181 121.5t225.5 44q76 0 152 -21.5t141.5 -63.5t117.5 -101t83 -135v299h71v-1532h-71v727q-31 -78 -83 -137.5t-116.5 -101.5t-140.5 -63.5t-152 -21.5q-123 0 -228.5 44.5t-182 122t-120.5 182t-44 227.5zM195 553q0 -109 37.5 -201 t105.5 -159.5t159 -105.5t195 -38t195.5 40t159 107.5t105.5 160t38 196.5t-38 196.5t-105.5 161t-158.5 108.5t-196 40q-104 0 -195 -39t-159 -107.5t-105.5 -161t-37.5 -198.5z" />
<glyph unicode="r" horiz-adv-x="851" d="M168 0v1106h70v-250q37 133 126 201.5t230 68.5q55 0 104.5 -11t81.5 -30l-37 -67q-59 39 -151 39q-170 0 -262 -116q-88 -111 -88 -330v-19v-592h-74z" />
<glyph unicode="s" horiz-adv-x="1060" d="M59 199l62 53q63 -86 166.5 -146.5t263.5 -60.5q166 0 251 72.5t85 183.5q0 63 -31 103t-82 66t-117.5 41t-136.5 30q-74 14 -145.5 32.5t-128 49t-91 80t-34.5 126.5q0 61 24.5 115.5t72.5 95.5t121 65.5t169 24.5q147 0 253.5 -54t174.5 -134l-59 -51 q-55 74 -148.5 124t-220.5 50q-164 0 -237.5 -67.5t-73.5 -168.5q0 -59 30.5 -96t80.5 -61.5t114.5 -39t134.5 -28.5q74 -14 146.5 -32.5t129 -51.5t92.5 -85t36 -134q0 -66 -27 -125t-79 -103t-128 -70t-176 -26q-92 0 -167 18.5t-135.5 49.5t-107.5 71t-82 83z" />
<glyph unicode="t" horiz-adv-x="770" d="M51 1040v66h203v250l74 53v-303h342v-66h-342v-759q0 -117 52 -170.5t132 -53.5q49 0 86 17.5t72 50.5l45 -53q-45 -41 -93.5 -61.5t-113.5 -20.5q-119 0 -186.5 69.5t-67.5 219.5v761h-203z" />
<glyph unicode="u" horiz-adv-x="1308" d="M160 481v625h73v-627q0 -197 106.5 -314.5t305.5 -117.5q94 0 172 34t134.5 93t87 140t30.5 175v617h72v-1106h-70v266q-25 -61 -65.5 -114.5t-96 -92.5t-123 -60.5t-147.5 -21.5q-227 0 -353 133.5t-126 370.5z" />
<glyph unicode="v" horiz-adv-x="1163" d="M61 1106h82l432 -1018l445 1018h82l-490 -1106h-73z" />
<glyph unicode="w" horiz-adv-x="1820" d="M88 1106h80l309 -993l402 993h61l389 -995l326 995h78l-373 -1106h-60l-393 1001l-401 -1001h-68z" />
<glyph unicode="x" horiz-adv-x="1183" d="M80 0l467 565l-443 541h93l397 -490l393 490h94l-440 -541l463 -565h-92l-418 514l-420 -514h-94z" />
<glyph unicode="y" horiz-adv-x="1193" d="M4 -246l55 56q35 -45 82 -74t119 -29q49 0 88 15.5t73 49t64.5 89t67.5 135.5l16 33l-499 1077h82l454 -991l445 991h82l-517 -1133q-39 -86 -75.5 -149.5t-78.5 -105.5t-91.5 -61t-112.5 -19q-88 0 -150.5 32.5t-103.5 83.5z" />
<glyph unicode="z" horiz-adv-x="1126" d="M111 0v72l809 966h-768v68h858v-70l-809 -966h813v-70h-903z" />
<glyph unicode="{" horiz-adv-x="866" d="M96 473v76q63 0 102.5 12t58.5 39t25.5 69t6.5 101v281q0 125 22.5 210t74.5 137t138 74.5t215 22.5h23v-68q-121 0 -198 -18t-122 -61t-61 -116t-16 -183v-281q0 -109 -27 -171t-102 -87q78 -25 103.5 -88.5t25.5 -167.5v-279q0 -111 16 -183.5t61 -115.5t122 -61 t198 -18v-68h-23q-129 0 -215 22.5t-138 74.5t-74.5 137t-22.5 210v279q0 59 -6.5 101t-25.5 69t-58 39t-103 12z" />
<glyph unicode="|" horiz-adv-x="397" d="M160 -471v1966h78v-1966h-78z" />
<glyph unicode="}" horiz-adv-x="866" d="M106 -401q119 0 197 17t122 60t61.5 116t17.5 183v279q0 106 24.5 168.5t102.5 87.5q-76 25 -101.5 87t-25.5 171v281q0 111 -17.5 183.5t-61.5 115.5t-122 60t-197 17v70h23q129 0 215 -22.5t138.5 -74.5t75 -137t22.5 -210v-281q0 -59 6 -101t25.5 -69t57.5 -39 t103 -12v-76q-66 0 -103.5 -12t-57 -39t-25.5 -69t-6 -101v-279q0 -125 -22.5 -210t-75 -137t-138.5 -74.5t-215 -22.5h-23v70z" />
<glyph unicode="~" horiz-adv-x="925" d="M150 1139q8 80 55 128t119 48q53 0 90 -17.5t71 -40.5q35 -20 70 -40.5t76 -20.5q94 0 112 107h64q-8 -78 -52 -126.5t-122 -48.5q-59 0 -101.5 24t-80.5 46q-29 16 -60 31.5t-67 15.5q-86 0 -105 -106h-69z" />
<glyph unicode="&#xa1;" horiz-adv-x="532" d="M188 961q0 35 22.5 56t57.5 21t57.5 -21.5t22.5 -55.5q0 -35 -22.5 -58.5t-57.5 -23.5t-57.5 23.5t-22.5 58.5zM229 -231q0 104 1 236t3.5 262t5.5 239.5t5 169.5h47q2 -59 5 -169t5 -240t4 -262t2 -236v-240h-78v240z" />
<glyph unicode="&#xa2;" horiz-adv-x="1286" d="M129 512q0 106 38 199.5t104.5 164t155.5 114.5t194 52v248h77v-248q156 -10 276 -95t177 -220l-72 -31q-53 127 -162.5 203t-252.5 76q-96 0 -179.5 -36t-144.5 -99.5t-97 -147.5t-36 -180t36 -180t97 -146.5t144 -98.5t180 -36q147 0 255.5 79t161.5 202l72 -29 q-59 -135 -178 -223t-277 -98v-248h-77v248q-104 8 -194.5 52t-157 114.5t-103.5 164t-37 199.5z" />
<glyph unicode="&#xa3;" horiz-adv-x="1495" d="M119 178q0 86 59.5 139.5t165.5 55.5q86 0 154.5 -40t136.5 -93q14 41 14 88q0 104 -44 185t-101 159h-295v63h248q-55 78 -98.5 166t-43.5 211q0 90 31 164t87 127t136 83t179 30q152 0 265 -62.5t171 -175.5l-62 -45q-102 217 -374 217q-80 0 -145.5 -25.5t-112 -70.5 t-72 -106.5t-25.5 -135.5q0 -115 46 -205t106 -172h454v-63h-409q53 -76 91 -157t38 -183q0 -70 -29 -137q37 -29 75 -56.5t79 -49t86 -34t96 -12.5q63 0 112.5 14.5t82 50t49 96t16.5 152.5v33h76v-43q0 -102 -21.5 -173t-63.5 -114t-103.5 -61t-141.5 -18q-119 0 -207 49 t-163 110q-45 -72 -120 -117t-180 -45q-123 0 -183 55.5t-60 145.5zM188 176q0 -59 44 -98t130 -39q88 0 150.5 40t97.5 101q-63 53 -126.5 91t-139.5 38q-78 0 -117 -38t-39 -95z" />
<glyph unicode="&#xa4;" horiz-adv-x="1613" d="M227 184l193 201q-63 72 -98 162t-35 194t34.5 194.5t98.5 162.5l-189 198l45 50l193 -201q70 61 159 95t189 34q98 0 186.5 -33t157.5 -92l178 186l47 -47l-178 -186q66 -72 104 -164t38 -197q0 -106 -38 -197t-104 -163l176 -182l-47 -49l-178 182q-70 -59 -157 -91 t-185 -32q-100 0 -188 33.5t-160 93.5l-193 -199zM362 741q0 -96 35 -180t96.5 -147.5t144.5 -99t179 -35.5q94 0 177 35.5t144.5 99t97.5 147.5t36 180t-36 180.5t-97.5 148t-144.5 99t-177 35.5q-96 0 -179 -35.5t-144.5 -99t-96.5 -147.5t-35 -181z" />
<glyph unicode="&#xa5;" horiz-adv-x="1384" d="M150 1495h88l456 -696l455 696h88l-498 -754h346v-65h-352v-270h352v-66h-352v-340h-76v340h-358v66h358v270h-358v65h350z" />
<glyph unicode="&#xa6;" horiz-adv-x="423" d="M160 389h78v-860h-78v860zM160 635v860h78v-860h-78z" />
<glyph unicode="&#xa7;" horiz-adv-x="1275" d="M152 793q0 76 47 138t139 95q-55 33 -87 79t-32 116q0 74 32 129t85 92t126 55.5t154 18.5q113 0 193 -27t131 -71t75.5 -100t28.5 -116l-75 -10q-2 55 -22.5 102t-62.5 83t-107.5 56.5t-160.5 20.5q-59 0 -116.5 -12t-103.5 -40t-74.5 -72t-28.5 -107q0 -55 28.5 -93 t78 -64t117 -42t145.5 -31q92 -16 172.5 -35.5t142 -50t97.5 -77t36 -113.5q0 -72 -46 -134.5t-130 -95.5q59 -33 93 -81t34 -121q0 -74 -35 -130.5t-93.5 -96.5t-134 -59t-159.5 -19q-117 0 -200 27.5t-136 73.5t-80.5 104.5t-29.5 119.5l77 12q2 -55 23.5 -105t67 -87 t115 -59.5t165.5 -22.5q57 0 119.5 13.5t113 43t83 74.5t32.5 109q0 57 -28.5 94t-80 61.5t-121 41t-149.5 30.5q-92 18 -175 38.5t-146.5 52.5t-100 78t-36.5 114zM225 801q2 -59 40 -97t97.5 -63t136 -41.5t154.5 -30.5q57 -10 108.5 -22t96.5 -29q90 27 135 79t43 116 q-2 55 -37.5 92t-94 61.5t-133.5 40t-153 29.5q-59 10 -112 24.5t-100 30.5q-86 -23 -134.5 -75t-46.5 -115z" />
<glyph unicode="&#xa8;" horiz-adv-x="1073" d="M291 1382q0 33 22.5 54.5t53.5 21.5q35 0 55 -21.5t20 -54.5t-21.5 -54t-53.5 -21q-35 0 -55.5 21t-20.5 54zM596 1382q0 33 21.5 54.5t52.5 21.5q35 0 55 -21.5t20 -54.5t-20 -54t-55 -21q-33 0 -53.5 21t-20.5 54z" />
<glyph unicode="&#xa9;" horiz-adv-x="1810" d="M137 748q0 160 60.5 299t165 243.5t243.5 165t299 60.5t299 -60.5t243.5 -165t165 -244t60.5 -298.5q0 -160 -60.5 -299.5t-165 -244t-243.5 -164.5t-299 -60t-299 60t-243.5 164.5t-165 244t-60.5 299.5zM213 748q0 -145 53 -272.5t147.5 -221.5t220.5 -149.5t271 -55.5 t271.5 55.5t220.5 149.5t147 221t53 273q0 143 -53 271t-147 223t-220 150.5t-272 55.5q-145 0 -271 -55.5t-220.5 -150.5t-147.5 -223t-53 -271zM508 748q0 82 31.5 155.5t87 128.5t129 87t157.5 32q109 0 200 -52t144 -136l-65 -45q-41 72 -114.5 115.5t-166.5 43.5 q-68 0 -127 -25.5t-104 -70.5t-70.5 -105.5t-25.5 -127.5q0 -70 25.5 -130.5t70.5 -105.5t104.5 -70.5t126.5 -25.5q98 0 174 48t115 126l68 -39q-51 -92 -145.5 -149.5t-209.5 -57.5q-84 0 -157.5 32t-129 86t-87 128t-31.5 158z" />
<glyph unicode="&#xaa;" horiz-adv-x="899" d="M160 1061q0 92 74.5 138t199.5 46h238v39q0 74 -55.5 120t-159.5 46q-78 0 -131.5 -26.5t-94.5 -82.5l-51 43q47 55 116 89t163 34q123 0 197.5 -59t74.5 -164v-383h-61v139q-41 -70 -122 -109.5t-173 -39.5q-113 0 -164 50t-51 120zM223 1061q0 -45 39 -79t117 -34 q41 0 85 11.5t84 33t72.5 52t51.5 71.5v74h-238q-211 0 -211 -129z" />
<glyph unicode="&#xab;" horiz-adv-x="927" d="M158 485v54l303 241v-67l-250 -203l250 -201v-65zM467 485v54l301 241v-67l-248 -203l248 -201v-65z" />
<glyph unicode="&#xac;" horiz-adv-x="1265" d="M96 942v72h1063v-604h-78v532h-985z" />
<glyph unicode="&#xad;" d="M127 485v68h758v-68h-758z" />
<glyph unicode="&#xae;" horiz-adv-x="1810" d="M137 512q0 160 60.5 299t165 243.5t243.5 165t299 60.5t299 -60.5t243.5 -165t165 -243.5t60.5 -299t-60.5 -299t-165 -243.5t-243.5 -165t-299 -60.5t-299 60.5t-243.5 165t-165 243.5t-60.5 299zM213 512q0 -145 53 -272t147.5 -222.5t220.5 -150.5t271 -55t271.5 55 t220.5 150.5t147 222.5t53 272q0 143 -53 271t-147 223.5t-220 150.5t-272 55q-145 0 -271 -55t-220.5 -150.5t-147.5 -223.5t-53 -271zM645 137v766h309q59 0 108.5 -18.5t84.5 -50t54.5 -74.5t19.5 -92q0 -90 -52.5 -160t-146.5 -86l199 -285h-88l-228 336h39 q88 0 144.5 54.5t56.5 138.5q0 82 -57.5 128t-139.5 46h-231v-703h-72z" />
<glyph unicode="&#xaf;" horiz-adv-x="1069" d="M266 1315v67h541v-67h-541z" />
<glyph unicode="&#xb0;" horiz-adv-x="923" d="M268 1323q0 39 15.5 75t41 61.5t61.5 41t77 15.5q39 0 74.5 -15.5t61.5 -41t41 -61.5t15 -75q0 -41 -15 -77t-41 -61.5t-61.5 -41t-74.5 -15.5q-82 0 -138.5 56.5t-56.5 138.5zM334 1321q0 -53 38 -91t91 -38t91 38t38 91t-38 91t-91 38t-91 -38t-38 -91z" />
<glyph unicode="&#xb1;" d="M127 276v68h758v-68h-758zM127 907v68h344v344h68v-344h346v-68h-346v-346h-68v346h-344z" />
<glyph unicode="&#xb2;" horiz-adv-x="755" d="M98 1337q39 78 112 128.5t173 50.5q127 0 199.5 -68t72.5 -168q0 -51 -21.5 -93t-57 -79t-79.5 -69.5t-89 -65.5q-43 -31 -85 -61.5t-75 -63.5t-52.5 -69t-19.5 -77v-4h483v-67h-555v71q0 51 23 96.5t58.5 84.5t81.5 72.5t93 66.5q43 31 84 59.5t72 60.5t50.5 65.5 t19.5 72.5q0 76 -55.5 124t-147.5 48q-78 0 -135.5 -41t-87.5 -106z" />
<glyph unicode="&#xb3;" horiz-adv-x="751" d="M57 748l60 47q41 -55 102.5 -83t134.5 -28q113 0 175.5 51t62.5 133q0 88 -64.5 135.5t-162.5 47.5h-89v63h89q100 0 154 48t54 124q0 74 -55 120t-153 46q-74 0 -128.5 -30.5t-84.5 -78.5l-62 39q39 53 108.5 93.5t170.5 40.5q123 0 198.5 -62.5t75.5 -167.5 q0 -72 -38 -124t-109 -79q78 -25 123 -78t45 -137q0 -111 -80 -180.5t-230 -69.5q-92 0 -168.5 33t-128.5 97z" />
<glyph unicode="&#xb4;" horiz-adv-x="1069" d="M346 1266l250 303h102l-276 -303h-76z" />
<glyph unicode="&#xb5;" horiz-adv-x="1300" d="M164 -440v1505h74v-598q0 -90 31.5 -167t87 -132t131 -87t163.5 -32t163 32t130 87t87 132t32 167v598h74v-1065h-72v250q-25 -59 -63.5 -108.5t-92 -86.5t-119 -57.5t-139.5 -20.5t-139.5 20.5t-118.5 56.5t-93 85t-64 107v-686h-72z" />
<glyph unicode="&#xb6;" horiz-adv-x="1150" d="M96 1057q0 92 34 172t93.5 139t140 93t175.5 34h452v-1495h-71v1427h-123v-1427h-70v618h-186q-96 0 -177 34t-140.5 93.5t-93.5 139.5t-34 172z" />
<glyph unicode="&#xb7;" horiz-adv-x="399" d="M121 510q0 35 22.5 56.5t55.5 21.5q35 0 56 -21.5t21 -56.5q0 -33 -21.5 -55.5t-55.5 -22.5q-35 0 -56.5 22.5t-21.5 55.5z" />
<glyph unicode="&#xb8;" horiz-adv-x="1069" d="M268 -360l62 38q43 -37 88 -60.5t119 -23.5q86 0 138 35t52 88q0 47 -52 77t-145 30h-49v196h66v-145q117 0 185.5 -43t68.5 -113q0 -82 -73.5 -133t-190.5 -51q-92 0 -157 29.5t-112 75.5z" />
<glyph unicode="&#xb9;" horiz-adv-x="495" d="M72 1257v74h8q90 0 137 47t49 123h68v-870h-70v731q-18 -47 -65 -76t-113 -29h-14z" />
<glyph unicode="&#xba;" horiz-adv-x="919" d="M152 1198q0 63 24.5 120.5t65.5 98.5t97 65.5t120 24.5q63 0 120.5 -24.5t98.5 -65.5t65.5 -98t24.5 -121q0 -63 -24.5 -119.5t-65.5 -97.5t-98.5 -65.5t-120.5 -24.5t-119.5 24.5t-97.5 65.5t-65.5 97.5t-24.5 119.5zM215 1198q0 -51 19.5 -95t52 -78t77 -53.5 t95.5 -19.5t96 19.5t79 53.5t52.5 78t18.5 95t-18.5 97t-52.5 80t-79 53.5t-96 19.5t-95.5 -19.5t-77 -53.5t-52 -80t-19.5 -97z" />
<glyph unicode="&#xbb;" horiz-adv-x="927" d="M158 246v65l250 201l-250 201v67l303 -241v-52zM467 246v65l250 201l-250 201v67l301 -241v-52z" />
<glyph unicode="&#xbc;" horiz-adv-x="1482" d="M92 1251v74h8q90 0 137.5 47t49.5 123h67v-870h-69v731q-18 -47 -65.5 -76t-113.5 -29h-14zM115 0l1079 1495h90l-1079 -1495h-90zM733 201v63l432 606h74v-604h133v-65h-133v-201h-68v201h-438zM811 266h360v504z" />
<glyph unicode="&#xbd;" horiz-adv-x="1628" d="M92 1251v74h8q90 0 137.5 47t49.5 123h67v-870h-69v731q-18 -47 -65.5 -76t-113.5 -29h-14zM115 0l1079 1495h90l-1079 -1495h-90zM973 707q39 78 111.5 128t172.5 50q127 0 200 -67.5t73 -168.5q0 -51 -21.5 -93t-57.5 -79t-80 -69.5t-89 -65.5q-43 -31 -85 -61.5 t-74.5 -63.5t-52 -68.5t-19.5 -76.5v-4h483v-68h-555v72q0 51 22.5 96t58.5 84t82 72.5t93 66.5q43 31 84 59.5t71.5 60.5t50 65.5t19.5 72.5q0 76 -55 124t-148 48q-78 0 -135 -41t-88 -106z" />
<glyph unicode="&#xbe;" horiz-adv-x="1714" d="M78 741l59 47q41 -55 102.5 -82.5t135.5 -27.5q113 0 175 51t62 133q0 88 -64.5 135t-162.5 47h-88v64h88q100 0 154.5 48t54.5 124q0 74 -55.5 120t-153.5 46q-74 0 -128 -31t-85 -78l-61 39q39 53 108.5 93t169.5 40q123 0 199 -62.5t76 -166.5q0 -72 -38 -124 t-110 -79q78 -25 123 -78t45 -137q0 -111 -79.5 -180.5t-229.5 -69.5q-92 0 -169 33t-128 96zM356 0l1080 1495h90l-1080 -1495h-90zM975 201v63l432 606h74v-604h133v-65h-133v-201h-68v201h-438zM1053 266h360v504z" />
<glyph unicode="&#xbf;" horiz-adv-x="1120" d="M133 -147q0 98 31 161.5t76 110.5t99 89t99 97.5t76 134t31 201.5v47h71v-47q0 -131 -29.5 -216t-74.5 -144.5t-98.5 -102.5t-98.5 -88t-74.5 -101t-29.5 -142q0 -61 26.5 -112.5t72.5 -87.5t108.5 -56.5t134.5 -20.5q135 0 221 56.5t137 152.5l68 -33 q-53 -104 -159.5 -174t-266.5 -70q-90 0 -166 25t-133 70t-89 108.5t-32 141.5zM500 958q0 35 22.5 57.5t57.5 22.5t57 -22.5t22 -57.5t-22 -57t-57 -22t-57.5 22.5t-22.5 56.5z" />
<glyph unicode="&#xc0;" horiz-adv-x="1509" d="M94 0l621 1495h82l618 -1495h-80l-192 463h-778l-189 -463h-82zM395 535h719l-360 872zM442 1960h103l250 -303h-76z" />
<glyph unicode="&#xc1;" horiz-adv-x="1509" d="M94 0l621 1495h82l618 -1495h-80l-192 463h-778l-189 -463h-82zM395 535h719l-360 872zM702 1655l250 303h103l-277 -303h-76z" />
<glyph unicode="&#xc2;" horiz-adv-x="1509" d="M94 0l621 1495h82l618 -1495h-80l-192 463h-778l-189 -463h-82zM395 535h719l-360 872zM477 1649l244 303h65l244 -303h-84l-194 239l-193 -239h-82z" />
<glyph unicode="&#xc3;" horiz-adv-x="1509" d="M94 0l621 1495h82l618 -1495h-80l-192 463h-778l-189 -463h-82zM379 1663q0 90 50 143.5t128 53.5q51 0 96 -20.5t88 -49.5q43 -25 85 -47.5t83 -22.5q55 0 89 32t34 101h64q0 -94 -49.5 -146t-137.5 -52q-57 0 -104 23.5t-92 50.5q-41 25 -78 45t-78 20q-47 0 -81 -32.5 t-34 -98.5h-63zM395 535h719l-360 872z" />
<glyph unicode="&#xc4;" horiz-adv-x="1509" d="M94 0l621 1495h82l618 -1495h-80l-192 463h-778l-189 -463h-82zM395 535h719l-360 872zM522 1772q0 33 22.5 54t53.5 21q35 0 55.5 -21.5t20.5 -53.5q0 -33 -21.5 -54.5t-54.5 -21.5q-35 0 -55.5 21.5t-20.5 54.5zM827 1772q0 33 21.5 54t52.5 21q35 0 55.5 -21.5 t20.5 -53.5q0 -33 -20.5 -54.5t-55.5 -21.5q-33 0 -53.5 21.5t-20.5 54.5z" />
<glyph unicode="&#xc5;" horiz-adv-x="1509" d="M94 0l598 1444q-53 18 -88 66.5t-35 109.5q0 39 14.5 74t40 61.5t59.5 40.5t73 14q80 0 135 -55t55 -135q0 -61 -36 -109.5t-93 -66.5l598 -1444h-80l-192 463h-778l-189 -463h-82zM395 535h719l-360 872zM631 1620q0 -49 33.5 -85t80.5 -40h11q53 0 91 37t38 88 q0 53 -38 91t-91 38q-51 0 -88 -38t-37 -91z" />
<glyph unicode="&#xc6;" horiz-adv-x="2199" d="M106 0l807 1495h1119v-72h-1020l137 -639h883v-69h-869l140 -641h729v-74h-789l-96 444h-717l-237 -444h-87zM469 514h664l-191 881z" />
<glyph unicode="&#xc7;" horiz-adv-x="1720" d="M150 748q0 160 60 299t164.5 243.5t244 165t299.5 60.5q104 0 199 -27t179 -75t154 -116.5t121 -150.5l-66 -37q-90 150 -242.5 243t-344.5 93q-145 0 -270.5 -55.5t-218.5 -150.5t-146.5 -222t-53.5 -270t53.5 -270.5t146.5 -221.5t218 -148.5t271 -54.5q100 0 191 25.5 t169 72t141.5 112t106.5 145.5l67 -35q-49 -86 -116.5 -157t-151.5 -123t-180 -81.5t-203 -31.5v-115q117 0 185.5 -43t68.5 -113q0 -82 -73.5 -133t-190.5 -51q-92 0 -156.5 29.5t-111.5 74.5l61 39q43 -37 88 -60.5t119 -23.5q86 0 138 35t52 88q0 47 -52 77t-144 30h-49 v168q-152 8 -285 70.5t-231.5 166t-154.5 239.5t-56 290z" />
<glyph unicode="&#xc8;" horiz-adv-x="1343" d="M197 0v1495h987v-72h-910v-639h910v-69h-910v-641h910v-74h-987zM412 1960h102l250 -303h-76z" />
<glyph unicode="&#xc9;" horiz-adv-x="1343" d="M197 0v1495h987v-72h-910v-639h910v-69h-910v-641h910v-74h-987zM662 1655l249 303h103l-277 -303h-75z" />
<glyph unicode="&#xca;" horiz-adv-x="1343" d="M197 0v1495h987v-72h-910v-639h910v-69h-910v-641h910v-74h-987zM428 1649l244 303h65l244 -303h-84l-195 239l-192 -239h-82z" />
<glyph unicode="&#xcb;" horiz-adv-x="1343" d="M197 0v1495h987v-72h-910v-639h910v-69h-910v-641h910v-74h-987zM483 1772q0 33 22.5 54t53.5 21q35 0 55.5 -21.5t20.5 -53.5q0 -33 -21.5 -54.5t-54.5 -21.5q-35 0 -55.5 21.5t-20.5 54.5zM788 1772q0 33 21.5 54t52.5 21q35 0 55.5 -21.5t20.5 -53.5 q0 -33 -20.5 -54.5t-55.5 -21.5q-33 0 -53.5 21.5t-20.5 54.5z" />
<glyph unicode="&#xcc;" horiz-adv-x="509" d="M-57 1960h102l250 -303h-76zM217 0v1495h76v-1495h-76z" />
<glyph unicode="&#xcd;" horiz-adv-x="509" d="M199 1655l250 303h102l-277 -303h-75zM217 0v1495h76v-1495h-76z" />
<glyph unicode="&#xce;" horiz-adv-x="509" d="M-23 1649l244 303h66l243 -303h-84l-194 239l-193 -239h-82zM217 0v1495h76v-1495h-76z" />
<glyph unicode="&#xcf;" horiz-adv-x="509" d="M23 1772q0 33 22.5 54t52.5 21q35 0 55.5 -21.5t20.5 -53.5q0 -33 -21.5 -54.5t-54.5 -21.5q-35 0 -55 21.5t-20 54.5zM217 0v1495h76v-1495h-76zM328 1772q0 33 21.5 54t51.5 21q35 0 55.5 -21.5t20.5 -53.5q0 -33 -20.5 -54.5t-55.5 -21.5q-33 0 -53 21.5t-20 54.5z " />
<glyph unicode="&#xd0;" horiz-adv-x="1568" d="M80 739v64h149v692h418q164 0 305.5 -57.5t244.5 -157.5t162.5 -236.5t59.5 -295.5q0 -160 -59.5 -297.5t-163.5 -236.5t-244.5 -156.5t-302.5 -57.5h-420v739h-149zM307 72h338q145 0 272 52t221.5 142t148.5 214t54 268q0 143 -53 267t-147 215t-221 143t-277 52h-336 v-622h508v-64h-508v-667z" />
<glyph unicode="&#xd1;" horiz-adv-x="1566" d="M197 0v1495h84l1013 -1380v1380h76v-1495h-82l-1016 1382v-1382h-75zM420 1640q0 90 50 143.5t128 53.5q51 0 96 -20.5t88 -49.5q43 -25 85 -47t83 -22q55 0 89 31.5t34 101.5h64q0 -94 -49.5 -146.5t-137.5 -52.5q-57 0 -104 23.5t-92 50.5q-41 25 -78 45.5t-78 20.5 q-47 0 -81 -33t-34 -99h-63z" />
<glyph unicode="&#xd2;" horiz-adv-x="1832" d="M150 748q0 160 60 299t164.5 243.5t245 165t298.5 60.5q160 0 299 -60.5t243.5 -165t163.5 -244t59 -298.5q0 -158 -60 -297.5t-164.5 -244t-243.5 -165.5t-297 -61q-164 0 -305.5 60t-244 164.5t-160.5 244t-58 299.5zM227 748q0 -145 53.5 -271.5t146.5 -220.5 t219.5 -148.5t271.5 -54.5q143 0 269 54.5t219 148.5t146.5 221t53.5 271q0 143 -53.5 270t-146.5 221t-219 149.5t-269 55.5q-145 0 -270.5 -55.5t-219.5 -149.5t-147.5 -221t-53.5 -270zM604 1970h103l249 -303h-75z" />
<glyph unicode="&#xd3;" horiz-adv-x="1832" d="M150 748q0 160 60 299t164.5 243.5t245 165t298.5 60.5q160 0 299 -60.5t243.5 -165t163.5 -244t59 -298.5q0 -158 -60 -297.5t-164.5 -244t-243.5 -165.5t-297 -61q-164 0 -305.5 60t-244 164.5t-160.5 244t-58 299.5zM227 748q0 -145 53.5 -271.5t146.5 -220.5 t219.5 -148.5t271.5 -54.5q143 0 269 54.5t219 148.5t146.5 221t53.5 271q0 143 -53.5 270t-146.5 221t-219 149.5t-269 55.5q-145 0 -270.5 -55.5t-219.5 -149.5t-147.5 -221t-53.5 -270zM864 1667l250 303h103l-277 -303h-76z" />
<glyph unicode="&#xd4;" horiz-adv-x="1832" d="M150 748q0 160 60 299t164.5 243.5t245 165t298.5 60.5q160 0 299 -60.5t243.5 -165t163.5 -244t59 -298.5q0 -158 -60 -297.5t-164.5 -244t-243.5 -165.5t-297 -61q-164 0 -305.5 60t-244 164.5t-160.5 244t-58 299.5zM227 748q0 -145 53.5 -271.5t146.5 -220.5 t219.5 -148.5t271.5 -54.5q143 0 269 54.5t219 148.5t146.5 221t53.5 271q0 143 -53.5 270t-146.5 221t-219 149.5t-269 55.5q-145 0 -270.5 -55.5t-219.5 -149.5t-147.5 -221t-53.5 -270zM639 1659l244 303h65l244 -303h-84l-195 239l-192 -239h-82z" />
<glyph unicode="&#xd5;" horiz-adv-x="1832" d="M150 748q0 160 60 299t164.5 243.5t245 165t298.5 60.5q160 0 299 -60.5t243.5 -165t163.5 -244t59 -298.5q0 -158 -60 -297.5t-164.5 -244t-243.5 -165.5t-297 -61q-164 0 -305.5 60t-244 164.5t-160.5 244t-58 299.5zM227 748q0 -145 53.5 -271.5t146.5 -220.5 t219.5 -148.5t271.5 -54.5q143 0 269 54.5t219 148.5t146.5 221t53.5 271q0 143 -53.5 270t-146.5 221t-219 149.5t-269 55.5q-145 0 -270.5 -55.5t-219.5 -149.5t-147.5 -221t-53.5 -270zM541 1673q0 90 50 143.5t128 53.5q51 0 96 -20.5t88 -49.5q43 -25 85 -47t83 -22 q55 0 89 31.5t34 101.5h63q0 -94 -49 -146.5t-137 -52.5q-57 0 -104 23.5t-93 50.5q-41 25 -77.5 45t-77.5 20q-47 0 -81 -32.5t-34 -98.5h-63z" />
<glyph unicode="&#xd6;" horiz-adv-x="1832" d="M150 748q0 160 60 299t164.5 243.5t245 165t298.5 60.5q160 0 299 -60.5t243.5 -165t163.5 -244t59 -298.5q0 -158 -60 -297.5t-164.5 -244t-243.5 -165.5t-297 -61q-164 0 -305.5 60t-244 164.5t-160.5 244t-58 299.5zM227 748q0 -145 53.5 -271.5t146.5 -220.5 t219.5 -148.5t271.5 -54.5q143 0 269 54.5t219 148.5t146.5 221t53.5 271q0 143 -53.5 270t-146.5 221t-219 149.5t-269 55.5q-145 0 -270.5 -55.5t-219.5 -149.5t-147.5 -221t-53.5 -270zM684 1782q0 33 22.5 54.5t53.5 21.5q35 0 55.5 -21.5t20.5 -54.5t-21.5 -54.5 t-54.5 -21.5q-35 0 -55.5 21.5t-20.5 54.5zM989 1782q0 33 21.5 54.5t52.5 21.5q35 0 55.5 -21.5t20.5 -54.5t-20.5 -54.5t-55.5 -21.5q-33 0 -53.5 21.5t-20.5 54.5z" />
<glyph unicode="&#xd7;" d="M186 473l275 275l-275 274l45 47l275 -276l274 274l45 -47l-272 -272l272 -273l-45 -47l-274 272l-275 -274z" />
<glyph unicode="&#xd8;" horiz-adv-x="1835" d="M152 748q0 160 60 299t164.5 243.5t245 165t298.5 60.5q123 0 232.5 -36t201.5 -102l145 191l55 -39l-145 -193q127 -106 202 -257.5t75 -331.5q0 -158 -60.5 -297.5t-165 -244t-244.5 -165.5t-298 -61q-125 0 -235 33.5t-202 97.5l-143 -191l-55 43l143 189 q-129 106 -201.5 260.5t-72.5 335.5zM229 748q0 -162 65.5 -299.5t178.5 -233.5l838 1106q-84 57 -182.5 90t-208.5 33q-145 0 -270.5 -55.5t-219.5 -149.5t-147.5 -221t-53.5 -270zM528 172q82 -57 180.5 -88t209.5 -31q143 0 269 54.5t220 148.5t147.5 221t53.5 271 q0 160 -65.5 297t-178.5 233z" />
<glyph unicode="&#xd9;" horiz-adv-x="1476" d="M188 528v967h76v-965q0 -104 33 -192t94.5 -151.5t148.5 -98.5t195 -35q104 0 192.5 33t152 95.5t98 150.5t34.5 198v965h76v-965q0 -123 -40 -225t-113.5 -174t-175 -111.5t-224.5 -39.5q-125 0 -226 39.5t-172 112.5t-110 174.5t-39 221.5zM422 1935h102l250 -303h-76z " />
<glyph unicode="&#xda;" horiz-adv-x="1476" d="M188 528v967h76v-965q0 -104 33 -192t94.5 -151.5t148.5 -98.5t195 -35q104 0 192.5 33t152 95.5t98 150.5t34.5 198v965h76v-965q0 -123 -40 -225t-113.5 -174t-175 -111.5t-224.5 -39.5q-125 0 -226 39.5t-172 112.5t-110 174.5t-39 221.5zM678 1632l250 303h102 l-276 -303h-76z" />
<glyph unicode="&#xdb;" horiz-adv-x="1476" d="M188 528v967h76v-965q0 -104 33 -192t94.5 -151.5t148.5 -98.5t195 -35q104 0 192.5 33t152 95.5t98 150.5t34.5 198v965h76v-965q0 -123 -40 -225t-113.5 -174t-175 -111.5t-224.5 -39.5q-125 0 -226 39.5t-172 112.5t-110 174.5t-39 221.5zM459 1626l243 303h66 l244 -303h-84l-195 240l-192 -240h-82z" />
<glyph unicode="&#xdc;" horiz-adv-x="1476" d="M188 528v967h76v-965q0 -104 33 -192t94.5 -151.5t148.5 -98.5t195 -35q104 0 192.5 33t152 95.5t98 150.5t34.5 198v965h76v-965q0 -123 -40 -225t-113.5 -174t-175 -111.5t-224.5 -39.5q-125 0 -226 39.5t-172 112.5t-110 174.5t-39 221.5zM510 1735q0 33 22.5 54 t53.5 21q35 0 55.5 -21.5t20.5 -53.5q0 -33 -22 -54.5t-54 -21.5q-35 0 -55.5 21.5t-20.5 54.5zM815 1735q0 33 21.5 54t52.5 21q35 0 55.5 -21.5t20.5 -53.5q0 -33 -20.5 -54.5t-55.5 -21.5q-33 0 -53.5 21.5t-20.5 54.5z" />
<glyph unicode="&#xdd;" horiz-adv-x="1341" d="M82 1495h90l498 -840l501 840h89l-553 -911v-584h-76v578zM625 1634l249 303h103l-277 -303h-75z" />
<glyph unicode="&#xde;" horiz-adv-x="1275" d="M188 0v1495h76v-313h375q106 0 193.5 -32t148.5 -87t94 -133t33 -170t-33 -169t-93 -134.5t-147 -89t-196 -31.5h-375v-336h-76zM264 408h371q92 0 165.5 26.5t124 72.5t78 110.5t27.5 142.5q0 76 -27.5 140.5t-78 111.5t-124 72.5t-165.5 25.5h-371v-702z" />
<glyph unicode="&#xdf;" horiz-adv-x="1218" d="M-115 -436q158 0 221.5 83t63.5 238v1334q0 90 31.5 166.5t87 132t131.5 86t166 30.5q94 0 172 -30.5t133 -86t85 -129t30 -159.5q0 -129 -69 -227.5t-179 -141.5q160 -39 250 -149.5t90 -270.5q0 -98 -33 -181t-92.5 -143.5t-141 -95t-180.5 -34.5q-143 0 -235 57l12 70 q47 -27 101.5 -43.5t121.5 -16.5q80 0 147.5 29t118 81t79 122.5t28.5 154.5q0 80 -28.5 148.5t-83 119t-130 79t-170.5 28.5h-34v76h34q61 0 117.5 25.5t100.5 70.5t71 107.5t27 138.5q0 68 -23.5 129t-67.5 107.5t-107.5 74t-143.5 27.5q-70 0 -131.5 -24.5t-107.5 -70.5 t-73.5 -109.5t-27.5 -139.5v-1340q0 -201 -82 -298t-264 -97h-15v72z" />
<glyph unicode="&#xe0;" horiz-adv-x="1261" d="M100 295q0 86 37 150.5t103.5 107.5t161 64.5t210.5 21.5h414v82q0 76 -25.5 138.5t-76 107.5t-124 70.5t-171.5 25.5q-158 0 -255.5 -51t-172.5 -148l-62 49q88 100 204 157.5t286 57.5q117 0 205 -30.5t146 -85t88 -129t30 -160.5v-723h-72v256q-78 -127 -217 -201.5 t-305 -74.5q-104 0 -181 25.5t-126.5 68.5t-73 100t-23.5 121zM178 299q0 -51 19.5 -97t59.5 -81t103.5 -55.5t149.5 -20.5q80 0 156.5 21.5t144.5 61.5t123 98.5t92 131.5v220h-412q-205 0 -320.5 -69t-115.5 -210zM317 1583h103l250 -303h-76z" />
<glyph unicode="&#xe1;" horiz-adv-x="1261" d="M100 295q0 86 37 150.5t103.5 107.5t161 64.5t210.5 21.5h414v82q0 76 -25.5 138.5t-76 107.5t-124 70.5t-171.5 25.5q-158 0 -255.5 -51t-172.5 -148l-62 49q88 100 204 157.5t286 57.5q117 0 205 -30.5t146 -85t88 -129t30 -160.5v-723h-72v256q-78 -127 -217 -201.5 t-305 -74.5q-104 0 -181 25.5t-126.5 68.5t-73 100t-23.5 121zM178 299q0 -51 19.5 -97t59.5 -81t103.5 -55.5t149.5 -20.5q80 0 156.5 21.5t144.5 61.5t123 98.5t92 131.5v220h-412q-205 0 -320.5 -69t-115.5 -210zM575 1278l250 303h103l-277 -303h-76z" />
<glyph unicode="&#xe2;" horiz-adv-x="1261" d="M100 295q0 86 37 150.5t103.5 107.5t161 64.5t210.5 21.5h414v82q0 76 -25.5 138.5t-76 107.5t-124 70.5t-171.5 25.5q-158 0 -255.5 -51t-172.5 -148l-62 49q88 100 204 157.5t286 57.5q117 0 205 -30.5t146 -85t88 -129t30 -160.5v-723h-72v256q-78 -127 -217 -201.5 t-305 -74.5q-104 0 -181 25.5t-126.5 68.5t-73 100t-23.5 121zM178 299q0 -51 19.5 -97t59.5 -81t103.5 -55.5t149.5 -20.5q80 0 156.5 21.5t144.5 61.5t123 98.5t92 131.5v220h-412q-205 0 -320.5 -69t-115.5 -210zM354 1272l244 303h66l243 -303h-84l-194 239l-193 -239 h-82z" />
<glyph unicode="&#xe3;" horiz-adv-x="1261" d="M100 295q0 86 37 150.5t103.5 107.5t161 64.5t210.5 21.5h414v82q0 76 -25.5 138.5t-76 107.5t-124 70.5t-171.5 25.5q-158 0 -255.5 -51t-172.5 -148l-62 49q88 100 204 157.5t286 57.5q117 0 205 -30.5t146 -85t88 -129t30 -160.5v-723h-72v256q-78 -127 -217 -201.5 t-305 -74.5q-104 0 -181 25.5t-126.5 68.5t-73 100t-23.5 121zM178 299q0 -51 19.5 -97t59.5 -81t103.5 -55.5t149.5 -20.5q80 0 156.5 21.5t144.5 61.5t123 98.5t92 131.5v220h-412q-205 0 -320.5 -69t-115.5 -210zM256 1286q0 90 50 143.5t128 53.5q51 0 96 -20.5 t88 -49.5q43 -25 85 -47.5t83 -22.5q55 0 89 32t34 102h64q0 -94 -49.5 -146.5t-137.5 -52.5q-57 0 -104 23.5t-92 50.5q-41 25 -78 45t-78 20q-47 0 -81 -32.5t-34 -98.5h-63z" />
<glyph unicode="&#xe4;" horiz-adv-x="1261" d="M100 295q0 86 37 150.5t103.5 107.5t161 64.5t210.5 21.5h414v82q0 76 -25.5 138.5t-76 107.5t-124 70.5t-171.5 25.5q-158 0 -255.5 -51t-172.5 -148l-62 49q88 100 204 157.5t286 57.5q117 0 205 -30.5t146 -85t88 -129t30 -160.5v-723h-72v256q-78 -127 -217 -201.5 t-305 -74.5q-104 0 -181 25.5t-126.5 68.5t-73 100t-23.5 121zM178 299q0 -51 19.5 -97t59.5 -81t103.5 -55.5t149.5 -20.5q80 0 156.5 21.5t144.5 61.5t123 98.5t92 131.5v220h-412q-205 0 -320.5 -69t-115.5 -210zM399 1391q0 33 22.5 54t53.5 21q35 0 55.5 -21.5 t20.5 -53.5q0 -33 -21.5 -54.5t-54.5 -21.5q-35 0 -55.5 21.5t-20.5 54.5zM705 1391q0 33 21.5 54t51.5 21q35 0 55.5 -21.5t20.5 -53.5q0 -33 -20.5 -54.5t-55.5 -21.5q-33 0 -53 21.5t-20 54.5z" />
<glyph unicode="&#xe5;" horiz-adv-x="1261" d="M100 295q0 86 37 150.5t103.5 107.5t161 64.5t210.5 21.5h414v82q0 76 -25.5 138.5t-76 107.5t-124 70.5t-171.5 25.5q-158 0 -255.5 -51t-172.5 -148l-62 49q88 100 204 157.5t286 57.5q117 0 205 -30.5t146 -85t88 -129t30 -160.5v-723h-72v256q-78 -127 -217 -201.5 t-305 -74.5q-104 0 -181 25.5t-126.5 68.5t-73 100t-23.5 121zM178 299q0 -51 19.5 -97t59.5 -81t103.5 -55.5t149.5 -20.5q80 0 156.5 21.5t144.5 61.5t123 98.5t92 131.5v220h-412q-205 0 -320.5 -69t-115.5 -210zM444 1454q0 39 14.5 74t40 61.5t59.5 41t73 14.5 q80 0 135 -55.5t55 -135.5q0 -39 -14 -72.5t-41 -59.5t-61.5 -40t-73.5 -14q-78 0 -132.5 54t-54.5 132zM506 1454q0 -51 37 -88t88 -37q53 0 91 37t38 88q0 53 -38 91t-91 38q-51 0 -88 -38t-37 -91z" />
<glyph unicode="&#xe6;" horiz-adv-x="2277" d="M98 283q0 86 36 147.5t102.5 101t161 58t208.5 18.5h441v109q0 74 -26 137.5t-78 110.5t-129 73.5t-181 26.5q-154 0 -257.5 -55.5t-170.5 -155.5l-64 45q82 104 203 166.5t293 62.5q106 0 187 -25.5t139.5 -69.5t93.5 -105.5t47 -130.5q33 74 84 135t117.5 104 t146.5 67.5t170 24.5q123 0 226.5 -43t177 -117.5t114.5 -178t41 -224.5v-24h-1065q2 -104 38 -195.5t101.5 -158t157.5 -104.5t209 -38q160 0 274.5 68.5t180.5 197.5l63 -37q-78 -141 -206 -219t-310 -78q-201 0 -335 90.5t-195 233.5q-43 -74 -105.5 -133t-139.5 -102 t-164 -66t-179 -23q-104 0 -181 24t-127.5 64.5t-75 96t-24.5 121.5zM176 285q0 -102 80 -171t254 -69q82 0 165 21.5t156.5 63.5t135 103.5t102.5 141.5q-12 39 -17 79t-5 87h-439q-205 0 -318.5 -58.5t-113.5 -197.5zM1118 608h985q-6 98 -43 181t-99.5 143.5t-148.5 94.5 t-190 34q-100 0 -187 -35t-154 -96.5t-110 -144.5t-53 -177z" />
<glyph unicode="&#xe7;" horiz-adv-x="1323" d="M117 553q0 121 45 226.5t122.5 183t183 121.5t226.5 44q176 0 309.5 -86t200.5 -227l-67 -33q-63 127 -176 202t-267 75q-106 0 -197 -40t-159 -108.5t-105.5 -161t-37.5 -196.5t37.5 -196.5t105.5 -161t160 -108.5t200 -40q164 0 276.5 83t172.5 208l70 -33 q-66 -139 -192 -230t-304 -98v-114q117 0 185.5 -43t68.5 -113q0 -82 -73.5 -133t-190.5 -51q-92 0 -157 29.5t-112 74.5l62 39q43 -37 88 -60.5t119 -23.5q86 0 138 35t52 88q0 47 -52 77t-144 30h-50v168q-117 8 -216 55t-170.5 124t-111.5 178t-40 216z" />
<glyph unicode="&#xe8;" horiz-adv-x="1372" d="M117 551q0 121 43 226.5t120.5 183t183 122.5t232.5 45q123 0 225.5 -43t176 -118.5t114.5 -180t41 -225.5v-39h-1063q4 -102 41 -188t101.5 -150.5t156 -100.5t205.5 -36q322 0 455 264l68 -37q-82 -147 -210.5 -222t-310.5 -75q-139 0 -246.5 44.5t-181 121t-112.5 182 t-39 226.5zM190 592h988q-6 100 -42 186t-98.5 148.5t-149 98.5t-192.5 36q-104 0 -193 -37t-155.5 -99.5t-107.5 -148.5t-50 -184zM383 1583h102l250 -303h-76z" />
<glyph unicode="&#xe9;" horiz-adv-x="1372" d="M117 551q0 121 43 226.5t120.5 183t183 122.5t232.5 45q123 0 225.5 -43t176 -118.5t114.5 -180t41 -225.5v-39h-1063q4 -102 41 -188t101.5 -150.5t156 -100.5t205.5 -36q322 0 455 264l68 -37q-82 -147 -210.5 -222t-310.5 -75q-139 0 -246.5 44.5t-181 121t-112.5 182 t-39 226.5zM190 592h988q-6 100 -42 186t-98.5 148.5t-149 98.5t-192.5 36q-104 0 -193 -37t-155.5 -99.5t-107.5 -148.5t-50 -184zM641 1278l250 303h102l-276 -303h-76z" />
<glyph unicode="&#xea;" horiz-adv-x="1372" d="M117 551q0 121 43 226.5t120.5 183t183 122.5t232.5 45q123 0 225.5 -43t176 -118.5t114.5 -180t41 -225.5v-39h-1063q4 -102 41 -188t101.5 -150.5t156 -100.5t205.5 -36q322 0 455 264l68 -37q-82 -147 -210.5 -222t-310.5 -75q-139 0 -246.5 44.5t-181 121t-112.5 182 t-39 226.5zM190 592h988q-6 100 -42 186t-98.5 148.5t-149 98.5t-192.5 36q-104 0 -193 -37t-155.5 -99.5t-107.5 -148.5t-50 -184zM420 1272l244 303h65l244 -303h-84l-195 239l-192 -239h-82z" />
<glyph unicode="&#xeb;" horiz-adv-x="1372" d="M117 551q0 121 43 226.5t120.5 183t183 122.5t232.5 45q123 0 225.5 -43t176 -118.5t114.5 -180t41 -225.5v-39h-1063q4 -102 41 -188t101.5 -150.5t156 -100.5t205.5 -36q322 0 455 264l68 -37q-82 -147 -210.5 -222t-310.5 -75q-139 0 -246.5 44.5t-181 121t-112.5 182 t-39 226.5zM190 592h988q-6 100 -42 186t-98.5 148.5t-149 98.5t-192.5 36q-104 0 -193 -37t-155.5 -99.5t-107.5 -148.5t-50 -184zM465 1395q0 33 22.5 54t53.5 21q35 0 55 -21.5t20 -53.5q0 -33 -21.5 -54.5t-53.5 -21.5q-35 0 -55.5 21.5t-20.5 54.5zM770 1395 q0 33 21.5 54t52.5 21q35 0 55.5 -21.5t20.5 -53.5q0 -33 -20.5 -54.5t-55.5 -21.5q-33 0 -53.5 21.5t-20.5 54.5z" />
<glyph unicode="&#xec;" horiz-adv-x="421" d="M-102 1571h102l250 -303h-76zM174 0v1106h74v-1106h-74z" />
<glyph unicode="&#xed;" horiz-adv-x="421" d="M174 0v1106h74v-1106h-74zM174 1276l250 303h102l-276 -303h-76z" />
<glyph unicode="&#xee;" horiz-adv-x="421" d="M-68 1260l244 303h66l243 -303h-84l-194 239l-193 -239h-82zM174 0v1106h74v-1106h-74z" />
<glyph unicode="&#xef;" horiz-adv-x="421" d="M-23 1382q0 33 23 54.5t53 21.5q35 0 55.5 -21.5t20.5 -54.5t-21.5 -54t-54.5 -21q-35 0 -55.5 21t-20.5 54zM174 0v1106h74v-1106h-74zM283 1382q0 33 21.5 54.5t51.5 21.5q35 0 55.5 -21.5t20.5 -54.5t-20.5 -54t-55.5 -21q-33 0 -53 21t-20 54z" />
<glyph unicode="&#xf0;" horiz-adv-x="1372" d="M117 547q0 119 44 221t120.5 178t179 120t219.5 44q143 0 251.5 -61.5t174.5 -161.5q-106 240 -395 497l-252 -159l-39 43l246 155q-53 47 -115 94.5t-127 96.5h117q49 -39 96 -76t90 -76l258 166l39 -43l-254 -162q244 -221 364.5 -437t120.5 -439q0 -119 -44 -222.5 t-120.5 -180t-181 -120.5t-223.5 -44t-222.5 44t-180 120.5t-121.5 180t-45 222.5zM197 547q0 -102 38.5 -192.5t104.5 -157t155 -105.5t191 -39t191.5 39t156 105.5t104.5 156.5t38 193q0 100 -38 190t-104.5 157t-156 105.5t-191.5 38.5t-191 -38.5t-155 -105.5 t-104.5 -156t-38.5 -191z" />
<glyph unicode="&#xf1;" horiz-adv-x="1349" d="M168 0v1106h70v-270q25 63 68.5 116.5t102 92t130 61t151.5 22.5q111 0 202 -34.5t156.5 -100t101.5 -159t36 -211.5v-623h-74v623q0 98 -29.5 179t-86 138t-136.5 88t-178 31q-92 0 -172 -33t-140.5 -91t-94 -138t-33.5 -174v-623h-74zM299 1282q0 90 50 143.5t128 53.5 q51 0 96 -20.5t89 -49.5q43 -25 84.5 -47.5t82.5 -22.5q55 0 89 32t34 102h64q0 -94 -49 -146.5t-138 -52.5q-57 0 -104 23.5t-92 50.5q-41 25 -78 45t-78 20q-47 0 -81 -32.5t-34 -98.5h-63z" />
<glyph unicode="&#xf2;" horiz-adv-x="1384" d="M117 553q0 121 45 226.5t122.5 183t182 121.5t225.5 44t225.5 -44t182.5 -121.5t123 -183t45 -226.5t-44 -225.5t-122 -182t-183.5 -123t-226.5 -45.5q-123 0 -227.5 44.5t-182 122t-121.5 182t-44 227.5zM195 553q0 -109 37.5 -201t105.5 -159.5t159 -105.5t195 -38 t195.5 39t159 106.5t105.5 159.5t38 199q0 106 -39 198.5t-105.5 161t-157.5 107.5t-196 39q-104 0 -195 -39t-159 -107.5t-105.5 -161t-37.5 -198.5zM379 1583h102l250 -303h-76z" />
<glyph unicode="&#xf3;" horiz-adv-x="1384" d="M117 553q0 121 45 226.5t122.5 183t182 121.5t225.5 44t225.5 -44t182.5 -121.5t123 -183t45 -226.5t-44 -225.5t-122 -182t-183.5 -123t-226.5 -45.5q-123 0 -227.5 44.5t-182 122t-121.5 182t-44 227.5zM195 553q0 -109 37.5 -201t105.5 -159.5t159 -105.5t195 -38 t195.5 39t159 106.5t105.5 159.5t38 199q0 106 -39 198.5t-105.5 161t-157.5 107.5t-196 39q-104 0 -195 -39t-159 -107.5t-105.5 -161t-37.5 -198.5zM635 1278l250 303h102l-276 -303h-76z" />
<glyph unicode="&#xf4;" horiz-adv-x="1384" d="M117 553q0 121 45 226.5t122.5 183t182 121.5t225.5 44t225.5 -44t182.5 -121.5t123 -183t45 -226.5t-44 -225.5t-122 -182t-183.5 -123t-226.5 -45.5q-123 0 -227.5 44.5t-182 122t-121.5 182t-44 227.5zM195 553q0 -109 37.5 -201t105.5 -159.5t159 -105.5t195 -38 t195.5 39t159 106.5t105.5 159.5t38 199q0 106 -39 198.5t-105.5 161t-157.5 107.5t-196 39q-104 0 -195 -39t-159 -107.5t-105.5 -161t-37.5 -198.5zM414 1272l243 303h66l244 -303h-84l-195 239l-192 -239h-82z" />
<glyph unicode="&#xf5;" horiz-adv-x="1384" d="M117 553q0 121 45 226.5t122.5 183t182 121.5t225.5 44t225.5 -44t182.5 -121.5t123 -183t45 -226.5t-44 -225.5t-122 -182t-183.5 -123t-226.5 -45.5q-123 0 -227.5 44.5t-182 122t-121.5 182t-44 227.5zM195 553q0 -109 37.5 -201t105.5 -159.5t159 -105.5t195 -38 t195.5 39t159 106.5t105.5 159.5t38 199q0 106 -39 198.5t-105.5 161t-157.5 107.5t-196 39q-104 0 -195 -39t-159 -107.5t-105.5 -161t-37.5 -198.5zM315 1286q0 90 50.5 143.5t128.5 53.5q51 0 96 -20.5t88 -49.5q43 -25 85 -47.5t83 -22.5q55 0 89 32t34 102h63 q0 -94 -49 -146.5t-137 -52.5q-57 0 -104.5 23.5t-92.5 50.5q-41 25 -77.5 45t-77.5 20q-47 0 -81 -32.5t-34 -98.5h-64z" />
<glyph unicode="&#xf6;" horiz-adv-x="1384" d="M117 553q0 121 45 226.5t122.5 183t182 121.5t225.5 44t225.5 -44t182.5 -121.5t123 -183t45 -226.5t-44 -225.5t-122 -182t-183.5 -123t-226.5 -45.5q-123 0 -227.5 44.5t-182 122t-121.5 182t-44 227.5zM195 553q0 -109 37.5 -201t105.5 -159.5t159 -105.5t195 -38 t195.5 39t159 106.5t105.5 159.5t38 199q0 106 -39 198.5t-105.5 161t-157.5 107.5t-196 39q-104 0 -195 -39t-159 -107.5t-105.5 -161t-37.5 -198.5zM459 1395q0 33 22.5 54t53.5 21q35 0 55 -21.5t20 -53.5q0 -33 -21.5 -54.5t-53.5 -21.5q-35 0 -55.5 21.5t-20.5 54.5z M764 1395q0 33 21.5 54t52.5 21q35 0 55 -21.5t20 -53.5q0 -33 -20.5 -54.5t-54.5 -21.5q-33 0 -53.5 21.5t-20.5 54.5z" />
<glyph unicode="&#xf7;" d="M127 715v67h758v-67h-758zM432 403q0 31 21.5 51.5t50.5 20.5q33 0 53.5 -20.5t20.5 -51.5t-20.5 -51t-53.5 -20q-31 0 -51.5 20t-20.5 51zM432 1090q0 31 21.5 51t50.5 20q33 0 53.5 -20.5t20.5 -50.5q0 -31 -20.5 -51.5t-53.5 -20.5q-31 0 -51.5 20.5t-20.5 51.5z" />
<glyph unicode="&#xf8;" horiz-adv-x="1384" d="M117 553q0 121 45 225.5t122.5 182t182 122.5t225.5 45q90 0 172 -26.5t152 -73.5l84 111l51 -37l-84 -111q92 -78 146.5 -191.5t54.5 -246.5q0 -121 -45 -225.5t-124 -182t-183.5 -123t-223.5 -45.5q-92 0 -174 26t-151 73l-88 -117l-54 43l88 115q-92 78 -144 190.5 t-52 245.5zM195 553q0 -113 44 -210t119 -167l613 795q-59 41 -130 64.5t-149 23.5q-104 0 -194 -40t-158 -108.5t-106.5 -161t-38.5 -196.5zM412 133q59 -41 130.5 -63.5t149.5 -22.5q104 0 194.5 40t157 108.5t105.5 161t39 196.5q0 115 -44 212t-122 167z" />
<glyph unicode="&#xf9;" horiz-adv-x="1308" d="M160 481v625h73v-627q0 -197 106.5 -314.5t305.5 -117.5q94 0 172 34t134.5 93t87 140t30.5 175v617h72v-1106h-70v266q-25 -61 -65.5 -114.5t-96 -92.5t-123 -60.5t-147.5 -21.5q-227 0 -353 133.5t-126 370.5zM334 1548h102l250 -303h-76z" />
<glyph unicode="&#xfa;" horiz-adv-x="1308" d="M160 481v625h73v-627q0 -197 106.5 -314.5t305.5 -117.5q94 0 172 34t134.5 93t87 140t30.5 175v617h72v-1106h-70v266q-25 -61 -65.5 -114.5t-96 -92.5t-123 -60.5t-147.5 -21.5q-227 0 -353 133.5t-126 370.5zM592 1243l250 303h102l-276 -303h-76z" />
<glyph unicode="&#xfb;" horiz-adv-x="1308" d="M160 481v625h73v-627q0 -197 106.5 -314.5t305.5 -117.5q94 0 172 34t134.5 93t87 140t30.5 175v617h72v-1106h-70v266q-25 -61 -65.5 -114.5t-96 -92.5t-123 -60.5t-147.5 -21.5q-227 0 -353 133.5t-126 370.5zM371 1237l243 303h66l244 -303h-84l-195 240l-192 -240 h-82z" />
<glyph unicode="&#xfc;" horiz-adv-x="1308" d="M160 481v625h73v-627q0 -197 106.5 -314.5t305.5 -117.5q94 0 172 34t134.5 93t87 140t30.5 175v617h72v-1106h-70v266q-25 -61 -65.5 -114.5t-96 -92.5t-123 -60.5t-147.5 -21.5q-227 0 -353 133.5t-126 370.5zM416 1360q0 33 22.5 54.5t53.5 21.5q35 0 55 -21.5 t20 -54.5t-21.5 -54.5t-53.5 -21.5q-35 0 -55.5 21.5t-20.5 54.5zM721 1360q0 33 21.5 54.5t52.5 21.5q35 0 55 -21.5t20 -54.5t-20.5 -54.5t-54.5 -21.5q-33 0 -53.5 21.5t-20.5 54.5z" />
<glyph unicode="&#xfd;" horiz-adv-x="1193" d="M4 -246l55 56q35 -45 82 -74t119 -29q49 0 88 15.5t73 49t64.5 89t67.5 135.5l16 33l-499 1077h82l454 -991l445 991h82l-517 -1133q-39 -86 -75.5 -149.5t-78.5 -105.5t-91.5 -61t-112.5 -19q-88 0 -150.5 32.5t-103.5 83.5zM551 1249l250 303h102l-276 -303h-76z" />
<glyph unicode="&#xfe;" horiz-adv-x="1433" d="M174 -508v2122h76v-811q31 78 83 138t117.5 102t141.5 63.5t153 21.5q119 0 223.5 -44t182.5 -121.5t122 -183t44 -226.5q0 -123 -44 -227.5t-121 -182t-181.5 -122t-227.5 -44.5q-78 0 -152.5 23t-140 63.5t-117.5 101t-83 138.5v-811h-76zM244 553q0 -104 37.5 -195.5 t105.5 -160t159 -107.5t197 -39q104 0 194.5 38t158 105.5t105.5 158.5t38 200q0 106 -38 198.5t-105.5 160t-157.5 106.5t-195 39q-106 0 -197 -40t-159 -107.5t-105.5 -160t-37.5 -196.5z" />
<glyph unicode="&#xff;" horiz-adv-x="1193" d="M4 -246l55 56q35 -45 82 -74t119 -29q49 0 88 15.5t73 49t64.5 89t67.5 135.5l16 33l-499 1077h82l454 -991l445 991h82l-517 -1133q-39 -86 -75.5 -149.5t-78.5 -105.5t-91.5 -61t-112.5 -19q-88 0 -150.5 32.5t-103.5 83.5zM375 1366q0 33 22.5 54.5t53.5 21.5 q35 0 55 -21.5t20 -54.5t-21.5 -54.5t-53.5 -21.5q-35 0 -55.5 21.5t-20.5 54.5zM680 1366q0 33 21.5 54.5t52.5 21.5q35 0 55 -21.5t20 -54.5t-20.5 -54.5t-54.5 -21.5q-33 0 -53.5 21.5t-20.5 54.5z" />
<glyph unicode="&#x152;" horiz-adv-x="2697" d="M150 748q0 160 60 299t164.5 243.5t244 165t299.5 60.5q119 0 224 -33t194 -93.5t159 -143.5t113 -181v430h919v-72h-844v-639h844v-69h-844v-641h844v-74h-919v428q-43 -98 -112 -181t-158 -142.5t-195.5 -92t-224.5 -32.5q-160 0 -299.5 60t-244 164.5t-164.5 244 t-60 299.5zM227 748q0 -143 54.5 -269.5t147.5 -220.5t219.5 -148.5t269.5 -54.5t269 54.5t219 148.5t147.5 220t54.5 270q0 143 -54.5 270t-147.5 221t-219 148.5t-269 54.5t-269.5 -54.5t-219.5 -148.5t-147.5 -221t-54.5 -270z" />
<glyph unicode="&#x153;" horiz-adv-x="2447" d="M117 553q0 121 45 225.5t122.5 182t182 122.5t225.5 45q96 0 181 -28.5t154 -79.5t120 -122t78 -155q27 84 78 155t119.5 122t154.5 79.5t184 28.5q123 0 226.5 -43t179.5 -118.5t118 -180t42 -225.5v-35h-1067q4 -102 42.5 -189t105.5 -151.5t157 -101.5t198 -37 q162 0 278 71.5t179 200.5l64 -32q-78 -143 -206 -226.5t-313 -83.5q-102 0 -190 28t-156.5 78t-119 118.5t-76.5 150.5q-29 -82 -80 -150.5t-120 -118.5t-153 -78t-178 -28q-121 0 -225.5 45.5t-182 123t-122.5 182t-45 225.5zM195 553q0 -104 38.5 -196.5t106.5 -161 t158 -108.5t194 -40t194.5 40t157 108.5t105.5 161t39 196.5t-39 196.5t-105.5 161t-156.5 108.5t-195 40q-104 0 -194 -40t-158 -108.5t-106.5 -161t-38.5 -196.5zM1262 598h987q-6 98 -44 183t-101.5 147.5t-151 97.5t-191.5 35q-100 0 -187 -36t-153.5 -98.5 t-108.5 -146.5t-50 -182z" />
<glyph unicode="&#x178;" horiz-adv-x="1341" d="M82 1495h90l498 -840l501 840h89l-553 -911v-584h-76v578zM449 1751q0 33 22.5 54.5t52.5 21.5q35 0 55.5 -21.5t20.5 -54.5t-21.5 -54.5t-54.5 -21.5q-35 0 -55 21.5t-20 54.5zM754 1751q0 33 21.5 54.5t51.5 21.5q35 0 55.5 -21.5t20.5 -54.5t-20.5 -54.5t-55.5 -21.5 q-33 0 -53 21.5t-20 54.5z" />
<glyph unicode="&#x2c6;" horiz-adv-x="1069" d="M258 1260l244 303h65l244 -303h-84l-195 239l-192 -239h-82z" />
<glyph unicode="&#x2dc;" horiz-adv-x="1069" d="M174 1274q0 90 50 143t128 53q51 0 96.5 -20t88.5 -49q43 -25 85 -47.5t83 -22.5q55 0 88.5 32t33.5 101h64q0 -94 -49 -146t-137 -52q-57 0 -104.5 23.5t-92.5 49.5q-41 25 -78 45.5t-78 20.5q-47 0 -80.5 -33t-33.5 -98h-64z" />
<glyph unicode="&#x2000;" horiz-adv-x="985" />
<glyph unicode="&#x2001;" horiz-adv-x="1970" />
<glyph unicode="&#x2002;" horiz-adv-x="985" />
<glyph unicode="&#x2003;" horiz-adv-x="1970" />
<glyph unicode="&#x2004;" horiz-adv-x="656" />
<glyph unicode="&#x2005;" horiz-adv-x="492" />
<glyph unicode="&#x2006;" horiz-adv-x="328" />
<glyph unicode="&#x2007;" horiz-adv-x="328" />
<glyph unicode="&#x2008;" horiz-adv-x="246" />
<glyph unicode="&#x2009;" horiz-adv-x="394" />
<glyph unicode="&#x200a;" horiz-adv-x="109" />
<glyph unicode="&#x2010;" d="M127 485v68h758v-68h-758z" />
<glyph unicode="&#x2011;" d="M127 485v68h758v-68h-758z" />
<glyph unicode="&#x2012;" d="M127 485v68h758v-68h-758z" />
<glyph unicode="&#x2013;" horiz-adv-x="1112" d="M127 485v68h860v-68h-860z" />
<glyph unicode="&#x2014;" horiz-adv-x="1521" d="M127 485v68h1270v-68h-1270z" />
<glyph unicode="&#x2018;" horiz-adv-x="432" d="M119 1247q0 80 47 151.5t119 114.5l26 -43q-63 -33 -100 -94.5t-37 -120.5q0 -33 12 -51v6q0 55 58 56q29 0 48 -18.5t19 -53.5q0 -33 -22.5 -56.5t-61.5 -23.5q-53 0 -80.5 38t-27.5 95z" />
<glyph unicode="&#x2019;" horiz-adv-x="432" d="M127 1149q63 33 100 95.5t37 121.5q0 29 -12 47v-2q0 -57 -57 -57q-29 0 -48.5 19.5t-19.5 53.5q0 33 22.5 55.5t61.5 22.5q53 0 80.5 -36.5t27.5 -94.5q0 -80 -47 -151.5t-118 -114.5z" />
<glyph unicode="&#x201a;" horiz-adv-x="403" d="M111 66q0 33 22.5 55t61.5 22q53 0 80.5 -36.5t27.5 -94.5q0 -82 -47 -153.5t-119 -114.5l-26 43q63 33 100 95.5t37 121.5q0 29 -10 45q0 -57 -58 -57q-29 0 -49 19.5t-20 54.5z" />
<glyph unicode="&#x201c;" horiz-adv-x="720" d="M119 1247q0 80 47 151.5t119 114.5l26 -43q-63 -33 -100 -94.5t-37 -120.5q0 -33 12 -51v6q0 55 58 56q29 0 48 -18.5t19 -53.5q0 -33 -22.5 -56.5t-61.5 -23.5q-53 0 -80.5 38t-27.5 95zM408 1247q0 80 47 151.5t118 114.5l27 -43q-63 -33 -100 -94.5t-37 -120.5 q0 -27 10 -47v2q0 55 57 56q29 0 49.5 -18.5t20.5 -53.5q0 -33 -22.5 -56.5t-61.5 -23.5q-53 0 -80.5 38t-27.5 95z" />
<glyph unicode="&#x201d;" horiz-adv-x="720" d="M127 1149q63 33 100 95.5t37 121.5q0 29 -12 47v-2q0 -29 -15.5 -43t-37.5 -14q-31 0 -51.5 19.5t-20.5 53.5q0 33 22.5 55.5t61.5 22.5q53 0 80.5 -36.5t27.5 -94.5q0 -80 -47 -151.5t-118 -114.5zM414 1149q63 33 100 95.5t37 121.5q0 29 -10 45q0 -29 -15.5 -43 t-38.5 -14q-33 0 -53 19.5t-20 53.5q0 33 22.5 55.5t61.5 22.5q53 0 80.5 -36.5t27.5 -94.5q0 -80 -47 -151.5t-119 -114.5z" />
<glyph unicode="&#x201e;" horiz-adv-x="690" d="M111 66q0 33 22.5 55t61.5 22q53 0 80.5 -36.5t27.5 -94.5q0 -82 -47 -153.5t-119 -114.5l-26 43q63 33 100 95.5t37 121.5q0 29 -10 45q0 -29 -15.5 -43t-38.5 -14q-33 0 -53 19.5t-20 54.5zM399 66q0 33 22.5 55t61.5 22q53 0 81 -36.5t28 -94.5q0 -82 -47 -153.5 t-119 -114.5l-27 43q63 33 100.5 95.5t37.5 121.5q0 29 -13 47v-2q0 -29 -15 -43t-38 -14q-31 0 -51.5 19.5t-20.5 54.5z" />
<glyph unicode="&#x2022;" horiz-adv-x="595" d="M203 516q0 41 27.5 68.5t68.5 27.5q39 0 66.5 -27.5t27.5 -68.5q0 -39 -27.5 -66.5t-66.5 -27.5q-41 0 -68.5 27.5t-27.5 66.5z" />
<glyph unicode="&#x2026;" horiz-adv-x="1058" d="M123 66q0 33 21.5 54t54.5 21q35 0 56 -21.5t21 -53.5q0 -35 -21.5 -57.5t-55.5 -22.5q-35 0 -55.5 22.5t-20.5 57.5zM453 66q0 33 21.5 54t53.5 21q35 0 56.5 -21.5t21.5 -53.5q0 -35 -21.5 -57.5t-56.5 -22.5t-55 22.5t-20 57.5zM782 66q0 33 21.5 54t54.5 21 q35 0 56.5 -21.5t21.5 -53.5q0 -35 -21.5 -57.5t-56.5 -22.5t-55.5 22.5t-20.5 57.5z" />
<glyph unicode="&#x202f;" horiz-adv-x="394" />
<glyph unicode="&#x2039;" horiz-adv-x="618" d="M162 485v54l297 243v-69l-246 -203l246 -199v-69z" />
<glyph unicode="&#x203a;" horiz-adv-x="618" d="M162 242v69l246 201l-246 201v71l297 -243v-56z" />
<glyph unicode="&#x205f;" horiz-adv-x="492" />
<glyph unicode="&#x20ac;" horiz-adv-x="1773" d="M88 465v65h199q-16 51 -23.5 105.5t-7.5 112.5q0 113 31 217h-199v65h221q43 106 114 195.5t164 154t203.5 100.5t231.5 36q172 0 317.5 -68t249.5 -184l-53 -50q-94 104 -225 168t-289 64q-106 0 -203.5 -31t-178.5 -86t-145.5 -131t-103.5 -168h912l-17 -65h-919 q-16 -53 -24.5 -107.5t-8.5 -109.5q0 -57 7 -111.5t24 -106.5h802l-16 -65h-760q39 -90 103.5 -166t145.5 -130t178 -85t206 -31q160 0 294 62.5t228 173.5l62 -43q-106 -123 -256 -194.5t-328 -71.5q-123 0 -233.5 35.5t-204.5 100t-165 153.5t-114 196h-219z" />
<glyph unicode="&#x2122;" horiz-adv-x="1421" d="M84 1442v53h461v-53h-201v-541h-59v541h-201zM635 901v594h53l273 -360l276 360h51v-594h-61v488l-266 -347l-269 349v-490h-57z" />
<glyph unicode="&#x25fc;" horiz-adv-x="1105" d="M0 0v1106h1106v-1106h-1106z" />
<glyph unicode="&#xfb01;" horiz-adv-x="1153" d="M53 1040v66h203v131q0 115 16.5 188.5t58.5 115.5t113.5 58.5t182.5 16.5h26v-72h-20q-92 0 -151.5 -10t-93.5 -43t-46 -94.5t-12 -161.5v-129h323v-66h-323v-1040h-74v1040h-203zM864 1452q0 35 22.5 56.5t55.5 21.5q35 0 57.5 -21.5t22.5 -56.5t-22.5 -57.5 t-57.5 -22.5t-56.5 22.5t-21.5 57.5zM905 0v1106h74v-1106h-74z" />
<glyph unicode="&#xfb02;" horiz-adv-x="1153" d="M53 1040v66h203v131q0 115 16.5 188.5t58.5 115.5t113.5 58.5t182.5 16.5h26v-72h-20q-92 0 -151.5 -10t-93.5 -43t-46 -94.5t-12 -161.5v-129h323v-66h-323v-1040h-74v1040h-203zM905 0v1616h74v-1616h-74z" />
</font>
</defs>
</svg>
