<svg xmlns="http://www.w3.org/2000/svg" width="40" height="40" viewBox="0 0 40 40">
  <g id="icon-linkedin" transform="translate(-1278 -591.726)">
    <path id="Path_8825" data-name="Path 8825" d="M1203.491,398.636l-10,10v30h30l10-10v-30Z" transform="translate(84.509 193.09)" fill="#b065ff"/>
    <path id="Path_6333" data-name="Path 6333" d="M1166.295,425.785h-3.377V414.932h3.377Zm-1.689-12.338a1.956,1.956,0,1,1,1.956-1.957,1.957,1.957,0,0,1-1.956,1.957m14.322,12.338h-3.37v-5.277c0-1.26-.024-2.879-1.754-2.879-1.754,0-2.02,1.371-2.02,2.787v5.37h-3.375V414.932h3.237v1.482h.046a3.544,3.544,0,0,1,3.192-1.754c3.414,0,4.044,2.248,4.044,5.171Z" transform="translate(127.157 194.066)" fill="#fff"/>
  </g>
</svg>
