<svg xmlns="http://www.w3.org/2000/svg" width="30.021" height="30.021" viewBox="0 0 30.021 30.021">
  <g id="icon-print" transform="translate(366 184)">
    <g id="Group_38704" data-name="Group 38704" transform="translate(-366 -184)">
      <path id="Path_8831" data-name="Path 8831" d="M-343.485-153.979h-15.01a.627.627,0,0,0-.106-.045,2.627,2.627,0,0,1-2.18-2.717q0-1.772,0-3.544v-.32c-.307,0-.57,0-.833,0a4.41,4.41,0,0,1-4.241-3.28c-.052-.2-.1-.393-.144-.589v-8.091a.991.991,0,0,0,.055-.16,4.37,4.37,0,0,1,3.744-3.658c.459-.061.928-.051,1.419-.075v-.32c0-.956-.006-1.912,0-2.868a4.41,4.41,0,0,1,3.307-4.217c.186-.048.374-.09.561-.135h11.844a.435.435,0,0,0,.1.048,4.388,4.388,0,0,1,3.768,4.48q0,1.361,0,2.722v.315c.321,0,.594,0,.867,0a4.4,4.4,0,0,1,4.18,3.2c.063.222.114.448.171.672v8.091a.964.964,0,0,0-.055.16,4.369,4.369,0,0,1-3.748,3.659c-.459.061-.928.052-1.415.076,0,.114,0,.219,0,.325,0,1.23.009,2.46,0,3.69a2.616,2.616,0,0,1-1.753,2.431C-343.128-154.073-343.308-154.031-343.485-153.979ZM-341.2-165.3v2.932h.684a2.643,2.643,0,0,0,2.775-2.783q0-3.371,0-6.741a3.209,3.209,0,0,0-.025-.5,2.629,2.629,0,0,0-2.712-2.292q-7.694,0-15.387,0c-1.915,0-3.83-.008-5.745,0a2.616,2.616,0,0,0-2.627,2.6c-.014,2.374-.007,4.748,0,7.122a2.49,2.49,0,0,0,.507,1.5,2.956,2.956,0,0,0,2.931,1.066V-165.3c-.191,0-.366.007-.539,0a.886.886,0,0,1-.848-.817.882.882,0,0,1,.7-.918,1.857,1.857,0,0,1,.379-.021h20.223c.068,0,.137,0,.205,0a.885.885,0,0,1,.886.87.883.883,0,0,1-.9.888C-340.845-165.293-341-165.3-341.2-165.3Zm-17.825.012v.323q0,4.073,0,8.147c0,.749.323,1.076,1.063,1.076h13.949a.917.917,0,0,0,1.054-1.056q0-4.088,0-8.176v-.314Zm.048-11.17h16.009c0-1.14.048-2.263-.012-3.382a2.57,2.57,0,0,0-2.545-2.4q-5.464-.022-10.928,0a2.49,2.49,0,0,0-2.5,2.163C-359.06-178.883-358.974-177.677-358.974-176.455Z" transform="translate(366 184)" fill="#b065ff"/>
      <path id="Path_8832" data-name="Path 8832" d="M-298.7,10.736c-.448,0-.9,0-1.345,0a.887.887,0,0,1-.941-.87.887.887,0,0,1,.954-.887q1.331,0,2.662,0a.886.886,0,0,1,.956.885.89.89,0,0,1-.968.873C-297.82,10.738-298.258,10.736-298.7,10.736Z" transform="translate(304.796 2.339)" fill="#b065ff"/>
      <path id="Path_8833" data-name="Path 8833" d="M-161.76,168.994q1.112,0,2.224,0a.9.9,0,0,1,1,.871.892.892,0,0,1-.984.887q-2.239,0-4.478,0a.892.892,0,0,1-.985-.886.9.9,0,0,1,1-.872Q-162.872,168.993-161.76,168.994Z" transform="translate(176.77 -148.297)" fill="#b065ff"/>
      <path id="Path_8834" data-name="Path 8834" d="M-161.761,232.991c.751,0,1.5,0,2.253,0a.89.89,0,0,1,.972.87.891.891,0,0,1-.983.888q-2.239,0-4.478,0a.893.893,0,0,1-.987-.885.9.9,0,0,1,1-.873Q-162.873,232.989-161.761,232.991Z" transform="translate(176.77 -208.54)" fill="#b065ff"/>
    </g>
  </g>
</svg>
