<svg xmlns="http://www.w3.org/2000/svg" width="40" height="40" viewBox="0 0 40 40">
  <g id="icon-email" transform="translate(-1278 -651.726)">
    <path id="Path_8826" data-name="Path 8826" d="M1203.491,398.636l-10,10v30h30l10-10v-30Z" transform="translate(84.509 253.09)" fill="#b065ff"/>
    <g id="Group_38703" data-name="Group 38703" transform="translate(1712.207 804.138)">
      <path id="Path_8827" data-name="Path 8827" d="M-387.987,56.994l7.335,7.337a1.422,1.422,0,0,1-.664.233,3.25,3.25,0,0,1-.351.011q-8.736,0-17.472,0a1.748,1.748,0,0,1-.977-.229l7.337-7.336c.3.222.625.464.95.707.361.27.721.543,1.083.813a.586.586,0,0,0,.7-.006c.387-.282.77-.571,1.155-.857Z" transform="translate(-23.865 -189.714)" fill="#fff"/>
      <path id="Path_8828" data-name="Path 8828" d="M-380-139.07l-1.216.91-8.109,6.046a.544.544,0,0,1-.76,0l-7.946-5.927-1.169-.87a.781.781,0,0,1-.2-.205c.206-.057.41-.121.619-.167a1.505,1.505,0,0,1,.317-.012q8.778,0,17.557,0a1.8,1.8,0,0,1,.8.157C-380.078-139.123-380.048-139.1-380-139.07Z" transform="translate(-24.556)" fill="#fff"/>
      <path id="Path_8829" data-name="Path 8829" d="M-424.547-104.961a1.686,1.686,0,0,1-.262-.971q0-5.334,0-10.667a1.761,1.761,0,0,1,.224-.915c.019-.032.043-.062.075-.105l7.228,5.391Z" transform="translate(0 -20.952)" fill="#fff"/>
      <path id="Path_8830" data-name="Path 8830" d="M-19.29-113.01l7.246-5.4c.084.238.169.447.229.662a1.372,1.372,0,0,1,.032.366q0,5.35,0,10.7a1.655,1.655,0,0,1-.25.938Z" transform="translate(-391.931 -20.183)" fill="#fff"/>
    </g>
  </g>
</svg>
