<svg xmlns="http://www.w3.org/2000/svg" width="40" height="40" viewBox="0 0 40 40">
  <g id="icon-twitter" transform="translate(-1278 -531.726)">
    <path id="Path_8824" data-name="Path 8824" d="M1203.491,398.636l-10,10v30h30l10-10v-30Z" transform="translate(84.509 133.09)" fill="#b065ff"/>
    <path id="Path_6331" data-name="Path 6331" d="M1038.517,421.6a10.579,10.579,0,0,0,10.652-10.652c0-.161,0-.323-.011-.483a7.633,7.633,0,0,0,1.868-1.938,7.478,7.478,0,0,1-2.151.589,3.756,3.756,0,0,0,1.646-2.071,7.482,7.482,0,0,1-2.378.908,3.747,3.747,0,0,0-6.379,3.414,10.627,10.627,0,0,1-7.716-3.911,3.747,3.747,0,0,0,1.16,5,3.73,3.73,0,0,1-1.7-.469v.047a3.747,3.747,0,0,0,3,3.67,3.72,3.72,0,0,1-1.69.063,3.748,3.748,0,0,0,3.5,2.6,7.5,7.5,0,0,1-4.649,1.605,7.68,7.68,0,0,1-.891-.053,10.6,10.6,0,0,0,5.737,1.678" transform="translate(256.078 138.179)" fill="#fff"/>
  </g>
</svg>
