<svg id="icon-share" xmlns="http://www.w3.org/2000/svg" xmlns:xlink="http://www.w3.org/1999/xlink" width="26.979" height="30.021" viewBox="0 0 26.979 30.021">
  <defs>
    <clipPath id="clip-path">
      <rect id="Rectangle_6806" data-name="Rectangle 6806" width="26.979" height="30.021" fill="#b065ff"/>
    </clipPath>
  </defs>
  <g id="Group_38702" data-name="Group 38702" clip-path="url(#clip-path)">
    <path id="Path_8823" data-name="Path 8823" d="M23.054,29.968A4.369,4.369,0,0,0,26.8,26.216a4.325,4.325,0,0,0-3.371-4.824,4.12,4.12,0,0,0-3.8.929.28.28,0,0,1-.4.033Q14.093,19.3,8.943,16.264a.249.249,0,0,1-.142-.335,3.741,3.741,0,0,0,0-1.711c-.036-.153-.017-.214.118-.291q5.181-2.984,10.353-5.983a.249.249,0,0,1,.347.046,4.284,4.284,0,0,0,4.55.735A4.15,4.15,0,0,0,26.92,5.262,4.4,4.4,0,0,0,23.907.232a4.483,4.483,0,0,0-5.961,4.237,2.559,2.559,0,0,0,.1.983c.066.171-.075.194-.17.249L14.134,7.866Q10.907,9.732,7.683,11.6a.4.4,0,0,1-.548-.044,4.325,4.325,0,0,0-4.489-.68,3.892,3.892,0,0,0-2.588,3.3,4.39,4.39,0,0,0,2.592,4.883,4.3,4.3,0,0,0,4.734-.682.232.232,0,0,1,.324-.029q5.181,3.072,10.368,6.135c.138.082.149.151.113.3a4.359,4.359,0,0,0,3.682,5.182c.046,0,.1-.009.119.053h.762c.091-.07.207.005.3-.052" transform="translate(0 0)" fill="#b065ff"/>
  </g>
</svg>
