<svg xmlns="http://www.w3.org/2000/svg" width="30.021" height="30.021" viewBox="0 0 30.021 30.021">
  <g id="icon-download" transform="translate(366 184)">
    <g id="Group_38706" data-name="Group 38706" transform="translate(-366 -184)">
      <path id="Path_8835" data-name="Path 8835" d="M-366,158.269a1.4,1.4,0,0,1,.9-.927,1.256,1.256,0,0,1,1.606,1.282c.008,1.485.044,2.972-.01,4.454-.045,1.227.5,1.733,1.731,1.728,7.269-.029,14.537-.014,21.806-.016a2.289,2.289,0,0,0,.58-.049,1.216,1.216,0,0,0,.9-1.252q.007-2.4,0-4.807a1.365,1.365,0,0,1,.348-1,1.25,1.25,0,0,1,2.039.323c.041.086.08.173.121.26v5.746a.72.72,0,0,0-.051.132,3.751,3.751,0,0,1-2.9,3.064c-.112.026-.223.058-.334.087h-23.454a.731.731,0,0,0-.132-.051,3.751,3.751,0,0,1-3.065-2.9c-.026-.112-.058-.223-.087-.334Z" transform="translate(366 -137.279)" fill="#b065ff"/>
      <path id="Path_8836" data-name="Path 8836" d="M-222.79-184a.582.582,0,0,0,.092.06,1.234,1.234,0,0,1,.859,1.26c0,1.485,0,2.97,0,4.456q0,7.182-.006,14.364v.39c.115-.106.191-.17.262-.24,1.113-1.112,2.22-2.229,3.338-3.336a1.243,1.243,0,0,1,2.1.525,1.168,1.168,0,0,1-.3,1.193c-1.371,1.378-2.725,2.776-4.134,4.116a3.669,3.669,0,0,1-5.032-.007c-1.413-1.349-2.779-2.748-4.154-4.137a1.22,1.22,0,0,1,.013-1.761,1.237,1.237,0,0,1,1.765.015c1.12,1.1,2.228,2.222,3.341,3.333.074.074.152.145.292.278,0-.188,0-.308,0-.427.006-6.156.02-12.312.006-18.468a1.5,1.5,0,0,1,.964-1.613Z" transform="translate(238.093 184)" fill="#b065ff"/>
    </g>
  </g>
</svg>
